<svg xmlns="http://www.w3.org/2000/svg" width="364.382" height="324.646" viewBox="0 0 364.382 324.646"><g transform="translate(-951.333 -174.591)"><g transform="translate(-143.118 -794.368)"><path d="M1308.6,979.3c53.613.472,175.628,241.182,129.41,295.531s-348.007-8.517-334.841-86.158S1254.988,978.83,1308.6,979.3Z" transform="translate(-8.3 -1.65)" fill="#fff" opacity="0.2"/><path d="M1398,970.368s137.338,115.082,121.393,293.946" transform="translate(-62.853)" fill="none" stroke="#fff" stroke-linecap="round" stroke-linejoin="round" stroke-width="2" stroke-dasharray="12"/></g><g transform="translate(-31.525 -388.8)"><g transform="translate(982.858 595.8)"><g transform="translate(0 135.042)"><g transform="translate(26.431 25.765)"><path d="M1106.874,847.269c-.631-8.846-4.937-13.127-9.924-18.084-5.571-5.536-11.875-11.808-13.369-25.618-3.111-28.854-20.036-37.03-20.207-37.109l1.114-2.4c.756.348,18.462,8.9,21.729,39.226,1.392,12.88,7.092,18.544,12.6,24.024,5.141,5.11,9.994,9.939,10.7,19.774Z" transform="translate(-1006.077 -749.895)" fill="#9ad1d4"/><g transform="translate(7.605 10.77)"><rect width="72.534" height="68.307" fill="#5eb3b9"/><g transform="translate(0 2.951)"><rect width="72.534" height="2.654" transform="translate(0 30.032)" fill="#9ad1d4"/><rect width="72.534" height="2.65" transform="translate(0 48.053)" fill="#9ad1d4"/><rect width="72.534" height="2.651" transform="translate(0 36.041)" fill="#9ad1d4"/><rect width="72.534" height="2.648" transform="translate(0 42.046)" fill="#9ad1d4"/><rect width="72.534" height="2.651" transform="translate(0 54.061)" fill="#9ad1d4"/><rect width="72.534" height="2.648" transform="translate(0 60.068)" fill="#9ad1d4"/><rect width="72.534" height="2.651" transform="translate(0 24.026)" fill="#9ad1d4"/><rect width="72.534" height="2.651" fill="#9ad1d4"/><rect width="72.534" height="2.651" transform="translate(0 6.006)" fill="#9ad1d4"/><rect width="72.534" height="2.648" transform="translate(0 18.022)" fill="#9ad1d4"/><rect width="72.534" height="2.648" transform="translate(0 12.015)" fill="#9ad1d4"/></g></g><path d="M1096.025,757.513a3.7,3.7,0,0,1-3.7,3.694h-80.354a3.7,3.7,0,0,1-3.7-3.694v-3.382a3.694,3.694,0,0,1,3.7-3.694h80.354a3.7,3.7,0,0,1,3.7,3.694Z" transform="translate(-1008.275 -750.438)" fill="#6a6d79"/><path d="M1096.025,833.558a3.7,3.7,0,0,1-3.7,3.7h-80.354a3.7,3.7,0,0,1-3.7-3.7v-3.385a3.694,3.694,0,0,1,3.7-3.693h80.354a3.7,3.7,0,0,1,3.7,3.693Z" transform="translate(-1008.275 -747.404)" fill="#6a6d79"/></g><path d="M1069.344,826.24c-.632-8.844-4.938-13.125-9.925-18.083-5.57-5.533-11.88-11.8-13.368-25.621-3.112-28.85-20.042-37.026-20.208-37.1l1.115-2.408c.75.35,18.456,8.9,21.729,39.227,1.392,12.881,7.086,18.547,12.6,24.026,5.136,5.112,9.994,9.938,10.7,19.774Z" transform="translate(-981.143 -724.968)" fill="#f99b35"/><g transform="translate(0 11.079)"><path d="M6.372,0h47.29a6.371,6.371,0,0,1,6.371,6.371V87.086a6.371,6.371,0,0,1-6.371,6.371H6.371A6.371,6.371,0,0,1,0,87.086V6.372A6.372,6.372,0,0,1,6.372,0Z" fill="#2287cb"/><g transform="translate(0 3.357)"><rect width="60.034" height="2.654" transform="translate(0 42.043)" fill="#5eabdb"/><rect width="60.034" height="2.651" transform="translate(0 60.066)" fill="#5eabdb"/><rect width="60.034" height="2.648" transform="translate(0 48.054)" fill="#5eabdb"/><rect width="60.034" height="2.648" transform="translate(0 54.06)" fill="#5eabdb"/><rect width="60.034" height="2.648" transform="translate(0 66.073)" fill="#5eabdb"/><path d="M1042,823.059a6.644,6.644,0,0,0,.835-2.65H982.92a6.571,6.571,0,0,0,.83,2.65Z" transform="translate(-982.856 -736.317)" fill="#5eabdb"/><rect width="60.034" height="2.648" transform="translate(0 72.08)" fill="#5eabdb"/><rect width="60.034" height="2.651" transform="translate(0 78.085)" fill="#5eabdb"/><rect width="60.034" height="2.65" transform="translate(0 6.006)" fill="#5eabdb"/><rect width="60.034" height="2.649" transform="translate(0 36.039)" fill="#5eabdb"/><rect width="60.034" height="2.651" transform="translate(0 12.011)" fill="#5eabdb"/><path d="M983.75,739.543a6.572,6.572,0,0,0-.83,2.649h59.91a6.645,6.645,0,0,0-.835-2.649Z" transform="translate(-982.856 -739.543)" fill="#5eabdb"/><rect width="60.034" height="2.654" transform="translate(0 18.017)" fill="#5eabdb"/><rect width="60.034" height="2.648" transform="translate(0 30.034)" fill="#5eabdb"/><rect width="60.034" height="2.651" transform="translate(0 24.026)" fill="#5eabdb"/></g></g><g transform="translate(15.827)"><rect width="28.381" height="8.65" transform="translate(0 2.429)" fill="#5eb3b9"/><path d="M1026.458,728.09c0-1.341-6.352-2.429-14.187-2.429s-14.192,1.088-14.192,2.429,6.357,2.429,14.192,2.429S1026.458,729.432,1026.458,728.09Z" transform="translate(-998.078 -725.661)" fill="#9ad1d4"/></g><path d="M998.078,826.186v8.647c0,1.344,6.357,2.433,14.192,2.433s14.187-1.09,14.187-2.433v-8.647Z" transform="translate(-982.251 -721.651)" fill="#5eb3b9"/></g><g transform="translate(61.471 35.768)"><g transform="translate(34.404)"><path d="M1078.13,684.091v57.326h2.4V684.109c.027-1.684.01-3.36,0-5.026a97.755,97.755,0,0,1,.3-10.493,37.563,37.563,0,0,1,4.285-13.434,37.844,37.844,0,0,1,24.648-18.578,12.188,12.188,0,0,1,1.928-.365c.375-.052.733-.1,1.226-.188a14.362,14.362,0,0,1,2-.23l1.939-.1-.124-2.393-1.879.1a15.531,15.531,0,0,0-2.309.255l-.236.041c-.294.055-.61.1-.937.139a14.562,14.562,0,0,0-2.217.424,39.731,39.731,0,0,0-30.705,34.066,98.692,98.692,0,0,0-.311,10.774C1078.146,680.749,1078.156,682.409,1078.13,684.091Z" transform="translate(-1074.933 -630.072)" fill="#cbcdd0"/><rect width="2.395" height="8.787" transform="translate(40.528 0.074) rotate(-1.781)" fill="#cbcdd0"/><rect width="2.396" height="8.786" transform="translate(35.857 0.607) rotate(-7.989)" fill="#cbcdd0"/><rect width="2.394" height="8.787" transform="matrix(0.969, -0.247, 0.247, 0.969, 31.267, 1.645)" fill="#cbcdd0"/><rect width="2.393" height="8.786" transform="matrix(0.936, -0.352, 0.352, 0.936, 26.816, 3.181)" fill="#cbcdd0"/><rect width="2.396" height="8.785" transform="translate(22.559 5.191) rotate(-26.897)" fill="#cbcdd0"/><rect width="2.398" height="8.787" transform="matrix(0.837, -0.547, 0.547, 0.837, 18.543, 7.649)" fill="#cbcdd0"/><rect width="2.397" height="8.789" transform="translate(14.82 10.521) rotate(-39.411)" fill="#cbcdd0"/><path d="M1092.354,649.679l-6.288-6.142,1.682-1.714,6.277,6.143Z" transform="translate(-1074.616 -629.732)" fill="#cbcdd0"/><rect width="2.396" height="8.788" transform="translate(8.462 17.437) rotate(-51.88)" fill="#cbcdd0"/><path d="M1088.171,655.463l-7.461-4.64,1.259-2.034,7.461,4.638Z" transform="translate(-1074.829 -629.454)" fill="#cbcdd0"/><rect width="2.398" height="8.786" transform="matrix(0.432, -0.902, 0.902, 0.432, 3.734, 25.56)" fill="#cbcdd0"/><rect width="2.396" height="8.784" transform="translate(2.057 29.958) rotate(-70.711)" fill="#cbcdd0"/><rect width="2.395" height="8.786" transform="matrix(0.225, -0.974, 0.974, 0.225, 0.866, 34.511)" fill="#cbcdd0"/><rect width="2.397" height="8.787" transform="translate(0.184 39.17) rotate(-83.309)" fill="#cbcdd0"/><rect width="2.397" height="8.789" transform="matrix(0.009, -1, 1, 0.009, 0.011, 43.867)" fill="#cbcdd0"/><rect width="8.789" height="2.396" transform="translate(0 45.736)" fill="#cbcdd0"/><rect width="8.789" height="2.397" transform="translate(0 49.963)" fill="#cbcdd0"/><rect width="8.789" height="2.397" transform="translate(0 54.19)" fill="#cbcdd0"/><rect width="8.789" height="2.397" transform="translate(0 58.418)" fill="#cbcdd0"/><rect width="8.789" height="2.396" transform="translate(0 62.645)" fill="#cbcdd0"/><rect width="8.789" height="2.397" transform="translate(0 66.873)" fill="#cbcdd0"/><rect width="8.789" height="2.397" transform="translate(0 71.1)" fill="#cbcdd0"/><rect width="8.789" height="2.397" transform="translate(0 75.329)" fill="#cbcdd0"/><rect width="8.789" height="2.398" transform="translate(0 79.554)" fill="#cbcdd0"/><rect width="8.789" height="2.395" transform="translate(0 83.785)" fill="#cbcdd0"/><rect width="8.789" height="2.398" transform="translate(0 88.009)" fill="#cbcdd0"/><rect width="8.789" height="2.396" transform="translate(0 92.239)" fill="#cbcdd0"/><rect width="8.789" height="2.397" transform="translate(0 96.463)" fill="#cbcdd0"/><rect width="8.789" height="2.397" transform="translate(0 100.691)" fill="#cbcdd0"/><rect width="8.789" height="2.397" transform="translate(0 104.918)" fill="#cbcdd0"/><rect width="8.789" height="2.199" transform="translate(0 109.147)" fill="#cbcdd0"/></g><g transform="translate(0 0)"><path d="M1047.3,636.048c.338.065.69.113,1.066.165a12.658,12.658,0,0,1,2,.384,37.311,37.311,0,0,1,28.857,31.976,96.619,96.619,0,0,1,.3,10.51c-.01,1.666-.022,3.342,0,5.008v57.326h2.4V684.075c-.027-1.666-.016-3.326,0-4.974a99.148,99.148,0,0,0-.321-10.792,39.92,39.92,0,0,0-30.625-34.026,14.692,14.692,0,0,0-2.292-.446c-.332-.043-.643-.084-.937-.139l-.236-.041a15.862,15.862,0,0,0-2.244-.255l-1.945-.1-.123,2.393,2,.1A16.182,16.182,0,0,1,1047.3,636.048Z" transform="translate(-1041.922 -630.072)" fill="#cbcdd0"/><rect width="8.788" height="2.398" transform="matrix(0.032, -0.999, 0.999, 0.032, 0, 8.784)" fill="#cbcdd0"/><rect width="8.787" height="2.396" transform="translate(3.747 8.977) rotate(-81.967)" fill="#cbcdd0"/><rect width="8.786" height="2.396" transform="matrix(0.248, -0.969, 0.969, 0.248, 7.438, 9.569)" fill="#cbcdd0"/><rect width="8.788" height="2.394" transform="translate(11.053 10.568) rotate(-69.454)" fill="#cbcdd0"/><rect width="8.788" height="2.396" transform="matrix(0.453, -0.892, 0.892, 0.453, 14.525, 11.943)" fill="#cbcdd0"/><rect width="8.787" height="2.398" transform="matrix(0.546, -0.838, 0.838, 0.546, 17.844, 13.696)" fill="#cbcdd0"/><rect width="8.789" height="2.397" transform="matrix(0.635, -0.773, 0.773, 0.635, 20.946, 15.789)" fill="#cbcdd0"/><rect width="8.789" height="2.398" transform="matrix(0.713, -0.701, 0.701, 0.713, 23.791, 18.245)" fill="#cbcdd0"/><path d="M1068.782,652.463l-1.478-1.888,6.909-5.423,1.484,1.885Z" transform="translate(-1040.96 -629.599)" fill="#cbcdd0"/><rect width="8.786" height="2.396" transform="translate(28.592 23.973) rotate(-31.846)" fill="#cbcdd0"/><rect width="8.784" height="2.397" transform="translate(30.503 27.188) rotate(-25.545)" fill="#cbcdd0"/><rect width="8.787" height="2.394" transform="translate(32.054 30.602) rotate(-19.329)" fill="#cbcdd0"/><rect width="8.786" height="2.396" transform="translate(33.227 34.155) rotate(-13.03)" fill="#cbcdd0"/><rect width="8.787" height="2.397" transform="translate(34.004 37.821) rotate(-6.799)" fill="#cbcdd0"/><path d="M1075.05,672.549l-.016-2.4,8.789-.076.016,2.4Z" transform="translate(-1040.652 -628.605)" fill="#cbcdd0"/><rect width="8.789" height="2.396" transform="translate(34.404 45.735)" fill="#cbcdd0"/><rect width="8.789" height="2.397" transform="translate(34.404 49.962)" fill="#cbcdd0"/><rect width="8.789" height="2.397" transform="translate(34.404 54.189)" fill="#cbcdd0"/><rect width="8.789" height="2.397" transform="translate(34.404 58.418)" fill="#cbcdd0"/><rect width="8.789" height="2.396" transform="translate(34.404 62.645)" fill="#cbcdd0"/><rect width="8.789" height="2.397" transform="translate(34.404 66.872)" fill="#cbcdd0"/><rect width="8.789" height="2.397" transform="translate(34.404 71.099)" fill="#cbcdd0"/><rect width="8.789" height="2.397" transform="translate(34.404 75.329)" fill="#cbcdd0"/><rect width="8.789" height="2.398" transform="translate(34.404 79.553)" fill="#cbcdd0"/><rect width="8.789" height="2.395" transform="translate(34.404 83.785)" fill="#cbcdd0"/><rect width="8.789" height="2.398" transform="translate(34.404 88.009)" fill="#cbcdd0"/><rect width="8.789" height="2.396" transform="translate(34.404 92.239)" fill="#cbcdd0"/><rect width="8.789" height="2.397" transform="translate(34.404 96.463)" fill="#cbcdd0"/><rect width="8.789" height="2.397" transform="translate(34.404 100.69)" fill="#cbcdd0"/><rect width="8.789" height="2.397" transform="translate(34.404 104.918)" fill="#cbcdd0"/><rect width="8.789" height="2.199" transform="translate(34.404 109.147)" fill="#cbcdd0"/></g><path d="M1085.253,661.091l-4.553-1.385a4.586,4.586,0,0,0-2.27,0l-4.553,1.385a1.811,1.811,0,0,0-1.205,1.531l-.45,7.336a3.607,3.607,0,0,0,.654,2.12l.466.591a7.044,7.044,0,0,1,1.055,2.075l.841,2.988a1.655,1.655,0,0,0,1.51,1.142h5.634a1.655,1.655,0,0,0,1.511-1.142l.84-2.988a7.093,7.093,0,0,1,1.055-2.075l.461-.591a3.624,3.624,0,0,0,.664-2.12l-.45-7.336A1.842,1.842,0,0,0,1085.253,661.091Z" transform="translate(-1040.764 -629.024)" fill="#f99b35"/><path d="M1074.627,665.884l1.313,14.516a1.782,1.782,0,0,0,1.741,1.593h3.578A1.782,1.782,0,0,0,1083,680.4l1.311-14.516a1.431,1.431,0,0,0-1.457-1.593h-6.77A1.438,1.438,0,0,0,1074.627,665.884Zm4.938,8.857h-.187a1.785,1.785,0,0,1-1.746-1.592l-.509-5.666a1.429,1.429,0,0,1,1.451-1.592h1.789a1.436,1.436,0,0,1,1.457,1.592l-.514,5.666A1.78,1.78,0,0,1,1079.566,674.741Z" transform="translate(-1040.668 -628.835)" fill="#ad6e27"/><path d="M1.539,0h.922A1.54,1.54,0,0,1,4,1.54V4.456A1.539,1.539,0,0,1,2.462,5.994H1.54A1.54,1.54,0,0,1,0,4.455V1.539A1.539,1.539,0,0,1,1.539,0Z" transform="translate(36.804 33.413)" fill="#fcae58"/></g><path d="M1278.033,652.5c-.364-5.142-2.866-7.635-5.763-10.512-3.24-3.214-6.9-6.863-7.776-14.891-1.805-16.765-11.649-21.524-11.751-21.568l.648-1.4c.445.2,10.733,5.178,12.635,22.8.808,7.486,4.118,10.785,7.327,13.967,2.988,2.97,5.806,5.777,6.223,11.491Z" transform="translate(-972.092 -595.468)" fill="#5eb3b9"/><g transform="translate(254.675 6.441)"><path d="M1262.657,652.464a3.85,3.85,0,0,1-3.846,3.853H1231.62a3.852,3.852,0,0,1-3.856-3.853V605.848a3.851,3.851,0,0,1,3.856-3.854h27.191a3.849,3.849,0,0,1,3.846,3.854Z" transform="translate(-1227.764 -601.994)" fill="#9ad1d4"/><g transform="translate(0 1.95)"><rect width="34.893" height="1.544" transform="translate(0 24.44)" fill="#5eb3b9"/><rect width="34.893" height="1.54" transform="translate(0 34.916)" fill="#5eb3b9"/><rect width="34.893" height="1.544" transform="translate(0 27.931)" fill="#5eb3b9"/><rect width="34.893" height="1.544" transform="translate(0 31.422)" fill="#5eb3b9"/><rect width="34.893" height="1.541" transform="translate(0 38.407)" fill="#5eb3b9"/><path d="M1262.13,652.412a3.69,3.69,0,0,0,.493-1.536h-34.818a3.616,3.616,0,0,0,.481,1.536Z" transform="translate(-1227.762 -601.994)" fill="#5eb3b9"/><rect width="34.893" height="1.537" transform="translate(0 41.901)" fill="#5eb3b9"/><rect width="34.893" height="1.536" transform="translate(0 45.392)" fill="#5eb3b9"/><rect width="34.893" height="1.541" transform="translate(0 3.491)" fill="#5eb3b9"/><rect width="34.893" height="1.544" transform="translate(0 20.949)" fill="#5eb3b9"/><rect width="34.893" height="1.541" transform="translate(0 6.982)" fill="#5eb3b9"/><path d="M1228.286,603.869a3.652,3.652,0,0,0-.481,1.541h34.818a3.727,3.727,0,0,0-.493-1.541Z" transform="translate(-1227.762 -603.869)" fill="#5eb3b9"/><rect width="34.893" height="1.544" transform="translate(0 10.473)" fill="#5eb3b9"/><rect width="34.893" height="1.544" transform="translate(0 17.459)" fill="#5eb3b9"/><rect width="34.893" height="1.54" transform="translate(0 13.968)" fill="#5eb3b9"/></g></g><g transform="translate(263.877)"><rect width="16.496" height="5.026" transform="translate(0 1.415)" fill="#8d8c8c"/><path d="M1253.108,597.215c0-.782-3.7-1.415-8.247-1.415s-8.248.633-8.248,1.415,3.691,1.408,8.248,1.408S1253.108,597.993,1253.108,597.215Z" transform="translate(-1236.612 -595.8)" fill="#717171"/></g><rect width="16.496" height="4.672" transform="translate(263.877 60.764)" fill="#8d8c8c"/><path d="M1092.4,671.717v86.158a12.986,12.986,0,0,0,12.987,12.99h32.767a12.991,12.991,0,0,0,12.994-12.99V745.1a12.986,12.986,0,0,1,12.983-12.991h35.374A12.994,12.994,0,0,1,1212.5,745.1v66.715h103.442v-140.1a12.987,12.987,0,0,0-12.987-12.991H1105.389A12.987,12.987,0,0,0,1092.4,671.717Z" transform="translate(-978.488 -593.29)" fill="#feecd8"/><path d="M1343.111,835.812V818.93a12.986,12.986,0,0,0-12.993-12.986H1074.167a12.988,12.988,0,0,0-12.987,12.986v16.882Z" transform="translate(-979.734 -587.417)" fill="#feecd8"/><g transform="translate(195.81 79.489)"><path d="M1212.257,692.794a20.55,20.55,0,1,1-20.55-20.555A20.558,20.558,0,0,1,1212.257,692.794Z" transform="translate(-1171.156 -672.24)" fill="#e8c7a8"/><path d="M1191.565,709.51a16.859,16.859,0,1,1,16.855-16.857A16.877,16.877,0,0,1,1191.565,709.51Zm0-32.085a15.225,15.225,0,1,0,15.226,15.228A15.244,15.244,0,0,0,1191.565,677.425Z" transform="translate(-1171.015 -672.098)" fill="#f79d5a"/></g><path d="M1310.4,676.577h-3.043v55.791h3.043a6.539,6.539,0,0,0,6.54-6.536v-42.72A6.539,6.539,0,0,0,1310.4,676.577Z" transform="translate(-969.913 -592.577)" fill="#f79d5a"/><path d="M1135.278,769.75v-3.155h-29.527v3.155a3.269,3.269,0,0,0,3.267,3.269h23A3.264,3.264,0,0,0,1135.278,769.75Z" transform="translate(-977.956 -588.986)" fill="#434453"/><path d="M1118.38,772.773v27.46c0,1.718.728,3.1,1.634,3.1s1.634-1.386,1.634-3.1v-27.46Zm1.634,28.949c-.434,0-.782-.663-.782-1.488s.348-1.489.782-1.489.782.668.782,1.489S1120.447,801.722,1120.014,801.722Z" transform="translate(-977.452 -588.74)" fill="#f99b35"/><path d="M1155.154,658.726h-6.341v89.7h.086V745.1a12.94,12.94,0,0,1,6.255-11.061Z" transform="translate(-976.238 -593.29)" fill="#f79d5a"/><path d="M1207.3,737.117h104.524v-7.822H1195.4A12.974,12.974,0,0,1,1207.3,737.117Z" transform="translate(-974.379 -590.474)" fill="#f79d5a"/><path d="M1292.1,799.874h-65.915a6.537,6.537,0,0,1-6.539-6.536V751.524a6.541,6.541,0,0,1,6.539-6.535H1292.1a6.532,6.532,0,0,1,6.528,6.535v41.814A6.528,6.528,0,0,1,1292.1,799.874Z" transform="translate(-973.412 -589.848)" fill="#f79d5a"/><g transform="translate(38.009 205.972)"><g transform="translate(0 6.484)"><path d="M1030.308,838.023a19.107,19.107,0,1,0,0-27.023A19.107,19.107,0,0,0,1030.308,838.023ZM1045.98,820.5a3.056,3.056,0,1,1,0-4.321A3.058,3.058,0,0,1,1045.98,820.5Zm-4.323,8.034a3.054,3.054,0,1,1,0,4.32A3.055,3.055,0,0,1,1041.657,828.53Z" transform="translate(-1019.198 -799.893)" fill="#cbcdd0"/><path d="M1019.409,824.723a24.621,24.621,0,1,0,24.62-24.618A24.621,24.621,0,0,0,1019.409,824.723Zm5.514,0a19.107,19.107,0,1,1,19.107,19.108A19.109,19.109,0,0,1,1024.922,824.723Z" transform="translate(-1019.409 -800.105)" fill="#e5e5e5"/></g><g transform="translate(28.683)"><path d="M1052.991,821.491a21.624,21.624,0,1,0,21.624-21.624A21.624,21.624,0,0,0,1052.991,821.491Zm23.109,4.945a3.457,3.457,0,1,1,3.458,3.458A3.457,3.457,0,0,1,1076.1,826.435Zm0-9.886a3.457,3.457,0,1,1,3.458,3.457A3.458,3.458,0,0,1,1076.1,816.549Zm-9.884,9.886a3.457,3.457,0,1,1,3.457,3.458A3.457,3.457,0,0,1,1066.215,826.435Zm0-9.886a3.457,3.457,0,1,1,3.457,3.457A3.457,3.457,0,0,1,1066.215,816.549Z" transform="translate(-1046.752 -793.631)" fill="#b66a93"/><path d="M1046.992,821.73a27.861,27.861,0,1,0,27.862-27.86A27.864,27.864,0,0,0,1046.992,821.73Zm6.238,0a21.624,21.624,0,1,1,21.624,21.625A21.625,21.625,0,0,1,1053.23,821.73Z" transform="translate(-1046.992 -793.87)" fill="#ad2564"/></g></g><g transform="translate(93.882 153.241)"><g transform="translate(0 15.324)"><g transform="translate(83.196 0.001)"><path d="M1180.078,762.351l-26.935,43.468,24.176-45.061Z" transform="translate(-1153.143 -757.785)" fill="#f99b35"/><path d="M1174.6,759.785a3.769,3.769,0,1,1,1.382,5.148A3.767,3.767,0,0,1,1174.6,759.785Z" transform="translate(-1152.307 -757.899)" fill="#b66a93"/></g><path d="M1078.192,760.757l24.176,45.061-26.934-43.468Z" transform="translate(-1073.047 -757.784)" fill="#f99b35"/><path d="M1073.645,763.551a3.769,3.769,0,1,1,5.142,1.381A3.762,3.762,0,0,1,1073.645,763.551Z" transform="translate(-1073.138 -757.898)" fill="#b66a93"/></g><path d="M1129.751,747.527c-.005-2.411-1.082-4.356-2.416-4.365-1.334.009-2.416,1.954-2.421,4.365,0,.006-.005.015-.005.024l.063,1.189,2.363,47.614,2.362-47.614.059-1.189C1129.756,747.542,1129.751,747.534,1129.751,747.527Zm-1.093,1.075c-.225.92-.728,1.566-1.323,1.57s-1.1-.65-1.323-1.57a4.094,4.094,0,0,1-.124-1.051,1.573,1.573,0,0,1,.01-.159c.044-1.372.665-2.457,1.436-2.468.766.01,1.393,1.1,1.435,2.468,0,.051.01.1.005.159A4.148,4.148,0,0,1,1128.658,748.6Z" transform="translate(-1071.073 -743.162)" fill="#f99b35"/><g transform="translate(24.362 4.8)"><g transform="translate(46.8)"><path d="M1156.336,751.831l-14.766,48.958L1153.262,751Z" transform="translate(-1141.57 -747.65)" fill="#f99b35"/><path d="M1150.8,750.574a3.766,3.766,0,1,1,2.662,4.615A3.76,3.76,0,0,1,1150.8,750.574Z" transform="translate(-1141.207 -747.778)" fill="#ad2564"/></g><path d="M1101.494,753.06c-.627-2.324-2.176-3.925-3.466-3.587s-1.821,2.51-1.21,4.84a.047.047,0,0,1,.005.026l.365,1.131,14.611,45.381-10.047-46.6-.246-1.164C1101.5,753.075,1101.494,753.071,1101.494,753.06Zm-.777,1.324c.021.945-.3,1.7-.874,1.862s-1.231-.346-1.687-1.179a4.566,4.566,0,0,1-.391-.982.754.754,0,0,1-.027-.155c-.316-1.335.005-2.547.745-2.753s1.634.7,2.025,2.009a1.536,1.536,0,0,1,.053.149A4.674,4.674,0,0,1,1100.717,754.384Z" transform="translate(-1096.566 -747.712)" fill="#f99b35"/></g><g transform="translate(7.647 50.523)"><path d="M1080.492,815.942c0-15.123,21.761-24.2,48.615-24.2s48.615,9.072,48.615,24.2-7.541,30.572-48.615,30.572S1080.492,831.065,1080.492,815.942Z" transform="translate(-1080.492 -791.747)" fill="#5eb3b9"/><path d="M1169.035,844.766v-6.119a3.079,3.079,0,0,0-3.08-3.082h-74.339a3.083,3.083,0,0,0-3.084,3.082v6.119Z" transform="translate(-1080.171 -789.999)" fill="#2c4e52"/></g></g><g transform="translate(36.511 67.304)"><path d="M1082.5,729.59c-4.011-4.623-11.954-6.142-17.01-4.9-6.149,1.511-11.537,5.07-16.689,8.825a13.064,13.064,0,0,1,1.023-5.586c1.816-4.486,5.592-7.279,9.592-10.239,5.066-3.748,10.3-7.62,11.011-15.138,1.73-18.246-11.552-23.43-24.39-28.439-1.489-.583-2.968-1.162-4.413-1.752a.091.091,0,0,1-.006.042l-.594,1.844c1.425.581,2.86,1.146,4.295,1.7,12.721,4.963,24.734,9.652,23.143,26.417-.626,6.641-5.286,10.088-10.219,13.736-4.043,2.992-8.227,6.083-10.25,11.085a14.507,14.507,0,0,0-1.05,7.7c-.23.172-.466.346-.7.516a104.468,104.468,0,0,1-9.222,6.355l1,1.7a106.58,106.58,0,0,0,9.4-6.468.067.067,0,0,0,.022-.016,14.312,14.312,0,0,0,2.319,4.28c3.813,4.874,11.054,7.976,18.087,7.976a22.513,22.513,0,0,0,3.176-.221c6.251-.883,10.846-4.24,12.946-9.454A9.146,9.146,0,0,0,1082.5,729.59Zm-.364,9.23c-1.826,4.532-5.87,7.458-11.387,8.237-7.273,1.023-15.451-1.921-19.431-7.016a11.762,11.762,0,0,1-2.18-4.321c5.248-3.86,10.7-7.607,16.822-9.112,4.51-1.109,11.633.343,15.044,4.275A7.206,7.206,0,0,1,1082.132,738.82Z" transform="translate(-1017.208 -660.049)" fill="#b66a93"/><path d="M1036.4,670.243c-.487-.25-.964-.506-1.44-.767-4.054-2.258-7.407-5.018-9.41-8.953l-1.758.893c2.266,4.454,6.112,7.533,10.6,9.987.481.263.974.518,1.472.768,1.329.672,2.71,1.3,4.114,1.9a7.231,7.231,0,0,0,.631-1.6c.027-.085.033-.17.054-.254C1039.192,671.589,1037.767,670.939,1036.4,670.243Z" transform="translate(-1017.736 -660.522)" fill="#b66a93"/><path d="M1040.409,664.8c-1.848-.495-4.016,1.457-5.216,4.506.476.261.954.518,1.44.767.729-1.711,1.972-2.792,3.032-2.508,1.216.326,1.74,2.3,1.231,4.482-.021.084-.027.168-.054.254a7.231,7.231,0,0,1-.631,1.6c-.745,1.359-1.821,2.165-2.753,1.913-1.088-.289-1.629-1.909-1.361-3.809-.5-.251-.991-.505-1.473-.768l-16.657,77.318,23.812-74,.594-1.844a.091.091,0,0,0,.006-.042C1043.387,668.88,1042.5,665.363,1040.409,664.8Z" transform="translate(-1017.968 -660.354)" fill="#9ad1d4"/></g><rect width="146.635" height="3.047" transform="translate(190.815 218.527)" fill="#f79d5a"/><g transform="translate(190.825 55.818)"><g transform="translate(13.463)"><path d="M1261.456,701.044l-1.987-2.066h0l-19.152-19.9L1236.952,684l10.954,9.626a6.932,6.932,0,0,0-3.33,1.762c-3.274,3.147-2.81,8.959,1.034,12.957l3.974,4.126c3.845,3.993,9.633,4.681,12.909,1.529S1265.3,705.037,1261.456,701.044Zm-1.478,10.348c-1.8,1.73-5.364,1.077-7.781-1.436l-3.976-4.125c-2.419-2.519-2.933-6.106-1.134-7.838,1.3-1.25,3.519-1.246,5.559-.209l4.213,3.705h0l1.991,2.065C1261.264,706.067,1261.784,709.655,1259.978,711.392Z" transform="translate(-1203.009 -648.295)" fill="#32595d"/><path d="M1212.33,653.277a63.241,63.241,0,0,0-6.927-3.537c-1.213-.552-1.454-.207-.529.748l33.381,34.689,4.2-4.046S1220.778,659.093,1212.33,653.277Z" transform="translate(-1204.311 -649.476)" fill="#7bc1c7"/></g><g transform="translate(0 20.769)"><g transform="translate(49.078)"><path d="M1260.8,685.86h0c-4.107-1.19-6.808-4.791-6.742-8.368.085-4.541,4.664-8.149,10.207-8.042a11.924,11.924,0,0,1,3.138.468c4.106,1.184,6.823,4.384,6.751,7.956a7.548,7.548,0,0,1-3.224,5.917,11.322,11.322,0,0,1-6.982,2.13A12.154,12.154,0,0,1,1260.8,685.86Zm5.6-12.46a8.543,8.543,0,0,0-2.2-.331c-3.488-.069-6.468,1.991-6.517,4.488-.036,1.919,1.624,3.692,4.135,4.417h0a8.964,8.964,0,0,0,2.208.33,7.743,7.743,0,0,0,4.74-1.413,4.014,4.014,0,0,0,1.77-3.084C1270.568,675.893,1268.908,674.125,1266.4,673.4Z" transform="translate(-1237.941 -669.449)" fill="#437e83"/><path d="M1238.56,685.711l.109-5.83,24.3,1.886-.131,3.7Z" transform="translate(-1238.56 -669.033)" fill="#437e83"/></g><path d="M1199.532,682.57a63.051,63.051,0,0,1-7.3-2.68c-1.229-.51-1.141-.924.193-.9l48.13.922-.112,5.831S1209.543,684.818,1199.532,682.57Z" transform="translate(-1191.365 -669.068)" fill="#93ced3"/></g></g><g transform="translate(256.569 71.295)"><path d="M1286.391,697.388c-5.753-1.053-11.976-10.325-11.976-10.325l1.2-2.094s7.608,4.182,11.563,5.163,11.59-1.107,11.59-1.107S1292.144,698.442,1286.391,697.388Z" transform="translate(-1253.796 -663.538)" fill="#2287cb"/><path d="M1262.673,712.048a6.929,6.929,0,0,0-4.278,0c-1.057.276-4.185-1.057-3.771,0s2.71,2.344,4.047,2.764,5.289-1.155,5.289-1.155S1264.742,712.645,1262.673,712.048Z" transform="translate(-1254.587 -662.474)" fill="#ba6754"/><path d="M1293.123,800.32c-1.314,2.87-4.95,4.4-7.122,4.774a2.446,2.446,0,0,0-2.194,1.964h13.745c.893-1.131,1.192-5.942,1.192-5.942S1294.507,797.3,1293.123,800.32Z" transform="translate(-1253.421 -658.982)" fill="#26282c"/><path d="M1316.561,799.772c-1.265,2.892-4.873,4.484-7.037,4.9a2.6,2.6,0,0,0-1.872,1.2.645.645,0,0,0,.585.97,37.441,37.441,0,0,0,6.522-.047c1.5-.229,7-.213,7.16-.229,1.177-.107.27-6.1.27-6.1S1317.887,796.728,1316.561,799.772Z" transform="translate(-1252.474 -659.005)" fill="#26282c"/><path d="M1311.86,728.082s.953,29,5.632,39.6,5.32,35.6,5.32,35.6l-6.824.321s-.764-9.57-10.67-30.574-13.363-33.1-13.363-33.1Z" transform="translate(-1253.096 -661.818)" fill="#929292"/><path d="M1309.145,730.2s-7.681,27.982-6.351,39.492-3.308,34.512-3.308,34.512l-7.762-.258s1.1-9.763-2.141-32.757a301.585,301.585,0,0,1-2.965-41.722Z" transform="translate(-1253.309 -661.762)" fill="#b8b8b8"/><path d="M1300.663,680.378c.019-.245.157-1.923.162-1.955l-1.842.918-4.941,2.461s-.235,1.325-.507,2.865c-.019.106-.037.215-.057.319-.318,1.81-.668,3.809-.74,4.292l5.29,1.114,3.66-2.711A15.826,15.826,0,0,1,1300.663,680.378Z" transform="translate(-1253.065 -663.799)" fill="#ba6754"/><path d="M1285.973,731.385v-.119a.015.015,0,0,0,0-.014v-.113c.149-2.839.661-13.44.7-13.763.045-.467.092-.931.137-1.391.158-1.609.309-3.187.436-4.672.2-2.353.345-4.473.362-6.111q0-.665.042-1.33a44.252,44.252,0,0,1,.811-6.276c.434-2.211.968-4.214,1.432-5.779a6.4,6.4,0,0,1,3.744-4.1,5.239,5.239,0,0,1,.624-.215c3.01-.874,7.182-1.954,8.314-1.627,3.063.9,4.509,4.826,6.118,11.7.911,3.882,3.847,31.018,3.758,35.948-.1,5.6-26.843,1.651-26.509-1.691C1285.939,731.795,1285.948,731.64,1285.973,731.385Z" transform="translate(-1253.337 -663.504)" fill="#5eabdb"/><path d="M1298.955,679.3l-4.941,2.46s-.235,1.326-.507,2.865c-.019.107-.037.215-.057.319,1.687-.66,5.73-2.452,6.814-4.532C1300.712,679.564,1300.047,679.289,1298.955,679.3Z" transform="translate(-1253.037 -663.764)" fill="#a14b3b"/><path d="M1292.21,669.694c1-1.724,2.74-3.527,8.362-1.517s3.363,5.409,1.717,10.986-10.56,2.8-10.56,2.8C1289.45,681.091,1291.209,671.419,1292.21,669.694Z" transform="translate(-1253.15 -664.243)" fill="#ba6754"/><path d="M1307.812,669.167c1.144,2.021-4.805,12.69-8.943,12.343s-2.276-2.606-2.08-4.562-1.019-1.748-2.363-1.467-1.911-6.207-1.911-6.207C1287.776,662.163,1304.536,663.339,1307.812,669.167Z" transform="translate(-1253.107 -664.36)" fill="#26282c"/><g transform="translate(13.999 16.539)"><path d="M1274.669,687.25a12.405,12.405,0,0,1-3.365-2.041c-1.185-1.257.321-1.218-.057-1.948s-3.552-1.911-3.166-2.726c.125-.263,3.533-.59,4.834.4s2.952,4.223,2.952,4.223Z" transform="translate(-1268.049 -680.265)" fill="#ba6754"/><path d="M1273,686.347c-1.268-.214-1.649-1.01-2.992-1.5-1.587-.579-2.1-1.743-1.37-1.708.31.018,1.051.352,1.808.434,1.031.112,2.084.235,2.106.235C1272.557,683.807,1274.536,686.605,1273,686.347Z" transform="translate(-1268.038 -680.15)" fill="#ba6754"/></g><path d="M1291.419,689.056l10.931-3.115s-.457-1.488-1.225-1.742-7.849,1.835-7.965,1.884C1291.682,686.707,1291.419,689.056,1291.419,689.056Z" transform="translate(-1253.118 -663.569)" fill="#2287cb"/><path d="M1258.927,712.12c0-.414-.832-1.589-.832-2.07s.966.519,2.069.759a6.954,6.954,0,0,1,2.369,1.311S1258.927,712.535,1258.927,712.12Z" transform="translate(-1254.447 -662.542)" fill="#ba6754"/><path d="M1287.554,704.628c0-.442.016-.886.042-1.33l9.581-3.087s-4.3,8.374-9.983,10.529C1287.395,708.386,1287.538,706.268,1287.554,704.628Z" transform="translate(-1253.286 -662.93)" fill="#2287cb"/><path d="M1262.394,714.4a2.1,2.1,0,0,0,2.169,1.261c3.265-.368,12.115-1.537,16.482-3.771,2.484-1.267,16.273-10.669,22.866-15.19a2.1,2.1,0,0,0-.538-3.736l-8.964-2.929a2.1,2.1,0,0,0-2.115.484c-3.235,3.123-14.054,13.525-15.143,14.108-1.031.554-10.273,5.011-13.841,6.729a2.1,2.1,0,0,0-1.125,2.421l.011.047A4.309,4.309,0,0,0,1262.394,714.4Z" transform="translate(-1254.287 -663.34)" fill="#5eabdb"/></g></g><g transform="translate(1162.688 813.201)"><path d="M1188.608,807.25a29.495,29.495,0,0,0-23.255,0,3.04,3.04,0,0,0-1.622,2.122l-5.078,32.066h36.65l-5.077-32.066A3.038,3.038,0,0,0,1188.608,807.25Z" transform="translate(-1155.675 -804.861)" fill="#c1c1c1"/><path d="M1.46,0H41.148a1.458,1.458,0,0,1,1.458,1.458V4.571a1.46,1.46,0,0,1-1.46,1.46H1.458A1.458,1.458,0,0,1,0,4.573V1.46A1.46,1.46,0,0,1,1.46,0Z" transform="translate(0 36.577)" fill="#434453"/><g transform="translate(4.89 6.571)"><path d="M1179.877,822.025a.937.937,0,1,0-.911.846A.879.879,0,0,0,1179.877,822.025Z" transform="translate(-1159.793 -810.779)" fill="#848484"/><path d="M1177.448,825.362a.826.826,0,1,0-.964-.813A.9.9,0,0,0,1177.448,825.362Z" transform="translate(-1159.854 -810.679)" fill="#848484"/><path d="M1182.936,821.859a.881.881,0,0,0-.974-.754.892.892,0,0,0-.884.867.938.938,0,0,0,1.858-.113Z" transform="translate(-1159.671 -810.784)" fill="#848484"/><path d="M1180.622,825.279a.825.825,0,1,0-.986-.778A.888.888,0,0,0,1180.622,825.279Z" transform="translate(-1159.728 -810.683)" fill="#848484"/><path d="M1183.795,825.085a.826.826,0,1,0-1.012-.742A.888.888,0,0,0,1183.795,825.085Z" transform="translate(-1159.603 -810.69)" fill="#848484"/><path d="M1179.481,819.967a.912.912,0,1,0,.874-.85A.872.872,0,0,0,1179.481,819.967Z" transform="translate(-1159.734 -810.863)" fill="#848484"/><path d="M1176.494,820.013a.911.911,0,1,0,.894-.817A.862.862,0,0,0,1176.494,820.013Z" transform="translate(-1159.854 -810.86)" fill="#848484"/><path d="M1183.438,820.559a.863.863,0,0,0,.84-.886.874.874,0,0,0-.974-.738.819.819,0,1,0,.134,1.624Z" transform="translate(-1159.615 -810.871)" fill="#848484"/><path d="M1178.809,816.705a.818.818,0,1,0,.043,1.629.839.839,0,0,0,.857-.842A.849.849,0,0,0,1178.809,816.705Z" transform="translate(-1159.796 -810.96)" fill="#848484"/><path d="M1181.4,812.051a.817.817,0,1,0,.1,1.631.817.817,0,1,0-.1-1.631Z" transform="translate(-1159.689 -811.145)" fill="#848484"/><path d="M1179.327,815.433a.864.864,0,0,0,1.724-.074.865.865,0,0,0-1.724.074Z" transform="translate(-1159.741 -811.044)" fill="#848484"/><path d="M1181.682,816.578a.862.862,0,0,0-.836.865.886.886,0,1,0,.836-.865Z" transform="translate(-1159.68 -810.965)" fill="#848484"/><path d="M1178.683,812.172a.816.816,0,1,0,.857.787A.828.828,0,0,0,1178.683,812.172Z" transform="translate(-1159.798 -811.14)" fill="#848484"/><path d="M1176.5,815.477a.864.864,0,1,0,.852-.816A.841.841,0,0,0,1176.5,815.477Z" transform="translate(-1159.853 -811.041)" fill="#848484"/><path d="M1185.737,814.144a.817.817,0,1,0,.948.707A.843.843,0,0,0,1185.737,814.144Z" transform="translate(-1159.515 -811.062)" fill="#848484"/><path d="M1185.99,821.585a.94.94,0,0,0-1.853.179.938.938,0,0,0,1.853-.179Z" transform="translate(-1159.549 -810.794)" fill="#848484"/><path d="M1183.746,817.243a.849.849,0,0,0,.959.732.839.839,0,0,0,.792-.9.882.882,0,0,0-1.751.167Z" transform="translate(-1159.564 -810.974)" fill="#848484"/><path d="M1184.11,811.838a.816.816,0,1,0,.9.729A.83.83,0,0,0,1184.11,811.838Z" transform="translate(-1159.58 -811.154)" fill="#848484"/><path d="M1182.159,815.291a.859.859,0,1,0,.788-.876A.835.835,0,0,0,1182.159,815.291Z" transform="translate(-1159.628 -811.051)" fill="#848484"/><path d="M1188.422,819.2a.913.913,0,1,0,.777-.937A.861.861,0,0,0,1188.422,819.2Z" transform="translate(-1159.378 -810.898)" fill="#848484"/><path d="M1185.919,824.072a.888.888,0,0,0,1.039.7.825.825,0,1,0-1.039-.7Z" transform="translate(-1159.478 -810.702)" fill="#848484"/><path d="M1175.885,822.9a.823.823,0,1,0-.927-.828A.884.884,0,0,0,1175.885,822.9Z" transform="translate(-1159.915 -810.778)" fill="#848484"/><path d="M1173.063,816.655a.817.817,0,1,0,.841.847A.856.856,0,0,0,1173.063,816.655Z" transform="translate(-1160.027 -810.962)" fill="#848484"/><path d="M1185.451,819.559a.911.911,0,1,0,.808-.908A.86.86,0,0,0,1185.451,819.559Z" transform="translate(-1159.496 -810.882)" fill="#848484"/><path d="M1187.181,821.447a.886.886,0,0,0,1.034.693.875.875,0,0,0,.814-.935.941.941,0,0,0-1.848.242Z" transform="translate(-1159.427 -810.808)" fill="#848484"/><path d="M1187.407,816.025a.818.818,0,1,0,.979.688A.846.846,0,0,0,1187.407,816.025Z" transform="translate(-1159.449 -810.987)" fill="#848484"/><path d="M1163.116,815.164a.817.817,0,1,0,.268-1.609.863.863,0,0,0-.547.095l-.2,1.258A.912.912,0,0,0,1163.116,815.164Z" transform="translate(-1160.406 -811.086)" fill="#848484"/><path d="M1175.936,816.731a.817.817,0,1,0,.873.816A.855.855,0,0,0,1175.936,816.731Z" transform="translate(-1159.911 -810.959)" fill="#848484"/><path d="M1162.358,819.637a.821.821,0,1,0,.274-1.609.94.94,0,0,0-.493.056l-.214,1.348A.977.977,0,0,0,1162.358,819.637Z" transform="translate(-1160.435 -810.907)" fill="#848484"/><path d="M1190.3,817.2l-.24-1.532a.784.784,0,0,0,.24,1.532Z" transform="translate(-1159.334 -811.001)" fill="#848484"/><path d="M1174.391,820.8a.819.819,0,1,0-.889-.845A.861.861,0,0,0,1174.391,820.8Z" transform="translate(-1159.973 -810.861)" fill="#848484"/><path d="M1169.708,822.627a.823.823,0,1,0-.862-.89A.876.876,0,0,0,1169.708,822.627Z" transform="translate(-1160.159 -810.788)" fill="#848484"/><path d="M1172.789,822.817a.823.823,0,1,0-.889-.859A.873.873,0,0,0,1172.789,822.817Z" transform="translate(-1160.037 -810.781)" fill="#848484"/><path d="M1171.1,825.2a.826.826,0,1,0-.906-.878A.89.89,0,0,0,1171.1,825.2Z" transform="translate(-1160.105 -810.686)" fill="#848484"/><path d="M1171.473,819.04a.819.819,0,1,0,.857.864A.866.866,0,0,0,1171.473,819.04Z" transform="translate(-1160.092 -810.867)" fill="#848484"/><path d="M1174.274,825.335a.826.826,0,1,0-.937-.846A.893.893,0,0,0,1174.274,825.335Z" transform="translate(-1159.979 -810.68)" fill="#848484"/><path d="M1167.932,824.943a.826.826,0,1,0-.873-.907A.888.888,0,0,0,1167.932,824.943Z" transform="translate(-1160.23 -810.696)" fill="#848484"/><path d="M1168.518,818.8a.873.873,0,0,0-.98.723.914.914,0,0,0,1.811.174A.872.872,0,0,0,1168.518,818.8Z" transform="translate(-1160.211 -810.876)" fill="#848484"/><path d="M1170.19,816.479a.817.817,0,1,0-.123,1.624.817.817,0,1,0,.123-1.624Z" transform="translate(-1160.143 -810.969)" fill="#848484"/><path d="M1166.815,820.707a.823.823,0,1,0,.835.912A.884.884,0,0,0,1166.815,820.707Z" transform="translate(-1160.28 -810.8)" fill="#848484"/><path d="M1164.178,829.078a.833.833,0,1,0-.889-.944A.922.922,0,0,0,1164.178,829.078Z" transform="translate(-1160.381 -810.531)" fill="#848484"/><path d="M1190.942,823.408a.969.969,0,0,0-1.891.284.967.967,0,0,0,1.891-.284Z" transform="translate(-1159.353 -810.719)" fill="#848484"/><path d="M1187.475,829.283a.832.832,0,1,0-1.087-.7A.921.921,0,0,0,1187.475,829.283Z" transform="translate(-1159.459 -810.523)" fill="#848484"/><path d="M1189.677,825.694a1,1,0,1,0-.862.943A.915.915,0,0,0,1189.677,825.694Z" transform="translate(-1159.405 -810.628)" fill="#848484"/><path d="M1184.158,829.606a.833.833,0,1,0-.129-1.627.835.835,0,1,0,.129,1.627Z" transform="translate(-1159.591 -810.51)" fill="#848484"/><path d="M1186.473,826.093a.991.991,0,1,0-.888.912A.908.908,0,0,0,1186.473,826.093Z" transform="translate(-1159.533 -810.614)" fill="#848484"/><path d="M1183.265,826.384a.992.992,0,1,0-.927.878A.908.908,0,0,0,1183.265,826.384Z" transform="translate(-1159.661 -810.603)" fill="#848484"/><path d="M1177.5,829.9a.834.834,0,1,0-1.017-.811A.924.924,0,0,0,1177.5,829.9Z" transform="translate(-1159.854 -810.498)" fill="#848484"/><path d="M1180.046,826.56a.907.907,0,0,0-1-.786.829.829,0,1,0,.043,1.631A.907.907,0,0,0,1180.046,826.56Z" transform="translate(-1159.79 -810.598)" fill="#848484"/><path d="M1180.83,829.81a.832.832,0,1,0-.075-1.63.834.834,0,1,0,.075,1.63Z" transform="translate(-1159.722 -810.502)" fill="#848484"/><path d="M1175.846,827.432a.9.9,0,0,0,.981-.811.993.993,0,1,0-.981.811Z" transform="translate(-1159.918 -810.597)" fill="#848484"/><path d="M1190.553,827.235a.833.833,0,1,0,1.114.651A.926.926,0,0,0,1190.553,827.235Z" transform="translate(-1159.328 -810.54)" fill="#848484"/><path d="M1164.2,812.018a.835.835,0,1,0,.948-.681A.825.825,0,0,0,1164.2,812.018Z" transform="translate(-1160.344 -811.174)" fill="#848484"/><path d="M1161.976,827.94a.919.919,0,0,0-.852-.965,1.148,1.148,0,0,0-.391,0l-.241,1.491a1.3,1.3,0,0,0,.354.12A.925.925,0,0,0,1161.976,827.94Z" transform="translate(-1160.492 -810.551)" fill="#848484"/><path d="M1191.482,824.638a.845.845,0,0,0-.551.862.833.833,0,0,0,.787.647Z" transform="translate(-1159.278 -810.643)" fill="#848484"/><path d="M1186.807,811.528a.816.816,0,1,0,.938.695A.832.832,0,0,0,1186.807,811.528Z" transform="translate(-1159.471 -811.166)" fill="#848484"/><path d="M1187.794,814.706a.86.86,0,1,0,.729-.93A.838.838,0,0,0,1187.794,814.706Z" transform="translate(-1159.403 -811.077)" fill="#848484"/><path d="M1175.135,813a.833.833,0,0,0,1.665.013.833.833,0,0,0-1.665-.013Z" transform="translate(-1159.908 -811.14)" fill="#848484"/><path d="M1188.814,812.061a.806.806,0,0,0,.782.665l-.247-1.545A.8.8,0,0,0,1188.814,812.061Z" transform="translate(-1159.362 -811.18)" fill="#848484"/><path d="M1190.766,820.151a.842.842,0,0,0-.541.87.829.829,0,0,0,.787.652Z" transform="translate(-1159.306 -810.822)" fill="#848484"/><path d="M1168.959,814.292a.817.817,0,1,0,.777.889A.839.839,0,0,0,1168.959,814.292Z" transform="translate(-1160.192 -811.056)" fill="#848484"/><path d="M1166.169,813.972a.816.816,0,1,0,.745.917A.839.839,0,0,0,1166.169,813.972Z" transform="translate(-1160.304 -811.069)" fill="#848484"/><path d="M1167.841,811.7a.816.816,0,1,0,.733.9A.828.828,0,0,0,1167.841,811.7Z" transform="translate(-1160.236 -811.16)" fill="#848484"/><path d="M1166.358,816.906a.884.884,0,1,0,.97-.705A.848.848,0,0,0,1166.358,816.906Z" transform="translate(-1160.258 -810.98)" fill="#848484"/><path d="M1164.571,819.156a.913.913,0,1,0,1.007-.686A.863.863,0,0,0,1164.571,819.156Z" transform="translate(-1160.329 -810.89)" fill="#848484"/><path d="M1171.75,814.514a.816.816,0,1,0,.808.861A.839.839,0,0,0,1171.75,814.514Z" transform="translate(-1160.079 -811.047)" fill="#848484"/><path d="M1173.257,812.121a.833.833,0,0,0-.868.777.834.834,0,1,0,.868-.777Z" transform="translate(-1160.017 -811.142)" fill="#848484"/><path d="M1164.471,815.823a.818.818,0,1,0,.755.935A.858.858,0,0,0,1164.471,815.823Z" transform="translate(-1160.373 -810.995)" fill="#848484"/><path d="M1170.549,811.957a.816.816,0,1,0,.765.874A.826.826,0,0,0,1170.549,811.957Z" transform="translate(-1160.127 -811.149)" fill="#848484"/><path d="M1174.55,814.636a.816.816,0,1,0,.836.832A.834.834,0,0,0,1174.55,814.636Z" transform="translate(-1159.966 -811.042)" fill="#848484"/><path d="M1172.595,827.346a.828.828,0,1,0-.937-.861A.9.9,0,0,0,1172.595,827.346Z" transform="translate(-1160.047 -810.6)" fill="#848484"/><path d="M1170.824,829.722a.833.833,0,1,0-.953-.88A.921.921,0,0,0,1170.824,829.722Z" transform="translate(-1160.118 -810.505)" fill="#848484"/><path d="M1169.355,827.149a.83.83,0,1,0-.911-.9A.9.9,0,0,0,1169.355,827.149Z" transform="translate(-1160.175 -810.608)" fill="#848484"/><path d="M1174.158,829.867a.832.832,0,1,0,.037-1.63.833.833,0,1,0-.037,1.63Z" transform="translate(-1159.986 -810.5)" fill="#848484"/><path d="M1162.763,820.974a.936.936,0,0,0,1.838.276.938.938,0,0,0-1.838-.276Z" transform="translate(-1160.402 -810.816)" fill="#848484"/><path d="M1167.5,829.459a.833.833,0,1,0-.92-.914A.932.932,0,0,0,1167.5,829.459Z" transform="translate(-1160.249 -810.516)" fill="#848484"/><path d="M1162.686,823.46a.9.9,0,0,0-.814-.959,1.036,1.036,0,0,0-.439.023l-.219,1.431a1.02,1.02,0,0,0,.391.154A.9.9,0,0,0,1162.686,823.46Z" transform="translate(-1160.463 -810.729)" fill="#848484"/><path d="M1166.114,826.834a.829.829,0,1,0-.878-.927A.907.907,0,0,0,1166.114,826.834Z" transform="translate(-1160.303 -810.62)" fill="#848484"/><path d="M1162.889,826.408a.829.829,0,1,0-.846-.956A.9.9,0,0,0,1162.889,826.408Z" transform="translate(-1160.43 -810.637)" fill="#848484"/><path d="M1165.824,823.894a.965.965,0,1,0-1.056.689A.889.889,0,0,0,1165.824,823.894Z" transform="translate(-1160.355 -810.71)" fill="#848484"/></g></g></g></g></svg>