<svg xmlns="http://www.w3.org/2000/svg" width="400" height="253" viewBox="0 0 400 253"><g transform="translate(-1020 -1565)"><rect width="400" height="253" transform="translate(1020 1565)" fill="none"/><g transform="translate(-535.943 866.832)"><g transform="translate(1567.51 699.827)"><g transform="translate(0 0)"><g transform="translate(17.898)" opacity="0.12"><path d="M1709.839,687.338c41.814,0,78.8,19.539,101.305,49.485h0s14.334,19.405,21.95,24.562c8,5.414,17.767,7.982,27.537,9.067,37.215,4.134,66.088,34.057,66.089,70.354,0,38.921-32.9,70.4-74.062,70.839-22.168.236-109.041,3.1-142.82,3.1-68.588,0-124.191-45.131-124.191-109.983S1641.251,687.338,1709.839,687.338Z" transform="translate(-1585.648 -687.338)" fill="#ad2564"/><g transform="translate(226.159 0)"><path d="M1836.115,700.621c-14.391.011-25.989,15.448-19.355,28.218,5.812,11.187,13.772,23.288,23.563,30.492,21.925,16.133,47.406,8.128,53.955-12.582s-13.133-38.628-34.316-43.535A100.164,100.164,0,0,0,1836.115,700.621Z" transform="translate(-1814.843 -700.621)" fill="#ad2564"/></g></g><g transform="translate(0 215.334)"><g transform="translate(6.143)"><path d="M1573.735,948.785s1.647-15.032,18.739-14.208c0,0,1.647-11.944,11.326-14.93s21,2.472,23.68,14.569a19.688,19.688,0,0,1,19.357-2.617c11.12,4.419,9.06,17.185,9.06,17.185Z" transform="translate(-1573.735 -918.845)" fill="#32abaa"/></g><g transform="translate(15.195 6.605)"><g transform="translate(22.199)"><path d="M1614.9,948.495c-1.185-14.78-9.411-22.267-9.494-22.341l.548-.615c.085.075,8.554,7.764,9.768,22.891Z" transform="translate(-1605.406 -925.539)" fill="#fff"/></g><g transform="translate(30.996 3.524)"><path d="M1614.324,943.543c-.123-6.3,4.648-14.1,4.852-14.433l.7.433c-.048.078-4.848,7.932-4.729,13.983Z" transform="translate(-1614.322 -929.11)" fill="#fff"/></g><g transform="translate(46.578 12.012)"><path d="M1630.734,948.894l-.622-.541c.347-.4,8.6-9.779,17.174-10.641l.083.82C1639.121,939.362,1630.817,948.8,1630.734,948.894Z" transform="translate(-1630.112 -937.712)" fill="#fff"/></g><g transform="translate(0 17.548)"><path d="M1595.226,949.027c-3.755-2.833-12.231-4.882-12.317-4.9l.191-.8c.355.085,8.729,2.11,12.622,5.046Z" transform="translate(-1582.909 -943.323)" fill="#fff"/></g><g transform="translate(8.761 13.533)"><path d="M1593.264,947.6c-2.293-5.015-1.242-8.211-1.2-8.345l.78.266c-.01.03-.98,3.045,1.165,7.736Z" transform="translate(-1591.788 -939.254)" fill="#fff"/></g></g><g transform="translate(0 29.94)"><path d="M1570.455,949.187h370.977a2.946,2.946,0,0,1,2.945,2.946h0a2.945,2.945,0,0,1-2.945,2.945H1570.455a2.945,2.945,0,0,1-2.945-2.945h0A2.945,2.945,0,0,1,1570.455,949.187Z" transform="translate(-1567.51 -949.187)" fill="#ad2564"/></g><g transform="translate(290.064 3.466)"><path d="M1944.524,948.832h-83.056s6.177-18.121,25.738-11.532c0,0,4.945-15.444,18.531-14.929s17.918,13.221,17.918,13.221S1941.915,933.384,1944.524,948.832Z" transform="translate(-1861.468 -922.358)" fill="#32abaa"/></g><g transform="translate(321.936 10.368)"><g transform="translate(3.62)"><path d="M1903.319,948.833l-.814-.131a24.707,24.707,0,0,0-5.068-18.8l.619-.545A25.575,25.575,0,0,1,1903.319,948.833Z" transform="translate(-1897.437 -929.353)" fill="#fff"/></g><g transform="translate(9.079 0.182)"><path d="M1903.6,942.171l-.63-.53c.062-.074,6.249-7.474,7.3-12.1l.8.183C1909.977,934.545,1903.86,941.863,1903.6,942.171Z" transform="translate(-1902.969 -929.537)" fill="#fff"/></g><g transform="translate(0 10.707)"><path d="M1903.131,946.231c-4.872-.264-9.182-5.28-9.363-5.493l.629-.534c.041.05,4.265,4.959,8.78,5.205Z" transform="translate(-1893.768 -940.204)" fill="#fff"/></g></g><g transform="translate(345.421 22.1)"><path d="M1930.562,942.063c-1.966.06-4.95,1.782-7.5,3.544-.281.193-.554.386-.821.579-1.688,1.213-3.094,2.355-3.748,2.9h-.668l-.253-.292c.352-.307,8.643-7.429,12.969-7.548Z" transform="translate(-1917.568 -941.242)" fill="#fff"/><g transform="translate(4.656 4.212)"><path d="M1934.295,948.092a74.447,74.447,0,0,1-12.009-1.784l.205-.8a73.728,73.728,0,0,0,11.852,1.759Z" transform="translate(-1922.286 -945.511)" fill="#fff"/></g></g><g transform="translate(299.962 20.009)"><g transform="translate(0 2.517)"><path d="M1885.11,948.991c-4.345-3.612-13.52-6.5-13.611-6.53l.246-.786c.383.119,9.422,2.967,13.892,6.683Z" transform="translate(-1871.499 -941.674)" fill="#fff"/></g><g transform="translate(8.02)"><path d="M1881.951,946.1l-.824-.025a13.924,13.924,0,0,0-1.5-6.551l.717-.406A14.557,14.557,0,0,1,1881.951,946.1Z" transform="translate(-1879.627 -939.123)" fill="#fff"/></g></g></g></g></g><g transform="translate(1606.637 705.578)"><g transform="translate(9.9 5.198)"><g transform="translate(21.481)"><g transform="translate(7.923 203.675)"><g transform="translate(11.217)"><path d="M1687,926.488h-28.636a8.363,8.363,0,0,1,8.364-8.363h11.91a8.362,8.362,0,0,1,8.363,8.363Z" transform="translate(-1658.361 -918.125)" fill="#e2887b"/></g><g transform="translate(9.609 6.242)"><path d="M1658.612,924.451l-1.881,12.169h31.593l-1.547-11.867Z" transform="translate(-1656.731 -924.451)" fill="#e2887b"/></g><g transform="translate(3.78 14.114)"><path d="M1657.317,932.428a26.623,26.623,0,0,1-3.79,9.788c-1.833,2.838-2.7,3.295-2.7,3.295l4.815.422s7.011-8.531,9.122-9.207S1657.317,932.428,1657.317,932.428Z" transform="translate(-1650.824 -932.428)" fill="#e2887b"/></g><g transform="translate(32.733 14.114)"><path d="M1687.915,932.428a26.621,26.621,0,0,0,3.79,9.788c1.834,2.838,2.7,3.295,2.7,3.295l-4.814.422s-7.012-8.531-9.124-9.207S1687.915,932.428,1687.915,932.428Z" transform="translate(-1680.165 -932.428)" fill="#e2887b"/></g><g transform="translate(16.473 15.686)"><path d="M1663.687,936.767s4.835.022,6.166,0,.443,10.137.443,10.137h4.371s-.506-10.115.38-10.137,5.669-.021,5.669-.021h0a14.62,14.62,0,0,0-17.019.014Z" transform="translate(-1663.687 -934.021)" fill="#e2887b"/></g><g transform="translate(0 27.083)"><path d="M1655.589,946.107h0a6.107,6.107,0,0,1-5.317,3.073h-3.279a5.445,5.445,0,0,1,2.313-2.788l1.628-.82Z" transform="translate(-1646.993 -945.572)" fill="#e2887b"/></g><g transform="translate(42.147 27.083)"><path d="M1689.706,946.107h0a6.633,6.633,0,0,0,5.632,3.073h2.962a5.446,5.446,0,0,0-2.312-2.788l-1.628-.82Z" transform="translate(-1689.706 -945.572)" fill="#e2887b"/></g><g transform="translate(23 27.824)"><path d="M1670.45,946.323l-.022.059a2.1,2.1,0,0,0,1.969,2.807h.377a2.1,2.1,0,0,0,1.948-2.867h-4.273Z" transform="translate(-1670.302 -946.323)" fill="#e2887b"/></g></g><g transform="translate(31.077 101.725)"><rect width="4.437" height="110.066" fill="#e2887b"/></g><g transform="translate(21.517 10.359)"><path d="M1684.458,722.739v11.143H1660.77V722.739c0-.182.224-.362.634-.525h22.42C1684.235,722.377,1684.458,722.557,1684.458,722.739Z" transform="translate(-1660.77 -722.214)" fill="#e2887b"/></g><g transform="translate(21.517 9.254)"><path d="M1684.458,722.724c0,.9-5.3,1.636-11.844,1.636s-11.844-.731-11.844-1.636c0-.182.224-.362.634-.525,1.588-.64,6.012-1.105,11.21-1.105s9.617.459,11.211,1.105C1684.235,722.362,1684.458,722.543,1684.458,722.724Z" transform="translate(-1660.77 -721.094)" fill="#e75950"/></g><g transform="translate(31.462 4.491)"><rect width="3.798" height="6.315" fill="#e2887b"/></g><g transform="translate(30.705)"><path d="M1675.394,714.371v.019a2.243,2.243,0,0,1-.03.356,2.654,2.654,0,1,1-3.621-2.832,2.491,2.491,0,0,1,.519-.157,2.551,2.551,0,0,1,.476-.041A2.656,2.656,0,0,1,1675.394,714.371Z" transform="translate(-1670.081 -711.716)" fill="#e75950"/></g><g transform="translate(30.705 0.343)" style="mix-blend-mode:multiply;isolation:isolate"><path d="M1674.658,716.2a2.649,2.649,0,1,1-3.212-4.135,2.656,2.656,0,0,0,3.212,4.135Z" transform="translate(-1670.081 -712.064)" fill="#f6c6b4"/></g><g transform="translate(32.856)" style="mix-blend-mode:lighten;isolation:isolate"><path d="M1675.422,714.371v.019a2.229,2.229,0,0,1-.031.356,2.571,2.571,0,0,1-.887.012,2.653,2.653,0,0,1-2.215-3,2.552,2.552,0,0,1,.477-.041A2.656,2.656,0,0,1,1675.422,714.371Z" transform="translate(-1672.261 -711.716)" fill="#ea9992"/></g><g transform="translate(1.631 16.981)"><path d="M1704.036,737l-.006,17.517-.01.007-2.156,1.049-1.087.534c-.2.071-.385.143-.566.215a1.136,1.136,0,0,0-.14.061c-.1.042-.205.092-.3.137a3.1,3.1,0,0,0-1.618,1.39,2.8,2.8,0,0,0-.273,1.2v3.99c0,.048,0,.108.006.176-.006,0-.293-.238-.3-.238a13.642,13.642,0,0,1-.6,4.452,14.407,14.407,0,0,1-.609,1.644,21.778,21.778,0,0,1-1.4,2.639,24.957,24.957,0,0,0-2.537,4.438,4.963,4.963,0,0,0-.136.576,116.312,116.312,0,0,0-1.019,11.981c-.007.17-.007.313-.007.42a11.884,11.884,0,0,0,1.69,6.1c.58.964,1.225,2.111,1.876,3.423a51.351,51.351,0,0,1,3.2,7.884,45.218,45.218,0,0,1,1.98,10.314c.674,9.828.439,21.438.211,27.968a5.319,5.319,0,0,1-5.321,5.132h-45.17a5.319,5.319,0,0,1-5.321-5.132c-.222-6.529-.456-18.139.218-27.968a45.9,45.9,0,0,1,2.748-12.583q.7-1.941,1.479-3.625a52,52,0,0,1,2.859-5.468,11.466,11.466,0,0,0,1.251-2.905,11.673,11.673,0,0,0,.429-3.133c0-1.556-.289-9.372-.9-12.134v-.006a3.655,3.655,0,0,0-.235-.746c-.022-.048-.82-1.511-1.749-3.208a31.778,31.778,0,0,1-3.031-8.027v0c-.18-.753-.335-1.508-.466-2.273l-.007-.023c-.16-1.931-.241-3.556-.241-3.556a3.942,3.942,0,0,0-.3-1.605,2.283,2.283,0,0,0-1.358-1.287c-.153-.055-.3-.1-.459-.15-.606-.2-1.209-.4-1.795-.641-.169-.065-.338-.136-.5-.214l-1.733-.8-.01-.007V737l.095-.036,4.523-1.837,9.848-4,5.419-2.2h23.649l.035.014h0l5.384,2.185,9.845,4,4.523,1.836h0Z" transform="translate(-1640.617 -728.925)" fill="#e2887b"/></g><g transform="translate(0 24.999)"><path d="M1642.23,745.84c0,.265,0,.531-.006.8-.072,4.454-.767,7.956-1.618,7.992h-.012c-.182,0-.362-.169-.525-.471-.586-1.08-1.026-3.942-1.093-7.389-.005-.308-.012-.616-.012-.93,0-.332.007-.664.012-.984.067-3.429.5-6.254,1.093-7.335.163-.3.343-.471.525-.471a.28.28,0,0,1,.1.018c.749.23,1.358,3.139,1.509,6.961C1642.218,744.615,1642.23,745.218,1642.23,745.84Z" transform="translate(-1638.964 -737.051)" fill="#e75950"/></g><g transform="translate(63.415 24.999)"><path d="M1706.5,745.84c0,.314-.006.622-.006.93-.091,4.413-.786,7.86-1.63,7.86h-.012c-.176-.006-.356-.175-.513-.471-.6-1.092-1.038-4.014-1.1-7.521-.006-.26-.006-.532-.006-.8,0-.616.013-1.22.036-1.8.115-3.055.525-5.524,1.069-6.519a.891.891,0,0,1,.434-.459h.006a.375.375,0,0,1,.085-.012c.845,0,1.534,3.416,1.63,7.811C1706.49,745.182,1706.5,745.509,1706.5,745.84Z" transform="translate(-1703.23 -737.051)" fill="#e75950"/></g><g transform="translate(3.876 35.787)"><g style="mix-blend-mode:multiply;isolation:isolate"><g transform="translate(55.29 0.29)" opacity="0.5" style="mix-blend-mode:multiply;isolation:isolate"><path d="M1702.636,755.829l-1.087.531c-.2.073-.387.145-.568.217a1.486,1.486,0,0,0-.138.061c-.1.041-.205.09-.3.138a3.1,3.1,0,0,0-1.617,1.388l.694-9.887Z" transform="translate(-1698.924 -748.277)" fill="#f6c6b4"/></g><g opacity="0.5" style="mix-blend-mode:multiply;isolation:isolate"><path d="M1646.586,757.865h-.085a2.266,2.266,0,0,0-1.358-1.286c-.151-.054-.3-.1-.459-.151-.6-.2-1.208-.4-1.793-.64l3-7.805Z" transform="translate(-1642.892 -747.983)" fill="#f6c6b4"/></g></g><g transform="translate(6.656 12.637)" style="mix-blend-mode:multiply;isolation:isolate"><path d="M1649.637,760.79s3.327,4.18,11.275,3.475,8.687-3.475,8.687-3.475Z" transform="translate(-1649.637 -760.79)" fill="#f6c6b4"/><g transform="translate(25.656)"><path d="M1675.637,760.79s3.327,4.18,11.275,3.475,8.687-3.475,8.687-3.475Z" transform="translate(-1675.637 -760.79)" fill="#f6c6b4"/></g></g></g></g><g transform="translate(27.73 19.18)"><g transform="translate(0 0.003)"><path d="M1672.089,782.536l-19-4.452-.531-.993v-.006l-5.282-9.923-.247-2.681-1.735-29.324,9.848-4,9.643,29.241.86,2.609Z" transform="translate(-1645.297 -731.157)" fill="#2287cb"/></g><g transform="translate(27.388)"><path d="M1699.848,735.149l-1.66,30.555-.042.58-.567,1.065-1.4,2.638-3.449,6.831-.674,1.267-19,4.452,6.454-19.569.847-2.569L1690,731.153Z" transform="translate(-1673.053 -731.153)" fill="#2287cb"/></g></g><g transform="translate(34.956 64.619)"><rect width="39.73" height="11.561" fill="#00659c"/></g><g transform="translate(0 76.18)"><path d="M1726.672,912.18H1617.2c2.605-5.861,22.145-100.628,24.536-111.049s10.42-12.212,10.42-12.212h39.565s8.034,1.791,10.424,12.212S1724.066,906.319,1726.672,912.18Z" transform="translate(-1617.195 -788.919)" fill="#2287cb"/></g><g transform="translate(23.35 90.128)"><path d="M1652.647,803.054V912.368h-11.789Z" transform="translate(-1640.858 -803.054)" fill="#00659c"/></g><g transform="translate(65.914 87.089)"><path d="M1695.808,912.327h-8.822l-2.993-112.353Z" transform="translate(-1683.993 -799.975)" fill="#00659c"/></g><g transform="translate(47.957 99.683)"><path d="M1676.054,912.5H1665.8l5.706-99.759Z" transform="translate(-1665.795 -812.737)" fill="#00659c"/></g></g><g transform="translate(132.512)"><g transform="translate(24.251 93.919)"><rect width="1.432" height="10.429" fill="#196b66"/></g><g transform="translate(0 65.724)"><g transform="translate(42.466 27.786)"><rect width="1.432" height="9.896" fill="#196b66"/></g><g transform="translate(9.498)"><g transform="translate(23.127)"><path d="M1777.569,789.245h-3.054V777.98a4.926,4.926,0,1,1,9.852,0V781h-3.055V777.98a1.871,1.871,0,0,0-3.743,0Z" transform="translate(-1774.515 -773.054)" fill="#465596"/></g><g transform="translate(0 14.158)"><path d="M1797.868,801.425h-44.426a2.363,2.363,0,0,1-.9-4.55l23.109-9.473,23.109,9.473a2.363,2.363,0,0,1-.9,4.55Zm-40.915-3.054h37.4l-18.7-7.667Z" transform="translate(-1751.078 -787.402)" fill="#465596"/></g></g><g transform="translate(23.672 49.389)"><rect width="20.806" height="16.959" fill="#196b66"/></g><g transform="translate(18.359 32.971)"><g transform="translate(15.715)"><path d="M1775.985,823.73s11.508,3.149,13.9-3.909a34.975,34.975,0,0,0,1.737-13.354S1777.668,809.561,1775.985,823.73Z" transform="translate(-1775.985 -806.468)" fill="#32abaa"/></g><g transform="translate(0 0.081)"><path d="M1775.774,823.813s-11.509,3.148-13.9-3.909a34.972,34.972,0,0,1-1.738-13.355S1774.092,809.644,1775.774,823.813Z" transform="translate(-1760.059 -806.55)" fill="#32abaa"/></g></g><g transform="translate(42.571 16.048)"><path d="M1790.458,806.565l-.045-13.99a1.82,1.82,0,0,0-1.8-1.807l-2.213-.02h0a.374.374,0,0,0-.373.374H1784.6a1.792,1.792,0,0,1,.534-1.283,1.846,1.846,0,0,1,1.288-.523l2.212.02a3.257,3.257,0,0,1,3.216,3.235l.044,13.99Z" transform="translate(-1784.596 -789.317)" fill="#32abaa"/></g><g transform="translate(18.363 16.048)"><path d="M1761.494,806.565l-1.432,0,.044-13.99a3.257,3.257,0,0,1,3.216-3.235l2.213-.02a1.852,1.852,0,0,1,1.287.523,1.792,1.792,0,0,1,.534,1.283h-1.432a.369.369,0,0,0-.111-.265.333.333,0,0,0-.266-.109l-2.213.02a1.82,1.82,0,0,0-1.8,1.807Z" transform="translate(-1760.062 -789.317)" fill="#32abaa"/></g><g transform="translate(0 57.383)"><path d="M1809.917,902.183h-68.464l15.072-53.87c1-3.377,1.984-6.761,2.691-10.21a8.639,8.639,0,0,1,8.46-6.9h15.7a8.638,8.638,0,0,1,8.46,6.9c.707,3.449,1.689,6.833,2.695,10.21Z" transform="translate(-1741.453 -831.207)" fill="#32abaa"/></g><g transform="translate(48.207 83.92)"><path d="M1801.6,902.539h-9.588l-1.709-44.439Z" transform="translate(-1790.307 -858.101)" fill="#196b66"/></g><g transform="translate(29.471 88.474)"><path d="M1776.536,902.6h-5.216l5.075-39.885Z" transform="translate(-1771.32 -862.716)" fill="#196b66"/></g><g transform="translate(6.033 76.54)"><path d="M1765.245,850.621l-3.963,51.819h-13.715Z" transform="translate(-1747.567 -850.621)" fill="#196b66"/></g><g transform="translate(37.843 4.898)"><rect width="10.914" height="3.769" fill="#788cc6"/></g></g><g transform="translate(9.369 70.622)"><rect width="141.953" height="3.769" fill="#788cc6"/></g><g transform="translate(1.229 66.466)"><g transform="translate(0 0)"><circle cx="5.025" cy="5.025" r="5.025" transform="translate(0 9.784) rotate(-76.791)" fill="#788cc6"/></g><g transform="translate(1.015 2.067)"><path d="M1753.325,781.957a5.025,5.025,0,1,1-7.65-6.056,5.023,5.023,0,0,0,7.65,6.056Z" transform="translate(-1743.727 -775.901)" fill="#576baf"/></g><g transform="translate(5.664 1.915)"><path d="M1752.787,779.145c-.314.415-1.524.029-2.7-.864s-1.883-1.952-1.569-2.367,1.525-.028,2.7.864S1753.1,778.731,1752.787,779.145Z" transform="translate(-1748.438 -775.747)" fill="#fff"/></g></g><g transform="translate(149.145 65.932)"><g transform="translate(0 0)"><circle cx="5.025" cy="5.025" r="5.025" transform="translate(0 3.876) rotate(-22.685)" fill="#788cc6"/></g><g transform="translate(1.55 2.601)"><path d="M1903.767,781.957a5.025,5.025,0,1,1-7.65-6.056,5.023,5.023,0,0,0,7.65,6.056Z" transform="translate(-1894.17 -775.901)" fill="#576baf"/></g><g transform="translate(6.197 2.449)"><path d="M1903.23,779.145c-.314.415-1.526.029-2.706-.864s-1.883-1.952-1.569-2.367,1.526-.028,2.706.864S1903.543,778.731,1903.23,779.145Z" transform="translate(-1898.88 -775.747)" fill="#fff"/></g></g><g transform="translate(50.847 65.724)"><g transform="translate(23.127)"><path d="M1819.475,789.245h-3.055V777.98a4.926,4.926,0,1,1,9.852,0V781h-3.054V777.98a1.871,1.871,0,0,0-3.743,0Z" transform="translate(-1816.42 -773.054)" fill="#576baf"/></g><g transform="translate(0 14.158)"><path d="M1839.773,801.425h-44.425a2.363,2.363,0,0,1-.9-4.55l23.109-9.473,23.109,9.473a2.363,2.363,0,0,1-.9,4.55Zm-40.914-3.054h37.4l-18.7-7.667Z" transform="translate(-1792.983 -787.402)" fill="#576baf"/></g></g><g transform="translate(54.777 82.162)"><g transform="translate(0 41.352)"><path d="M1838.264,849.207v42.869h-41.3V849.207a17.587,17.587,0,0,1,17.588-17.587h6.124a17.59,17.59,0,0,1,17.587,17.587Z" transform="translate(-1796.965 -831.62)" fill="#465596"/></g><g transform="translate(5.154)"><path d="M1833.176,793.8v33.591a5.458,5.458,0,0,1-5.455,5.459h-20.075a5.46,5.46,0,0,1-5.459-5.459V793.8l8.794-4.083v5.21a6.7,6.7,0,0,0,13.4,0v-5.21Z" transform="translate(-1802.188 -789.713)" fill="#465596"/></g><g transform="translate(11.808 31.774)"><path d="M1813.4,833.3c-.314,0-3.3-2.434-3.219-11.384,0,0-2.591,10.521-.314,11.305Z" transform="translate(-1808.932 -821.913)" fill="#374783"/></g><g transform="translate(7.587 35.542)"><path d="M1808.138,833.323h-.459a5.4,5.4,0,0,1-2.273-.5c-.032-.026-.063-.053-.095-.082-1.413-1.256-.107-7.013-.107-7.013A11.985,11.985,0,0,0,1808.138,833.323Z" transform="translate(-1804.654 -825.732)" fill="#374783"/></g><g transform="translate(26.039 30.465)"><path d="M1827.542,820.587s.366,11.15-4.188,12.668l4.816,0S1829.583,824.094,1827.542,820.587Z" transform="translate(-1823.354 -820.587)" fill="#374783"/></g><g transform="translate(20.793 38.957)"><path d="M1820.719,833.367a8.633,8.633,0,0,0,1.361-4.174s-1.687,4.083-4.043,4.24Z" transform="translate(-1818.037 -829.193)" fill="#374783"/></g><g transform="translate(10.558 43.158)"><path d="M1813.384,833.45s-4.789,6.752-3.846,14.918c0,0-4.161-9.578-.079-14.918Z" transform="translate(-1807.665 -833.45)" fill="#374783"/></g><g transform="translate(28.84 43.035)"><path d="M1828.943,859.273c3.606-11.62-2.751-25.745-2.751-25.745l2.387-.2a17.51,17.51,0,0,1,4.429,3C1834.875,845.047,1829.1,858.9,1828.943,859.273Z" transform="translate(-1826.192 -833.326)" fill="#374783"/></g><g transform="translate(19.418 43.131)"><path d="M1816.644,833.45a18.9,18.9,0,0,1,2.277,9.186s3.166-5.744,1.779-9.212Z" transform="translate(-1816.644 -833.423)" fill="#374783"/></g><g transform="translate(0 94.427)"><rect width="41.298" height="7.38" fill="#374783"/></g></g><g transform="translate(96.909 65.724)"><g transform="translate(23.127)"><path d="M1866.155,789.245H1863.1V777.98a4.926,4.926,0,1,1,9.852,0V781H1869.9V777.98a1.871,1.871,0,1,0-3.742,0Z" transform="translate(-1863.1 -773.054)" fill="#6a7cb3"/></g><g transform="translate(0 14.158)"><path d="M1886.453,801.425h-44.425a2.363,2.363,0,0,1-.9-4.55l23.109-9.473,23.11,9.473a2.363,2.363,0,0,1-.9,4.55Zm-40.915-3.054h37.405l-18.7-7.667Z" transform="translate(-1839.663 -787.402)" fill="#6a7cb3"/></g></g><g transform="translate(91.142 81.274)"><g transform="translate(20.413)"><rect width="19.864" height="3.062" fill="#a2b4de"/></g><g transform="translate(8.492 2.46)"><path d="M1854.28,791.306l10,17.953,10.024-17.9,13.5,5.26-11.777,33.6h-22.219L1842.424,796.3Z" transform="translate(-1842.424 -791.306)" fill="#a2b4de"/></g><g transform="translate(0 7.616)"><path d="M1849.508,816.448l-6.843,37.084h-8.847l8.492-57,5.207,9.133Z" transform="translate(-1833.818 -796.531)" fill="#a2b4de"/></g><g transform="translate(46.637 7.616)"><path d="M1881.081,816.448l6.843,37.084h8.847l-8.492-57-5.207,9.133Z" transform="translate(-1881.081 -796.531)" fill="#a2b4de"/></g><g transform="translate(19.877 40.984)"><rect width="22.612" height="4.161" fill="#576baf"/></g><g transform="translate(14.171 45.067)"><path d="M6.657,0H27.365a6.657,6.657,0,0,1,6.657,6.657V52.342a0,0,0,0,1,0,0H0a0,0,0,0,1,0,0V6.657A6.657,6.657,0,0,1,6.657,0Z" fill="#a2b4de"/></g></g><g transform="translate(79.371 70.622)"><rect width="10.914" height="3.769" fill="#788cc6"/></g><g transform="translate(123.643 70.622)"><rect width="10.914" height="3.769" fill="#788cc6"/></g><g transform="translate(9.369 53.312)"><rect width="141.953" height="3.768" fill="#788cc6"/></g><g transform="translate(25.239)"><g transform="translate(0 3.942)"><g transform="translate(9.52)"><path d="M1795.99,751.909c-10.648,0-19.311-9.3-19.311-20.734s8.663-20.733,19.311-20.733,19.311,9.3,19.311,20.733S1806.638,751.909,1795.99,751.909Zm0-38.125c-8.806,0-15.97,7.8-15.97,17.391s7.164,17.393,15.97,17.393,15.97-7.8,15.97-17.393S1804.8,713.784,1795.99,713.784Z" transform="translate(-1776.679 -710.443)" fill="#465596"/></g><g transform="translate(0 20.908)"><rect width="57.662" height="28.452" rx="3.323" fill="#576baf"/></g><g transform="translate(8.788 27.214)"><rect width="40.085" height="14.416" fill="#a2b4de"/></g><g transform="translate(13.799 33.331)"><rect width="30.064" height="2.181" fill="#788cc6"/></g><g transform="translate(13.799 34.042)"><path d="M1781.806,749.241h0a.791.791,0,0,1-.79-.79v-3.509h1.581v3.509A.79.79,0,0,1,1781.806,749.241Z" transform="translate(-1781.015 -744.942)" fill="#788cc6"/></g></g><g transform="translate(41.714)"><g transform="translate(15.954 42.719)"><rect width="7.154" height="10.583" fill="#ad2564"/></g><g transform="translate(28.326 32.885)"><rect width="9.423" height="20.417" fill="#780741"/></g><path d="M1847.046,739.425s-3.311,1.2-8.869,5.351a25.271,25.271,0,0,0-5.765,5.514,21.863,21.863,0,0,0-3.119,5.765,15.12,15.12,0,0,0-.9,3.7l-3.134-.015-14.693-.074a22.067,22.067,0,0,1-1.08-3.607c-.28-1.508-.325-3.075.518-3.7a43.77,43.77,0,0,1,4.168-2.484,49.13,49.13,0,0,0,6.459-3.977c1.848-1.67,2.956-39.171,2.956-39.171l7.3-.28-.28,2.114.089.015,13.584,1.936s-1.567,10.067-.65,15.24S1847.046,739.425,1847.046,739.425Z" transform="translate(-1809.305 -706.448)" fill="#ad2564"/><g transform="translate(4.868)"><path d="M1830.676,708.562l.089.015c-1.833,11.027-6.224,36.969-7.022,39.068-1.019,2.69-5.07,4.346-7.287,4.346-1.152,0-1.847-1.079-2.217-2.114a49.127,49.127,0,0,0,6.459-3.977c1.848-1.67,2.956-39.171,2.956-39.171l7.3-.28Z" transform="translate(-1814.238 -706.448)" fill="#780741"/></g><g transform="translate(25.701 22.099)"><path d="M1836.067,741.3a.717.717,0,0,1-.708-.828,16.3,16.3,0,0,1,7.381-11.539.716.716,0,1,1,.695,1.252h0a15.149,15.149,0,0,0-6.662,10.51A.717.717,0,0,1,1836.067,741.3Z" transform="translate(-1835.351 -728.844)" fill="#540830"/></g><g transform="translate(0.182 49.607)"><path d="M1832.415,756.721v3.7h-7.154V760.4l-14.693-.074a22.073,22.073,0,0,1-1.079-3.607Z" transform="translate(-1809.489 -756.721)" fill="#780741"/></g><g transform="translate(8.394 37.989)"><path d="M1826.412,748.35a.708.708,0,0,1-.174-.022l-7.884-1.971a.716.716,0,0,1,.347-1.389l7.884,1.971a.716.716,0,0,1-.174,1.411Z" transform="translate(-1817.811 -744.947)" fill="#540830"/></g><g transform="translate(9.503 32.692)"><path d="M1827.536,742.982a.7.7,0,0,1-.175-.022l-7.883-1.971a.716.716,0,0,1,.347-1.389l7.883,1.971a.716.716,0,0,1-.173,1.411Z" transform="translate(-1818.935 -739.579)" fill="#540830"/></g><g transform="translate(10.611 27.396)"><path d="M1828.659,737.614a.749.749,0,0,1-.174-.021l-7.884-1.972a.716.716,0,1,1,.347-1.389l7.884,1.972a.716.716,0,0,1-.174,1.41Z" transform="translate(-1820.058 -734.211)" fill="#540830"/></g><g transform="translate(11.227 22.037)"><path d="M1829.282,732.184a.707.707,0,0,1-.173-.022l-7.884-1.971a.716.716,0,1,1,.347-1.389l7.884,1.971a.716.716,0,0,1-.174,1.411Z" transform="translate(-1820.682 -728.781)" fill="#540830"/></g><g transform="translate(11.104 16.371)"><path d="M1829.158,726.442a.7.7,0,0,1-.174-.022l-7.883-1.971a.716.716,0,0,1,.347-1.389l7.883,1.971a.716.716,0,0,1-.174,1.411Z" transform="translate(-1820.558 -723.039)" fill="#540830"/></g><g transform="translate(11.72 12.183)"><path d="M1829.783,722.2a.756.756,0,0,1-.175-.022l-7.883-1.971a.716.716,0,1,1,.347-1.388l7.883,1.971a.716.716,0,0,1-.173,1.411Z" transform="translate(-1821.182 -718.794)" fill="#540830"/></g><g transform="translate(12.09 8.241)"><path d="M1830.157,718.2a.706.706,0,0,1-.174-.022l-7.884-1.971a.716.716,0,0,1,.347-1.389l7.884,1.971a.716.716,0,0,1-.174,1.411Z" transform="translate(-1821.557 -714.8)" fill="#540830"/></g><g transform="translate(12.644 3.806)"><path d="M1830.719,713.709a.7.7,0,0,1-.175-.022l-7.883-1.97a.716.716,0,0,1,.347-1.389l7.883,1.971a.716.716,0,0,1-.173,1.411Z" transform="translate(-1822.118 -710.306)" fill="#540830"/></g></g><g transform="translate(74.752)"><g transform="translate(15.954 42.719)"><rect width="7.154" height="10.583" fill="#ad2564"/></g><g transform="translate(28.326 32.885)"><rect width="9.423" height="20.417" fill="#780741"/></g><path d="M1880.528,739.425s-3.312,1.2-8.869,5.351a25.255,25.255,0,0,0-5.765,5.514,21.846,21.846,0,0,0-3.119,5.765,15.1,15.1,0,0,0-.9,3.7l-3.134-.015-14.693-.074a22,22,0,0,1-1.078-3.607c-.281-1.508-.326-3.075.517-3.7a43.8,43.8,0,0,1,4.168-2.484,49.133,49.133,0,0,0,6.459-3.977c1.848-1.67,2.956-39.171,2.956-39.171l7.3-.28-.281,2.114.089.015,13.584,1.936s-1.567,10.067-.65,15.24S1880.528,739.425,1880.528,739.425Z" transform="translate(-1842.786 -706.448)" fill="#ad2564"/><g transform="translate(4.868)"><path d="M1864.156,708.562l.089.015c-1.833,11.027-6.224,36.969-7.022,39.068-1.019,2.69-5.07,4.346-7.287,4.346-1.152,0-1.847-1.079-2.217-2.114a49.133,49.133,0,0,0,6.459-3.977c1.848-1.67,2.956-39.171,2.956-39.171l7.3-.28Z" transform="translate(-1847.719 -706.448)" fill="#780741"/></g><g transform="translate(25.701 22.099)"><path d="M1869.548,741.3a.706.706,0,0,1-.112-.009.716.716,0,0,1-.6-.819,16.3,16.3,0,0,1,7.382-11.539.716.716,0,0,1,.694,1.252h0a15.152,15.152,0,0,0-6.662,10.51A.717.717,0,0,1,1869.548,741.3Z" transform="translate(-1868.832 -728.844)" fill="#540830"/></g><g transform="translate(0.182 49.607)"><path d="M1865.9,756.721v3.7h-7.155V760.4l-14.693-.074a22.014,22.014,0,0,1-1.078-3.607Z" transform="translate(-1842.971 -756.721)" fill="#780741"/></g><g transform="translate(8.393 37.989)"><path d="M1859.893,748.35a.707.707,0,0,1-.174-.022l-7.884-1.971a.716.716,0,1,1,.347-1.389l7.884,1.971a.716.716,0,0,1-.174,1.411Z" transform="translate(-1851.292 -744.947)" fill="#540830"/></g><g transform="translate(9.502 32.692)"><path d="M1861.017,742.982a.717.717,0,0,1-.175-.022l-7.883-1.971a.716.716,0,1,1,.347-1.389l7.883,1.971a.716.716,0,0,1-.173,1.411Z" transform="translate(-1852.416 -739.579)" fill="#540830"/></g><g transform="translate(10.611 27.396)"><path d="M1862.14,737.614a.75.75,0,0,1-.174-.021l-7.884-1.972a.716.716,0,0,1,.347-1.389l7.884,1.972a.716.716,0,0,1-.174,1.41Z" transform="translate(-1853.539 -734.211)" fill="#540830"/></g><g transform="translate(11.227 22.037)"><path d="M1862.765,732.184a.709.709,0,0,1-.175-.022l-7.883-1.971a.716.716,0,0,1,.347-1.389l7.883,1.971a.716.716,0,0,1-.173,1.411Z" transform="translate(-1854.164 -728.781)" fill="#540830"/></g><g transform="translate(11.104 16.371)"><path d="M1862.64,726.442a.7.7,0,0,1-.175-.022l-7.883-1.971a.716.716,0,0,1,.347-1.389l7.883,1.971a.716.716,0,0,1-.173,1.411Z" transform="translate(-1854.039 -723.039)" fill="#540830"/></g><g transform="translate(11.72 12.183)"><path d="M1863.264,722.2a.752.752,0,0,1-.175-.022l-7.883-1.971a.716.716,0,1,1,.347-1.388l7.883,1.971a.716.716,0,0,1-.173,1.411Z" transform="translate(-1854.663 -718.794)" fill="#540830"/></g><g transform="translate(12.09 8.241)"><path d="M1863.638,718.2a.7.7,0,0,1-.174-.022l-7.883-1.971a.716.716,0,1,1,.347-1.389l7.883,1.971a.716.716,0,0,1-.174,1.411Z" transform="translate(-1855.038 -714.8)" fill="#540830"/></g><g transform="translate(12.643 3.806)"><path d="M1864.2,713.709a.713.713,0,0,1-.175-.022l-7.883-1.97a.716.716,0,0,1,.347-1.389l7.883,1.971a.716.716,0,0,1-.173,1.411Z" transform="translate(-1855.599 -710.306)" fill="#540830"/></g></g></g><g transform="translate(149.145 48.622)"><g transform="translate(0 0)"><circle cx="5.025" cy="5.025" r="5.025" transform="translate(0 3.876) rotate(-22.685)" fill="#788cc6"/></g><g transform="translate(1.55 2.601)"><path d="M1903.767,764.414a5.025,5.025,0,1,1-7.65-6.055,5.022,5.022,0,0,0,7.65,6.055Z" transform="translate(-1894.17 -758.359)" fill="#576baf"/></g><g transform="translate(5.704 1.864)"><ellipse cx="0.942" cy="2.679" rx="0.942" ry="2.679" transform="translate(0 1.503) rotate(-52.907)" fill="#fff"/></g></g><g transform="translate(1.229 49.156)"><g transform="translate(0 0)"><circle cx="5.025" cy="5.025" r="5.025" transform="translate(0 9.784) rotate(-76.791)" fill="#788cc6"/></g><g transform="translate(1.015 2.067)"><path d="M1753.325,764.414a5.025,5.025,0,1,1-7.65-6.055,5.022,5.022,0,0,0,7.65,6.055Z" transform="translate(-1743.727 -758.359)" fill="#576baf"/></g><g transform="translate(5.664 1.915)"><path d="M1752.787,761.6c-.314.415-1.524.028-2.7-.864s-1.883-1.953-1.569-2.367,1.525-.029,2.7.864S1753.1,761.188,1752.787,761.6Z" transform="translate(-1748.438 -758.205)" fill="#fff"/></g></g></g><g transform="translate(96.325 119.809)"><rect width="45.806" height="119.755" fill="#a35784"/><g transform="translate(10.833)"><rect width="45.806" height="119.755" fill="#df87b7"/></g></g><g transform="translate(95.933 70.748)"><g transform="translate(16.05)"><path d="M1740.245,800.172a1.221,1.221,0,0,1-1.22-1.188c-.3-11.005-4.36-18.4-7.966-18.4s-7.671,7.392-7.97,18.4a1.22,1.22,0,1,1-2.44-.066c.321-11.842,4.8-20.772,10.41-20.772s10.086,8.93,10.406,20.772a1.22,1.22,0,0,1-1.187,1.253Z" transform="translate(-1720.649 -778.146)" fill="#590935"/></g><g transform="translate(0 3.946)"><circle cx="18.719" cy="18.719" r="18.719" transform="translate(0 26.473) rotate(-45)" fill="#780741"/></g><g transform="translate(8.362 7.832)"><circle cx="18.719" cy="18.719" r="18.719" transform="translate(0 36.394) rotate(-76.438)" fill="#ad2564"/></g><g transform="translate(18.385 30.725)"><path d="M1747.178,811.216h-23.2a.967.967,0,0,1-.967-.967h0a.966.966,0,0,1,.967-.966h23.2a.966.966,0,0,1,.966.966h0A.966.966,0,0,1,1747.178,811.216Z" transform="translate(-1723.015 -809.283)" fill="#780741"/></g><g transform="translate(17.952 31.818)"><path d="M1725.934,810.94v-.549h-2.34v.549a15.258,15.258,0,0,1-1.017,5.479h4.374A15.274,15.274,0,0,1,1725.934,810.94Z" transform="translate(-1722.577 -810.391)" fill="#780741"/></g><g transform="translate(19.466 18.135)"><path d="M1729.147,799.042a2.518,2.518,0,1,1-2.518-2.518A2.518,2.518,0,0,1,1729.147,799.042Z" transform="translate(-1724.111 -796.524)" fill="#590935"/><g transform="translate(17.93)"><path d="M1747.318,799.042a2.518,2.518,0,1,1-2.518-2.518A2.519,2.519,0,0,1,1747.318,799.042Z" transform="translate(-1742.282 -796.524)" fill="#590935"/></g></g><g transform="translate(20.54)"><path d="M1744.8,800.172a1.221,1.221,0,0,1-1.219-1.188c-.3-11.005-4.36-18.4-7.966-18.4s-7.671,7.392-7.969,18.4a1.221,1.221,0,0,1-2.44-.066c.321-11.842,4.8-20.772,10.409-20.772s10.087,8.93,10.407,20.772a1.22,1.22,0,0,1-1.187,1.253Z" transform="translate(-1725.2 -778.146)" fill="#780741"/></g></g><g transform="translate(80.428 136.29)"><g transform="translate(0 26.146)"><g transform="translate(10.833)"><rect width="45.806" height="77.128" fill="#576baf"/></g><rect width="45.806" height="77.128" fill="#a2b4de"/></g><g transform="translate(3.434)"><g transform="translate(24.66 15.644)"><path d="M1719.56,861.064l-1.566,9.787-.853,0,.914-10.425Z" transform="translate(-1717.141 -860.422)" fill="#26938f"/></g><g transform="translate(22.907 0.008)"><path d="M1716.438,844.576a2.323,2.323,0,0,1,1.359.642c2.485,1.992,8.172,7.723,9.688,11.467,1.288,3.18,9,5.65,9,5.65l-2.639,1.362s-10.559-1.444-10.642-1.608-7.837-7.178-7.837-7.3S1716.438,844.576,1716.438,844.576Z" transform="translate(-1715.364 -844.576)" fill="#15615b"/></g><g transform="translate(21.762 12.44)"><path d="M1714.2,857.174l1.257,13.619,1.641.01,1.184-10.2Z" transform="translate(-1714.204 -857.174)" fill="#32abaa"/></g><g transform="translate(20.624)"><path d="M1713.292,856.663c1.268,3.224,8.58,5.7,10.967,8.33s4.776,5.612,5.066,5.612c.209.007,7.4.014,11.494.027a1.383,1.383,0,0,0,1.078-2.246c-.182-.236-.371-.472-.553-.708-.216-.289-.445-.566-.668-.85-.095-.128-.2-.25-.29-.371-.614-.755-1.261-1.558-1.9-2.327-.06-.061-.115-.128-.168-.188-.918-1.019-1.673-1.674-2.179-1.674h-.021c-1.537,0-6.09,1.025-10.6-2.515-1.714-1.012-7.447-11.939-8.958-14.887-.047-.094-.095-.182-.135-.262-.007-.007-.013-.021-.02-.027-.169-.108-.763.876-.837,1a.021.021,0,0,0-.007.014C1714.465,848.346,1712.334,854.234,1713.292,856.663Z" transform="translate(-1713.051 -844.568)" fill="#26938f"/></g><g transform="translate(23.138)"><path d="M1715.6,845.594c1.632,4.553,3.724,12.215,10.671,17.389,5.1,3.791,11.757,5.255,15.959,6.387a1.38,1.38,0,0,0-.3-.985c-.182-.236-.371-.472-.553-.708-.216-.289-.445-.566-.668-.85-.095-.128-.2-.25-.29-.371-.667-.863-1.308-1.666-1.9-2.327-.06-.061-.115-.128-.168-.188-.918-1.019-1.674-1.674-2.179-1.674h-.021c-1.537,0-6.09,1.025-10.6-2.515-1.565-1.228-7.4-11.972-8.958-14.887-.047-.094-.095-.182-.135-.262-.007-.007-.013-.021-.02-.027-.169-.108-.763.876-.837,1A.021.021,0,0,0,1715.6,845.594Z" transform="translate(-1715.598 -844.568)" fill="#32abaa"/></g><g transform="translate(4.036 15.644)"><path d="M1698.659,861.064l-1.566,9.787-.853,0,.915-10.425Z" transform="translate(-1696.24 -860.422)" fill="#26938f"/></g><g transform="translate(2.283 0.008)"><path d="M1695.538,844.576a2.325,2.325,0,0,1,1.36.642c2.484,1.992,7.821,7.786,9.336,11.528,1.289,3.18,9.349,5.589,9.349,5.589l-2.641,1.362s-10.559-1.444-10.641-1.608-7.837-7.178-7.837-7.3S1695.538,844.576,1695.538,844.576Z" transform="translate(-1694.464 -844.576)" fill="#15615b"/></g><g transform="translate(1.139 12.44)"><path d="M1693.3,857.174l1.257,13.619,1.641.01,1.185-10.2Z" transform="translate(-1693.304 -857.174)" fill="#32abaa"/></g><path d="M1692.391,856.663c1.268,3.224,8.58,5.7,10.968,8.33s4.775,5.612,5.065,5.612c.209.007,7.4.014,11.494.027a1.368,1.368,0,0,0,1.376-1.261,1.389,1.389,0,0,0-.3-.985c-.182-.236-.371-.472-.553-.708-.215-.289-.445-.566-.667-.85-.095-.128-.2-.25-.29-.371-.614-.755-1.261-1.558-1.9-2.327-.061-.061-.114-.128-.169-.188-.918-1.019-1.672-1.674-2.179-1.674h-.02c-1.538,0-6.091,1.025-10.6-2.515-1.713-1.012-7.446-11.939-8.958-14.887-.046-.094-.094-.182-.134-.262-.007-.007-.014-.021-.021-.027-.169-.108-.762.876-.836,1a.021.021,0,0,0-.007.014C1693.565,848.346,1691.434,854.234,1692.391,856.663Z" transform="translate(-1692.15 -844.568)" fill="#26938f"/><g transform="translate(2.514)"><path d="M1694.7,845.594c1.632,4.553,3.723,12.215,10.671,17.389,5.1,3.791,11.756,5.255,15.959,6.387a1.389,1.389,0,0,0-.3-.985c-.182-.236-.371-.472-.553-.708-.215-.289-.445-.566-.667-.85-.095-.128-.2-.25-.29-.371-.668-.863-1.309-1.666-1.9-2.327-.061-.061-.114-.128-.169-.188-.918-1.019-1.673-1.674-2.179-1.674h-.02c-1.538,0-6.091,1.025-10.6-2.515-1.565-1.228-7.4-11.972-8.958-14.887-.046-.094-.094-.182-.134-.262-.007-.007-.014-.021-.021-.027-.169-.108-.762.876-.836,1A.022.022,0,0,0,1694.7,845.594Z" transform="translate(-1694.698 -844.568)" fill="#32abaa"/></g></g></g><g transform="translate(210.566 70.162)"><g transform="translate(0 30.525)"><g transform="translate(9.478 13.738)"><path d="M1851.9,823.443l-.715-.107-3.473-.514a38.678,38.678,0,0,0-11.664.056l-2.762.438-1.86.292a1.746,1.746,0,0,0-1.27.872v15.378a60.408,60.408,0,0,0,.545,8.1,2.293,2.293,0,0,1,.05.362,60.732,60.732,0,0,0,1.618,7.823l2.248,8.13h15.968l1.94-8.24a60.311,60.311,0,0,0,1.276-7.46v-.01a3.374,3.374,0,0,1,.06-.59,2.438,2.438,0,0,1,.081-.323c.171-1.865.257-3.745.257-5.62V824.4Z" transform="translate(-1830.16 -822.408)" fill="#850e4b"/></g><g transform="translate(20.165)"><path d="M1843.654,821.57h-2.663v-8.789a4.295,4.295,0,1,1,8.59,0v2.631h-2.663v-2.631a1.632,1.632,0,0,0-3.263,0Z" transform="translate(-1840.991 -808.486)" fill="#6a7cb3"/></g><g transform="translate(0 11.312)"><path d="M1861.353,832.177h-38.736a2.06,2.06,0,0,1-.781-3.967l20.149-8.26,20.15,8.26a2.06,2.06,0,0,1-.781,3.967Zm-35.675-2.663h32.614l-16.307-6.685Z" transform="translate(-1820.555 -819.95)" fill="#6a7cb3"/></g><g transform="translate(5.982 14.637)"><path d="M1855.446,844.947a8.886,8.886,0,0,0-1.548,2.715,2.887,2.887,0,0,0-.079.32,3.175,3.175,0,0,0-.062.591v.009a60.309,60.309,0,0,1-1.274,7.458l-1.943,8.241h-16.012l-2.248-8.129a61.2,61.2,0,0,1-1.622-7.82,2.3,2.3,0,0,0-.046-.367,8.5,8.5,0,0,0-1.781-3.018c-1.079-1.423-2.456-3.712-2.177-5.868.4-3.138,2.413-9.127,3.213-14.014a1.6,1.6,0,0,1,.2-.574,1.757,1.757,0,0,1,1.265-.869l1.918-.3c.009.857.1,13.981,6.917,14.76a5.937,5.937,0,0,0,.608.025h2.726a5.8,5.8,0,0,0,.6-.025c6.813-.779,7.035-13.879,7.043-14.736l1.8.277a1.753,1.753,0,0,1,1.17.715.528.528,0,0,1,.045.071,1.733,1.733,0,0,1,.254.657c.8,4.886,2.805,10.876,3.209,14.014C1857.894,841.234,1856.521,843.524,1855.446,844.947Z" transform="translate(-1826.617 -823.32)" fill="#ad2564"/></g><g transform="translate(3.952 47.082)"><g transform="translate(7.507)"><rect width="20.567" height="4.578" fill="#576baf"/></g><g transform="translate(0 2.429)"><g transform="translate(15.069 0.062)"><path d="M1839.831,858.725l.371,15.712,2.721,2.969,4.981,62.232h12.439c-.263-5.411-2.6-69.026-3.069-73-.494-4.207-4.7-7.2-4.7-7.2Z" transform="translate(-1839.831 -858.725)" fill="#576baf"/></g><g transform="translate(24.196 1.328)"><path d="M1856.286,873.893a3.814,3.814,0,0,1-3.453-1.841c-1.374-2.371-3.657-11.468-3.753-11.854l.758-.189c.024.093,2.353,9.376,3.671,11.652,1.194,2.061,3.856,1.313,3.883,1.305l.219.751A4.883,4.883,0,0,1,1856.286,873.893Z" transform="translate(-1849.081 -860.008)" fill="#465596"/></g><g transform="translate(26.679 31.799)"><rect width="0.782" height="49.205" transform="translate(0 0.034) rotate(-2.467)" fill="#465596"/></g><path d="M1845.073,858.662l-.372,15.712-2.721,2.969L1837,939.575H1824.56c.261-5.411,2.6-69.026,3.068-73,.495-4.207,4.6-7.108,4.6-7.108Z" transform="translate(-1824.56 -858.662)" fill="#576baf"/><g transform="translate(2.855 1.266)"><path d="M1828.777,873.83a4.841,4.841,0,0,1-1.324-.177l.218-.751c.11.031,2.695.747,3.883-1.3,1.318-2.276,3.647-11.559,3.671-11.653l.759.19c-.1.386-2.38,9.484-3.753,11.855A3.815,3.815,0,0,1,1828.777,873.83Z" transform="translate(-1827.453 -859.945)" fill="#465596"/></g><g transform="translate(6.005 31.737)"><rect width="49.205" height="0.782" transform="translate(0 49.16) rotate(-87.538)" fill="#465596"/></g><g transform="translate(17.549 1.461)"><path d="M1843,875.9l-.656-.425,1.646-2.543a2.758,2.758,0,0,0,.441-1.5V860.143h.783v11.288a3.531,3.531,0,0,1-.567,1.921Z" transform="translate(-1842.345 -860.143)" fill="#465596"/></g></g><g transform="translate(7.843 3.29)"><rect width="19.943" height="0.782" fill="#465596"/></g></g></g><g transform="translate(18.257)"><g transform="translate(24.135 44.405)"><path d="M1871.677,829.126a4.8,4.8,0,0,1-.41,1.133,4.081,4.081,0,0,1-1.431,1.623.038.038,0,0,1-.02.01c-.976.591-2.351.541-4.2-.233l-2.1-3.069s1.977-2.882,4.491-6.037a14.708,14.708,0,0,1,1.552,1.1A5.442,5.442,0,0,1,1871.677,829.126Z" transform="translate(-1863.515 -822.553)" fill="#f0908c"/></g><g transform="translate(32.457 52.701)"><g transform="translate(11.711)"><path d="M1909.35,834.253c-.021.1-.041.188-.066.273a.109.109,0,0,1-.005.02.6.6,0,0,1-.045.121c-.354,1.042-1.385,1.9-3.2,2.559a23.78,23.78,0,0,1-5.2,1.122c-.354.045-.738.081-1.143.116-1.588.121-3.5.172-5.441.178-3.069.01-6.173-.1-8.044-.173h-.015c-1.083-.045-1.745-.081-1.745-.081l-.632-4.029s1.314-.249,3.342-.618,4.738-.834,7.568-1.289q.758-.129,1.522-.243c1.173-.183,2.351-.359,3.489-.516,4.7-.662,8.691-1.026,9.025-.44a5.01,5.01,0,0,1,.471,1.108A4.232,4.232,0,0,1,1909.35,834.253Z" transform="translate(-1883.817 -830.96)" fill="#f0908c"/></g><g transform="translate(0 0.928)"><path d="M1873.045,839.573s-1.061.177-1.1-.6c-.034-.711,1.061-1.264,1.061-1.264s-.253-.6.489-1.234c.789-.671,5.3-1.957,5.637-2.738s-1.354-.409-2.132-.6a4.133,4.133,0,0,1-1.54-.948,22.762,22.762,0,0,1,5.359-.2,39.606,39.606,0,0,1,6.5,1.876l.38.139-1.152,4.483s-.261-.013-.663-.011a20.239,20.239,0,0,1-2.524.971c-1.414.451-7.069,1.979-7.564,1.862a1.846,1.846,0,0,1-.887-.65,2.361,2.361,0,0,1-1.2.008C1873.268,840.495,1873.045,839.573,1873.045,839.573Z" transform="translate(-1871.949 -831.9)" fill="#f0908c"/></g></g><g transform="translate(9.604 36.315)"><path d="M1871.481,829.017a4.8,4.8,0,0,1-.41,1.133,4.082,4.082,0,0,1-1.431,1.623.038.038,0,0,1-.02.01c-.976.591-2.351.541-4.2-.233a23.911,23.911,0,0,1-4.581-2.71c-4.3-3.1-12.054-11.1-12.054-11.1l2.271-3.389s8.828,3.687,14.481,6.77c.839.461,1.612.906,2.271,1.32a14.712,14.712,0,0,1,1.552,1.1A5.442,5.442,0,0,1,1871.481,829.017Z" transform="translate(-1848.789 -814.354)" fill="#f0908c"/></g><g transform="translate(35.526 62.907)"><path d="M1875.267,887.56l10.231,1.282s4.851-13.306,8.573-23.556-3.062-22.993-3.062-22.993l-10.747-.99s-.307.455-.762,1.263a85.461,85.461,0,0,0-2.5,10.124c-.794,4.14-1.417,9.781-1.891,15.416v.024C1874.943,877.961,1875.267,887.56,1875.267,887.56Z" transform="translate(-1875.06 -841.303)" fill="#f0908c"/></g><g transform="translate(55.751 46.231)"><path d="M1909.506,834.166c-.021.1-.041.188-.066.273-.021.05-.036.1-.05.141a1.662,1.662,0,0,1-.178.339c-.864,1.29-5.713,2.033-9.384,2.417-.339.036-.672.065-.986.1-.207.021-.4.036-.6.05-.358.031-.7.061-1,.086-.106.006-.207.016-.3.021-.855.06-1.38.091-1.38.091l.849-5.556.026-.162s.915-.319,2.038-.688c.1-.036.212-.071.324-.107.207-.065.419-.141.631-.207s.421-.136.628-.2a.554.554,0,0,1,.086-.025v0a16.949,16.949,0,0,1,2.209-.612h.036c.036,0,.055-.016.06-.051a.528.528,0,0,0-.02-.272A27.273,27.273,0,0,0,1901,826.43l6.542-2.027s.354.945.764,2.29c.121.4.253.839.379,1.3C1909.278,830.121,1909.814,832.68,1909.506,834.166Z" transform="translate(-1895.556 -824.403)" fill="#f0908c"/></g><g transform="translate(54.342 52.561)"><path d="M1899.875,831.692l-.794,2.872.673.04.055,2.816.021,1.041c-1.588.121-3.5.172-5.441.178-.11-1.416-.334-4.43-.237-4.622.055-.106.364-.793.713-1.567q.758-.129,1.522-.243l.026-.162s.915-.319,2.038-.688c.1-.036.212-.071.324-.107.207-.065.419-.141.632-.207s.42-.136.628-.2a.564.564,0,0,1,.086-.025Z" transform="translate(-1894.128 -830.818)" fill="#c96761"/></g><g transform="translate(28.139 105.556)"><path d="M1887.709,902.043c-.16,5.164-1.759,13.483-3.17,20.269-.395,1.885-1.571,8.977-1.671,9.531-.059.322-.1.617-.129.876v0a.15.15,0,0,0,0,.036,3.841,3.841,0,0,0-.007.889,7.284,7.284,0,0,0,.19.833l.059.189c.707,2.2,1.814,3.629.095,5.681a13.347,13.347,0,0,1-1.865,1.751v.007a3.048,3.048,0,0,0-.255.2l0,0c-2.181,1.7-4.9,3.315-5.765,4.45-1.2,1.573-8.027,2.053-7.592.829a1.42,1.42,0,0,1,.179-.312l.021-.03,0-.01c.514-.743,1.875-2.25,3.428-4.088.434-.515.882-1.056,1.334-1.616,2.449-3.043,4.914-6.584,5.07-9.076.04-.65.08-1.473.107-2.452.02-.743.034-1.573.034-2.489s0-1.928-.024-3.01c-.073-4.019-.339-9.093-.972-14.85-.352-3.172-1.972-20.79-1.972-20.959,0,.063,10.815-4.171,10.815-4.171a11.658,11.658,0,0,0,.385,3.442c.339,1.261.714,2.82,1.025,4.626A46.217,46.217,0,0,1,1887.709,902.043Z" transform="translate(-1867.573 -884.525)" fill="#f0908c"/></g><g transform="translate(41.504 162.848)"><path d="M1881.117,942.988l.98,6.128.534,0-.572-6.527Z" transform="translate(-1881.117 -942.586)" fill="#162748"/></g><g transform="translate(42.276 160.842)"><path d="M1884.456,940.553l-.787,8.527-1.027.006-.742-6.385Z" transform="translate(-1881.901 -940.553)" fill="#1d3359"/></g><g transform="translate(27.294 153.053)"><path d="M1884.817,940.232c-.794,2.019-5.372,3.568-6.867,5.216s-2.99,3.514-3.171,3.514c-.131,0-4.633.008-7.2.017a.857.857,0,0,1-.862-.79.869.869,0,0,1,.187-.617c.114-.147.232-.295.346-.443.135-.182.278-.354.417-.532.059-.081.123-.157.183-.233.384-.473.789-.975,1.186-1.456.038-.039.072-.081.106-.118.574-.637,1.048-1.047,1.365-1.047h.012a8.766,8.766,0,0,0,6.639-1.576c1.073-.634,4.662-7.475,5.609-9.321.03-.059.059-.114.085-.165l.013-.017c.106-.067.477.55.523.63l0,.009C1884.082,935.025,1885.417,938.712,1884.817,940.232Z" transform="translate(-1866.717 -932.659)" fill="#162748"/></g><g transform="translate(27.294 153.053)"><path d="M1883.394,933.3c-1.022,2.851-2.332,7.648-6.681,10.887-3.193,2.374-7.361,3.29-9.993,4a.869.869,0,0,1,.187-.617c.114-.147.232-.295.346-.443.135-.182.278-.354.417-.532.059-.081.123-.157.183-.233.417-.54.819-1.043,1.186-1.456.038-.039.072-.081.106-.118.574-.637,1.048-1.047,1.365-1.047h.012a8.766,8.766,0,0,0,6.639-1.576c.98-.769,4.634-7.5,5.609-9.321.03-.059.059-.114.085-.165l.013-.017c.106-.067.477.55.523.63Z" transform="translate(-1866.717 -932.659)" fill="#1d3359"/></g><g transform="translate(49.45 103.941)"><path d="M1904.43,932.549a3.819,3.819,0,0,0-.006.889,6.5,6.5,0,0,0,.193.833c.02.063.036.123.059.183v0c.7,2.2,1.716,3.841-.006,5.9a13.363,13.363,0,0,1-1.865,1.751v.007a2.541,2.541,0,0,0-.256.2c-2.181,1.7-4.9,3.315-5.767,4.449-1.2,1.573-8.023,2.054-7.592.83a1.4,1.4,0,0,1,.179-.312l.021-.03,0-.01c.514-.747,1.875-2.25,3.431-4.088.431-.515.883-1.056,1.334-1.616,2.445-3.043,4.911-6.584,5.071-9.076.026-.465.115-1.839.135-2.477.027-.726.046-1.559.056-2.489.01-1.132-6.653-40.368-6.643-40.434a3.677,3.677,0,0,0,.83.159l9.985-4.33s2.764,5.608,3.079,7.412c.465,2.675-1.98,40.147-2.048,40.512-.059.322-.162,1.438-.188,1.7v0A.116.116,0,0,0,1904.43,932.549Z" transform="translate(-1889.17 -882.888)" fill="#f0908c"/></g><g transform="translate(62.815 162.872)"><path d="M1902.715,943.013l.981,6.128.534,0-.573-6.527Z" transform="translate(-1902.715 -942.61)" fill="#162748"/></g><g transform="translate(63.588 160.866)"><path d="M1906.054,940.577l-.787,8.527-1.027.006-.742-6.385Z" transform="translate(-1903.498 -940.577)" fill="#1d3359"/></g><g transform="translate(48.605 153.1)"><path d="M1904.454,932.707c.008,0,.477.537.536.621.693,1.723,2.023,5.41,1.424,6.931-.794,2.014-5.373,3.568-6.868,5.211s-2.99,3.518-3.172,3.518c-.131,0-4.629.009-7.2.013a.858.858,0,0,1-.861-.789.868.868,0,0,1,.186-.613c.118-.148.233-.295.346-.443q.21-.272.418-.533c.059-.08.122-.156.182-.232.38-.478.786-.976,1.187-1.456.037-.039.071-.081.106-.118.574-.638,1.047-1.048,1.364-1.048h.013a8.764,8.764,0,0,0,6.639-1.575c.743-.444,2.7-3.869,4.143-6.542.046-.089.093-.173.139-.258Z" transform="translate(-1888.314 -932.707)" fill="#162748"/></g><g transform="translate(48.605 153.1)"><path d="M1904.99,933.328c-1.022,2.851-2.331,7.648-6.676,10.888-3.2,2.373-7.366,3.29-10,4a.87.87,0,0,1,.186-.613c.118-.148.233-.295.346-.443q.21-.272.418-.533c.059-.08.122-.156.182-.232.422-.541.824-1.043,1.187-1.456.037-.039.071-.081.106-.118.574-.638,1.047-1.048,1.364-1.048h.013a8.764,8.764,0,0,0,6.639-1.575c.65-.507,2.686-3.94,4.143-6.542.046-.089.093-.173.139-.258.747-1.343,1.313-2.424,1.415-2.686C1904.462,932.707,1904.931,933.244,1904.99,933.328Z" transform="translate(-1888.314 -932.707)" fill="#1d3359"/></g><g transform="translate(61.195 46.23)"><path d="M1908.759,827.991l-6.226,2.095-.017-.021a.584.584,0,0,0-.021-.27,26.945,26.945,0,0,0-1.423-3.366l6.545-2.027s.351.945.761,2.288C1908.5,827.092,1908.633,827.531,1908.759,827.991Z" transform="translate(-1901.073 -824.402)" fill="#c96761"/></g><g transform="translate(57.358 31.988)"><path d="M1903.917,809.969h0a11,11,0,0,1,2.492,4.406l3.149,10.859-9.291,4.894-3.082-6.761Z" transform="translate(-1897.184 -809.969)" fill="#fee9e1"/></g><g transform="translate(33.799 0.01)"><path d="M1873.309,805.936l1.57.185a7.671,7.671,0,0,1,.957-4.214,8.178,8.178,0,0,0,.574,4.395l9.873,1.165,1.721-4.936-1.34-4.155s-.022-.047-.062-.13l-.031-8.773,4.842-11.911s-4.063.469-6.079.6-4.258.634-5.176,1.738a10.9,10.9,0,0,0-1.54,7.41,9.663,9.663,0,0,1-1.151,6.957A22.537,22.537,0,0,0,1873.309,805.936Z" transform="translate(-1873.309 -777.562)" fill="#20243e"/></g><g transform="translate(38.74 3.982)"><path d="M1893.147,806.555l-.27,2.275a14.717,14.717,0,0,1-3.328.118,11.47,11.47,0,0,1-3.382-.911,28.863,28.863,0,0,0,.571-4.439c0-.135,0-.264,0-.394a4.511,4.511,0,0,0-.022-.47,3.674,3.674,0,0,0-.118-.657.05.05,0,0,0-.006-.017,1.026,1.026,0,0,0-.264-.464,1.313,1.313,0,0,0-.55-.264.308.308,0,0,0-.065-.016.018.018,0,0,1-.016-.006l-.044-.016h-.022a14.144,14.144,0,0,0-2.19-.221l-.011-.006a4.044,4.044,0,0,1-2.017-.414,3.051,3.051,0,0,1-.707-1.526c-.022-.092-.043-.216-.076-.356a1.043,1.043,0,0,0-.022-.118.063.063,0,0,0-.005-.028c-.087-.453-.2-1.094-.329-1.774,0-.048-.016-.092-.022-.14s-.021-.113-.031-.168a11.278,11.278,0,0,0-.8-2.243,21.261,21.261,0,0,0-1.068-1.931c-.087-.216.016-.4.3-.443.259-.037,2.023-.8,2.341-1.974.087-.334.232-1.273.324-1.834a.207.207,0,0,0,.011-.053c.017-.1.033-.179.043-.249l.032-.162c.011-.081.027-.162.038-.243a25.162,25.162,0,0,1,.551-3.322,3.416,3.416,0,0,1,2.352-2.5s2.4.685,4.659,4.569a26,26,0,0,1,1.338,5.1,17.249,17.249,0,0,1,2.384,6.2C1893.077,800.5,1893.147,806.555,1893.147,806.555Z" transform="translate(-1878.317 -781.587)" fill="#f0908c"/></g><g transform="translate(40.697 10.187)"><g transform="translate(3.042 4.505)" opacity="0.5"><path d="M1883.4,794.353a2.183,2.183,0,1,0,2.437-1.9A2.182,2.182,0,0,0,1883.4,794.353Z" transform="translate(-1883.383 -792.441)" fill="#c96761"/></g><g transform="translate(0 9.058)"><path d="M1880.3,797.055c.129.682.241,1.321.327,1.774l.007.031a6.413,6.413,0,0,0,2.027-1.635A13.568,13.568,0,0,1,1880.3,797.055Z" transform="translate(-1880.3 -797.055)" fill="#fff"/></g><g transform="translate(0.916)"><path d="M1881.228,788.372c.032,0,.065,0,.1.006.206.009.438.03.684.06a6.1,6.1,0,0,1,.749.144c.128.022.248.075.372.1l.355.124c.116.047.227.095.334.136s.2.095.3.134.185.078.257.122.144.072.2.1c.116.052.187.082.187.082s-.034-.066-.1-.176a2.191,2.191,0,0,0-.332-.421,2.068,2.068,0,0,0-.263-.249c-.1-.075-.211-.161-.334-.233a4,4,0,0,0-.391-.2,3.119,3.119,0,0,0-.432-.142,2.988,2.988,0,0,0-.446-.077,2.506,2.506,0,0,0-.437-.011,2.658,2.658,0,0,0-.736.133C1881.273,788.135,1881.25,788.255,1881.228,788.372Z" transform="translate(-1881.228 -787.875)" fill="#20243e"/></g><g transform="translate(1.113 1.495)"><path d="M1882.684,790.376c-.112.454-.476.754-.813.671a.762.762,0,0,1-.41-.972c.111-.454.476-.754.814-.671A.763.763,0,0,1,1882.684,790.376Z" transform="translate(-1881.428 -789.39)" fill="#3d1525"/></g></g><g transform="translate(46.256 23.336)"><path d="M1885.943,801.2h-.01" transform="translate(-1885.933 -801.201)" fill="none"/></g><g transform="translate(46.266 21.921)" opacity="0.42"><path d="M1892.506,799.767c-.136.1-3.312,2.274-5.582,3.559,0-.126,0-.248,0-.369a3.928,3.928,0,0,0-.021-.44,3.335,3.335,0,0,0-.11-.617.05.05,0,0,0-.005-.015.972.972,0,0,0-.248-.435,1.223,1.223,0,0,0-.516-.248.279.279,0,0,0-.061-.016.018.018,0,0,1-.015,0A30.392,30.392,0,0,0,1892.506,799.767Z" transform="translate(-1885.943 -799.767)" fill="#c96761"/></g><g transform="translate(35.016 27.843)"><path d="M1896.444,805.768h0a10.785,10.785,0,0,1-9.812.2l-.111-.054-8.207,2.843s-4.438,9.872-3.684,13.392c.9,4.224,4.017,3.614,4.017,3.614l2.635,11.947,16.078-.351,6.257-27.441Z" transform="translate(-1874.543 -805.768)" fill="#fee9e1"/></g><g transform="translate(42.857)"><path d="M1884.815,788.34a11.068,11.068,0,0,0,2.912,2.389l0,0a6.26,6.26,0,0,1,3.495,5.264c.017.133.03.268.038.4a9.1,9.1,0,0,1-.438,3.517,8.73,8.73,0,0,1-.451,1.1,15.09,15.09,0,0,0-.772,1.867,10.191,10.191,0,0,0-.588,4.761s-.047.048-.13.129l7.958.939c2.294-1.913,3.048-5.8,3.048-5.8a7.509,7.509,0,0,1-1.1,6.034l2.034.24s4.345-6.614.268-11.235l-.013,0c-1.3-2.017-2.931-4.019-2.314-6.2,1.172-4.135,1.448-9.816-2.637-12.571s-6.936-1.206-10.5-1.029a10.909,10.909,0,0,0-2.111.255C1881.009,780.192,1883.749,787.1,1884.815,788.34Z" transform="translate(-1882.489 -777.552)" fill="#20243e"/></g><g transform="translate(48.046 11.799)"><path d="M1887.764,791.537a2.3,2.3,0,1,0,2.55-2.012A2.295,2.295,0,0,0,1887.764,791.537Z" transform="translate(-1887.748 -789.509)" fill="#f0908c"/></g><g transform="translate(48.381 1.535)"><path d="M1894.2,779.124c.933-.237,1.886,2.14,2.658,3.74,1.059,2.19.755,5.415.189,5.469s-1.628-2.819-1.884-1.967.193,1.473-.384,1.571c-.5.083-1.258-1.623-1.519-1.359-.391.4.316,1.523-.473,1.78-.457.148-1.753-1.763-1.658-1.056.125.937-.036,1.892-1.074.9-.817-.784-2.508-3.554-1.8-3.429s1.16,1.913,1.542,1.6c.6-.481-.2-2.279.454-2.543s1.294,1.75,1.93,1.277-.862-2.225-.121-2.507,1.88,2.614,2.665,1.892S1893.836,779.217,1894.2,779.124Z" transform="translate(-1888.086 -779.107)" fill="#303b6a"/></g><g transform="translate(28.5 30.827)"><path d="M1878.226,808.792h0a19.449,19.449,0,0,0-3.828,3.41l-6.459,7.5L1873,831.4l10.324-6.72Z" transform="translate(-1867.939 -808.792)" fill="#fee9e1"/></g><g transform="translate(28.62 43.92)"><path d="M1868.9,822.061l-.837.506,2.42,8.852,1.754-1.618Z" transform="translate(-1868.061 -822.061)" fill="#c96761"/></g><g transform="translate(38.299 148.473)"><path d="M1877.9,928.091l5.893-.073c-.193.913-.336,1.781-.488,2.521l-5.439.041C1877.89,929.837,1877.9,929.007,1877.9,928.091Z" transform="translate(-1877.87 -928.018)" fill="#c96761"/></g><g transform="translate(59.645 148.545)"><path d="M1904.824,930.579H1899.5c.026-.726.046-1.558.054-2.488h5.49a5.024,5.024,0,0,0-.1.68Z" transform="translate(-1899.502 -928.091)" fill="#c96761"/></g><g transform="translate(49.82 59.478)"><path d="M1897.586,837.86s6.516,7.772,8.175,17.261-1.659,23.116-.7,27.78,3.167,10.779,3.571,15.94-2.709,29.134-2.709,29.134h-9.159l-6.984-42.785-.24-47.362Z" transform="translate(-1889.545 -837.828)" fill="#162748"/></g><g transform="translate(34.308 59.478)"><path d="M1873.825,889.517l2.146,38.46h9.8s4.437-20.526,3.3-33.3,6.263-22.507,7.806-29.863c4-19.08-2.031-26.987-2.031-26.987h-13.571a22.2,22.2,0,0,0-1.789,4.406,85.886,85.886,0,0,0-2.5,10.158c-.794,4.153-1.417,9.813-1.891,15.467v.024C1874.182,878.725,1873.825,889.517,1873.825,889.517Z" transform="translate(-1873.825 -837.828)" fill="#1d3359"/></g><g transform="translate(59.421 33.725)"><rect width="15.701" height="0.634" transform="matrix(0.151, -0.988, 0.988, 0.151, 0, 15.521)" fill="#f6c6b4"/></g><g transform="translate(38.091 33.58)"><rect width="0.634" height="13.595" transform="translate(0 0.069) rotate(-6.242)" fill="#f6c6b4"/></g><g transform="translate(41.081 57.096)"><rect width="17.773" height="3.602" fill="#1d3359"/></g><g transform="translate(0 29.149)"><path d="M1839.607,810.868s-.9-.59-.4-1.181c.459-.545,1.637-.208,1.637-.208s.226-.616,1.2-.572c1.034.043,5.216,2.161,6,1.818s-.716-1.22-1.155-1.891a4.123,4.123,0,0,1-.487-1.742,22.694,22.694,0,0,1,4.067,3.5,39.879,39.879,0,0,1,3.5,5.789l.184.36-3.89,2.508s-.185-.187-.48-.458a20.4,20.4,0,0,1-2.513-1c-1.344-.63-6.532-3.348-6.817-3.77a1.848,1.848,0,0,1-.209-1.079,2.354,2.354,0,0,1-.882-.806C1839.145,811.7,1839.607,810.868,1839.607,810.868Z" transform="translate(-1839.056 -807.092)" fill="#f0908c"/></g><g transform="translate(41.713 60.453)"><rect width="16.385" height="1.011" transform="matrix(1, -0.002, 0.002, 1, 0, 0.038)" fill="#162748"/></g></g></g><g transform="translate(0 74.299)"><g transform="translate(0.082 73.281)"><path d="M1607.829,866.8s-.7.8-.066,1.23c.58.4,1.611-.238,1.611-.238a1.1,1.1,0,0,0,1.291.226c.971-.316,4.382-3.44,5.216-3.32s-.356,1.349-.6,2.1a4.073,4.073,0,0,0,0,1.785,22.442,22.442,0,0,0,2.937-4.4,39.3,39.3,0,0,0,1.785-6.431l.079-.392-4.363-1.35s-.125.227-.334.563h0a8.933,8.933,0,0,1-2.163,2.532c-1.23.793-5.275,4-5.433,4.482a1.821,1.821,0,0,0,.088,1.081,2.332,2.332,0,0,0-.625,1C1607.17,866.136,1607.829,866.8,1607.829,866.8Z" transform="translate(-1607.246 -856.009)" fill="#f0908c"/></g><g transform="translate(0 11.813)"><path d="M1649.662,808c-.332,5.113-4.865,5.693-6.187,7.92s.085,4.455.906,9.073a9.28,9.28,0,0,1-3.875,9.4c-2.312,1.733-2.228,8.83-2.228,8.83l-25.768-10.117c.525-2.306,1.48-5.529,2.876-6.3,2.158-1.2,3.039-5.707,3.089-5.985-1.98,4.861-4.252.515-7.38,4.994a12.2,12.2,0,0,0-1.812,6.024l-1.693-.663c-1.3-2.826.332-10.063,5.282-10.226s4.781-7.261,4.123-11.717,5.113-5.281,7.588-8.082,2.688-7.439,2.688-7.439l21.9.138C1647.805,799.728,1649.993,802.887,1649.662,808Z" transform="translate(-1607.162 -793.715)" fill="#20243e"/></g><g transform="translate(12.511 30.835)"><path d="M1625.792,812.993s-1.083.218-2.129,2.455c-.855,1.832-1.486,5.332-2.344,9.119-1.9,8.409-2.257,16.554.678,17.188s6.507-8.481,7.5-13.522S1625.792,812.993,1625.792,812.993Z" transform="translate(-1619.842 -812.993)" fill="#f0908c"/></g><g transform="translate(8.222 51.106)"><path d="M1615.495,856.275h0l4.618,1.178s2.444-5.441,4.328-10.1c.74-1.833,1.4-3.545,1.78-4.758a11.578,11.578,0,0,0,.308-1.124,8.217,8.217,0,0,0,.136-1c.013-.183.02-.365.022-.545a13.6,13.6,0,0,0-.942-4.886l-2.22-1.189s-1.706-1.429-4.086,1.745a6.67,6.67,0,0,0-.824,1.719,60.793,60.793,0,0,0-2.075,10.034C1615.874,852.037,1615.495,856.275,1615.495,856.275Z" transform="translate(-1615.495 -833.536)" fill="#f0908c"/></g><g transform="translate(11.344 49.756)"><path d="M1618.659,837.3l2.371.94h.01l5.667,2.237,0-.02.094-.525.584-3.2.5-2.752-6.365-1.336-1.48-.48-.287,1.064Z" transform="translate(-1618.659 -832.168)" fill="#f0908c"/></g><g transform="translate(12.448 48.747)"><path d="M1619.777,833.219l7.628,3.5.5-2.752-7.7-2.826Z" transform="translate(-1619.777 -831.145)" fill="#c96761"/></g><g transform="translate(12.069 30.835)"><path d="M1625.786,812.993a4.324,4.324,0,0,0-2.516,2.8c-.619,2.145-3.877,15.056-3.877,15.056l9.074,4.166,2.64-5.981a42.141,42.141,0,0,0-1.155-9.488C1629.172,816.974,1625.786,812.993,1625.786,812.993Z" transform="translate(-1619.393 -812.993)" fill="#fee9e1"/></g><g transform="translate(20.071)"><path d="M1627.536,793.555a6.422,6.422,0,0,0,.069.684c.06.292.114.574.149.855a.019.019,0,0,1,0,.015,10.982,10.982,0,0,0,8.355,8.361,10.631,10.631,0,0,0,1.99.257,11,11,0,0,0,11.375-10.6c0-.179.01-.351,0-.525,0,0,0,0,0-.01a7.177,7.177,0,0,0-.035-.727,8.084,8.084,0,0,0-.119-.98,10.991,10.991,0,0,0-21.818,1.469A10.836,10.836,0,0,0,1627.536,793.555Z" transform="translate(-1627.502 -781.744)" fill="#20243e"/></g><g transform="translate(26.138 15.537)"><path d="M1642.465,822.708c5.08,1.745,3.688-12.031,3.76-12.43-.192-.088-.374-.177-.556-.26-.067-.032-.135-.062-.2-.1a6.337,6.337,0,0,1-2.322-1.09,1.538,1.538,0,0,1-.556-.956c-.031-.239.021-1.216.094-2.352.124-1.911.317-4.27.317-4.27l-8.347-3.761s.021.634.031,1.595c.033,2.122.074,7.677.09,9.834a1.486,1.486,0,0,1-1.078,1.443C1633.156,810.515,1637.447,820.978,1642.465,822.708Z" transform="translate(-1633.651 -797.49)" fill="#f0908c"/></g><g transform="translate(27.141 15.537)"><path d="M1643.011,801.249s-.19,2.358-.314,4.273a4.471,4.471,0,0,1-1.813.235c-4.494-.523-6.217-8.267-6.217-8.267Z" transform="translate(-1634.668 -797.489)" fill="#c96761"/></g><g transform="translate(23.536 12.703)"><path d="M1637.364,797.566c-.267.813-1.9,1.005-3.649.429s-2.857-1.657-2.682-2.515c.232-1.14,1.9-1.005,3.649-.429S1637.63,796.753,1637.364,797.566Z" transform="translate(-1631.015 -794.618)" fill="#c96761"/></g><g transform="translate(26.219 7.143)"><path d="M1633.737,792.354c.038.667.093,1.392.132,2.116.315,5.717,3.513,10.184,7.467,9.967,2.972-.163,5.249-2.584,6.057-6.211.022-.1.044-.21.062-.317a14.236,14.236,0,0,0,.262-2.646c0-.132,0-.263,0-.4,0-.187-.01-.376-.023-.563-.074-1.364-.238-3.228-.455-4.521a.942.942,0,0,0-1.226-.747c-.409.131-.9.287-1.476.46-2.12.634-5.793.209-8.367.263A2.474,2.474,0,0,0,1633.737,792.354Z" transform="translate(-1633.733 -788.983)" fill="#f0908c"/></g><g transform="translate(32.732 17.513)"><path d="M1640.334,800.207a9.181,9.181,0,0,1,2.588-.563l.408.17a1.134,1.134,0,0,1,.423-.31,14.569,14.569,0,0,1,1.523.059,2.659,2.659,0,0,1-.372,1.831.778.778,0,0,1-.076.095,2.5,2.5,0,0,1-3.04.615,2.944,2.944,0,0,1-.619-.49A3.737,3.737,0,0,1,1640.334,800.207Z" transform="translate(-1640.334 -799.492)" fill="#e14c4e"/></g><g transform="translate(32.732 17.584)"><path d="M1645.278,799.564a7.265,7.265,0,0,1-4.944.644,3.014,3.014,0,0,0,2.995,1.562C1645.092,801.541,1645.278,799.564,1645.278,799.564Z" transform="translate(-1640.334 -799.564)" fill="#fff"/></g><g transform="translate(34.92 13.905)"><path d="M1643.14,797.724l.363-.084c.246-.056.4-.246.343-.408l-.467-1.219a.4.4,0,0,0-.472-.162h0c-.214.049-.368.2-.356.352l.1,1.3C1642.67,797.679,1642.894,797.781,1643.14,797.724Z" transform="translate(-1642.551 -795.836)" fill="#c96761"/></g><g transform="translate(30.827 12.031)"><path d="M1638.411,794.69c.047.379.31.657.585.622a.624.624,0,0,0,.414-.75c-.048-.379-.31-.657-.586-.622S1638.363,794.312,1638.411,794.69Z" transform="translate(-1638.403 -793.937)" fill="#3d1525"/></g><g transform="translate(29.088 9.919)"><path d="M1640.283,792.674a.918.918,0,0,0-.109-.16,1.8,1.8,0,0,0-.369-.342,2.014,2.014,0,0,0-.291-.171,2.246,2.246,0,0,0-.356-.132,2.213,2.213,0,0,0-.832-.052,2.433,2.433,0,0,0-.415.1,3.415,3.415,0,0,0-.373.173c-.112.071-.212.15-.307.223a2.139,2.139,0,0,0-.235.242,1.18,1.18,0,0,0-.169.226c-.045.071-.079.138-.107.191a1.725,1.725,0,0,0-.08.173s.069-.023.176-.069c.052-.023.117-.049.185-.085a2.5,2.5,0,0,1,.236-.1c.086-.033.17-.081.265-.112s.193-.069.292-.107.205-.057.309-.085.21-.053.319-.057a2.359,2.359,0,0,1,.323-.03c.107-.011.213,0,.319,0s.208.011.307.022.2.022.285.037c.18.025.335.057.447.08Z" transform="translate(-1636.641 -791.796)" fill="#20243e"/></g><g transform="translate(37.506 11.073)"><path d="M1645.18,793.72c.047.378.31.656.585.621s.462-.372.415-.75-.31-.657-.586-.622A.623.623,0,0,0,1645.18,793.72Z" transform="translate(-1645.172 -792.966)" fill="#3d1525"/></g><g transform="translate(35.768 8.961)"><path d="M1647.052,791.7a.936.936,0,0,0-.109-.16,1.769,1.769,0,0,0-.369-.341,1.92,1.92,0,0,0-.291-.172,2.214,2.214,0,0,0-.356-.132,1.916,1.916,0,0,0-.4-.065,1.879,1.879,0,0,0-.427.014,2.353,2.353,0,0,0-.415.1,3.649,3.649,0,0,0-.373.173c-.111.072-.212.151-.307.223a2.144,2.144,0,0,0-.235.242,1.212,1.212,0,0,0-.169.226c-.045.071-.079.138-.108.191a1.886,1.886,0,0,0-.08.173s.069-.023.176-.068c.052-.024.117-.05.185-.086a2.313,2.313,0,0,1,.235-.1c.087-.033.171-.082.268-.114s.192-.069.291-.107.205-.057.309-.085c.108-.012.21-.052.319-.057a2.356,2.356,0,0,1,.323-.03c.107-.011.213,0,.319,0s.208.011.307.023.2.021.285.036c.181.025.335.057.447.08Z" transform="translate(-1643.41 -790.826)" fill="#20243e"/></g><g transform="translate(29.483 14.369)" opacity="0.5"><path d="M1637.072,798.151a1.5,1.5,0,1,0,1.174-1.817A1.52,1.52,0,0,0,1637.072,798.151Z" transform="translate(-1637.041 -796.306)" fill="#c96761"/></g><g transform="translate(38.346 12.972)" opacity="0.5"><path d="M1646.052,796.735a1.523,1.523,0,0,0,1.565,1.252,14.237,14.237,0,0,0,.262-2.646c0-.132,0-.263,0-.4a1.373,1.373,0,0,0-.646-.023A1.538,1.538,0,0,0,1646.052,796.735Z" transform="translate(-1646.023 -794.891)" fill="#c96761"/></g><g transform="translate(26.155 7.082)"><path d="M1633.669,794.649a1.943,1.943,0,0,0,1.843-.231c.846-.658,1.378-3.572,3.149-4.031s2.189-.482,5.445-.109,3.595-.246,3.595-.246-.98-1.226-1.466-1.1c-.321.082-10.339.033-10.339.033a2.107,2.107,0,0,0-.982.23h0a2.1,2.1,0,0,0-1.147,1.786Z" transform="translate(-1633.669 -788.921)" fill="#20243e"/></g><g transform="translate(37.041 4.263)"><path d="M1647.893,789.4s.055-2.277-.586-3.081-.495.449-.212,1.176-.723.394-.834-.2-.755.236-.607,1.148-.846-.146-.944.3.607,1.1,1.2.862-.186-1.084.553-.822.684.237.879-.1.211.794.426.9C1647.906,789.648,1647.893,789.4,1647.893,789.4Z" transform="translate(-1644.701 -786.065)" fill="#303b6a"/></g><g transform="translate(20.907 6.292)"><path d="M1628.546,792.864a.1.1,0,0,1-.191-.082,12.3,12.3,0,0,1,.343-2.29c.508-1.574,1.379-2.938,1.4-2.134.05,1.6-.744,2.364.165,2.1s1.19-1.493,1.471-.451.11,1.379.857,1.195,1.523-1.588,1.281-.511.4,1.772.894,1.149.219,1.285-.661.731a1.343,1.343,0,0,1-.712-1.019.1.1,0,0,0-.171-.07,1.609,1.609,0,0,1-1.164.394c-.52-.053-.706-.591-.772-.954a.1.1,0,0,0-.189-.041,1.02,1.02,0,0,1-1.054.523C1629.555,791.313,1628.957,792.152,1628.546,792.864Z" transform="translate(-1628.35 -788.12)" fill="#303b6a"/></g><g transform="translate(43.556 29.023)"><path d="M1651.3,815.417c.015,3.97.381,9.7,2.183,12.651a39.412,39.412,0,0,0,3.212,4.426c.2.248.405.5.619.742.411.48.837.955,1.267,1.416.243.262.485.51.733.757a1.1,1.1,0,0,0,.128.095c.95.643,2.767.624,3.94.519a4.485,4.485,0,0,0,1.52-.885,16.059,16.059,0,0,0,1.762-1.757,42.486,42.486,0,0,0-3.425-7.588c-.005-.005-.005-.01-.01-.015-.159-.287-.323-.579-.5-.871-.7-1.223-1.46-2.465-2.263-3.7a77.9,77.9,0,0,0-5.459-7.741c-.208-.233-.407-.44-.594-.629a6.476,6.476,0,0,0-2.133-1.515,1.672,1.672,0,0,0-.866-.159S1651.294,812.947,1651.3,815.417Z" transform="translate(-1651.303 -811.156)" fill="#f0908c"/></g><g transform="translate(50.238 24.362)"><g transform="translate(0 10.416)"><path d="M1658.442,834.392a2.546,2.546,0,0,0,.232.336,4.059,4.059,0,0,0,.733.757,1.105,1.105,0,0,0,.128.095.816.816,0,0,0,.134.1,4.2,4.2,0,0,0,3.806.42,4.486,4.486,0,0,0,1.52-.885,16.081,16.081,0,0,0,1.762-1.757c3.108-3.96,8.1-11.231,9.418-13.478.179-.3.377-.574.525-.8l0,0c.005-.01.005-.01.01-.01.04-.064.074-.128.1-.178l-4.142-2-.069.069-9.2,8.717-.084.079-3.3,3.138a6.372,6.372,0,0,0-1.9,3.42A2.91,2.91,0,0,0,1658.442,834.392Z" transform="translate(-1658.074 -816.989)" fill="#f0908c"/></g><g transform="translate(13.628)"><path d="M1681.539,815.446a29.533,29.533,0,0,1-4.464,3.423,23.051,23.051,0,0,0-1.878,2.1l-3.311-2.417.9-1.593a8.6,8.6,0,0,1,1.335-4.063c1.313-2.082,2.335-2.9,3-4.183l.663-1.284a2.525,2.525,0,0,1,.419,2.012c-.365.877-.939,2.063-.939,2.063s5.475-4.962,6.422-5.067-.59,1.242-1.318,2.325-1.943,2.152-1.495,2.52,1.878.338,1.493,1.149-.785,1.067-.43,1.594S1682.065,814.613,1681.539,815.446Z" transform="translate(-1671.886 -806.433)" fill="#f0908c"/></g></g><g transform="translate(43.25 29.983)"><path d="M1650.993,817.227l1.5,11.632,4.2,3.648c.2.248.406.5.619.742l.713-.9,5.212-6.543-.01-.015c-.159-.287-.323-.579-.5-.871,0,0-6.172-9.83-7.4-11.127-.1-.109-.213-.213-.322-.312a5.606,5.606,0,0,0-3.144-1.351l-.568,3.3Z" transform="translate(-1650.993 -812.129)" fill="#c96761"/></g><g transform="translate(42.799 29.031)"><path d="M1650.536,816.263l1.564,12.167.387.415,3.821,4.123.381-.475,6.039-7.588.4-.5.109-.139s-6.876-9.87-8.361-11.438a5.484,5.484,0,0,0-2.6-1.5,4.8,4.8,0,0,0-.866-.159Z" transform="translate(-1650.536 -811.165)" fill="#fee9e1"/></g><g transform="translate(18.459 27.838)"><path d="M1655.354,827.755a3.892,3.892,0,0,1-1.119,1.772l-1.915,9.226c0,.005-.005.015-.005.02l-.747,3.46-.01.054.079,2.114.015.476.01.163h-.253c-1.594-.01-10.429-.064-15.141-.113-1.034-.054-1.673-.1-1.682-.114-.362-.723-.8-1.6-1.263-2.579,0-.005-.005-.005-.005-.015a.487.487,0,0,1-.039-.074c-.752-1.876-5.954-21.487-6.45-23.353-.025-.094-.035-.139-.035-.139l-.762-3.033c-.025-.342-.05-.659-.07-.946-.054-.8-.079-1.366-.089-1.638a.62.62,0,0,1-.005-.094l7.554-2.644.916-.322,8.518,13.082,2.133-13.1.095.015,1.133.213,5.177.985,3.123,7.524C1654.681,819.069,1656.25,824.291,1655.354,827.755Z" transform="translate(-1625.869 -809.956)" fill="#fee9e1"/></g><g transform="translate(26.012 27.838)"><path d="M1646.319,810.184l-2.989,15.349-9.806-15.235.916-.322,8.518,13.082,2.133-13.1.094.015Z" transform="translate(-1633.524 -809.956)" fill="#f6c6b4"/></g><g transform="translate(24.286 46.248)"><g transform="translate(16.247 0.485)"><path d="M1648.239,829.183l1.745.7a11.007,11.007,0,0,0,4.44.784l.11-.882c.046-.13.1-.255.151-.385a1.032,1.032,0,0,0,.051-.172c.016-.041.031-.083.047-.119a11.068,11.068,0,0,1-4.368.343Z" transform="translate(-1648.239 -829.105)" fill="#f6c6b4"/></g><path d="M1643.171,829.411l-.139-.006-.388,0c-.168,0-.369,0-.6.014s-.473,0-.739.011-.561.014-.867.006c-.153,0-.308,0-.467,0s-.321-.006-.485-.008c-.328,0-.666-.019-1.006-.028-.171-.007-.342-.021-.515-.023l-.517-.037c-.174,0-.345-.025-.517-.039s-.344-.023-.513-.046-.339-.036-.506-.051-.331-.045-.494-.061-.321-.047-.48-.064-.314-.036-.463-.063c-.3-.047-.591-.081-.856-.129s-.517-.078-.738-.116-.42-.06-.582-.089c-.327-.05-.525-.067-.525-.067s.132.141.385.367a4.962,4.962,0,0,0,.477.377c.094.07.2.14.306.215l.354.213a8.262,8.262,0,0,0,.832.422,9.263,9.263,0,0,0,.977.364,8.789,8.789,0,0,0,1.084.266,5.7,5.7,0,0,0,.568.089c.191.022.384.05.577.059l.579.025c.193,0,.385-.009.575-.013a5.627,5.627,0,0,0,.564-.044,5.188,5.188,0,0,0,.547-.072c.179-.032.354-.059.524-.1s.335-.083.495-.128a9.27,9.27,0,0,0,.882-.3c.269-.112.512-.229.721-.332s.373-.217.514-.307.253-.173.324-.223Z" transform="translate(-1631.774 -828.613)" fill="#f6c6b4"/></g><g transform="translate(12.405 58.443)"><g transform="translate(29.97 50.882)"><path d="M1662.061,946.845c-.891-1.168-3.692-2.836-5.939-4.583v0a2.5,2.5,0,0,0-.257-.2l-.005,0v0a13.58,13.58,0,0,1-1.92-1.8c-1.817-2.168-.179-3.405.529-5.8l0,0c.069-.272.144-.555.194-.857a6.631,6.631,0,0,0-.144-1.861v0c-.133-.732-.757-4.158-1.52-8.251l-.113-.6c-.807-4.36-1.757-9.345-2.43-12.636q-.1-.475-.193-.935c-.02-.1-.04-.193-.06-.287-.04-.455-.064-.911-.079-1.361-.029-.93-.025-1.841,0-2.722a49.558,49.558,0,0,1,.708-7.014c.322-1.856,1.168,1.7,1.515.406.075-.267.154-.56.228-.857.1-.406.213-.831.312-1.242.336-1.351.609-2.529.609-2.529l7.707-1.158c-.01.193-.02.411-.03.643-.193,3.925-.781,13.1-1.223,20.378a.446.446,0,0,1-.005.079c-.277,3.43-.425,6.543-.5,9.236,0,.074,0,.144,0,.208v.005q-.03,1.091-.03,2.079c-.035,3.074.04,5.449.134,6.949.163,2.57,2.7,6.212,5.222,9.351,2.114,2.623,4.222,4.89,4.9,5.87l.005,0v.01a1.418,1.418,0,0,1,.207.346C1670.327,948.964,1663.3,948.463,1662.061,946.845Z" transform="translate(-1650.106 -892.537)" fill="#f0908c"/></g><g transform="translate(34.451 100.098)"><path d="M1656.2,942.828l-1,6.31-.55,0,.581-6.722Z" transform="translate(-1654.647 -942.413)" fill="#162748"/></g><g transform="translate(32.574 98.032)"><path d="M1652.745,940.32l.819,8.781,1.058.006.755-6.575Z" transform="translate(-1652.745 -940.32)" fill="#1d3359"/></g><g transform="translate(31.84 89.738)"><path d="M1670.79,948.18a.886.886,0,0,1-.882.814l-7.412-.017c-.189,0-1.727-1.926-3.266-3.621s-6.253-3.294-7.072-5.368c-.618-1.565.758-5.366,1.469-7.136.232-.575.393-.937.393-.937a15.041,15.041,0,0,1,3.2,2.548c1.313,1.464,1.97,5.338,2.908,6.493s4.377,1.022,5.36,1.028c.695,0,3.521,3.509,5.118,5.562A.892.892,0,0,1,1670.79,948.18Z" transform="translate(-1652.002 -931.914)" fill="#162748"/></g><g transform="translate(33.465 89.738)"><path d="M1670.812,948.18a27.985,27.985,0,0,1-9.393-4.513,23.223,23.223,0,0,1-7.771-10.815c.232-.575.393-.937.393-.937a15.041,15.041,0,0,1,3.2,2.548c1.313,1.464,1.97,5.338,2.908,6.493s4.377,1.022,5.36,1.028c.695,0,3.521,3.509,5.118,5.562A.892.892,0,0,1,1670.812,948.18Z" transform="translate(-1653.648 -931.914)" fill="#1d3359"/></g><g transform="translate(3.426 45.385)"><path d="M1633.486,946.771c-.886-1.168-3.693-2.836-5.934-4.583-.09-.069-.169-.143-.262-.2v-.01a13.073,13.073,0,0,1-1.92-1.8,3.054,3.054,0,0,1-.827-1.8,7.09,7.09,0,0,1,.975-2.97,9.094,9.094,0,0,0,.376-1.029,7.864,7.864,0,0,0,.2-.857,6.51,6.51,0,0,0-.148-1.861v0c-.159-.871-2.416-18.9-2.713-29.525a34.347,34.347,0,0,1,.926-10.231.411.411,0,0,1,.025-.085,8.62,8.62,0,0,1,.529-1.51,5.559,5.559,0,0,1,.48-.846,4.178,4.178,0,0,1,.6-.708l2.931-1.262a6.243,6.243,0,0,1,8.2,3.172,2.439,2.439,0,0,1,.159.446v0a.683.683,0,0,1,.01.089c0,.01-.005.04-.01.084-.01.1-.03.277-.064.53a.566.566,0,0,1-.01.085c-.525,4.029-4.639,24.055-4.8,25.58-.287,2.708-.545,5.276-.753,7.493-.03.3-.054.6-.079.886-.069.732-.128,1.416-.183,2.045q-.061.712-.1,1.321v0c-.1,1.377-.138,2.361-.114,2.816.114,1.772,1.356,4.054,2.944,6.331.713,1.024,1.495,2.044,2.277,3.019,2.123,2.623,4.222,4.89,4.91,5.87v0a1.991,1.991,0,0,1,.2.356C1641.752,948.89,1634.724,948.39,1633.486,946.771Z" transform="translate(-1623.206 -886.966)" fill="#f0908c"/></g><g transform="translate(6.23 100.098)"><path d="M1627.6,942.828l-1,6.31-.55,0,.581-6.722Z" transform="translate(-1626.048 -942.413)" fill="#162748"/></g><g transform="translate(4.353 98.032)"><path d="M1624.146,940.32l.819,8.781,1.058.006.755-6.575Z" transform="translate(-1624.146 -940.32)" fill="#1d3359"/></g><g transform="translate(3.62 89.738)"><path d="M1642.191,948.18a.887.887,0,0,1-.883.814l-7.412-.017c-.189,0-1.727-1.926-3.265-3.621s-6.253-3.294-7.072-5.368c-.618-1.565.757-5.366,1.468-7.136.232-.575.394-.937.394-.937a15.02,15.02,0,0,1,3.2,2.548c1.313,1.464,1.97,5.338,2.909,6.493s4.377,1.022,5.359,1.028c.7,0,3.522,3.509,5.118,5.562A.889.889,0,0,1,1642.191,948.18Z" transform="translate(-1623.402 -931.914)" fill="#162748"/></g><g transform="translate(5.244 89.738)"><path d="M1642.213,948.18a27.991,27.991,0,0,1-9.394-4.513,23.231,23.231,0,0,1-7.771-10.815c.232-.575.394-.937.394-.937a15.019,15.019,0,0,1,3.2,2.548c1.313,1.464,1.97,5.338,2.909,6.493s4.377,1.022,5.359,1.028c.7,0,3.522,3.509,5.118,5.562A.889.889,0,0,1,1642.213,948.18Z" transform="translate(-1625.048 -931.914)" fill="#1d3359"/></g><g transform="translate(4.791 1.827)"><path d="M1646.6,854.88a59.314,59.314,0,0,1-1.455,6.667c-.7,2.647-1.584,5.647-2.539,8.726-.238.757-.471,1.515-.718,2.276-.059.184-.118.372-.173.555-.233.733-.456,1.465-.658,2.193-1.084,3.748-1.881,7.385-2.619,10.444-.45,1.836-.876,3.461-1.341,4.777v0l-.015.044c-.075.213-1.416.461-1.485.658-.118.341-.233.658-.332.945-.421,1.188-.668,1.876-.668,1.876h-.005l-5.86-1.876-2.965-.945s-1.2.5-1.178.208c.005-.069.015-.139.015-.208.044-.44.084-.945.123-1.51.406-6.108.758-18.912,1.005-26.564,0-.134.005-.262.01-.386.153-5.153,2.426-9.781,4.841-13.276,0,0,0-.01.01-.015a39.426,39.426,0,0,1,2.726-3.489,32.727,32.727,0,0,1,3.139-3.163l4.583.589,5.826.742s.059.737.1,1.93v.015c.01.392.025.837.03,1.322A50.8,50.8,0,0,1,1646.6,854.88Z" transform="translate(-1624.59 -842.823)" fill="#f0908c"/></g><g transform="translate(17.702 1.545)"><path d="M1661.233,887.242v.253s-.029.628-.074,1.669c-.031.568-.06,1.267-.09,2.058-.01.213-.02.431-.03.653-.01.193-.02.411-.03.643-.193,3.925-.781,13.1-1.223,20.378a.457.457,0,0,1,0,.079c-.248,4.153-.445,7.672-.5,9.236,0,.074,0,.144,0,.208v.005l-.826.049-2.277.138-3.336.2-.113-.6-2.43-12.636q-.1-.475-.193-.935c-.02-.1-.04-.193-.06-.287-.663-3.123-1.311-6.241-1.832-8.756a18.652,18.652,0,0,1,.3-8.375c.065-.267.139-.53.213-.791.01-.035.01-.055.005-.055v0q-.111-.616-.267-1.232a38.8,38.8,0,0,0-5.583-11.547c-.2-.312-.415-.614-.638-.9-.525-.678-1.014-1.386-1.47-2.114v0c-.3-.485-.589-.975-.857-1.475q-.5-.921-.94-1.871l-.346-.762-.678-5.049c-.123-.911-.208-1.822-.243-2.732a30.88,30.88,0,0,1,.1-4.177l.772-8.123v0l.41-4.351.085-.9v0l.074-.812.064-.638.025-.271.015-.134.015-.223,4.173-.158,2.291-.089,4.777-.188.287-.01,1.822-.069.025.1v1.242c.138.128.268.258.4.391l.783,3.247.217.906s.753,3.628,1.772,8.607l0,.02c1.139,5.578,2.609,12.849,3.717,18.636l.005.025v0c.916,4.781,1.594,8.538,1.639,9.484a.007.007,0,0,1,0,.01C1661.208,885.891,1661.228,886.569,1661.233,887.242Z" transform="translate(-1637.674 -842.537)" fill="#f0908c"/></g><g transform="translate(4.401 4.989)"><path d="M1661.054,887.288v.253s-.029.628-.074,1.669c-.031.568-.06,1.267-.09,2.058h-12.562v-.01a3.874,3.874,0,0,0,.015-1.817c-.02-.089-.045-.173-.064-.258a38.806,38.806,0,0,0-5.583-11.547c-.2-.312-.416-.614-.638-.9-.351-.456-.688-.921-1-1.4-.164-.237-.317-.475-.466-.712v0c-.3-.485-.589-.975-.857-1.475-1.43,4.49-1.213,8.978-1.3,12.636-.45,1.836-1.371,5.232-1.405,5.484h-12.835a8.62,8.62,0,0,1,.529-1.51c.406-6.108.758-18.912,1.005-26.564,0-.134.005-.262.01-.386.153-5.153,2.426-9.781,4.841-13.276,0,0,0-.01.01-.015a39.426,39.426,0,0,1,2.726-3.489l5.494.049h.223l5.949.049,1.98.015,5.4.044c.035.031.069.065.1.095.138.128.268.257.4.391a11.153,11.153,0,0,1,.783.9,11.637,11.637,0,0,1,2.38,5.524l3.331,22.645.005.025v0Z" transform="translate(-1624.194 -846.028)" fill="#c96761"/></g><g transform="translate(0 2.633)"><path d="M1661.579,888.886h-41.845c.154-2.425,1.669-25.372,3.777-32.871a24.174,24.174,0,0,1,8.721-12.241c.124-.09.188-.134.188-.134l6.553.054,13.33.11c.035.03.069.064.1.094.138.128.268.257.4.391a11.653,11.653,0,0,1,3.163,6.42Z" transform="translate(-1619.734 -843.64)" fill="#1d3359"/></g><g transform="translate(12.498)"><rect width="20.17" height="3.326" fill="#1d3359"/></g><g transform="translate(13.294 2.84)"><rect width="0.512" height="18.983" transform="matrix(0.005, -1, 1, 0.005, 0, 0.512)" fill="#162748"/></g></g><g transform="translate(45.288 31.338)"><path d="M1654.3,829.812l-.2-.636c.017-.006,2.171-.84,1.6-6.47a11.547,11.547,0,0,0-.627-2.568c-.116-.352-.236-.717-.351-1.116-.971-3.338-1.65-5.279-1.656-5.3l.63-.221c.007.02.691,1.976,1.667,5.332.113.391.232.749.345,1.094a12.267,12.267,0,0,1,.656,2.709C1656.993,828.873,1654.41,829.777,1654.3,829.812Z" transform="translate(-1653.058 -813.503)" fill="#f6c6b4"/></g><g transform="translate(19.281 34.495)"><rect width="0.668" height="12.61" transform="translate(0 0.144) rotate(-12.468)" fill="#f6c6b4"/></g></g><g transform="translate(147.472 190.62)"><g transform="translate(0 12.469)"><rect width="35.838" height="36.475" fill="#576baf"/><g transform="translate(8.476)"><rect width="35.838" height="36.475" fill="#a2b4de"/></g></g><g transform="translate(1.989)"><g transform="translate(27.48 6.466)"><path d="M1787.4,912.192l-.924-.037c.075-1.833.4-3.409,3.579-4.111l9.625-1.864.176.908-9.613,1.861C1787.694,909.511,1787.469,910.549,1787.4,912.192Z" transform="translate(-1786.478 -906.18)" fill="#344379"/></g><g transform="translate(24.745 6.393)"><rect width="4.62" height="0.924" fill="#465596"/></g><g transform="translate(0 6.466)"><path d="M1759.552,912.192l-.923-.037c.075-1.833.4-3.409,3.58-4.111l9.624-1.864.176.908-9.612,1.861C1759.846,909.511,1759.62,910.549,1759.552,912.192Z" transform="translate(-1758.629 -906.18)" fill="#465596"/></g><g transform="translate(28.968)"><g transform="translate(0.462 0.462)"><path d="M1788.454,905.854a5.76,5.76,0,0,0,8.052,5.284,5.83,5.83,0,0,0,1.243-.741,5.6,5.6,0,0,0,1.032-1.038,5.757,5.757,0,0,0-4.569-9.264c-.12,0-.24,0-.357.011-.1.007-.2.017-.3.029a5.532,5.532,0,0,0-1.424.351l-.016.006a5.762,5.762,0,0,0-3.534,4.163v0q-.016.078-.03.157A5.746,5.746,0,0,0,1788.454,905.854Z" transform="translate(-1788.454 -900.095)" fill="#a2b4de"/></g><g transform="translate(0.462 0.473)" opacity="0.4"><g transform="translate(3.658)"><path d="M1792.161,900.492l7.8,6.2a5.7,5.7,0,0,0,.06-.836,5.766,5.766,0,0,0-.078-.948l-6.039-4.8c-.1.007-.2.017-.3.029a5.533,5.533,0,0,0-1.424.351Z" transform="translate(-1792.161 -900.106)" fill="#fff"/></g><g transform="translate(0 4.708)"><path d="M1788.454,905.917a5.76,5.76,0,0,0,8.052,5.284l-7.957-6.324A5.746,5.746,0,0,0,1788.454,905.917Z" transform="translate(-1788.454 -904.877)" fill="#fff"/></g></g><path d="M1792.192,911.732a6.226,6.226,0,0,1-4.081-7.128l.01-.049a6.2,6.2,0,0,1,3.833-4.505,6.046,6.046,0,0,1,1.537-.38,6.22,6.22,0,0,1,6.937,6.179,6.15,6.15,0,0,1-1.285,3.784,6.006,6.006,0,0,1-1.116,1.123,6.2,6.2,0,0,1-5.836.977Zm1.4-11.144a5.137,5.137,0,0,0-1.306.323,5.273,5.273,0,0,0-3.255,3.788l-.01.049a5.3,5.3,0,0,0,3.467,6.111,5.286,5.286,0,0,0,4.969-.834,5.11,5.11,0,0,0,.948-.954,5.231,5.231,0,0,0,1.094-3.223,5.3,5.3,0,0,0-5.3-5.3A5.147,5.147,0,0,0,1793.6,900.587Z" transform="translate(-1787.986 -899.627)" fill="#465596"/></g><g transform="translate(12.765)"><g transform="translate(0.463 0.462)"><path d="M1772.034,905.854a5.76,5.76,0,0,0,5.759,5.76,5.837,5.837,0,0,0,2.084-.391,5.747,5.747,0,0,0,1.681-1.012,5.755,5.755,0,0,0,1.825-2.973,5.9,5.9,0,0,0,.169-1.383,5.764,5.764,0,0,0-7.668-5.435,5.5,5.5,0,0,0-.7.3,5.59,5.59,0,0,0-.926.591,5.382,5.382,0,0,0-.768.716c-.092.1-.182.211-.265.322a5.572,5.572,0,0,0-.527.82A5.707,5.707,0,0,0,1772.034,905.854Z" transform="translate(-1772.034 -900.095)" fill="#a2b4de"/></g><g transform="translate(1.127 0.785)" opacity="0.4"><g transform="translate(0 1.609)"><path d="M1772.707,903.2l8.859,7.04a5.685,5.685,0,0,0,.934-1.028l-9-7.154c-.092.1-.182.211-.265.322A5.572,5.572,0,0,0,1772.707,903.2Z" transform="translate(-1772.707 -902.054)" fill="#fff"/></g><g transform="translate(2.486)"><path d="M1775.226,900.725l8.2,6.517a5.573,5.573,0,0,0,.133-.754l-7.633-6.065A5.51,5.51,0,0,0,1775.226,900.725Z" transform="translate(-1775.226 -900.423)" fill="#fff"/></g></g><path d="M1771.565,905.848a6.146,6.146,0,0,1,1.285-3.783,5.957,5.957,0,0,1,1.116-1.123,6.14,6.14,0,0,1,3.82-1.314,6.221,6.221,0,0,1,2.254,12.02,6.04,6.04,0,0,1-1.538.38,6.211,6.211,0,0,1-6.936-6.179Zm2.967-4.176a5.059,5.059,0,0,0-.948.954,5.233,5.233,0,0,0-1.1,3.222,5.3,5.3,0,0,0,5.3,5.3,5.2,5.2,0,0,0,.612-.036,5.094,5.094,0,0,0,1.306-.323,5.3,5.3,0,1,0-5.172-9.114Z" transform="translate(-1771.565 -899.627)" fill="#465596"/></g></g></g></g></g></g></svg>