<svg xmlns="http://www.w3.org/2000/svg" width="64.236" height="58.943" viewBox="0 0 64.236 58.943"><g transform="translate(-2554.792 -57.199)"><rect width="64.236" height="58.943" transform="translate(2554.792 57.199)" fill="none"/><g transform="translate(-2.914 -2.914)"><g transform="translate(2560.799 60.56)"><path d="M2589.823,60.56a29.025,29.025,0,1,0,29.026,29.025A29.04,29.04,0,0,0,2589.823,60.56Zm0,55.312a26.287,26.287,0,1,1,26.288-26.286A26.293,26.293,0,0,1,2589.823,115.872Z" transform="translate(-2560.799 -60.56)" fill="#0ac4bf"/></g><g transform="translate(2569.151 68.912)"><path d="M2588.985,68.073a20.674,20.674,0,1,0,20.674,20.674A20.743,20.743,0,0,0,2588.985,68.073Zm0,38.609a17.935,17.935,0,1,1,17.936-17.935A18,18,0,0,1,2588.985,106.682Z" transform="translate(-2568.312 -68.073)" fill="#0ac4bf"/></g><g transform="translate(2579.693 80.412)"><circle cx="3.149" cy="3.149" r="3.149" fill="#0ac4bf"/></g><g transform="translate(2593.657 80.412)"><circle cx="3.149" cy="3.149" r="3.149" fill="#0ac4bf"/></g><g transform="translate(2579.693 92.461)"><circle cx="3.149" cy="3.149" r="3.149" fill="#0ac4bf"/></g><g transform="translate(2593.657 92.461)"><circle cx="3.149" cy="3.149" r="3.149" fill="#0ac4bf"/></g></g></g></svg>