<svg xmlns="http://www.w3.org/2000/svg" width="48.506" height="49.041" viewBox="0 0 48.506 49.041"><g transform="translate(-2490.307 -906.011)"><path d="M2538.534,920.491l-.093-.093-11.046-9.282a.708.708,0,0,0-.464-.186l-4.641-.557.742-.928a.985.985,0,0,0-.092-1.3l-2.6-1.857a.971.971,0,0,0-.556-.278h-10.4c-.093,0-.186.092-.278.092l-2.971,1.95a.912.912,0,0,0-.278,1.3.091.091,0,0,0,.092.093l.743.928-4.641.557a.707.707,0,0,0-.464.186l-10.954,9.282a.9.9,0,0,0-.093,1.3l.093.093,8.447,8.354v23.979a.877.877,0,0,0,.929.928h29.147a.876.876,0,0,0,.928-.928V930.145l8.447-8.354A.9.9,0,0,0,2538.534,920.491ZM2520.9,909.074l-4.362,5.569-.65-1.578a.091.091,0,0,0,.093-.093l3.8-4.641Zm-11.51-.928,3.9,4.826-.836,1.671L2508,909.074Zm4.27,45.049h-12.81V924.2a.928.928,0,0,0-1.856,0v3.249l-6.405-6.312,9.932-8.447,5.477-.65,3.991,5.013a1,1,0,0,0,1.3.185l.278-.278.093-.093Zm1.021-41.708h-.186l-2.97-3.62h6.219l-2.97,3.62Zm15.316,16.059V924.3a.928.928,0,0,0-1.856,0v28.991h-12.717V945h.742a.928.928,0,1,0,0-1.856h-.742v-5.57h.742a.928.928,0,1,0,0-1.856h-.742v-5.57h.742a.928.928,0,1,0,0-1.856h-.742v-5.57h.742a.928.928,0,1,0,0-1.857h-.742v-3.991a.809.809,0,0,0,.742.557h.186a.847.847,0,0,0,.743-.371l3.9-5.013,5.477.743,9.932,8.447Z" fill="#2287cb"/></g></svg>