<svg xmlns="http://www.w3.org/2000/svg" width="64.236" height="58.943" viewBox="0 0 64.236 58.943"><g transform="translate(-2629.599 -57.199)"><rect width="64.236" height="58.943" transform="translate(2629.599 57.199)" fill="none"/><path d="M2675.332,116.142V93.156a.965.965,0,1,0-1.93,0v22.986Z" fill="#0ac4bf"/><path d="M2654.253,78.88l-2.21,15.946a3.161,3.161,0,0,0,1.877,3.326c.246.106.521.215.817.324v17.666h1.93V99.061a21.21,21.21,0,0,0,5.05.589c.576,0,1.127-.023,1.654-.062a.829.829,0,0,1-.07.208.728.728,0,0,1-.526.378l-2.157.457a2.7,2.7,0,0,0,0,5.289l2.157.457a.774.774,0,0,1,0,1.514l-2.157.457a2.7,2.7,0,0,0,0,5.289l2.157.457a.774.774,0,0,1,0,1.514l-2.157.457c-.09.019-.172.051-.258.077H2665a2.747,2.747,0,0,0,.317-1.291,2.649,2.649,0,0,0-2.143-2.644l-2.158-.457a.774.774,0,0,1,0-1.514l2.158-.457a2.7,2.7,0,0,0,0-5.29l-2.158-.457a.774.774,0,0,1,0-1.514l2.158-.457a2.637,2.637,0,0,0,1.844-1.386,2.777,2.777,0,0,0,.3-1.316c.516-.086,1-.187,1.45-.3v17.081h1.93V98.476c.3-.109.571-.218.817-.324a3.158,3.158,0,0,0,1.876-3.326l-1.169-8.433a.964.964,0,1,0-1.91.264l1.168,8.434a1.225,1.225,0,0,1-.728,1.289,15.822,15.822,0,0,1-2.908.915V87.819a2.253,2.253,0,0,0-2.251-2.251h-3.75a2.253,2.253,0,0,0-2.251,2.251v9.476a15.816,15.816,0,0,1-2.908-.915,1.224,1.224,0,0,1-.728-1.289l2.578-18.605a1.329,1.329,0,0,1,1.311-1.141h1.357v.625a2.516,2.516,0,1,0,5.032,0v-.625h1.357a1.329,1.329,0,0,1,1.311,1.141l.8,5.769a.964.964,0,0,0,.955.832,1.006,1.006,0,0,0,.133-.009.964.964,0,0,0,.823-1.088l-.431-3.11,2.867-3.966a2.29,2.29,0,0,0-.654-3.292l-1.087-.67a33.4,33.4,0,0,1,4.362-10.2.329.329,0,0,1,.272-.149h4.635a.322.322,0,0,1,.255.517,22.115,22.115,0,0,0-1.7,2.5c-3.912,6.683-4.733,15.272-4.733,21.3v3.7a.965.965,0,1,0,1.93,0v-3.7c0-5.79.775-14.016,4.469-20.326a19.919,19.919,0,0,1,1.544-2.278,2.25,2.25,0,0,0-1.77-3.642h-4.636a2.253,2.253,0,0,0-1.879,1.012,34.881,34.881,0,0,0-4.47,10.2l-.371-.229V66.75a2.293,2.293,0,0,0-2.291-2.291H2657.5a2.294,2.294,0,0,0-2.291,2.291v2.914l-.37.229a40.528,40.528,0,0,0-1.432-4.327.965.965,0,1,0-1.793.712,39.128,39.128,0,0,1,1.509,4.673l-1.087.671a2.29,2.29,0,0,0-.654,3.292Zm5.267,8.939a.322.322,0,0,1,.321-.322h3.751a.322.322,0,0,1,.322.322V97.6a20.686,20.686,0,0,1-4.394,0ZM2662.3,75.97a.587.587,0,0,1-1.174,0V71.051a.587.587,0,0,1,1.174,0Zm-9.416-2.469a.365.365,0,0,1,.165-.237l3.632-2.24a.964.964,0,0,0,.458-.821V66.75a.363.363,0,0,1,.362-.362h8.423a.363.363,0,0,1,.362.362V70.2a.964.964,0,0,0,.458.821l3.632,2.24a.361.361,0,0,1,.1.52l-1.69,2.338a3.265,3.265,0,0,0-3.2-2.707h-1.357V71.051a2.516,2.516,0,1,0-5.033,0v2.364h-1.356a3.266,3.266,0,0,0-3.2,2.707l-1.69-2.338A.365.365,0,0,1,2652.888,73.5Z" fill="#0ac4bf"/><path d="M2643.633,64.6c3.693,6.309,4.469,14.536,4.469,20.326v31.219h1.929V84.923c0-6.029-.821-14.618-4.733-21.3a21.905,21.905,0,0,0-1.7-2.5.323.323,0,0,1,.255-.517h4.636a.329.329,0,0,1,.272.15c.442.666.867,1.375,1.264,2.109a.965.965,0,0,0,1.7-.919c-.425-.784-.88-1.543-1.354-2.257a2.252,2.252,0,0,0-1.879-1.012h-4.636a2.251,2.251,0,0,0-1.77,3.642A19.924,19.924,0,0,1,2643.633,64.6Z" fill="#0ac4bf"/></g></svg>