<svg xmlns="http://www.w3.org/2000/svg" xmlns:xlink="http://www.w3.org/1999/xlink" width="188.262" height="217.098" viewBox="0 0 188.262 217.098"><defs><clipPath id="a"><path d="M-907,262.515c-.729-4.071,1.032-8.311,3.881-11.307a26.241,26.241,0,0,1,10.575-6.257c3.9-1.361,7.963-2.241,11.885-3.552a14.308,14.308,0,0,0,5.523-2.934,8.359,8.359,0,0,0,1.784-9.212h11.872a8.359,8.359,0,0,0,1.783,9.212,14.309,14.309,0,0,0,5.523,2.934c3.922,1.31,7.98,2.191,11.885,3.552a26.239,26.239,0,0,1,10.575,6.257c2.85,3,4.61,7.237,3.881,11.307Z" transform="translate(907.16 -229.252)" fill="none"/></clipPath><clipPath id="b"><path d="M-710.444,496.087c-.719-3.03-3.323-5.1-6.025-6.356a25.3,25.3,0,0,0-4.651-1.585,19.141,19.141,0,0,0-6.149-.629c-3.328.286-6.756,1.94-8.2,5.109-1.527,3.35-.7,7.188,1.113,10.246.17.286.355.563.539.84-.162-.182-.323-.365-.5-.537a8.692,8.692,0,0,0-3.9-2.246c-3.124-.847-6.562-.245-9.581-1.52-2.807-1.186-4.139-4-4.725-6.824-1.193-5.755.67-12.9-3.738-17.617-2.053-2.2-5.068-2.772-7.549-4.3a5.531,5.531,0,0,1-2.573-3.23,11.844,11.844,0,0,1-.019-4.625,24.368,24.368,0,0,0,.374-4.821,8.164,8.164,0,0,0-1.533-4.267c-1.753-2.432-4.579-4.21-5.359-7.247-.764-2.972.048-6.095-.425-9.1a6.732,6.732,0,0,0-1.857-3.817,11.982,11.982,0,0,0-4.029-2.245,8.4,8.4,0,0,1-3.873-2.629,18.5,18.5,0,0,1-2.124-4.594,20.2,20.2,0,0,0-1.09-2.477,4.388,4.388,0,0,0-.026-.879c-.059-.425-1.473-4.252-1.185-4.374a17.17,17.17,0,0,1-4.065,1.32,4.68,4.68,0,0,0-1.146.081,5.953,5.953,0,0,1-.971-.086c-.882-.155-1.717-.522-2.6-.677-3.013-.53-6.033,1.451-9.058.993-2.1-.318-3.875-1.768-5.955-2.185-2.2-.442-2.326,2.24-2.194,3.862a17.374,17.374,0,0,0,.659,2.935,21.586,21.586,0,0,1-.055,11.049,17.583,17.583,0,0,0-.855,3.795,13.991,13.991,0,0,0,.818,4.387,15.572,15.572,0,0,1,.745,6.929c-.243,1.372-.8,2.673-1.045,4.045a4.518,4.518,0,0,0,.872,3.93.9.9,0,0,0,.763.343,1.31,1.31,0,0,0,.58-.407c1.2-1.119,3.138-.821,4.649-.176s2.991,1.583,4.633,1.537c2.133-.059,3.876-1.754,5.96-2.212,2.52-.554,4.949.718,7.419.979,1.464.155,1.609-.137,1.54-1.514a16.592,16.592,0,0,0-.594-3.779c-.531-1.85-1.418-3.692-1.18-5.6.159-1.277.812-2.443,1.065-3.7.38-1.894-.163-3.833-.429-5.746a31.614,31.614,0,0,1,.726-10.784c.13-.621.335-1.286.521-1.96,1.163,2.833,1.9,5.931,4.688,7.659,1.374.852,2.955,1.273,4.383,2.015a5.359,5.359,0,0,1,2.831,3.22,14.218,14.218,0,0,1,.355,4.539,26.01,26.01,0,0,0,.139,4.793,8.983,8.983,0,0,0,1.9,4.2c.956,1.218,2.113,2.258,3.125,3.427a7.532,7.532,0,0,1,1.979,4.118,21.041,21.041,0,0,1-.325,4.972,13.815,13.815,0,0,0-.029,4.835,6.5,6.5,0,0,0,2.434,3.731c2.369,1.823,5.588,2.246,7.774,4.337,2.294,2.2,2.854,5.552,3.056,8.581.211,3.166.051,6.345.818,9.452.72,2.915,2.316,5.683,5.168,6.931,3.135,1.371,6.637.764,9.88,1.646a7.679,7.679,0,0,1,3.764,2.364c.963,1.067,1.748,2.279,2.632,3.409a9.527,9.527,0,0,0,3.035,2.746,6.823,6.823,0,0,0,5.126.3,28.029,28.029,0,0,0,5.26-2.465,25.565,25.565,0,0,0,4.569-3.05C-711.547,503.181-709.6,499.639-710.444,496.087Z" transform="translate(813.773 -415.752)" fill="#00304c"/></clipPath></defs><g transform="translate(1106.382 -39.007)"><path d="M-1101.774,605.6a16.422,16.422,0,0,1-2.819-3.4,10.825,10.825,0,0,1-1.773-6.276c.264-4.258,3.715-7.662,7.468-9.563,6.215-3.15,13.351-4.928,20.024-6.76,15.63-4.29,31.253-9.362,47.055-12.936,4.646-1.277,9.326-3.085,14.131-3.431,10.6-.763,20.813,2.8,30.9,5.571q19.067,5.243,38.134,10.482c8.786,2.415,25.8,3.214,27.427,14.919.678,4.882-1.5,9.9-5.005,13.3-5.687,5.507-13.434,6.252-20.806,7.4l-20.871,3.255c-2.025.316-26.53,2.686-26.813,4.182l-.364,1.921c-.415,2.191-3.751,3.422-7.635,2.816l-11.187-1.745-11.187,1.745c-3.884.606-7.22-.625-7.635-2.816l-.364-1.921-29.736-4.638c-8.088-1.261-16.256-2.386-24.083-4.9C-1092.041,611.158-1097.723,609.355-1101.774,605.6Z" transform="translate(0 -372.35)" fill="#256eb6"/><path d="M-960.463,39.392a22.333,22.333,0,0,0-5.344.353c-6.115,1.16-10.593,5.207-14.462,9.832-2.036,2.434-3.507,2.759-6.362,4a19.931,19.931,0,0,0-7.633,5.838,19.95,19.95,0,0,0-4.258,13.239c.166,3.415,1.213,6.72,1.744,10.1s.489,7.049-1.328,9.945c-5.215,8.316-20.767,9.135-19.969,21.335.2,3.115,1.618,6.214.918,9.256-.643,2.792-2.99,4.494-4.6,6.67-4.238,5.743-8.22,12.174-3.275,19.023a17.223,17.223,0,0,0,8.822,6c3.561,1.14,7.829,1.925,11.416,1.018,4.043-1.021,8.083-1.874,12.241-.921,3.61.827,6.841,2.865,10.421,3.814,5.872,1.556,12.089.06,17.9-1.715s11.718-3.86,17.78-3.469c5.8.374,11.219,2.988,16.965,3.831a28.274,28.274,0,0,0,12.082-.878c3.189-.943,6.31-3.18,9.644-3.487,4.125-.379,7.727,2.6,11.693,3.8a14.333,14.333,0,0,0,15.6-5.577c3.79-5.65,2.353-12.11-1.277-17.32-1.623-2.329-4.155-3.689-6.066-5.8a23.988,23.988,0,0,1-4.9-8.267,24.771,24.771,0,0,1-.166-14.981c1.862-6.507,4.381-12.432,2.985-19.386-.891-4.44-2.681-8.931-6.449-11.693-4.254-3.118-10.146-2.013-13.907-6.149-3.685-4.055-2.089-8.788-3.5-13.419a22,22,0,0,0-8.882-11.826,22.027,22.027,0,0,0-11.352-3.537,19.728,19.728,0,0,0-9.926,2.073c-1.539.818-3.357,1.964-5.186,1.692-1.912-.285-3.879-1.816-5.788-2.4A23.253,23.253,0,0,0-960.463,39.392Z" transform="translate(-56.168 0)" fill="#172345"/><path d="M-804.326,193.13c.338,1.455.659,3.059-.036,4.381-1.052,2-3.756,2.274-6.017,2.293l-30.346.25c-1.81.015-3.826-.049-5.114-1.321a4.77,4.77,0,0,1-1.084-4.186,16.577,16.577,0,0,1,1.586-4.192,62.416,62.416,0,0,0,5.737-21.6c.14-1.757.268-3.678,1.47-4.968,1.429-1.534,3.8-1.586,5.9-1.528l12.009.329c2.648.072,7.074-.6,9.209,1.411,1.476,1.393,1.193,3.811,1.4,5.652a93.178,93.178,0,0,0,2.3,10.594Z" transform="translate(-184.263 -87.554)" fill="#112143"/><path d="M-907,150.744c-.729-4.071,1.032-8.311,3.881-11.307a26.241,26.241,0,0,1,10.575-6.257c3.9-1.361,7.963-2.241,11.885-3.552a14.312,14.312,0,0,0,5.523-2.934,8.166,8.166,0,0,0,2.313-4.373c-4.216-2.185-7.364-6.74-9.158-11.326-2.722-6.957-3.493-14.517-3.767-21.982-.143-3.917-.1-8.055,1.862-11.446,2.969-5.124,10.209-5.136,15.463-5.572,6.172-.512,12.488,1.666,16.087,6.957,4.67,6.865,3.54,16.024,1.732,24.127-1.071,4.8-2.366,9.673-5.172,13.71a17.091,17.091,0,0,1-6.238,5.508,8.169,8.169,0,0,0,2.317,4.4,14.313,14.313,0,0,0,5.523,2.934c3.922,1.31,7.98,2.191,11.885,3.552a26.239,26.239,0,0,1,10.575,6.257c2.85,3,4.61,7.237,3.881,11.307Z" transform="translate(-141.531 -23.383)" fill="#f5a795"/><path d="M-949.786,354.7a53.386,53.386,0,0,0,3.116-4.636c3.2-5.154,5.538-10.776,8.337-16.146,2.976-5.71,6.447-10.892,8.957-16.841a4.429,4.429,0,0,0,.3-1.115l.43-1.02a3.2,3.2,0,0,0,.185-1.907,3.218,3.218,0,0,0-1.963-2.813l-8.091-3.413c-3.047-1.285-4.8,2.248-5.935,4.407-1.828,3.471-3.635,6.953-5.452,10.43L-961,342.9c-1.5,2.862-3.026,5.849-3.129,9.077s1.677,6.76,4.8,7.57C-955.4,360.559-952.229,357.851-949.786,354.7Z" transform="translate(-101.053 -190.059)" fill="#f5a795"/><path d="M-667.8,366.517a53.436,53.436,0,0,1-3.138-4.622c-3.224-5.139-5.588-10.751-8.411-16.108-3-5.7-6.5-10.862-9.035-16.8a4.449,4.449,0,0,1-.308-1.113l-.435-1.018a3.2,3.2,0,0,1-.193-1.907,3.218,3.218,0,0,1,1.949-2.822l8.076-3.451c3.041-1.3,4.808,2.227,5.955,4.38,1.844,3.462,3.666,6.937,5.5,10.4l11.2,21.195c1.509,2.855,3.053,5.835,3.171,9.063s-1.646,6.768-4.768,7.592C-662.16,372.346-665.346,369.653-667.8,366.517Z" transform="translate(-296.24 -198.485)" fill="#f5a795"/><path d="M-850.246,736.651a18.373,18.373,0,0,1,7.8-1.875c11.364-.777,23.229,1.617,32.376,8.2a8.292,8.292,0,0,1,2.681,2.738,3.169,3.169,0,0,1-.279,3.573c-.989,1.049-2.661,1.059-4.125.976a226.345,226.345,0,0,1-27.763-3.294q-3.467-.631-6.911-1.369c-1.869-.4-4.855-.539-6.471-1.549C-856.143,742.047-852.5,737.916-850.246,736.651Z" transform="translate(-179.155 -494.189)" fill="#f5a795"/><path d="M-817.062,57.211a9.225,9.225,0,0,1-3.207,6.354c-2.761,2.335-6.585,2.816-10.164,3.331-4.983.717-10.02,1.716-14.45,4.107s-8.228,6.375-9.332,11.286c-1.78-5.136-3.514-10.4-3.546-15.837s1.912-11.157,6.262-14.415c2.871-2.15,6.486-3.039,10.035-3.561a59.07,59.07,0,0,1,18.371.109C-818.815,49.311-816.772,52.824-817.062,57.211Z" transform="translate(-176.625 -6.255)" fill="#172345"/><path d="M-754.522,60.489c-3.658.271-6.79,1.565-8.254,3.413-2.1,2.648-.729,6.05,1.833,8.954s6.226,5.514,9.1,8.342c5.967,5.87,10.927,18.07,11.5,17.2,6.594-10.088,6.951-23.806-2.468-34.5C-745.147,61.248-749.62,60.127-754.522,60.489Z" transform="translate(-243.374 -15.214)" fill="#172345"/><g transform="translate(-1048.691 94.098)"><g transform="translate(0 0)" clip-path="url(#a)"><path d="M-779.2,248.5c.106-.067-1.023-1.915-.967-2.748a10.72,10.72,0,0,1-10.844.084A16.41,16.41,0,0,1-792,248.5,12.022,12.022,0,0,0-779.2,248.5Z" transform="translate(825.349 -240.973)" fill="#f18e7c"/></g></g><path d="M-810.93,736.651a18.372,18.372,0,0,0-7.8-1.875,59.481,59.481,0,0,0-8.074-.008,7.54,7.54,0,0,0-3.354.666c-1.17.642-2.291,1.4-3.431,2.1a22.516,22.516,0,0,1-3.435,1.836,22.552,22.552,0,0,1-3.436.95c-2.358.519-4.72,1.039-7.113,1.358a8.025,8.025,0,0,0-6.213,4.04,3.169,3.169,0,0,0,.279,3.573c.989,1.049,2.661,1.059,4.124.976a226.282,226.282,0,0,0,27.763-3.294q3.467-.63,6.911-1.369c1.869-.4,4.855-.539,6.471-1.55C-805.033,742.047-808.679,737.915-810.93,736.651Z" transform="translate(-179.155 -494.188)" fill="#f18e7c"/><path d="M-839.746,299.131c-.4-1.093-.729-1.961-.818-2.185-.94-2.379-2.091-4.684-3.191-6.992-.7-1.476-1.407-2.953-2.191-4.388a19.776,19.776,0,0,0-2.7-4.161,20.528,20.528,0,0,0-7.506-4.565c-1.11-.435-2.237-.826-3.364-1.215-1.91-.659-3.821-1.318-5.764-1.874-.787-.225-2.672-.728-2.672-.728a3.592,3.592,0,0,1-.818,1.27,25.31,25.31,0,0,1-5.027,3.484,25.737,25.737,0,0,1-11.382,2.988,29.246,29.246,0,0,1-10.106-2.956,25.323,25.323,0,0,1-5.027-3.484,3.591,3.591,0,0,1-.817-1.27s-1.886.5-2.672.728c-1.943.557-3.854,1.216-5.764,1.874-.97.334-1.938.672-2.9,1.038-.9.345-1.771.819-2.663,1.152a12.273,12.273,0,0,0-4.556,2.939,22.192,22.192,0,0,0-3.389,4.718,73.8,73.8,0,0,0-3.7,7.836c-.886,2.122-1.785,4.24-2.59,6.394-.406,1.088-.789,2.184-1.133,3.293q-.258.833-.486,1.674c-.08.3-.127.325.077.51a2.264,2.264,0,0,0,.543.285l.033.014,15.862,6.778s3.78-7.609,3.935-7.823c.028.685-2.577,4.676-.85,10.96,3.379,12.295,11.279,35.835-1.483,46.007-2.659,2.119,6.643,6.244,10.043,6.244a89.77,89.77,0,0,0,17.637,1.115,92.827,92.827,0,0,0,18.913-1.147c3.4,0,12.7-4.125,10.043-6.244-12.762-10.172-4.862-33.713-1.483-46.007,1.727-6.284-.878-10.276-.85-10.96.155.214,3.935,7.823,3.935,7.823l6.476-2.767,8.724-3.728c.562-.24,1.456-.539,1.456-.539S-838.852,301.559-839.746,299.131Z" transform="translate(-124.564 -166.249)" fill="#a7daea"/><path d="M-1031.03,643.348q-.158-.081-.3-.171c-3.2-2,.443-6.135,2.694-7.4a18.373,18.373,0,0,1,7.8-1.875,58.521,58.521,0,0,1,11.857.378,57.391,57.391,0,0,1,7.449-.518,2.752,2.752,0,0,0-.818-1.738,19.3,19.3,0,0,0-6.649-4.213c-3.053-1.031-6.28-3.28-6.375-6.5-.053-1.792.935-3.443,1.24-5.21.546-3.166-1.137-6.266-2.962-8.909-3.095-4.483-6.88-8.629-11.671-11.222-5.581-3.021-12.18-3.731-18.5-3.131s-12.444,2.434-18.522,4.259l-24.09,7.232c-3.383,1.016-6.824,2.058-9.759,4.024s-5.341,5.032-5.639,8.552c-.3,3.545,1.594,7,4.241,9.382a29.414,29.414,0,0,0,9.3,5.115c15.683,6.039,32.594,7.557,49.206,10.108,4.334.666,8.068,1.342,11.421,1.921C-1031.085,643.4-1031.059,643.376-1031.03,643.348Z" transform="translate(-0.762 -393.316)" fill="#256eb6" opacity="0.55" style="mix-blend-mode:multiply;isolation:isolate"/><path d="M-804.654,157.528a2.238,2.238,0,0,1-1.859,2.154,2.226,2.226,0,0,1-2.357-1.795.6.6,0,0,0-.726-.412.6.6,0,0,0-.412.726,3.39,3.39,0,0,0,3.57,2.653,3.408,3.408,0,0,0,2.965-3.327A.591.591,0,0,0-804.654,157.528Z" transform="translate(-210.54 -83.795)" fill="#121731"/><path d="M-754.35,158.11a2.238,2.238,0,0,0,1.859,2.154,2.226,2.226,0,0,0,2.357-1.795.6.6,0,0,1,.727-.412.6.6,0,0,1,.412.726,3.39,3.39,0,0,1-3.57,2.653,3.408,3.408,0,0,1-2.965-3.327A.591.591,0,0,1-754.35,158.11Z" transform="translate(-249.252 -84.208)" fill="#121731"/><path d="M-772.35,174.966l-1.3-.007c-.03,0-.261-.007-.427-.009,0-.059.007-.118.012-.176.059-.816.126-1.631.189-2.447q.195-2.528.39-5.057c.058-.758-1.123-.754-1.181,0l-.459,5.955-.113,1.468a1.394,1.394,0,0,0,.219,1.1,1.377,1.377,0,0,0,1.127.343l1.54.008A.591.591,0,0,0-772.35,174.966Z" transform="translate(-235.24 -90.717)" fill="#ed7a6d"/><path d="M-780.605,208.485a.6.6,0,0,0-.808.212,8.153,8.153,0,0,1-6.67,3.114,8.143,8.143,0,0,1-6.308-3.525c-.425-.625-1.448-.035-1.02.6a9.39,9.39,0,0,0,7.328,4.11,9.37,9.37,0,0,0,7.689-3.7A.6.6,0,0,0-780.605,208.485Z" transform="translate(-220.847 -120.071)" fill="#ed7a6d"/><path d="M-745.429,141.125a6.322,6.322,0,0,0-5.251-2.109.606.606,0,0,0-.59.59.6.6,0,0,0,.59.59,5.207,5.207,0,0,1,4.416,1.763.6.6,0,0,0,.835,0A.6.6,0,0,0-745.429,141.125Z" transform="translate(-252.279 -71.031)" fill="#121731"/><path d="M-808.869,138.794a9.331,9.331,0,0,0-5.12,2.249.6.6,0,0,0,0,.835.6.6,0,0,0,.835,0,7.967,7.967,0,0,1,4.284-1.9.608.608,0,0,0,.59-.59A.594.594,0,0,0-808.869,138.794Z" transform="translate(-207.601 -70.889)" fill="#121731"/><path d="M-771.872,110.657a17.066,17.066,0,0,1-.708-4.359c.146-.1.3-.2.44-.3.611-.44.022-1.465-.6-1.02-.032.023-.065.043-.1.066a.6.6,0,0,0-.937.474c0,.054,0,.109,0,.164a29.083,29.083,0,0,1-10.151,4.2c-.744.153-.429,1.291.314,1.139a29.945,29.945,0,0,0,9.882-3.969,18.172,18.172,0,0,0,.713,3.916A.591.591,0,0,0-771.872,110.657Z" transform="translate(-228.782 -46.79)" fill="#172345"/><path d="M-741.717,180.275a4.05,4.05,0,0,1,1.826-1.693,2.7,2.7,0,0,1,3.032,1.377,5.69,5.69,0,0,1,.471,3.52c-.252,2-2.1,4.857-4.44,3.322C-742.749,185.54-742.892,181.965-741.717,180.275Z" transform="translate(-258.533 -99.081)" fill="#ec8ca9" opacity="0.2" style="mix-blend-mode:multiply;isolation:isolate"/><path d="M-817.294,180.341a4.051,4.051,0,0,1,1.332-2.1,2.7,2.7,0,0,1,3.284.555,5.689,5.689,0,0,1,1.357,3.281c.269,2-.785,5.233-3.441,4.349C-816.944,185.7-818,182.275-817.294,180.341Z" transform="translate(-205.22 -98.666)" fill="#ec8ca9" opacity="0.2" style="mix-blend-mode:multiply;isolation:isolate"/><path d="M-759.586,385.67c-.036.02-.287.174-.2.135a1.1,1.1,0,0,0-.29.174,1.264,1.264,0,0,0-.387.606,1.413,1.413,0,0,0-.019.694L-780.8,403.163l-5.944,4.645c-.647.506.262,1.4.9.9L-765,392.419l5.413-4.231a1.007,1.007,0,0,0,.35.013,1.491,1.491,0,0,0,1.759-1.041A1.462,1.462,0,0,0-759.586,385.67Z" transform="translate(-226.917 -246.162)" fill="#1e242c"/><path d="M-835.663,384.945c.036.021.284.179.2.138a1.1,1.1,0,0,1,.286.178,1.266,1.266,0,0,1,.377.612,1.422,1.422,0,0,1,.008.695l20.066,16.211,5.868,4.741c.639.516-.285,1.4-.917.888l-20.581-16.627-5.344-4.318a1,1,0,0,1-.35.007A1.49,1.49,0,0,1-837.8,386.4,1.462,1.462,0,0,1-835.663,384.945Z" transform="translate(-190.79 -245.64)" fill="#1e242c"/><g transform="translate(-1021.648 148.104)"><path d="M-710.444,496.087c-.719-3.03-3.323-5.1-6.025-6.356a25.3,25.3,0,0,0-4.651-1.585,19.141,19.141,0,0,0-6.149-.629c-3.328.286-6.756,1.94-8.2,5.109-1.527,3.35-.7,7.188,1.113,10.246.17.286.355.563.539.84-.162-.182-.323-.365-.5-.537a8.692,8.692,0,0,0-3.9-2.246c-3.124-.847-6.562-.245-9.581-1.52-2.807-1.186-4.139-4-4.725-6.824-1.193-5.755.67-12.9-3.738-17.617-2.053-2.2-5.068-2.772-7.549-4.3a5.531,5.531,0,0,1-2.573-3.23,11.844,11.844,0,0,1-.019-4.625,24.368,24.368,0,0,0,.374-4.821,8.164,8.164,0,0,0-1.533-4.267c-1.753-2.432-4.579-4.21-5.359-7.247-.764-2.972.048-6.095-.425-9.1a6.732,6.732,0,0,0-1.857-3.817,11.982,11.982,0,0,0-4.029-2.245,8.4,8.4,0,0,1-3.873-2.629,18.5,18.5,0,0,1-2.124-4.594,20.2,20.2,0,0,0-1.09-2.477,4.388,4.388,0,0,0-.026-.879c-.059-.425-1.473-4.252-1.185-4.374a17.17,17.17,0,0,1-4.065,1.32,4.68,4.68,0,0,0-1.146.081,5.953,5.953,0,0,1-.971-.086c-.882-.155-1.717-.522-2.6-.677-3.013-.53-6.033,1.451-9.058.993-2.1-.318-3.875-1.768-5.955-2.185-2.2-.442-2.326,2.24-2.194,3.862a17.374,17.374,0,0,0,.659,2.935,21.586,21.586,0,0,1-.055,11.049,17.583,17.583,0,0,0-.855,3.795,13.991,13.991,0,0,0,.818,4.387,15.572,15.572,0,0,1,.745,6.929c-.243,1.372-.8,2.673-1.045,4.045a4.518,4.518,0,0,0,.872,3.93.9.9,0,0,0,.763.343,1.31,1.31,0,0,0,.58-.407c1.2-1.119,3.138-.821,4.649-.176s2.991,1.583,4.633,1.537c2.133-.059,3.876-1.754,5.96-2.212,2.52-.554,4.949.718,7.419.979,1.464.155,1.609-.137,1.54-1.514a16.592,16.592,0,0,0-.594-3.779c-.531-1.85-1.418-3.692-1.18-5.6.159-1.277.812-2.443,1.065-3.7.38-1.894-.163-3.833-.429-5.746a31.614,31.614,0,0,1,.726-10.784c.13-.621.335-1.286.521-1.96,1.163,2.833,1.9,5.931,4.688,7.659,1.374.852,2.955,1.273,4.383,2.015a5.359,5.359,0,0,1,2.831,3.22,14.218,14.218,0,0,1,.355,4.539,26.01,26.01,0,0,0,.139,4.793,8.983,8.983,0,0,0,1.9,4.2c.956,1.218,2.113,2.258,3.125,3.427a7.532,7.532,0,0,1,1.979,4.118,21.041,21.041,0,0,1-.325,4.972,13.815,13.815,0,0,0-.029,4.835,6.5,6.5,0,0,0,2.434,3.731c2.369,1.823,5.588,2.246,7.774,4.337,2.294,2.2,2.854,5.552,3.056,8.581.211,3.166.051,6.345.818,9.452.72,2.915,2.316,5.683,5.168,6.931,3.135,1.371,6.637.764,9.88,1.646a7.679,7.679,0,0,1,3.764,2.364c.963,1.067,1.748,2.279,2.632,3.409a9.527,9.527,0,0,0,3.035,2.746,6.823,6.823,0,0,0,5.126.3,28.029,28.029,0,0,0,5.26-2.465,25.565,25.565,0,0,0,4.569-3.05C-711.547,503.181-709.6,499.639-710.444,496.087Z" transform="translate(813.773 -415.752)" fill="#00304c"/><g clip-path="url(#b)"><path d="M-526.646,685.472a31.37,31.37,0,0,1-9.73-18.874,30.426,30.426,0,0,1-.179-6.06c.039-.558-.83-.555-.869,0a32.179,32.179,0,0,0,6,20.84,31.175,31.175,0,0,0,4.166,4.709C-526.85,686.464-526.234,685.851-526.646,685.472Z" transform="translate(617.501 -589.356)" fill="#172345"/><path d="M-518.7,681.435c-3.225-1.477-5.23-4.848-6.741-7.907a29.909,29.909,0,0,1-3.023-10.687,26.294,26.294,0,0,1,.2-6.2c.085-.547-.753-.782-.838-.231a28.349,28.349,0,0,0,.625,11.44,30.77,30.77,0,0,0,4.807,10.339,11.963,11.963,0,0,0,4.533,3.992C-518.637,682.416-518.2,681.668-518.7,681.435Z" transform="translate(611.765 -586.499)" fill="#172345"/><path d="M-537.207,694.073a37.6,37.6,0,0,1-9.744-16.264,37.385,37.385,0,0,1-1.14-5.313c-.077-.551-.914-.317-.838.231a38.3,38.3,0,0,0,7.44,17.8,38.154,38.154,0,0,0,3.668,4.158C-537.421,695.079-536.806,694.465-537.207,694.073Z" transform="translate(625.625 -597.925)" fill="#172345"/><path d="M-514.909,653.522a42.292,42.292,0,0,0-11.934,8.606c-.39.4.224,1.016.614.615a41.6,41.6,0,0,1,11.759-8.471C-513.967,654.03-514.408,653.28-514.909,653.522Z" transform="translate(610.021 -584.635)" fill="#172345"/><path d="M-514.9,661.6a39.736,39.736,0,0,0-11.031,8.276c-.382.408.231,1.024.614.614a39.035,39.035,0,0,1,10.855-8.141C-513.961,662.1-514.4,661.347-514.9,661.6Z" transform="translate(609.369 -590.371)" fill="#172345"/><path d="M-502.511,675.937a71.721,71.721,0,0,1-12.21-.494c.029-.125.052-.253.079-.378a85.66,85.66,0,0,0,11.412-1.155c.55-.093.317-.93-.231-.838-.481.082-.964.155-1.447.227a13.037,13.037,0,0,0-1.413-3.966c-.27-.49-1.02-.052-.75.438a12.293,12.293,0,0,1,1.306,3.649c-.349.048-.7.1-1.047.142a52.458,52.458,0,0,0-3.545-6.73c.354-.208.706-.419,1.063-.621a.435.435,0,0,0-.438-.75,80.3,80.3,0,0,0-10.977,7.486q-1.486,1.2-2.912,2.48c-.418.373.2.986.614.614q2.007-1.791,4.134-3.436a18.055,18.055,0,0,1-2.323,8.18.435.435,0,0,0,.75.438,18.993,18.993,0,0,0,2.454-8.971.4.4,0,0,0-.085-.266q.7-.527,1.406-1.037a31.909,31.909,0,0,1-3.348,12.074c-.252.5.5.938.75.438a32.992,32.992,0,0,0,3.491-12.827.384.384,0,0,0-.077-.27c.381-.268.767-.529,1.152-.79a38.05,38.05,0,0,1-4.318,14.951c-.262.494.488.933.75.438a38.958,38.958,0,0,0,2.789-6.709c.013,0,.024.01.037.013a36.012,36.012,0,0,0,11.117,1.006c.555-.036.559-.905,0-.869a35.224,35.224,0,0,1-10.886-.975l-.021,0c.108-.378.209-.759.306-1.141a71.708,71.708,0,0,0,12.416.519C-501.954,676.781-501.951,675.912-502.511,675.937Zm-8.594-8.663a52.461,52.461,0,0,1,3.4,6.4c-.549.064-1.1.119-1.649.172,0-.008,0-.017,0-.025l-.2-.71a.45.45,0,0,0-.2-.26.449.449,0,0,0-.142-.05,37.786,37.786,0,0,1-2.543-4.359.376.376,0,0,0-.224-.2Q-511.894,667.75-511.1,667.274Zm-2.765,1.744c.208-.137.418-.272.628-.407a.436.436,0,0,0,.043.273,37.814,37.814,0,0,0,2.833,4.792.533.533,0,0,0,.086.094l.045.158c-.487.042-.974.084-1.461.118a.365.365,0,0,0-.059-.179l-1.691-2.563a.451.451,0,0,0-.538-.183c.071-.615.133-1.231.174-1.85A.393.393,0,0,0-513.869,669.019Zm-.212,2.9,1.444,2.188c-.607.034-1.213.065-1.821.087Q-514.235,673.058-514.081,671.914Z" transform="translate(607.742 -593.108)" fill="#172345"/><path d="M-517.217,692.519a.438.438,0,0,0-.534.3,19.943,19.943,0,0,1-1.525,5.08.448.448,0,0,0,.156.594.438.438,0,0,0,.595-.156,20.751,20.751,0,0,0,1.613-5.287A.448.448,0,0,0-517.217,692.519Z" transform="translate(604.593 -612.363)" fill="#172345"/><path d="M-496.425,729.283l-7.77.077a.435.435,0,0,0,0,.869l7.77-.077A.435.435,0,0,0-496.425,729.283Z" transform="translate(594.141 -638.491)" fill="#172345"/><path d="M-497.623,734.822a.445.445,0,0,0-.534-.3,22.745,22.745,0,0,1-4.027.256.435.435,0,0,0,0,.869,24.009,24.009,0,0,0,4.258-.288A.438.438,0,0,0-497.623,734.822Z" transform="translate(592.712 -642.205)" fill="#172345"/><path d="M-498.586,721.889a7.626,7.626,0,0,1-1.115-2.718.439.439,0,0,0-.534-.3.443.443,0,0,0-.3.534,8.462,8.462,0,0,0,1.2,2.925.444.444,0,0,0,.595.156A.439.439,0,0,0-498.586,721.889Z" transform="translate(591.252 -631.082)" fill="#172345"/><path d="M-492.95,715.152a11.891,11.891,0,0,1-1.878-5.024.448.448,0,0,0-.434-.434.437.437,0,0,0-.434.434,12.843,12.843,0,0,0,2,5.463C-493.395,716.055-492.642,715.62-492.95,715.152Z" transform="translate(587.807 -624.574)" fill="#172345"/><path d="M-484.987,715.043a10.7,10.7,0,0,1-1.848-4.931.447.447,0,0,0-.434-.434.437.437,0,0,0-.434.434,11.6,11.6,0,0,0,1.967,5.37C-485.422,715.939-484.669,715.5-484.987,715.043Z" transform="translate(582.128 -624.562)" fill="#172345"/><path d="M-478.095,715.356a11.026,11.026,0,0,1-1.638-4.77.446.446,0,0,0-.434-.434.438.438,0,0,0-.434.434,11.982,11.982,0,0,0,1.757,5.209C-478.549,716.267-477.8,715.831-478.095,715.356Z" transform="translate(577.082 -624.899)" fill="#172345"/><path d="M-469.97,713.981a8.353,8.353,0,0,1-1.085-3.079.437.437,0,0,0-.534-.3.445.445,0,0,0-.3.534,8.967,8.967,0,0,0,1.172,3.286.442.442,0,0,0,.594.156A.44.44,0,0,0-469.97,713.981Z" transform="translate(570.899 -625.208)" fill="#172345"/></g></g><g transform="translate(-1064.91 145.455)"><path d="M-932.294,446.937l.582-.195a80.137,80.137,0,0,0,9.48-3.833c.1-.047.328-.059.379-.155.063-.118-.241-.76-.279-.889a16.805,16.805,0,0,0-1.986-4.313,3.437,3.437,0,0,1-.16-.375,3.019,3.019,0,0,1-.4.1,19.222,19.222,0,0,0-1.942.365,45.3,45.3,0,0,1-6.862.822c-2.12.119-4.158.4-6.274.553l-11.956.871c-3.177.232-7.2-.2-9.452,2.514a9.279,9.279,0,0,0-1.8,4.038,6.69,6.69,0,0,0-.125,2.583,5.156,5.156,0,0,0,.694,1.747c2.161,3.522,5.738,3.038,9.16,2.293,4.146-.9,8.245-2.009,12.306-3.236C-938.012,448.95-935.164,447.9-932.294,446.937Z" transform="translate(963.167 -428.323)" fill="#f5a795"/><path d="M-822.756,415.921c-.2-.041,5.758-1.338,4.411-3.227-.412-.579-4.124,1.183-4.674.617-.811-.833,2.035-1.612,1.7-2.745-.3-1.016-2.668-.07-2.723-.074,0,0-1.615.747-3.793,1.919,2.824-3.8,3.043-6.39,1.855-5.7s-1.632,1.672-6.72,7.35c-2.054,1.365-3.035,2.14-3.035,2.14l2.928,5.323a43.822,43.822,0,0,1,4.725-.341c6.247-.114,10.619-1.784,11.018-3.386.324-1.3-5.793,1.565-5.677.536.049-.439,6.025-1.813,6.1-2.664C-816.5,414.084-821.2,416.237-822.756,415.921Z" transform="translate(872.639 -406.603)" fill="#f5a795"/></g><g transform="translate(-1004.327 145.085)"><path d="M-695.859,440.738l-.551-.272a80.177,80.177,0,0,1-8.872-5.084c-.091-.06-.317-.1-.355-.2-.047-.126.342-.721.4-.843a16.8,16.8,0,0,1,2.553-4,3.511,3.511,0,0,0,.209-.35,2.987,2.987,0,0,0,.381.158,19.23,19.23,0,0,1,1.874.624,45.3,45.3,0,0,0,6.687,1.745c2.084.406,4.066.96,6.141,1.4l17.425,3.692c3.054.647,5.855,2.815,6.105,6.165a6.486,6.486,0,0,1-3.214,6c-2.717,1.527-6.6,1.077-9.288-.208-3.681-1.758-7.609-3.074-11.33-4.777C-690.466,443.508-693.147,442.084-695.859,440.738Z" transform="translate(719.632 -422.841)" fill="#f5a795"/><path d="M-748.1,414.517c.193-.067-5.121-1.092-4.062-3.156.324-.632,3.481,1.175,3.944.536.682-.941-3.172-2.021-2.668-3.09s3.275.152,3.275.152,1.706.505,4.031,1.35c-3.345-3.353-2.626-5.419-1.349-4.906s.546.956,6.4,5.837c2.229,1.053,3.313,1.678,3.313,1.678l-2.126,5.691a16.813,16.813,0,0,0-4.725.347c-3.765.823-12.926-1.73-11.8-2.914,1.3-1.363,4.716,1.376,5.532.426.288-.335-5.315-1.3-5.532-2.128C-754.318,412.606-749.623,415.045-748.1,414.517Z" transform="translate(753.957 -405.325)" fill="#f5a795"/></g></g></svg>