<svg xmlns="http://www.w3.org/2000/svg" width="39.242" height="48.933" viewBox="0 0 39.242 48.933"><g transform="translate(-2634.374 -906.011)"><path d="M2673.568,920.913l-3.423-10.175v-3.782a.945.945,0,0,0-.945-.945h-30.41a.946.946,0,0,0-.946.945v3.782l-3.423,10.175a.944.944,0,0,0-.047.3V954a.945.945,0,0,0,.946.945h16a.943.943,0,0,0,.945-.766l1.731-9.115,1.749,9.115a.944.944,0,0,0,.946.766h15.98a.946.946,0,0,0,.946-.945V921.215A.973.973,0,0,0,2673.568,920.913ZM2645.409,907.9h.823v2.052h-.823Zm-5.674,0h3.783v2.052h-3.783Zm-3.47,13.465,3.206-9.532h2.553c-.293,2.336-1.457,8.123-5.759,9.8Zm16.784,18.562-2.515,13.124h-14.269V923.608c6.014-1.74,7.376-9.153,7.669-11.773h9.115Zm0-30.013h-4.917V907.9h4.917Zm11.423-2.014h3.782v2.052h-3.782Zm-2.714,0h.823v2.052h-.832Zm-6.808,0h4.917v2.052h-4.927Zm0,23.346v-19.4h2.364V926.8C2657.314,926.946,2657.522,929.953,2654.95,931.248Zm16.774,21.8h-14.268l-2.516-13.124v-6.62a6.371,6.371,0,0,0,4.255-6.619V911.835h4.861c.293,2.62,1.655,10.033,7.668,11.773Zm0-31.412c-4.283-1.674-5.456-7.461-5.758-9.8h2.553l3.205,9.531Z" fill="#2287cb"/></g></svg>