<svg xmlns="http://www.w3.org/2000/svg" width="394.294" height="84.699" viewBox="0 0 394.294 84.699"><g transform="translate(3402.517 7799.786)"><g transform="translate(-5709.742 -7364.091)"><path d="M2564.383-372.194s18.709-1.3,36.095,5.127,91.086,9.708,99.968,4.948l-3.968,8.658s-59.339,5.481-86.551-1.889-45.638-13.912-62.6-8.751,12.9-8.2,12.9-8.2Z" fill="#f2d6e3" stroke="#bf3976" stroke-miterlimit="10" stroke-width="1"/><path d="M2543.218-367.445s14.173-15.545,48.378-14.67,55.937-4.983,59.905-6.873,48.945-15.5,48.945-15.5l-5.1,10.771s-43.087,15.308-68.788,16.63-43.931,1.8-53.858,5.236c-10.668,3.694-30.557,9.464-33.8,9.72S2543.218-367.445,2543.218-367.445Z" fill="#f2d6e3" stroke="#bf3976" stroke-miterlimit="10" stroke-width="1"/><path d="M2334.871-380.862s-4.629-2.457-7.559-.567-10.11,10.866-12.85,13.134-5.291,3.5-6.709,3.4c0,0-.661,3.024,8.315,1.8s10.772-2.929,10.772-2.929l3.685-5.586Z" fill="#f2d6e3" stroke="#bf3976" stroke-miterlimit="10" stroke-width="1"/><path d="M2547.328-381.524s-6.8,2.646-8.315,9.166-5.349,10.424-11.661,10.775c-1.025.057-4.5.658-4.78-.759s6.643-15.924,6.643-15.924S2540.431-386.153,2547.328-381.524Z" fill="#f2d6e3" stroke="#bf3976" stroke-miterlimit="10" stroke-width="1"/><path d="M2546.267-371.613c.284.294,11.433-10.5,11.433-10.5h-13.039s-5.386,5.783-5.764,6.256-6.061,9.545-6.061,9.545l7.29-1.514Z" fill="#f2d6e3" stroke="#bf3976" stroke-miterlimit="10" stroke-width="1"/><path d="M2518.462-380.2s10.11-2.024,14.457-1.909l3.874-.005s-9.733,9-10.772,15.993-15.343,5.506-15.7,2.517,2-8.018,2.191-8.008S2518.462-380.2,2518.462-380.2Z" fill="#f2d6e3" stroke="#bf3976" stroke-miterlimit="10" stroke-width="1"/><path d="M2506.651-379.823s11.339-3.685,17.2-1.7c0,0-4.914,2.93-5.858,7.843s-8.221,12.283-13.134,12.094-6.52-1.417-5.764-3.212a21.133,21.133,0,0,1,3.118-4.914C2502.494-369.807,2506.651-379.823,2506.651-379.823Z" fill="#f2d6e3" stroke="#bf3976" stroke-miterlimit="10" stroke-width="1"/><path d="M2495.281-380.2s10.11-2.024,14.457-1.909l3.874-.005s-9.733,9-10.772,15.993-15.343,5.506-15.7,2.517,2-8.018,2.191-8.008S2495.281-380.2,2495.281-380.2Z" fill="#f2d6e3" stroke="#bf3976" stroke-miterlimit="10" stroke-width="1"/><path d="M2483.47-379.823s11.338-3.685,17.2-1.7c0,0-4.914,2.93-5.859,7.843s-8.22,12.283-13.133,12.094-6.52-1.417-5.764-3.212a21.107,21.107,0,0,1,3.118-4.914C2479.312-369.807,2483.47-379.823,2483.47-379.823Z" fill="#f2d6e3" stroke="#bf3976" stroke-miterlimit="10" stroke-width="1"/><path d="M2473.816-380.2s10.111-2.024,14.457-1.909l3.874-.005s-9.732,9-10.772,15.993-15.343,5.506-15.7,2.517,2-8.018,2.192-8.008S2473.816-380.2,2473.816-380.2Z" fill="#f2d6e3" stroke="#bf3976" stroke-miterlimit="10" stroke-width="1"/><path d="M2462-379.823s11.339-3.685,17.2-1.7c0,0-4.913,2.93-5.858,7.843s-8.221,12.283-13.134,12.094-6.52-1.417-5.764-3.212a21.133,21.133,0,0,1,3.118-4.914C2457.848-369.807,2462-379.823,2462-379.823Z" fill="#f2d6e3" stroke="#bf3976" stroke-miterlimit="10" stroke-width="1"/><path d="M2468.808-381.524s-6.8,2.646-8.314,9.166-5.349,10.424-11.662,10.775c-1.025.057-4.5.658-4.779-.759s6.642-15.924,6.642-15.924S2461.911-386.153,2468.808-381.524Z" fill="#f2d6e3" stroke="#bf3976" stroke-miterlimit="10" stroke-width="1"/><path d="M2439.942-380.2s10.111-2.024,14.457-1.909l3.874-.005s-9.732,9-10.772,15.993-15.343,5.506-15.7,2.517,2-8.018,2.192-8.008S2439.942-380.2,2439.942-380.2Z" fill="#f2d6e3" stroke="#bf3976" stroke-miterlimit="10" stroke-width="1"/><path d="M2428.131-379.823s11.339-3.685,17.2-1.7c0,0-4.913,2.93-5.858,7.843s-8.221,12.283-13.134,12.094-6.52-1.417-5.764-3.212a21.133,21.133,0,0,1,3.118-4.914C2423.974-369.807,2428.131-379.823,2428.131-379.823Z" fill="#f2d6e3" stroke="#bf3976" stroke-miterlimit="10" stroke-width="1"/><path d="M2416.761-380.2s10.11-2.024,14.457-1.909l3.874-.005s-9.732,9-10.772,15.993-15.343,5.506-15.7,2.517,2-8.018,2.191-8.008S2416.761-380.2,2416.761-380.2Z" fill="#f2d6e3" stroke="#bf3976" stroke-miterlimit="10" stroke-width="1"/><path d="M2404.95-379.823s11.339-3.685,17.2-1.7c0,0-4.913,2.93-5.858,7.843s-8.221,12.283-13.134,12.094-6.52-1.417-5.764-3.212a21.133,21.133,0,0,1,3.118-4.914C2400.793-369.807,2404.95-379.823,2404.95-379.823Z" fill="#f2d6e3" stroke="#bf3976" stroke-miterlimit="10" stroke-width="1"/><path d="M2411.753-381.524s-6.8,2.646-8.315,9.166-5.349,10.424-11.661,10.775c-1.025.057-4.5.658-4.78-.759s6.643-15.924,6.643-15.924S2404.856-386.153,2411.753-381.524Z" fill="#f2d6e3" stroke="#bf3976" stroke-miterlimit="10" stroke-width="1"/><path d="M2382.887-380.2s10.11-2.024,14.457-1.909l3.874-.005s-9.732,9-10.772,15.993-15.343,5.506-15.7,2.517,2-8.018,2.191-8.008S2382.887-380.2,2382.887-380.2Z" fill="#f2d6e3" stroke="#bf3976" stroke-miterlimit="10" stroke-width="1"/><path d="M2371.076-379.823s11.339-3.685,17.2-1.7c0,0-4.913,2.93-5.858,7.843s-8.221,12.283-13.134,12.094-6.52-1.417-5.764-3.212a21.133,21.133,0,0,1,3.118-4.914C2366.919-369.807,2371.076-379.823,2371.076-379.823Z" fill="#f2d6e3" stroke="#bf3976" stroke-miterlimit="10" stroke-width="1"/><path d="M2377.879-381.524s-6.8,2.646-8.315,9.166-5.349,10.424-11.661,10.775c-1.025.057-4.5.658-4.78-.759s6.643-15.924,6.643-15.924S2370.982-386.153,2377.879-381.524Z" fill="#f2d6e3" stroke="#bf3976" stroke-miterlimit="10" stroke-width="1"/><path d="M2348.856-380.2s10.11-2.024,14.456-1.909l3.874-.005s-9.732,9-10.771,15.993-15.343,5.506-15.7,2.517,2-8.018,2.191-8.008S2348.856-380.2,2348.856-380.2Z" fill="#f2d6e3" stroke="#bf3976" stroke-miterlimit="10" stroke-width="1"/><path d="M2337.045-379.823s11.338-3.685,17.2-1.7c0,0-4.914,2.93-5.859,7.843s-8.22,12.283-13.134,12.094-6.519-1.417-5.763-3.212a21.1,21.1,0,0,1,3.118-4.914C2332.887-369.807,2337.045-379.823,2337.045-379.823Z" fill="#f2d6e3" stroke="#bf3976" stroke-miterlimit="10" stroke-width="1"/><path d="M2343.848-381.524s-6.8,2.646-8.315,9.166-6.425,10.583-12.662,11.622c0,0-3.5-.189-3.779-1.606s11.622-16.819,11.622-16.819S2336.95-386.153,2343.848-381.524Z" fill="#f2d6e3" stroke="#bf3976" stroke-miterlimit="10" stroke-width="1"/><path d="M2530.95-362.256s10.284,2.229,17.229-4.008,24.708-25.8,46.44-26.153,40.63-17.736,45.355-22.272,48.756-10.772,52.535-10.394,7.937-9.826,7.937-9.826-16.063,4.913-29.858,5.669-28.157,3.59-39.118,11.9-20.221,16.063-36.662,17.575-34.015,11.11-41.385,17.65-20.41,15.421-20.41,15.421Z" fill="#f2d6e3" stroke="#bf3976" stroke-miterlimit="10" stroke-width="1"/></g></g></svg>