<svg xmlns="http://www.w3.org/2000/svg" width="612" height="122" viewBox="0 0 612 122"><g transform="translate(3506 5959)"><g transform="translate(-6303.337 -5286.872)"><g transform="translate(0 -4)"><path d="M2875.479-624.619h-2v-17.659h-61.751v17.659h-2v-19.659h65.751Z" fill="#ad2564"/><path d="M2814.118-628.6l-3.391,3.393-3.391-3.393v2.879l3.391,3.391,3.391-3.391Z" fill="#ad2564"/><path d="M2871.088-628.6l3.391,3.393,3.391-3.393v2.879l-3.391,3.391-3.391-3.391Z" fill="#ad2564"/><g transform="translate(74.457 1.861)"><circle cx="32.875" cy="32.875" r="32.875" transform="translate(2735.271 -629.989)" fill="#33aba9"/><circle cx="28.485" cy="28.485" r="28.485" transform="translate(2739.662 -625.598)" fill="#7ec6c7"/><circle cx="4.969" cy="4.969" r="4.969" transform="translate(2772.936 -602.083)" fill="#fff"/><circle cx="4.969" cy="4.969" r="4.969" transform="translate(2752.124 -602.083)" fill="#fff"/></g></g><path d="M2944.831-578.227a30.345,30.345,0,0,1-30.31-30.311,30.345,30.345,0,0,1,30.31-30.311,30.346,30.346,0,0,1,30.312,30.311A30.346,30.346,0,0,1,2944.831-578.227Zm0-58.622a28.342,28.342,0,0,0-28.31,28.311,28.343,28.343,0,0,0,28.31,28.311,28.344,28.344,0,0,0,28.312-28.311A28.343,28.343,0,0,0,2944.831-636.849Z" fill="#33aba9"/><rect width="39.761" height="2" transform="translate(2925.256 -609.538)" fill="#ad2564"/><path d="M2929.24-605.148l-3.393-3.391,3.393-3.391h-2.879l-3.391,3.391,3.391,3.391Z" fill="#ad2564"/><path d="M2961.034-605.148l3.393-3.391-3.393-3.391h2.879l3.391,3.391-3.391,3.391Z" fill="#ad2564"/><path d="M3154.573-558.25,3120-607.256l34.573-49.01,34,49.2Zm-32.122-49.006,32.112,45.522,31.579-45.341-31.583-45.7Z" fill="#33aba9"/><rect width="50.265" height="2" transform="translate(3129.741 -607.538)" fill="#ad2564"/><path d="M3133.725-603.148l-3.393-3.391,3.393-3.391h-2.879l-3.391,3.391,3.391,3.391Z" fill="#ad2564"/><path d="M3176.022-603.148l3.393-3.391-3.393-3.391h2.879l3.391,3.391-3.391,3.391Z" fill="#ad2564"/><path d="M3047.06-577.006c-31.461,0-57.056-14.145-57.056-31.532s25.6-31.532,57.056-31.532,57.058,14.145,57.058,31.532S3078.522-577.006,3047.06-577.006Zm0-61.064c-30.358,0-55.056,13.248-55.056,29.532s24.7,29.532,55.056,29.532,55.058-13.248,55.058-29.532S3077.419-638.07,3047.06-638.07Z" fill="#33aba9"/><rect width="91.666" height="2" transform="translate(3000.617 -609.538)" fill="#ad2564"/><path d="M3004.6-605.148l-3.393-3.391,3.393-3.391h-2.879l-3.391,3.391,3.391,3.391Z" fill="#ad2564"/><path d="M3088.3-605.148l3.393-3.391-3.393-3.391h2.879l3.391,3.391-3.391,3.391Z" fill="#ad2564"/><path d="M3297.349-586.1h-91.66l15.767-56.042h60.695Zm-89.02-2h86.4l-14.113-52.042h-57.649Z" fill="#33aba9"/><rect width="85.498" height="2" transform="translate(3208.257 -579.538)" fill="#ad2564"/><path d="M3212.241-575.147l-3.393-3.391,3.393-3.391h-2.879l-3.391,3.391,3.391,3.391Z" fill="#ad2564"/><path d="M3289.772-575.147l3.393-3.391-3.393-3.391h2.879l3.391,3.391-3.391,3.391Z" fill="#ad2564"/><path d="M3353.75-572.162l-45.72-25.694,20.5-33.36h51.459l19.478,34.244Zm-42.927-26.418,42.944,24.133,42.951-23.309-17.894-31.46h-49.176Z" fill="#33aba9"/><rect width="69.926" height="2" transform="translate(3318.429 -600.032)" fill="#ad2564"/><path d="M3322.413-595.642l-3.393-3.391,3.393-3.391h-2.879l-3.391,3.391,3.391,3.391Z" fill="#ad2564"/><path d="M3384.372-595.642l3.393-3.391-3.393-3.391h2.879l3.391,3.391-3.391,3.391Z" fill="#ad2564"/><path d="M3114.2-607.256" fill="none" stroke="#ad2564" stroke-miterlimit="10" stroke-width="2"/></g><rect width="612" height="122" transform="translate(-3506 -5959)" fill="none"/></g></svg>