<svg xmlns="http://www.w3.org/2000/svg" width="29.564" height="59.872" viewBox="0 0 29.564 59.872"><g transform="translate(-2259.708 -994.83)"><path d="M2283.689,1015.962a11.517,11.517,0,0,0-6.522-1.814,10.842,10.842,0,0,0-3.688.652,9.636,9.636,0,0,0-3.118,1.794v-11.412h17.811V994.83h-28.449v33.38h10.19a4.092,4.092,0,0,1,1.487-2.69,4.792,4.792,0,0,1,3.037-.938,3.805,3.805,0,0,1,3.1,1.325,5.75,5.75,0,0,1,1.1,3.77v9.333a5.6,5.6,0,0,1-1.264,3.913,4.5,4.5,0,0,1-3.505,1.386,4.121,4.121,0,0,1-3.484-1.569,8.456,8.456,0,0,1-1.325-4.83v-.041h-9.349v7.809a16.365,16.365,0,0,0,.647,1.606,11.944,11.944,0,0,0,5.156,5.584,17.169,17.169,0,0,0,8.274,1.834,17.812,17.812,0,0,0,8.355-1.834,12.192,12.192,0,0,0,5.319-5.38,18.43,18.43,0,0,0,1.813-8.478v-9.333a22.242,22.242,0,0,0-1.426-8.4A11.26,11.26,0,0,0,2283.689,1015.962Z" fill="#3a9d98"/><path d="M2283.689,1015.962a11.517,11.517,0,0,0-6.522-1.814,10.842,10.842,0,0,0-3.688.652,9.636,9.636,0,0,0-3.118,1.794v-11.412h17.811V994.83h-21.108v33.38h2.849a4.092,4.092,0,0,1,1.487-2.69,4.792,4.792,0,0,1,3.037-.938,3.805,3.805,0,0,1,3.1,1.325,5.75,5.75,0,0,1,1.1,3.77v9.333a5.6,5.6,0,0,1-1.264,3.913,4.5,4.5,0,0,1-3.505,1.386,4.121,4.121,0,0,1-3.484-1.569,8.456,8.456,0,0,1-1.325-4.83v-.041h-1.993v15.707a18.572,18.572,0,0,0,6.721,1.126,17.812,17.812,0,0,0,8.355-1.834,12.192,12.192,0,0,0,5.319-5.38,18.43,18.43,0,0,0,1.813-8.478v-9.333a22.242,22.242,0,0,0-1.426-8.4A11.26,11.26,0,0,0,2283.689,1015.962Z" fill="#3dc9c5"/></g></svg>