<svg xmlns="http://www.w3.org/2000/svg" xmlns:xlink="http://www.w3.org/1999/xlink" width="295" height="306" viewBox="0 0 295 306"><defs><linearGradient id="a" x1="0.047" y1="-0.124" x2="0.897" y2="1.149" gradientUnits="objectBoundingBox"><stop offset="0" stop-color="#bfbebe"/><stop offset="0.373" stop-color="#fff"/><stop offset="1" stop-color="#2b2929"/></linearGradient><linearGradient id="b" x1="0.414" y1="-0.146" x2="0.589" y2="1.163" xlink:href="#a"/><linearGradient id="c" x1="0.453" y1="-0.14" x2="0.546" y2="1.167" xlink:href="#a"/><linearGradient id="d" x1="0.5" y1="1.075" x2="0.5" y2="-0.298" gradientUnits="objectBoundingBox"><stop offset="0" stop-color="#bfbebe"/><stop offset="1" stop-color="#2b2929"/></linearGradient><linearGradient id="e" x1="0.5" y1="0.048" x2="0.5" y2="0.806" xlink:href="#d"/><linearGradient id="f" x1="0.423" y1="-0.132" x2="0.579" y2="1.149" xlink:href="#a"/></defs><g transform="translate(2996 951)"><rect width="295" height="306" transform="translate(-2996 -951)" fill="none"/><path d="M8.606-9.507H5.178V0h-1.4V-9.507H.359v-1.157H8.606Zm.316,5.471A4.681,4.681,0,0,1,9.379-6.13a3.415,3.415,0,0,1,1.274-1.436,3.469,3.469,0,0,1,1.864-.505,3.342,3.342,0,0,1,2.618,1.121,4.311,4.311,0,0,1,1,2.981v.1A4.722,4.722,0,0,1,15.693-1.8,3.365,3.365,0,0,1,14.426-.366a3.509,3.509,0,0,1-1.893.513A3.334,3.334,0,0,1,9.921-.974a4.29,4.29,0,0,1-1-2.966Zm1.362.161A3.39,3.39,0,0,0,10.9-1.758a1.957,1.957,0,0,0,1.637.8,1.945,1.945,0,0,0,1.641-.809,3.707,3.707,0,0,0,.608-2.267,3.384,3.384,0,0,0-.619-2.113,1.968,1.968,0,0,0-1.644-.809,1.946,1.946,0,0,0-1.619.8A3.68,3.68,0,0,0,10.284-3.875Zm14.276,0a4.745,4.745,0,0,1-.828,2.915A2.653,2.653,0,0,1,21.491.146,2.906,2.906,0,0,1,19.22-.769V3.047H17.865V-7.925H19.1l.066.879a2.791,2.791,0,0,1,2.3-1.025,2.7,2.7,0,0,1,2.26,1.077,4.8,4.8,0,0,1,.831,3ZM23.2-4.028a3.5,3.5,0,0,0-.571-2.117,1.84,1.84,0,0,0-1.567-.776A1.992,1.992,0,0,0,19.22-5.83v3.787a2,2,0,0,0,1.86,1.084,1.832,1.832,0,0,0,1.549-.773A3.822,3.822,0,0,0,23.2-4.028ZM29.6.146A3.463,3.463,0,0,1,26.977-.912a3.928,3.928,0,0,1-1.011-2.831v-.249a4.756,4.756,0,0,1,.45-2.106,3.514,3.514,0,0,1,1.26-1.45,3.167,3.167,0,0,1,1.754-.524,2.968,2.968,0,0,1,2.4,1.018,4.408,4.408,0,0,1,.857,2.915v.564H27.321a2.817,2.817,0,0,0,.685,1.893,2.153,2.153,0,0,0,1.666.721,2.36,2.36,0,0,0,1.216-.293,3.055,3.055,0,0,0,.872-.776l.828.645A3.328,3.328,0,0,1,29.6.146Zm-.168-7.1a1.807,1.807,0,0,0-1.377.6,2.9,2.9,0,0,0-.688,1.674h3.97v-.1a2.581,2.581,0,0,0-.557-1.6A1.7,1.7,0,0,0,29.431-6.958ZM42.645-2.1a1,1,0,0,0-.414-.853,3.983,3.983,0,0,0-1.443-.524,6.822,6.822,0,0,1-1.633-.527,2.324,2.324,0,0,1-.894-.732,1.752,1.752,0,0,1-.289-1.011A2.056,2.056,0,0,1,38.8-7.4,3.218,3.218,0,0,1,40.9-8.071a3.311,3.311,0,0,1,2.186.7,2.21,2.21,0,0,1,.839,1.78H42.565a1.223,1.223,0,0,0-.472-.959,1.77,1.77,0,0,0-1.19-.4,1.852,1.852,0,0,0-1.157.322,1.014,1.014,0,0,0-.417.842.822.822,0,0,0,.388.74,4.776,4.776,0,0,0,1.4.476,7.308,7.308,0,0,1,1.644.542,2.4,2.4,0,0,1,.934.758A1.864,1.864,0,0,1,44-2.2a2.028,2.028,0,0,1-.85,1.7,3.564,3.564,0,0,1-2.2.641A3.991,3.991,0,0,1,39.261-.19a2.74,2.74,0,0,1-1.146-.941A2.268,2.268,0,0,1,37.7-2.439h1.355a1.4,1.4,0,0,0,.546,1.08,2.117,2.117,0,0,0,1.344.4,2.185,2.185,0,0,0,1.234-.311A.956.956,0,0,0,42.645-2.1ZM50.688-.784a2.878,2.878,0,0,1-2.322.93,2.464,2.464,0,0,1-1.93-.736,3.186,3.186,0,0,1-.67-2.179V-7.925h1.355v5.12q0,1.8,1.465,1.8a2.028,2.028,0,0,0,2.065-1.157V-7.925h1.355V0H50.717Zm10.1-3.091a4.745,4.745,0,0,1-.828,2.915A2.653,2.653,0,0,1,57.72.146a2.906,2.906,0,0,1-2.271-.916V3.047H54.094V-7.925h1.238l.066.879a2.791,2.791,0,0,1,2.3-1.025,2.7,2.7,0,0,1,2.26,1.077,4.8,4.8,0,0,1,.831,3Zm-1.355-.154a3.5,3.5,0,0,0-.571-2.117,1.84,1.84,0,0,0-1.567-.776A1.992,1.992,0,0,0,55.449-5.83v3.787A2,2,0,0,0,57.31-.959a1.832,1.832,0,0,0,1.549-.773A3.822,3.822,0,0,0,59.434-4.028ZM65.828.146A3.463,3.463,0,0,1,63.206-.912,3.928,3.928,0,0,1,62.2-3.743v-.249a4.756,4.756,0,0,1,.45-2.106,3.514,3.514,0,0,1,1.26-1.45,3.167,3.167,0,0,1,1.754-.524,2.968,2.968,0,0,1,2.4,1.018,4.408,4.408,0,0,1,.857,2.915v.564H63.551a2.817,2.817,0,0,0,.685,1.893A2.153,2.153,0,0,0,65.9-.959a2.36,2.36,0,0,0,1.216-.293,3.055,3.055,0,0,0,.872-.776l.828.645A3.328,3.328,0,0,1,65.828.146Zm-.168-7.1a1.807,1.807,0,0,0-1.377.6,2.9,2.9,0,0,0-.688,1.674h3.97v-.1a2.581,2.581,0,0,0-.557-1.6A1.7,1.7,0,0,0,65.66-6.958Zm8.687.249a4.06,4.06,0,0,0-.667-.051,1.786,1.786,0,0,0-1.809,1.135V0H70.517V-7.925h1.318l.022.916a2.11,2.11,0,0,1,1.89-1.062,1.384,1.384,0,0,1,.6.1ZM77.094,0H75.739V-7.925h1.355ZM75.63-10.027a.809.809,0,0,1,.2-.557.756.756,0,0,1,.6-.227.768.768,0,0,1,.6.227.8.8,0,0,1,.205.557.774.774,0,0,1-.205.549.782.782,0,0,1-.6.22.77.77,0,0,1-.6-.22A.782.782,0,0,1,75.63-10.027Zm3.3,5.991a4.681,4.681,0,0,1,.458-2.095,3.415,3.415,0,0,1,1.274-1.436,3.469,3.469,0,0,1,1.864-.505,3.342,3.342,0,0,1,2.618,1.121,4.311,4.311,0,0,1,1,2.981v.1A4.722,4.722,0,0,1,85.7-1.8,3.365,3.365,0,0,1,84.438-.366a3.509,3.509,0,0,1-1.893.513A3.334,3.334,0,0,1,79.933-.974a4.29,4.29,0,0,1-1-2.966Zm1.362.161a3.39,3.39,0,0,0,.612,2.117,1.957,1.957,0,0,0,1.637.8,1.945,1.945,0,0,0,1.641-.809,3.707,3.707,0,0,0,.608-2.267,3.384,3.384,0,0,0-.619-2.113,1.968,1.968,0,0,0-1.644-.809,1.946,1.946,0,0,0-1.619.8A3.68,3.68,0,0,0,80.3-3.875ZM91.708-6.709a4.06,4.06,0,0,0-.667-.051,1.786,1.786,0,0,0-1.809,1.135V0H87.877V-7.925H89.2l.022.916a2.11,2.11,0,0,1,1.89-1.062,1.384,1.384,0,0,1,.6.1Z" transform="translate(-2827.5 -877.609)" fill="#12263f"/><path d="M2.651-1.15H7.705V0H1.238V-10.664H2.651ZM10.6,0H9.237V-7.925H10.6Zm.015-11.243h1.641L10.291-9.089H9.2Zm3.531,3.318.044,1a2.888,2.888,0,0,1,2.373-1.143q2.512,0,2.534,2.834V0H17.741V-5.244a1.824,1.824,0,0,0-.392-1.267,1.57,1.57,0,0,0-1.2-.41,1.956,1.956,0,0,0-1.157.352,2.387,2.387,0,0,0-.776.923V0H12.863V-7.925ZM24.458.146A3.463,3.463,0,0,1,21.836-.912a3.928,3.928,0,0,1-1.011-2.831v-.249a4.756,4.756,0,0,1,.45-2.106,3.514,3.514,0,0,1,1.26-1.45,3.167,3.167,0,0,1,1.754-.524,2.968,2.968,0,0,1,2.4,1.018,4.408,4.408,0,0,1,.857,2.915v.564H22.18a2.817,2.817,0,0,0,.685,1.893,2.153,2.153,0,0,0,1.666.721,2.36,2.36,0,0,0,1.216-.293,3.055,3.055,0,0,0,.872-.776l.828.645A3.328,3.328,0,0,1,24.458.146Zm-.168-7.1a1.807,1.807,0,0,0-1.377.6,2.9,2.9,0,0,0-.688,1.674h3.97v-.1a2.581,2.581,0,0,0-.557-1.6A1.7,1.7,0,0,0,24.289-6.958ZM34.038,0a2.846,2.846,0,0,1-.19-.835,3.023,3.023,0,0,1-2.256.981A2.8,2.8,0,0,1,29.67-.516,2.145,2.145,0,0,1,28.919-2.2,2.24,2.24,0,0,1,29.86-4.12,4.437,4.437,0,0,1,32.508-4.8h1.318v-.623A1.522,1.522,0,0,0,33.4-6.559a1.707,1.707,0,0,0-1.252-.421,1.976,1.976,0,0,0-1.216.366,1.079,1.079,0,0,0-.491.886H29.08A1.87,1.87,0,0,1,29.5-6.874a2.874,2.874,0,0,1,1.143-.875,3.844,3.844,0,0,1,1.586-.322,3.133,3.133,0,0,1,2.146.685A2.47,2.47,0,0,1,35.181-5.5v3.647a4.459,4.459,0,0,0,.278,1.736V0ZM31.79-1.033A2.381,2.381,0,0,0,33-1.362a1.994,1.994,0,0,0,.828-.857V-3.845H32.764q-2.49,0-2.49,1.458a1.234,1.234,0,0,0,.425,1A1.633,1.633,0,0,0,31.79-1.033Zm8.966-3a4.658,4.658,0,0,1,.857-2.948,2.741,2.741,0,0,1,2.271-1.095,2.726,2.726,0,0,1,2.263,1.025l.066-.879h1.238V-.19a3.224,3.224,0,0,1-.912,2.424,3.365,3.365,0,0,1-2.45.886,4.076,4.076,0,0,1-1.677-.366,2.887,2.887,0,0,1-1.252-1l.7-.813a2.65,2.65,0,0,0,2.131,1.077,2.076,2.076,0,0,0,1.542-.557A2.128,2.128,0,0,0,46.088-.11V-.791a2.785,2.785,0,0,1-2.219.938A2.707,2.707,0,0,1,41.617-.974,4.9,4.9,0,0,1,40.756-4.028Zm1.362.154a3.553,3.553,0,0,0,.549,2.106A1.785,1.785,0,0,0,44.206-1a1.985,1.985,0,0,0,1.882-1.165V-5.786a2.008,2.008,0,0,0-1.868-1.135,1.8,1.8,0,0,0-1.545.769A3.87,3.87,0,0,0,42.118-3.875Zm12.3,3.091a2.878,2.878,0,0,1-2.322.93,2.464,2.464,0,0,1-1.93-.736,3.186,3.186,0,0,1-.67-2.179V-7.925H50.85v5.12q0,1.8,1.465,1.8A2.028,2.028,0,0,0,54.38-2.161V-7.925h1.355V0H54.446ZM59.3,0H57.933V-7.925H59.3Zm.015-11.243H60.95L58.988-9.089H57.9ZM66.452,0a2.846,2.846,0,0,1-.19-.835,3.023,3.023,0,0,1-2.256.981,2.8,2.8,0,0,1-1.923-.663A2.145,2.145,0,0,1,61.332-2.2a2.24,2.24,0,0,1,.941-1.923A4.437,4.437,0,0,1,64.921-4.8h1.318v-.623a1.522,1.522,0,0,0-.425-1.132,1.707,1.707,0,0,0-1.252-.421,1.976,1.976,0,0,0-1.216.366,1.079,1.079,0,0,0-.491.886H61.493a1.87,1.87,0,0,1,.421-1.146,2.874,2.874,0,0,1,1.143-.875,3.844,3.844,0,0,1,1.586-.322,3.133,3.133,0,0,1,2.146.685A2.47,2.47,0,0,1,67.594-5.5v3.647a4.459,4.459,0,0,0,.278,1.736V0ZM64.2-1.033a2.381,2.381,0,0,0,1.208-.33,1.994,1.994,0,0,0,.828-.857V-3.845H65.177q-2.49,0-2.49,1.458a1.234,1.234,0,0,0,.425,1A1.633,1.633,0,0,0,64.2-1.033ZM80.186-3.875a4.745,4.745,0,0,1-.828,2.915A2.653,2.653,0,0,1,77.117.146a2.906,2.906,0,0,1-2.271-.916V3.047H73.492V-7.925h1.238l.066.879a2.791,2.791,0,0,1,2.3-1.025,2.7,2.7,0,0,1,2.26,1.077,4.8,4.8,0,0,1,.831,3Zm-1.355-.154a3.5,3.5,0,0,0-.571-2.117,1.84,1.84,0,0,0-1.567-.776A1.992,1.992,0,0,0,74.847-5.83v3.787a2,2,0,0,0,1.86,1.084,1.832,1.832,0,0,0,1.549-.773A3.822,3.822,0,0,0,78.831-4.028ZM86.83,0a2.846,2.846,0,0,1-.19-.835,3.023,3.023,0,0,1-2.256.981,2.8,2.8,0,0,1-1.923-.663A2.145,2.145,0,0,1,81.71-2.2a2.24,2.24,0,0,1,.941-1.923A4.437,4.437,0,0,1,85.3-4.8h1.318v-.623a1.522,1.522,0,0,0-.425-1.132A1.707,1.707,0,0,0,84.94-6.98a1.976,1.976,0,0,0-1.216.366,1.079,1.079,0,0,0-.491.886H81.871a1.87,1.87,0,0,1,.421-1.146,2.874,2.874,0,0,1,1.143-.875,3.844,3.844,0,0,1,1.586-.322,3.133,3.133,0,0,1,2.146.685A2.47,2.47,0,0,1,87.972-5.5v3.647a4.459,4.459,0,0,0,.278,1.736V0ZM84.581-1.033a2.381,2.381,0,0,0,1.208-.33,1.994,1.994,0,0,0,.828-.857V-3.845H85.555q-2.49,0-2.49,1.458a1.234,1.234,0,0,0,.425,1A1.633,1.633,0,0,0,84.581-1.033Zm9.376-5.676a4.06,4.06,0,0,0-.667-.051,1.786,1.786,0,0,0-1.809,1.135V0H90.126V-7.925h1.318l.022.916a2.11,2.11,0,0,1,1.89-1.062,1.384,1.384,0,0,1,.6.1ZM99.832,0a2.846,2.846,0,0,1-.19-.835,3.023,3.023,0,0,1-2.256.981,2.8,2.8,0,0,1-1.923-.663A2.145,2.145,0,0,1,94.712-2.2a2.24,2.24,0,0,1,.941-1.923A4.437,4.437,0,0,1,98.3-4.8h1.318v-.623a1.522,1.522,0,0,0-.425-1.132,1.707,1.707,0,0,0-1.252-.421,1.976,1.976,0,0,0-1.216.366,1.079,1.079,0,0,0-.491.886H94.873a1.87,1.87,0,0,1,.421-1.146,2.874,2.874,0,0,1,1.143-.875,3.844,3.844,0,0,1,1.586-.322,3.133,3.133,0,0,1,2.146.685,2.47,2.47,0,0,1,.806,1.886v3.647a4.459,4.459,0,0,0,.278,1.736V0ZM97.583-1.033a2.381,2.381,0,0,0,1.208-.33,1.994,1.994,0,0,0,.828-.857V-3.845H98.557q-2.49,0-2.49,1.458a1.234,1.234,0,0,0,.425,1A1.633,1.633,0,0,0,97.583-1.033Zm12.467.073a1.952,1.952,0,0,0,1.267-.439,1.546,1.546,0,0,0,.6-1.1H113.2a2.457,2.457,0,0,1-.469,1.3,3.087,3.087,0,0,1-1.154.981,3.329,3.329,0,0,1-1.527.366,3.265,3.265,0,0,1-2.574-1.08,4.3,4.3,0,0,1-.956-2.955v-.227a4.771,4.771,0,0,1,.425-2.058,3.236,3.236,0,0,1,1.219-1.4,3.464,3.464,0,0,1,1.879-.5,3.178,3.178,0,0,1,2.216.8A2.853,2.853,0,0,1,113.2-5.2h-1.282a1.867,1.867,0,0,0-.582-1.263,1.811,1.811,0,0,0-1.293-.494,1.9,1.9,0,0,0-1.6.743,3.491,3.491,0,0,0-.568,2.15v.256a3.422,3.422,0,0,0,.564,2.109A1.906,1.906,0,0,0,110.05-.959Zm4.344-3.076a4.681,4.681,0,0,1,.458-2.095,3.415,3.415,0,0,1,1.274-1.436,3.469,3.469,0,0,1,1.864-.505,3.342,3.342,0,0,1,2.618,1.121,4.311,4.311,0,0,1,1,2.981v.1a4.722,4.722,0,0,1-.443,2.076A3.365,3.365,0,0,1,119.9-.366a3.509,3.509,0,0,1-1.893.513,3.334,3.334,0,0,1-2.611-1.121,4.29,4.29,0,0,1-1-2.966Zm1.362.161a3.39,3.39,0,0,0,.612,2.117,1.957,1.957,0,0,0,1.637.8,1.945,1.945,0,0,0,1.641-.809,3.707,3.707,0,0,0,.608-2.267,3.384,3.384,0,0,0-.619-2.113,1.968,1.968,0,0,0-1.644-.809,1.946,1.946,0,0,0-1.619.8A3.68,3.68,0,0,0,115.757-3.875Zm12.2,1.772a1,1,0,0,0-.414-.853,3.983,3.983,0,0,0-1.443-.524,6.822,6.822,0,0,1-1.633-.527,2.324,2.324,0,0,1-.894-.732,1.752,1.752,0,0,1-.289-1.011A2.056,2.056,0,0,1,124.1-7.4a3.218,3.218,0,0,1,2.106-.674,3.311,3.311,0,0,1,2.186.7,2.21,2.21,0,0,1,.839,1.78h-1.362a1.223,1.223,0,0,0-.472-.959,1.77,1.77,0,0,0-1.19-.4,1.852,1.852,0,0,0-1.157.322,1.014,1.014,0,0,0-.417.842.822.822,0,0,0,.388.74,4.776,4.776,0,0,0,1.4.476,7.308,7.308,0,0,1,1.644.542,2.4,2.4,0,0,1,.934.758,1.864,1.864,0,0,1,.3,1.08,2.028,2.028,0,0,1-.85,1.7,3.564,3.564,0,0,1-2.2.641,3.991,3.991,0,0,1-1.685-.337,2.74,2.74,0,0,1-1.146-.941,2.268,2.268,0,0,1-.414-1.307h1.355a1.4,1.4,0,0,0,.546,1.08,2.117,2.117,0,0,0,1.344.4,2.185,2.185,0,0,0,1.234-.311A.956.956,0,0,0,127.952-2.1Zm4.989-7.742v1.919h1.479v1.047h-1.479v4.915a1.1,1.1,0,0,0,.2.714.833.833,0,0,0,.674.238,3.281,3.281,0,0,0,.645-.088V0a3.928,3.928,0,0,1-1.04.146,1.687,1.687,0,0,1-1.37-.549,2.36,2.36,0,0,1-.461-1.56V-6.877h-1.443V-7.925h1.443V-9.844Zm7.984,9.06a2.878,2.878,0,0,1-2.322.93,2.464,2.464,0,0,1-1.93-.736A3.186,3.186,0,0,1,136-2.769V-7.925h1.355v5.12q0,1.8,1.465,1.8a2.028,2.028,0,0,0,2.065-1.157V-7.925h1.355V0h-1.289Zm7.237-5.925a4.06,4.06,0,0,0-.667-.051,1.786,1.786,0,0,0-1.809,1.135V0h-1.355V-7.925h1.318l.022.916a2.11,2.11,0,0,1,1.89-1.062,1.384,1.384,0,0,1,.6.1ZM154.036,0a2.846,2.846,0,0,1-.19-.835,3.023,3.023,0,0,1-2.256.981,2.8,2.8,0,0,1-1.923-.663,2.145,2.145,0,0,1-.751-1.681,2.24,2.24,0,0,1,.941-1.923,4.437,4.437,0,0,1,2.648-.685h1.318v-.623a1.522,1.522,0,0,0-.425-1.132,1.707,1.707,0,0,0-1.252-.421,1.976,1.976,0,0,0-1.216.366,1.079,1.079,0,0,0-.491.886h-1.362a1.87,1.87,0,0,1,.421-1.146,2.874,2.874,0,0,1,1.143-.875,3.844,3.844,0,0,1,1.586-.322,3.133,3.133,0,0,1,2.146.685,2.47,2.47,0,0,1,.806,1.886v3.647a4.459,4.459,0,0,0,.278,1.736V0Zm-2.249-1.033A2.381,2.381,0,0,0,153-1.362a1.994,1.994,0,0,0,.828-.857V-3.845h-1.062q-2.49,0-2.49,1.458a1.234,1.234,0,0,0,.425,1A1.633,1.633,0,0,0,151.788-1.033Z" transform="translate(-2871.393 -833)" fill="#12263f"/><path d="M9.082-3.384A3.923,3.923,0,0,1,7.833-.773,4.093,4.093,0,0,1,5.039.146,3.758,3.758,0,0,1,2.01-1.208,5.451,5.451,0,0,1,.872-4.834V-5.859A6.076,6.076,0,0,1,1.4-8.474a3.966,3.966,0,0,1,1.505-1.732,4.191,4.191,0,0,1,2.256-.6,3.853,3.853,0,0,1,2.725.948A3.971,3.971,0,0,1,9.082-7.236H7.668a3.05,3.05,0,0,0-.795-1.846,2.409,2.409,0,0,0-1.71-.571,2.517,2.517,0,0,0-2.113,1,4.57,4.57,0,0,0-.765,2.834V-4.79A4.7,4.7,0,0,0,3.01-2.029,2.344,2.344,0,0,0,5.039-1a2.706,2.706,0,0,0,1.8-.531,2.947,2.947,0,0,0,.831-1.849ZM12.291,0H10.936V-7.925h1.355ZM10.826-10.027a.809.809,0,0,1,.2-.557.756.756,0,0,1,.6-.227.768.768,0,0,1,.6.227.8.8,0,0,1,.205.557.774.774,0,0,1-.205.549.782.782,0,0,1-.6.22.77.77,0,0,1-.6-.22A.782.782,0,0,1,10.826-10.027Zm4.945,2.1.044,1a2.888,2.888,0,0,1,2.373-1.143q2.512,0,2.534,2.834V0H19.367V-5.244a1.824,1.824,0,0,0-.392-1.267,1.57,1.57,0,0,0-1.2-.41,1.956,1.956,0,0,0-1.157.352,2.387,2.387,0,0,0-.776.923V0H14.489V-7.925Zm8.863-1.919v1.919h1.479v1.047H24.633v4.915a1.1,1.1,0,0,0,.2.714.833.833,0,0,0,.674.238A3.281,3.281,0,0,0,26.15-1.1V0a3.928,3.928,0,0,1-1.04.146A1.687,1.687,0,0,1,23.74-.4a2.36,2.36,0,0,1-.461-1.56V-6.877H21.836V-7.925h1.443V-9.844ZM32.618,0a2.846,2.846,0,0,1-.19-.835,3.023,3.023,0,0,1-2.256.981,2.8,2.8,0,0,1-1.923-.663A2.145,2.145,0,0,1,27.5-2.2a2.24,2.24,0,0,1,.941-1.923A4.437,4.437,0,0,1,31.087-4.8h1.318v-.623a1.522,1.522,0,0,0-.425-1.132,1.707,1.707,0,0,0-1.252-.421,1.976,1.976,0,0,0-1.216.366,1.079,1.079,0,0,0-.491.886H27.659a1.87,1.87,0,0,1,.421-1.146,2.874,2.874,0,0,1,1.143-.875,3.844,3.844,0,0,1,1.586-.322,3.133,3.133,0,0,1,2.146.685A2.47,2.47,0,0,1,33.76-5.5v3.647a4.459,4.459,0,0,0,.278,1.736V0ZM30.369-1.033a2.381,2.381,0,0,0,1.208-.33,1.994,1.994,0,0,0,.828-.857V-3.845H31.343q-2.49,0-2.49,1.458a1.234,1.234,0,0,0,.425,1A1.633,1.633,0,0,0,30.369-1.033Z" transform="translate(-2826.893 -904.609)" fill="#12263f"/><path d="M9.434,0H8.02V-4.929H2.644V0H1.238V-10.664H2.644v4.585H8.02v-4.585H9.434Zm5.6.146A3.463,3.463,0,0,1,12.415-.912,3.928,3.928,0,0,1,11.4-3.743v-.249a4.756,4.756,0,0,1,.45-2.106,3.514,3.514,0,0,1,1.26-1.45,3.167,3.167,0,0,1,1.754-.524,2.968,2.968,0,0,1,2.4,1.018,4.408,4.408,0,0,1,.857,2.915v.564H12.759a2.817,2.817,0,0,0,.685,1.893,2.153,2.153,0,0,0,1.666.721,2.36,2.36,0,0,0,1.216-.293,3.055,3.055,0,0,0,.872-.776l.828.645A3.328,3.328,0,0,1,15.037.146Zm-.168-7.1a1.807,1.807,0,0,0-1.377.6A2.9,2.9,0,0,0,12.8-4.687h3.97v-.1a2.581,2.581,0,0,0-.557-1.6A1.7,1.7,0,0,0,14.869-6.958Zm8.687.249a4.06,4.06,0,0,0-.667-.051,1.786,1.786,0,0,0-1.809,1.135V0H19.726V-7.925h1.318l.022.916a2.11,2.11,0,0,1,1.89-1.062,1.384,1.384,0,0,1,.6.1Zm5.106,0A4.06,4.06,0,0,0,28-6.76a1.786,1.786,0,0,0-1.809,1.135V0H24.831V-7.925H26.15l.022.916a2.11,2.11,0,0,1,1.89-1.062,1.384,1.384,0,0,1,.6.1ZM33.225.146A3.463,3.463,0,0,1,30.6-.912a3.928,3.928,0,0,1-1.011-2.831v-.249a4.756,4.756,0,0,1,.45-2.106,3.514,3.514,0,0,1,1.26-1.45,3.167,3.167,0,0,1,1.754-.524,2.968,2.968,0,0,1,2.4,1.018,4.408,4.408,0,0,1,.857,2.915v.564H30.948a2.817,2.817,0,0,0,.685,1.893A2.153,2.153,0,0,0,33.3-.959a2.36,2.36,0,0,0,1.216-.293,3.055,3.055,0,0,0,.872-.776l.828.645A3.328,3.328,0,0,1,33.225.146Zm-.168-7.1a1.807,1.807,0,0,0-1.377.6,2.9,2.9,0,0,0-.688,1.674h3.97v-.1a2.581,2.581,0,0,0-.557-1.6A1.7,1.7,0,0,0,33.057-6.958Zm6.7-2.886v1.919h1.479v1.047H39.752v4.915a1.1,1.1,0,0,0,.2.714.833.833,0,0,0,.674.238,3.281,3.281,0,0,0,.645-.088V0a3.928,3.928,0,0,1-1.04.146A1.687,1.687,0,0,1,38.858-.4a2.36,2.36,0,0,1-.461-1.56V-6.877H36.954V-7.925H38.4V-9.844Zm6.38,9.99A3.463,3.463,0,0,1,43.51-.912,3.928,3.928,0,0,1,42.5-3.743v-.249A4.756,4.756,0,0,1,42.95-6.1a3.514,3.514,0,0,1,1.26-1.45,3.167,3.167,0,0,1,1.754-.524,2.968,2.968,0,0,1,2.4,1.018,4.408,4.408,0,0,1,.857,2.915v.564H43.854a2.817,2.817,0,0,0,.685,1.893,2.153,2.153,0,0,0,1.666.721,2.36,2.36,0,0,0,1.216-.293,3.055,3.055,0,0,0,.872-.776l.828.645A3.328,3.328,0,0,1,46.132.146Zm-.168-7.1a1.807,1.807,0,0,0-1.377.6A2.9,2.9,0,0,0,43.9-4.687h3.97v-.1a2.581,2.581,0,0,0-.557-1.6A1.7,1.7,0,0,0,45.964-6.958Z" transform="translate(-2770.393 -693.781)" fill="#12263f"/><path d="M5.149-4.314h-2.5V0H1.23V-10.664h3.53a4.178,4.178,0,0,1,2.772.82A2.951,2.951,0,0,1,8.5-7.456,2.871,2.871,0,0,1,7.965-5.72a3.214,3.214,0,0,1-1.5,1.106l2.5,4.526V0H7.463Zm-2.5-1.15H4.8a2.44,2.44,0,0,0,1.666-.542,1.831,1.831,0,0,0,.619-1.45A1.928,1.928,0,0,0,6.5-8.972a2.5,2.5,0,0,0-1.7-.535H2.644ZM13.58.146A3.463,3.463,0,0,1,10.958-.912,3.928,3.928,0,0,1,9.947-3.743v-.249A4.756,4.756,0,0,1,10.4-6.1a3.514,3.514,0,0,1,1.26-1.45,3.167,3.167,0,0,1,1.754-.524,2.968,2.968,0,0,1,2.4,1.018,4.408,4.408,0,0,1,.857,2.915v.564H11.3a2.817,2.817,0,0,0,.685,1.893,2.153,2.153,0,0,0,1.666.721,2.36,2.36,0,0,0,1.216-.293,3.055,3.055,0,0,0,.872-.776l.828.645A3.328,3.328,0,0,1,13.58.146Zm-.168-7.1a1.807,1.807,0,0,0-1.377.6,2.9,2.9,0,0,0-.688,1.674h3.97v-.1a2.581,2.581,0,0,0-.557-1.6A1.7,1.7,0,0,0,13.411-6.958ZM18.935,0V-6.877H17.682V-7.925h1.252v-.813a2.7,2.7,0,0,1,.681-1.97,2.573,2.573,0,0,1,1.926-.7,3.556,3.556,0,0,1,.93.125l-.073,1.1a3.892,3.892,0,0,0-.732-.066,1.324,1.324,0,0,0-1.018.385,1.556,1.556,0,0,0-.359,1.1v.835h1.692v1.047H20.289V0ZM28.4-.784a2.878,2.878,0,0,1-2.322.93,2.464,2.464,0,0,1-1.93-.736,3.186,3.186,0,0,1-.67-2.179V-7.925h1.355v5.12Q24.831-1,26.3-1a2.028,2.028,0,0,0,2.065-1.157V-7.925h1.355V0H28.427Zm6.7.93A3.463,3.463,0,0,1,32.471-.912,3.928,3.928,0,0,1,31.46-3.743v-.249a4.756,4.756,0,0,1,.45-2.106,3.514,3.514,0,0,1,1.26-1.45,3.167,3.167,0,0,1,1.754-.524,2.968,2.968,0,0,1,2.4,1.018,4.408,4.408,0,0,1,.857,2.915v.564H32.815A2.817,2.817,0,0,0,33.5-1.681a2.153,2.153,0,0,0,1.666.721,2.36,2.36,0,0,0,1.216-.293,3.055,3.055,0,0,0,.872-.776l.828.645A3.328,3.328,0,0,1,35.093.146Zm-.168-7.1a1.807,1.807,0,0,0-1.377.6,2.9,2.9,0,0,0-.688,1.674h3.97v-.1a2.581,2.581,0,0,0-.557-1.6A1.7,1.7,0,0,0,34.925-6.958Zm8.687.249a4.06,4.06,0,0,0-.667-.051,1.786,1.786,0,0,0-1.809,1.135V0H39.781V-7.925H41.1l.022.916a2.11,2.11,0,0,1,1.89-1.062,1.384,1.384,0,0,1,.6.1Zm2.55,5.6H50.8V0H44.506V-1L48.879-6.8H44.572V-7.925h6.006v.959Zm5.714-2.93a4.681,4.681,0,0,1,.458-2.095,3.415,3.415,0,0,1,1.274-1.436,3.469,3.469,0,0,1,1.864-.505A3.342,3.342,0,0,1,58.09-6.951a4.311,4.311,0,0,1,1,2.981v.1A4.722,4.722,0,0,1,58.646-1.8,3.365,3.365,0,0,1,57.379-.366a3.509,3.509,0,0,1-1.893.513A3.334,3.334,0,0,1,52.875-.974a4.29,4.29,0,0,1-1-2.966Zm1.362.161a3.39,3.39,0,0,0,.612,2.117,1.957,1.957,0,0,0,1.637.8,1.945,1.945,0,0,0,1.641-.809,3.707,3.707,0,0,0,.608-2.267,3.384,3.384,0,0,0-.619-2.113,1.968,1.968,0,0,0-1.644-.809,1.946,1.946,0,0,0-1.619.8A3.68,3.68,0,0,0,53.237-3.875Z" transform="translate(-2769.699 -666.305)" fill="#12263f"/><path d="M8.606-9.507H5.178V0h-1.4V-9.507H.359v-1.157H8.606ZM11.478,0H10.123V-7.925h1.355ZM10.013-10.027a.809.809,0,0,1,.2-.557.756.756,0,0,1,.6-.227.768.768,0,0,1,.6.227.8.8,0,0,1,.205.557.774.774,0,0,1-.205.549.782.782,0,0,1-.6.22.77.77,0,0,1-.6-.22A.782.782,0,0,1,10.013-10.027Zm7.493,3.318a4.06,4.06,0,0,0-.667-.051,1.786,1.786,0,0,0-1.809,1.135V0H13.676V-7.925h1.318l.022.916a2.11,2.11,0,0,1,1.89-1.062,1.384,1.384,0,0,1,.6.1ZM23.381,0a2.846,2.846,0,0,1-.19-.835,3.023,3.023,0,0,1-2.256.981,2.8,2.8,0,0,1-1.923-.663A2.145,2.145,0,0,1,18.261-2.2,2.24,2.24,0,0,1,19.2-4.12,4.437,4.437,0,0,1,21.85-4.8h1.318v-.623a1.522,1.522,0,0,0-.425-1.132,1.707,1.707,0,0,0-1.252-.421,1.976,1.976,0,0,0-1.216.366,1.079,1.079,0,0,0-.491.886H18.423a1.87,1.87,0,0,1,.421-1.146,2.874,2.874,0,0,1,1.143-.875,3.844,3.844,0,0,1,1.586-.322,3.133,3.133,0,0,1,2.146.685A2.47,2.47,0,0,1,24.524-5.5v3.647A4.459,4.459,0,0,0,24.8-.117V0ZM21.132-1.033a2.381,2.381,0,0,0,1.208-.33,1.994,1.994,0,0,0,.828-.857V-3.845H22.107q-2.49,0-2.49,1.458a1.234,1.234,0,0,0,.425,1A1.633,1.633,0,0,0,21.132-1.033Zm5.216-3a4.642,4.642,0,0,1,.864-2.933,2.733,2.733,0,0,1,2.263-1.11,2.748,2.748,0,0,1,2.2.952V-11.25h1.355V0H31.79l-.066-.85a2.759,2.759,0,0,1-2.263,1A2.707,2.707,0,0,1,27.216-.981a4.7,4.7,0,0,1-.868-2.944Zm1.355.154a3.515,3.515,0,0,0,.557,2.109A1.8,1.8,0,0,0,29.8-1,1.977,1.977,0,0,0,31.68-2.161V-5.8a1.992,1.992,0,0,0-1.868-1.121,1.808,1.808,0,0,0-1.553.769A3.87,3.87,0,0,0,27.7-3.875Zm7.105-.161a4.681,4.681,0,0,1,.458-2.095A3.415,3.415,0,0,1,36.54-7.566,3.469,3.469,0,0,1,38.4-8.071a3.342,3.342,0,0,1,2.618,1.121,4.311,4.311,0,0,1,1,2.981v.1A4.722,4.722,0,0,1,41.579-1.8,3.365,3.365,0,0,1,40.312-.366a3.509,3.509,0,0,1-1.893.513A3.334,3.334,0,0,1,35.808-.974a4.29,4.29,0,0,1-1-2.966Zm1.362.161a3.39,3.39,0,0,0,.612,2.117,1.957,1.957,0,0,0,1.637.8,1.945,1.945,0,0,0,1.641-.809,3.707,3.707,0,0,0,.608-2.267,3.384,3.384,0,0,0-.619-2.113A1.968,1.968,0,0,0,38.4-6.958a1.946,1.946,0,0,0-1.619.8A3.68,3.68,0,0,0,36.171-3.875ZM47.582-6.709a4.06,4.06,0,0,0-.667-.051,1.786,1.786,0,0,0-1.809,1.135V0H43.752V-7.925H45.07l.022.916a2.11,2.11,0,0,1,1.89-1.062,1.384,1.384,0,0,1,.6.1Z" transform="translate(-2770.393 -733.602)" fill="#12263f"/><g transform="translate(-7603.976 -175.466)"><path d="M4756.606-482.715l29.928,1.223s7.24-71.113,5.913-77.968l-1.328-6.854-19.425-.266-14.03,42.544Z" transform="translate(-18.7 -26.467)" fill="#1f6e68"/><path d="M4648.847-714.46v-41.594l-6.116-3.915-3.67,5.138-3.181-3.333-1.224,4.311-5.626-1.712-4.405,6.361-2.446-3.181-2.2,6.851s4.4,70.954,3.916,83.188-.49,101.538.733,107.165-2.779,47.261,25.359,49.219,28.958-3.466,29.937-3.466-8.686,6.484-14.435,1.712-9.3-17.372-10.154-36.456S4648.847-714.46,4648.847-714.46Z" transform="translate(0 0)" fill="#32abaa"/><path d="M4690.232-754.532l6.606,2.936,5.627-4.4,2.691,4.4,2.937-2.2,2.2,2.2,3.915-2.2,2.2,2.2,4.159-2.2s-7.585,46.487-7.1,51.625-8.563,102.517-.244,118.176-1.224,15.169-1.224,15.169l-7.585,59.211-7.34,6.33s-2.736-3.37-6.28-3.884c-2.345-.34-5.313,4.012-7.105-.946-1.379-3.814-2.346-9.513-2.518-17.893-.735-35.722,1.223-161.482,1.957-167.354S4690.232-754.532,4690.232-754.532Z" transform="translate(-8.355 -0.543)" fill="#32abaa"/><rect width="11.255" height="9.297" transform="translate(4641.667 -707.331) rotate(-9.762)" fill="#999"/><rect width="11.255" height="9.297" transform="translate(4672.495 -712.89) rotate(3.9)" fill="#999"/><rect width="11.826" height="4.893" rx="2.447" transform="translate(4642.253 -693.244) rotate(-6.299)" fill="#898686"/><rect width="11.826" height="4.893" rx="2.447" transform="translate(4669.563 -695.62)" fill="#898686"/><rect width="11.826" height="4.893" rx="2.447" transform="translate(4669.563 -686.323)" fill="#898686"/><rect width="11.826" height="4.893" rx="2.447" transform="translate(4669.563 -677.026)" fill="#898686"/><rect width="11.826" height="4.893" rx="2.447" transform="translate(4669.563 -667.536)" fill="#898686"/><rect width="11.826" height="4.893" rx="2.447" transform="translate(4669.563 -657.382)" fill="#898686"/><rect width="11.826" height="4.893" rx="2.447" transform="translate(4669.563 -646.372)" fill="#898686"/><rect width="11.826" height="4.893" rx="2.447" transform="translate(4669.563 -637.859)" fill="#898686"/><rect width="11.826" height="4.893" rx="2.447" transform="translate(4669.563 -627.056)" fill="#898686"/><rect width="11.826" height="4.893" rx="2.447" transform="translate(4669.563 -619.472)" fill="#898686"/><rect width="11.826" height="4.893" rx="2.447" transform="translate(4669.191 -608.483) rotate(2.603)" fill="#898686"/><rect width="11.826" height="4.893" rx="2.447" transform="matrix(0.999, 0.045, -0.045, 0.999, 4669.191, -598.778)" fill="#898686"/><rect width="11.826" height="4.893" rx="2.447" transform="translate(4668.737 -588.807) rotate(2.603)" fill="#898686"/><rect width="11.826" height="4.893" rx="2.447" transform="translate(4668.737 -577.553) rotate(2.603)" fill="#898686"/><rect width="11.826" height="4.893" rx="2.447" transform="translate(4668.003 -567.136) rotate(2.603)" fill="#898686"/><rect width="11.826" height="4.893" rx="2.447" transform="translate(4668.003 -558.328) rotate(2.603)" fill="#898686"/><rect width="11.826" height="4.893" rx="2.447" transform="translate(4667.296 -548.242) rotate(-4.219)" fill="#898686"/><rect width="11.826" height="4.893" rx="2.447" transform="translate(4667.296 -539.923) rotate(-4.219)" fill="#898686"/><rect width="11.826" height="4.893" rx="2.447" transform="translate(4667.296 -528.505) rotate(-4.219)" fill="#898686"/><rect width="11.826" height="4.893" rx="2.447" transform="matrix(0.997, -0.074, 0.074, 0.997, 4667.296, -519.615)" fill="#898686"/><rect width="11.826" height="4.893" rx="2.447" transform="matrix(0.994, -0.11, 0.11, 0.994, 4642.253, -684.11)" fill="#898686"/><rect width="11.826" height="4.893" rx="2.447" transform="matrix(0.994, -0.11, 0.11, 0.994, 4642.253, -673.997)" fill="#898686"/><rect width="11.826" height="4.893" rx="2.447" transform="matrix(0.994, -0.11, 0.11, 0.994, 4642.253, -663.884)" fill="#898686"/><rect width="11.826" height="4.893" rx="2.447" transform="translate(4643.488 -655.47)" fill="#898686"/><rect width="11.826" height="4.893" rx="2.447" transform="translate(4643.488 -645.121)" fill="#898686"/><rect width="11.826" height="4.893" rx="2.447" transform="translate(4644.629 -635.412)" fill="#898686"/><rect width="11.826" height="4.893" rx="2.447" transform="translate(4644.465 -624.776) rotate(-4.219)" fill="#898686"/><rect width="11.826" height="4.893" rx="2.447" transform="translate(4644.465 -615.152) rotate(-4.219)" fill="#898686"/><rect width="11.826" height="4.893" rx="2.447" transform="translate(4644.465 -602.919) rotate(-4.219)" fill="#898686"/><rect width="11.826" height="4.893" rx="2.447" transform="translate(4644.755 -591.196) rotate(-4.219)" fill="#898686"/><rect width="11.826" height="4.893" rx="2.447" transform="translate(4644.755 -581.083) rotate(-4.219)" fill="#898686"/><rect width="11.826" height="4.893" rx="2.447" transform="translate(4644.755 -569.95) rotate(-4.219)" fill="#898686"/><rect width="11.826" height="4.893" rx="2.447" transform="translate(4645.422 -560.913) rotate(-4.219)" fill="#898686"/><rect width="11.826" height="4.893" rx="2.447" transform="translate(4645.422 -550.392) rotate(-4.219)" fill="#898686"/><rect width="11.826" height="4.893" rx="2.447" transform="translate(4646.243 -539.266) rotate(-4.219)" fill="#898686"/><rect width="11.826" height="4.893" rx="2.447" transform="translate(4647.344 -529.601) rotate(-4.219)" fill="#898686"/><rect width="11.826" height="4.893" rx="2.447" transform="translate(4649.617 -519.615) rotate(-4.219)" fill="#898686"/><rect width="11.826" height="4.893" rx="2.447" transform="translate(4656.101 -512.275) rotate(-4.219)" fill="#898686"/><path d="M4633.11-744.945s4.567,100.152,4.567,109.938v91.67s-2.514,33.06,12.121,36.211" transform="translate(-1.797 -2.056)" fill="none" stroke="#325436" stroke-miterlimit="10" stroke-width="2" stroke-dasharray="6"/><path d="M4705.857-746.457s-5.545,102.964-5.873,125.536,0,39.534,0,39.534" transform="translate(-10.93 -1.849)" fill="none" stroke="#325436" stroke-miterlimit="10" stroke-width="2" stroke-dasharray="6"/><path d="M4660.391-479.074s13.907.626,22.736-5.58c4.393-3.087,6.458-6.576,7.055-15.238,1.486-21.6.51-54.179,9.4-63.245a7.512,7.512,0,0,1,6.909-2.3c16.312,2.609,26.587,13.375,26.1,15.821s-12.886,74.543-12.723,73.4-11.744.013-11.744.013S4667.243-475.285,4660.391-479.074Z" transform="translate(-5.531 -26.608)" fill="#1f6e68"/><path d="M4717.608-570.121c7.771-.637,26.547,0,26.547,0l1.59.881s12.479,10.27,11.01,67.587l-1.712,38.232s-29.6,3.181-34.009,0c0,0-1.467-1.712-1.957-5.627s1.712-72.3,1.712-72.3,2.09-24.985-13.146-23.747C4707.644-565.095,4707.82-569.319,4717.608-570.121Z" transform="translate(-11.998 -25.944)" fill="#32abaa"/><path d="M4730.622-568.441s5.605.436,7.014,7.014,10.114,82.535,1.305,94.768" transform="translate(-15.143 -26.212)" fill="none" stroke="#325436" stroke-miterlimit="10" stroke-width="2" stroke-dasharray="6"/><path d="M4779.378-566.929a59.972,59.972,0,0,1,7.177,30.665c-.652,17.78,1.469,74.733,1.469,74.733s28.055,3.072,28.544,3.072.815-37.189,1.142-38.984,4.731-61.563-7.177-68.3Z" transform="translate(-21.816 -26.419)" fill="#32abaa"/><path d="M4803-563.15s5.056,21.368,4.893,36.538,1.142,34.58,1.142,34.58" transform="translate(-25.049 -26.937)" fill="none" stroke="#325436" stroke-miterlimit="10" stroke-width="2" stroke-dasharray="6"/><rect width="11.826" height="4.893" rx="2.447" transform="translate(4728.911 -597.941)" fill="#898686"/><rect width="11.826" height="4.893" rx="2.447" transform="translate(4733.052 -588.725)" fill="#898686"/><rect width="11.826" height="4.893" rx="2.447" transform="translate(4733.052 -578.775)" fill="#898686"/><rect width="11.826" height="4.893" rx="2.447" transform="translate(4735.499 -568.825)" fill="#898686"/><rect width="11.826" height="4.893" rx="2.447" transform="translate(4735.499 -559.421)" fill="#898686"/><rect width="11.826" height="4.893" rx="2.447" transform="translate(4761.923 -556.974)" fill="#898686"/><rect width="11.826" height="4.893" rx="2.447" transform="translate(4761.923 -547.57)" fill="#898686"/><rect width="11.826" height="4.893" rx="2.447" transform="translate(4761.923 -537.906)" fill="#898686"/><rect width="11.826" height="4.893" rx="2.447" transform="translate(4761.923 -566.378)" fill="#898686"/><rect width="11.826" height="4.893" rx="2.447" transform="translate(4761.923 -573.882)" fill="#898686"/><rect width="11.826" height="4.893" rx="2.447" transform="translate(4760.129 -581.793)" fill="#898686"/><rect width="11.826" height="4.893" rx="2.447" transform="translate(4757.889 -590.82)" fill="#898686"/><rect width="11.826" height="4.893" rx="2.447" transform="translate(4750.548 -597.941)" fill="#898686"/><path d="M4785.5-492.378s-1.59.489-1.713,4.771-.656,38.454.528,39.351a2.7,2.7,0,0,0,3.387,0,11.864,11.864,0,0,0,1.958-1.916l13.7.453.733-34.829s-.856-4.037-3.181-4.037h-13.334l-.221-3.793Z" transform="translate(-22.388 -36.622)" fill="url(#a)"/><path d="M4753.709-486.992l-.676,34.906h13.931v-32.623l.979-2.284Z" transform="translate(-18.21 -37.36)" fill="url(#b)"/><path d="M4755.784-516.192s-1.1,22.016,0,22.265,17.525.326,17.606,0,.734-20.715,0-21.287S4766.419-517.826,4755.784-516.192Z" transform="translate(-18.52 -33.278)" fill="url(#c)"/><g transform="translate(4737.264 -534.11)"><path d="M4775.895-457.226l-3.09-35.632c0-3.006-3.082-5.44-6.882-5.44s-6.882,2.433-6.882,5.44l-3.09,35.632a6.007,6.007,0,0,0-.089.988c0,4.392,4.5,7.952,10.061,7.952s10.061-3.56,10.061-7.952A6.115,6.115,0,0,0,4775.895-457.226Zm-9.972-39.986c3.042,0,5.508,1.949,5.508,4.354s-2.465,4.351-5.508,4.351-5.508-1.95-5.508-4.351S4762.881-497.212,4765.922-497.212Zm0,47.782c-4.663,0-8.445-2.99-8.445-6.679s3.782-6.676,8.445-6.676,8.449,2.99,8.449,6.676S4770.589-449.43,4765.922-449.43Z" transform="translate(-4755.861 498.298)" fill="url(#d)"/><path d="M4757.729-455.1c0-3.686,3.782-6.676,8.444-6.676s8.45,2.99,8.45,6.676a5.761,5.761,0,0,1-.045.678,5.371,5.371,0,0,0,.066-.807,4.965,4.965,0,0,0-.074-.832l-3.025-34.845c-.541,1.949-2.743,3.408-5.372,3.408s-4.825-1.459-5.375-3.408l-3.025,34.842a5.52,5.52,0,0,0-.071.835,5.32,5.32,0,0,0,.172,1.346A5.347,5.347,0,0,1,4757.729-455.1Z" transform="translate(-4756.113 497.286)" fill="url(#e)"/></g><rect width="5.138" height="10.931" rx="2.569" transform="translate(4744.595 -539.603)" fill="url(#f)"/></g><g transform="translate(-7294.635 -538.405)"><rect width="55.629" height="2" transform="translate(4405.985 -372.205)" fill="#bf3976"/><g transform="translate(-28)"><path d="M4438.12-374.6l-3.393,3.391,3.393,3.391h-2.879l-3.391-3.391,3.391-3.391Z" fill="#bf3976"/></g></g><g transform="translate(-7312.635 -463.405)"><rect width="29.629" height="2" transform="translate(4405.985 -372.205)" fill="#bf3976"/><g transform="translate(-28)"><path d="M4438.12-374.6l-3.393,3.391,3.393,3.391h-2.879l-3.391-3.391,3.391-3.391Z" fill="#bf3976"/></g></g><g transform="translate(-7209.732 -298.186)"><rect width="30.91" height="2" transform="translate(4405.985 -372.205)" fill="#bf3976"/><g transform="translate(4403.851 -374.595)"><path d="M4438.12-374.6l-3.393,3.391,3.393,3.391h-2.879l-3.391-3.391,3.391-3.391Z" transform="translate(-4431.851 374.595)" fill="#bf3976"/></g></g><g transform="translate(-7122.971 371.895) rotate(-9)"><rect width="56.629" height="2" transform="translate(4405.985 -372.205)" fill="#bf3976"/><g transform="translate(-28)"><path d="M4438.12-374.6l-3.393,3.391,3.393,3.391h-2.879l-3.391-3.391,3.391-3.391Z" fill="#bf3976"/></g></g><g transform="matrix(0.883, -0.469, 0.469, 0.883, -6563.731, 1697.908)"><rect width="79.403" height="2" transform="translate(4405.985 -372.205)" fill="#bf3976"/><g transform="translate(4403.851 -374.595)"><path d="M4438.12-374.6l-3.393,3.391,3.393,3.391h-2.879l-3.391-3.391,3.391-3.391Z" transform="translate(-4431.851 374.595)" fill="#bf3976"/></g></g><g transform="translate(-7320.635 -511.405)"><rect width="80.629" height="2" transform="translate(4405.985 -372.205)" fill="#bf3976"/><g transform="translate(-28)"><path d="M4438.12-374.6l-3.393,3.391,3.393,3.391h-2.879l-3.391-3.391,3.391-3.391Z" fill="#bf3976"/></g></g></g></svg>