<svg xmlns="http://www.w3.org/2000/svg" xmlns:xlink="http://www.w3.org/1999/xlink" width="295" height="306" viewBox="0 0 295 306"><defs><linearGradient id="a" x1="1.735" y1="0.413" x2="-0.429" y2="0.565" gradientUnits="objectBoundingBox"><stop offset="0" stop-color="#bfbebe"/><stop offset="0.373" stop-color="#fff"/><stop offset="1" stop-color="#2b2929"/></linearGradient><linearGradient id="b" x1="0.5" y1="1.075" x2="0.5" y2="-0.298" gradientUnits="objectBoundingBox"><stop offset="0" stop-color="#bfbebe"/><stop offset="1" stop-color="#2b2929"/></linearGradient><linearGradient id="c" x1="0.5" y1="0.048" x2="0.5" y2="0.806" xlink:href="#b"/><linearGradient id="d" x1="-1249.408" y1="130.855" x2="-1249.408" y2="129.855" gradientUnits="objectBoundingBox"><stop offset="0" stop-color="#bfbebe"/><stop offset="0.1" stop-color="#514f4f"/><stop offset="0.254" stop-color="#b1b0b0"/><stop offset="0.373" stop-color="#fff"/><stop offset="0.431" stop-color="#fff"/><stop offset="0.432" stop-color="#fff"/><stop offset="1" stop-color="#2b2929"/></linearGradient></defs><g transform="translate(2996 2147)"><rect width="295" height="306" transform="translate(-2996 -2147)" fill="#fff"/><g transform="translate(-7295.839 -1370.807)"><path d="M4348.751-736.641v-19.635l-2.839-4.731-4.967,4.731-4.495-5.677-4.495,4.732-5.2-4.732-5.678,6.15-3.548-6.15-5.678,6.624s-.709,57.247,10.172,92.021c0,0,4.732,56.064,2.13,70.021l21.053,9.936,12.538-12.065,12.538,7.57,5.677-3.785L4384-586.9l8.752-4.968,12.3,4.732s1.184-70.731,3.076-79.956,3.864-88.71,3.864-88.71l-3.627-5.52-4.258,5.2-5.678-5.835-4.731,5.362-5.677-5.362-4.889,4.89-3.943-4.89-4.1,6.781s3.312,81.849-1.419,87.842-13.4,5.835-13.4,5.835l-3.627-2.68s-3.628-4.89-4.417-7.255S4348.751-736.641,4348.751-736.641Z" fill="#0ac4bf"/><path d="M4396.723-741.077s1.261,69.449-3.154,90.358c-1.828,8.655-1.736,31.4-1.05,57.818" transform="translate(-13.276 -3.454)" fill="none" stroke="#325436" stroke-miterlimit="10" stroke-width="2" stroke-dasharray="6"/><path d="M4346.725-748.077c-3.776,69.649,3.844,76.1,6.492,96.2,1.167,8.861,2.111,32.009,2.866,58.759" transform="translate(-5.602 -2.296)" fill="none" stroke="#325436" stroke-miterlimit="10" stroke-width="2" stroke-dasharray="6"/><path d="M4328.008-545.1l1.656,94.623h34.927v-40.688l7.653-1.419,2.4,1.183,1.558,39.505,32.712-.946v-84.924l-12.064-10.172-8.516,8.753-12.131-7.1-2.536,3.548-12.064-5.2-11.828,11.591Z" transform="translate(-2.676 -35.415)" fill="#0ac4bf"/><path d="M4393.562-532.2c1.018,30.355,2.238,61.115,1.915,78.571" transform="translate(-13.523 -38.019)" fill="none" stroke="#325436" stroke-miterlimit="10" stroke-width="2" stroke-dasharray="6"/><path d="M4359.008-527.813c.654,29.138,1.116,58.14,1.427,74.912" transform="translate(-7.805 -38.745)" fill="none" stroke="#325436" stroke-miterlimit="10" stroke-width="2" stroke-dasharray="6"/><path d="M4365.422-593.285h-.03a1.252,1.252,0,0,1-1.223-1.28l.688-29.493c0-.043,0-.086.01-.129l1.929-15.139a1.264,1.264,0,0,1,.186-.514c.038-.063,4.335-7.441-5.4-20.5-10.612-14.23-7.274-91.817-7.126-95.112a1.229,1.229,0,0,1,1.307-1.194,1.25,1.25,0,0,1,1.193,1.306c-.035.8-3.45,79.983,6.634,93.5,9.919,13.3,6.5,21.487,5.665,23.07l-1.891,14.833-.687,29.428A1.252,1.252,0,0,1,4365.422-593.285Z" transform="translate(-6.95 -0.878)" fill="#717171"/><path d="M4380.894-586.763a1.248,1.248,0,0,1-1.252-1.23l-.394-37.724-.732-27.016a3.23,3.23,0,0,1-2.222-1.665c-.975-2.023.387-4.989,4.287-9.334,6.633-7.392,5.044-67.681,3.873-90.289a1.247,1.247,0,0,1,1.187-1.305,1.236,1.236,0,0,1,1.314,1.177c.437,8.423,4.021,82.57-4.5,92.069-4.469,4.981-3.971,6.455-3.9,6.606.139.3.8.4,1.135.393a1.267,1.267,0,0,1,.9.337,1.241,1.241,0,0,1,.4.87l.763,28.109.4,37.745a1.248,1.248,0,0,1-1.239,1.256Z" transform="translate(-10.616 -1.096)" fill="#717171"/><g transform="translate(4366.98 -717.942)"><g transform="translate(0)"><path d="M4387.22-707.4a.823.823,0,0,1-.65.962l-7.365,1.375a.826.826,0,0,1-.958-.663l-.19-1.017a1.8,1.8,0,0,1,.414-1.407l.263-.269a1.27,1.27,0,0,1,1.321-.262l.392.173a3.092,3.092,0,0,0,1.557.184l4.072-.76a.824.824,0,0,1,.955.667Z" transform="translate(-4377.935 709.196)" fill="#717171"/><path d="M4387.3-707.437l-.19-1.017a.926.926,0,0,0-1.075-.746l-4.072.76a3.071,3.071,0,0,1-1.5-.178l-.389-.174a1.412,1.412,0,0,0-1.437.285l-.256.267a1.909,1.909,0,0,0-.447,1.5l.189,1.017a.929.929,0,0,0,1.078.745l7.366-1.375A.929.929,0,0,0,4387.3-707.437Zm-7.307-1.163.392.174a3.236,3.236,0,0,0,1.616.187l4.072-.76a.723.723,0,0,1,.837.583l.19,1.017a.72.72,0,0,1-.571.842l-7.366,1.375a.722.722,0,0,1-.84-.579l-.189-1.017a1.718,1.718,0,0,1,.391-1.317l.255-.267a1.12,1.12,0,0,1,.587-.3A1.06,1.06,0,0,1,4379.995-708.6Z" transform="translate(-4377.914 709.216)" fill="#717171"/><path d="M4378.728-707.6a3.136,3.136,0,0,0,.242,2.432c.285.1.285-.069.14-.386a3.119,3.119,0,0,1-.131-1.963C4379.11-707.749,4378.728-707.6,4378.728-707.6Z" transform="translate(-4378.023 708.956)" fill="#717171"/><path d="M4388.22-706.64a1.993,1.993,0,0,0-.146-1.918c-.275-.069-.282.061-.154.31a1.951,1.951,0,0,1,.056,1.555C4387.836-706.5,4388.22-706.64,4388.22-706.64Z" transform="translate(-4379.557 709.11)" fill="#717171"/></g></g><g transform="translate(4366.98 -710.781)"><g transform="translate(0)"><path d="M4387.22-698.816a.823.823,0,0,1-.65.962l-7.365,1.375a.827.827,0,0,1-.958-.663l-.19-1.017a1.8,1.8,0,0,1,.414-1.407l.263-.269a1.27,1.27,0,0,1,1.321-.262l.392.173a3.091,3.091,0,0,0,1.557.184l4.072-.76a.824.824,0,0,1,.955.667Z" transform="translate(-4377.935 700.614)" fill="#717171"/><path d="M4387.3-698.855l-.19-1.017a.926.926,0,0,0-1.075-.746l-4.072.76a3.072,3.072,0,0,1-1.5-.178l-.389-.174a1.412,1.412,0,0,0-1.437.285l-.256.267a1.908,1.908,0,0,0-.447,1.5l.189,1.017a.929.929,0,0,0,1.078.745l7.366-1.375A.929.929,0,0,0,4387.3-698.855Zm-7.307-1.164.392.174a3.229,3.229,0,0,0,1.616.188l4.072-.76a.723.723,0,0,1,.837.583l.19,1.017a.72.72,0,0,1-.571.842l-7.366,1.375a.722.722,0,0,1-.84-.579l-.189-1.017a1.718,1.718,0,0,1,.391-1.317l.255-.267a1.12,1.12,0,0,1,.587-.3A1.067,1.067,0,0,1,4379.995-700.019Z" transform="translate(-4377.914 700.634)" fill="#717171"/><path d="M4378.728-699.016a3.135,3.135,0,0,0,.242,2.432c.285.1.285-.069.14-.386a3.118,3.118,0,0,1-.131-1.963C4379.11-699.167,4378.728-699.016,4378.728-699.016Z" transform="translate(-4378.023 700.374)" fill="#717171"/><path d="M4388.22-698.058a1.993,1.993,0,0,0-.146-1.918c-.275-.069-.282.061-.154.31a1.951,1.951,0,0,1,.056,1.555C4387.836-697.919,4388.22-698.058,4388.22-698.058Z" transform="translate(-4379.557 700.528)" fill="#717171"/></g></g><g transform="translate(4366.98 -703.619)"><g transform="translate(0)"><path d="M4387.22-690.234a.823.823,0,0,1-.65.963l-7.365,1.375a.827.827,0,0,1-.958-.663l-.19-1.017a1.807,1.807,0,0,1,.414-1.408l.263-.268a1.27,1.27,0,0,1,1.321-.262l.392.173a3.091,3.091,0,0,0,1.557.184l4.072-.76a.824.824,0,0,1,.955.667Z" transform="translate(-4377.935 692.032)" fill="#717171"/><path d="M4387.3-690.273l-.19-1.017a.926.926,0,0,0-1.075-.746l-4.072.76a3.071,3.071,0,0,1-1.5-.178l-.389-.174a1.412,1.412,0,0,0-1.437.285l-.256.267a1.908,1.908,0,0,0-.447,1.5l.189,1.017a.93.93,0,0,0,1.078.745l7.366-1.375A.929.929,0,0,0,4387.3-690.273Zm-7.307-1.164.392.174a3.228,3.228,0,0,0,1.616.188l4.072-.76a.723.723,0,0,1,.837.583l.19,1.017a.721.721,0,0,1-.571.842l-7.366,1.375a.722.722,0,0,1-.84-.579l-.189-1.017a1.718,1.718,0,0,1,.391-1.317l.255-.267a1.12,1.12,0,0,1,.587-.3A1.067,1.067,0,0,1,4379.995-691.437Z" transform="translate(-4377.914 692.052)" fill="#717171"/><path d="M4378.728-690.434a3.136,3.136,0,0,0,.242,2.432c.285.1.285-.069.14-.386a3.119,3.119,0,0,1-.131-1.963C4379.11-690.585,4378.728-690.434,4378.728-690.434Z" transform="translate(-4378.023 691.792)" fill="#717171"/><path d="M4388.22-689.476a1.993,1.993,0,0,0-.146-1.918c-.275-.07-.282.061-.154.31a1.951,1.951,0,0,1,.056,1.555C4387.836-689.338,4388.22-689.476,4388.22-689.476Z" transform="translate(-4379.557 691.946)" fill="#717171"/></g></g><g transform="translate(4366.98 -696.995)"><g transform="translate(0)"><path d="M4387.22-682.3a.823.823,0,0,1-.65.962l-7.365,1.375a.827.827,0,0,1-.958-.663l-.19-1.017a1.807,1.807,0,0,1,.414-1.408l.263-.268a1.27,1.27,0,0,1,1.321-.262l.392.173a3.091,3.091,0,0,0,1.557.184l4.072-.76a.824.824,0,0,1,.955.667Z" transform="translate(-4377.935 684.095)" fill="#717171"/><path d="M4387.3-682.336l-.19-1.017a.926.926,0,0,0-1.075-.746l-4.072.76a3.071,3.071,0,0,1-1.5-.178l-.389-.174a1.412,1.412,0,0,0-1.437.285l-.256.267a1.908,1.908,0,0,0-.447,1.5l.189,1.017a.93.93,0,0,0,1.078.745l7.366-1.375A.929.929,0,0,0,4387.3-682.336Zm-7.307-1.164.392.174a3.228,3.228,0,0,0,1.616.188l4.072-.76a.723.723,0,0,1,.837.583l.19,1.017a.721.721,0,0,1-.571.842l-7.366,1.375a.722.722,0,0,1-.84-.579l-.189-1.017a1.718,1.718,0,0,1,.391-1.317l.255-.267a1.12,1.12,0,0,1,.587-.3A1.067,1.067,0,0,1,4379.995-683.5Z" transform="translate(-4377.914 684.115)" fill="#717171"/><path d="M4378.728-682.5a3.135,3.135,0,0,0,.242,2.432c.285.1.285-.069.14-.386a3.118,3.118,0,0,1-.131-1.963C4379.11-682.648,4378.728-682.5,4378.728-682.5Z" transform="translate(-4378.023 683.855)" fill="#717171"/><path d="M4388.22-681.539a1.993,1.993,0,0,0-.146-1.918c-.275-.07-.282.061-.154.31a1.951,1.951,0,0,1,.056,1.555C4387.836-681.4,4388.22-681.539,4388.22-681.539Z" transform="translate(-4379.557 684.009)" fill="#717171"/></g></g><g transform="translate(4366.98 -690.85)"><g transform="translate(0)"><path d="M4387.22-674.933a.823.823,0,0,1-.65.962l-7.365,1.375a.826.826,0,0,1-.958-.663l-.19-1.017a1.8,1.8,0,0,1,.414-1.407l.263-.269a1.269,1.269,0,0,1,1.321-.262l.392.174a3.1,3.1,0,0,0,1.557.183l4.072-.76a.824.824,0,0,1,.955.667Z" transform="translate(-4377.935 676.731)" fill="#717171"/><path d="M4387.3-674.972l-.19-1.017a.926.926,0,0,0-1.075-.746l-4.072.76a3.062,3.062,0,0,1-1.5-.178l-.389-.174a1.41,1.41,0,0,0-1.437.284l-.256.267a1.909,1.909,0,0,0-.447,1.5l.189,1.017a.929.929,0,0,0,1.078.745l7.366-1.374A.929.929,0,0,0,4387.3-674.972Zm-7.307-1.163.392.174a3.238,3.238,0,0,0,1.616.187l4.072-.76a.725.725,0,0,1,.837.583l.19,1.017a.72.72,0,0,1-.571.842l-7.366,1.375a.721.721,0,0,1-.84-.579l-.189-1.017a1.718,1.718,0,0,1,.391-1.317l.255-.267a1.12,1.12,0,0,1,.587-.3A1.06,1.06,0,0,1,4379.995-676.135Z" transform="translate(-4377.914 676.751)" fill="#717171"/><path d="M4378.728-675.133a3.135,3.135,0,0,0,.242,2.432c.285.1.285-.069.14-.386a3.119,3.119,0,0,1-.131-1.963C4379.11-675.283,4378.728-675.133,4378.728-675.133Z" transform="translate(-4378.023 676.491)" fill="#717171"/><path d="M4388.22-674.175a1.993,1.993,0,0,0-.146-1.918c-.275-.069-.282.061-.154.31a1.951,1.951,0,0,1,.056,1.555C4387.836-674.036,4388.22-674.175,4388.22-674.175Z" transform="translate(-4379.557 676.645)" fill="#717171"/></g></g><g transform="translate(4366.98 -683.688)"><g transform="translate(0)"><path d="M4387.22-666.351a.823.823,0,0,1-.65.962l-7.365,1.375a.826.826,0,0,1-.958-.663l-.19-1.017a1.8,1.8,0,0,1,.414-1.407l.263-.269a1.269,1.269,0,0,1,1.321-.262l.392.173a3.092,3.092,0,0,0,1.557.184l4.072-.76a.824.824,0,0,1,.955.667Z" transform="translate(-4377.935 668.149)" fill="#717171"/><path d="M4387.3-666.39l-.19-1.017a.926.926,0,0,0-1.075-.746l-4.072.76a3.061,3.061,0,0,1-1.5-.178l-.389-.174a1.41,1.41,0,0,0-1.437.284l-.256.267a1.909,1.909,0,0,0-.447,1.5l.189,1.017a.929.929,0,0,0,1.078.745l7.366-1.375A.928.928,0,0,0,4387.3-666.39Zm-7.307-1.163.392.174a3.236,3.236,0,0,0,1.616.187l4.072-.76a.724.724,0,0,1,.837.583l.19,1.017a.72.72,0,0,1-.571.842l-7.366,1.375a.721.721,0,0,1-.84-.579l-.189-1.017a1.719,1.719,0,0,1,.391-1.317l.255-.267a1.12,1.12,0,0,1,.587-.3A1.061,1.061,0,0,1,4379.995-667.553Z" transform="translate(-4377.914 668.169)" fill="#717171"/><path d="M4378.728-666.551a3.136,3.136,0,0,0,.242,2.432c.285.1.285-.069.14-.386a3.119,3.119,0,0,1-.131-1.963C4379.11-666.7,4378.728-666.551,4378.728-666.551Z" transform="translate(-4378.023 667.909)" fill="#717171"/><path d="M4388.22-665.593a1.993,1.993,0,0,0-.146-1.918c-.275-.069-.282.061-.154.311a1.951,1.951,0,0,1,.056,1.555C4387.836-665.454,4388.22-665.593,4388.22-665.593Z" transform="translate(-4379.557 668.063)" fill="#717171"/></g></g><g transform="translate(4366.98 -677.534)"><g transform="translate(0)"><path d="M4387.22-658.977a.823.823,0,0,1-.65.963l-7.365,1.375a.827.827,0,0,1-.958-.663l-.19-1.017a1.807,1.807,0,0,1,.414-1.408l.263-.268a1.266,1.266,0,0,1,1.321-.262l.392.173a3.1,3.1,0,0,0,1.557.183l4.072-.76a.824.824,0,0,1,.955.667Z" transform="translate(-4377.935 660.774)" fill="#717171"/><path d="M4387.3-659.016l-.19-1.016a.927.927,0,0,0-1.075-.747l-4.072.76a3.061,3.061,0,0,1-1.5-.178l-.389-.174a1.414,1.414,0,0,0-1.437.284l-.256.267a1.909,1.909,0,0,0-.447,1.5l.189,1.017a.931.931,0,0,0,1.078.745l7.366-1.375A.929.929,0,0,0,4387.3-659.016Zm-7.307-1.163.392.174a3.227,3.227,0,0,0,1.616.187l4.072-.76a.725.725,0,0,1,.837.583l.19,1.017a.72.72,0,0,1-.571.842l-7.366,1.375a.721.721,0,0,1-.84-.578l-.189-1.017a1.722,1.722,0,0,1,.391-1.318l.255-.266a1.121,1.121,0,0,1,.587-.3A1.059,1.059,0,0,1,4379.995-660.179Z" transform="translate(-4377.914 660.794)" fill="#717171"/><path d="M4378.728-659.177a3.135,3.135,0,0,0,.242,2.432c.285.1.285-.068.14-.386a3.121,3.121,0,0,1-.131-1.964C4379.11-659.327,4378.728-659.177,4378.728-659.177Z" transform="translate(-4378.023 660.535)" fill="#717171"/><path d="M4388.22-658.219a1.991,1.991,0,0,0-.146-1.917c-.275-.07-.282.06-.154.31a1.953,1.953,0,0,1,.056,1.556C4387.836-658.08,4388.22-658.219,4388.22-658.219Z" transform="translate(-4379.557 660.688)" fill="#717171"/></g></g><rect width="4.061" height="5.993" transform="translate(4370.909 -727.336)" fill="#999"/><g transform="translate(4348.844 -717.942)"><g transform="translate(0)"><path d="M4356.319-707.4a.823.823,0,0,0,.65.962l7.365,1.375a.827.827,0,0,0,.958-.663l.189-1.017a1.806,1.806,0,0,0-.414-1.407l-.263-.269a1.269,1.269,0,0,0-1.32-.262l-.393.173a3.088,3.088,0,0,1-1.556.184l-4.073-.76a.824.824,0,0,0-.954.667Z" transform="translate(-4356.202 709.196)" fill="#717171"/><path d="M4356.93-706.354l7.365,1.375a.929.929,0,0,0,1.078-.745l.19-1.017a1.912,1.912,0,0,0-.447-1.5l-.256-.267a1.414,1.414,0,0,0-1.438-.285l-.388.174a3.074,3.074,0,0,1-1.5.178l-4.073-.76a.925.925,0,0,0-1.074.746l-.19,1.017A.928.928,0,0,0,4356.93-706.354Zm7.2-2.306a1.117,1.117,0,0,1,.586.3l.255.267a1.717,1.717,0,0,1,.392,1.317l-.19,1.017a.721.721,0,0,1-.839.579l-7.366-1.375a.721.721,0,0,1-.571-.842l.189-1.017a.724.724,0,0,1,.837-.583l4.073.76a3.234,3.234,0,0,0,1.616-.187l.392-.174A1.063,1.063,0,0,1,4364.13-708.659Z" transform="translate(-4356.181 709.216)" fill="#717171"/><path d="M4366.51-707.6a3.132,3.132,0,0,1-.243,2.432c-.285.1-.285-.069-.14-.386a3.129,3.129,0,0,0,.132-1.963C4366.127-707.749,4366.51-707.6,4366.51-707.6Z" transform="translate(-4357.812 708.956)" fill="#717171"/><path d="M4357.031-706.64a1.992,1.992,0,0,1,.146-1.918c.275-.069.283.061.153.31a1.955,1.955,0,0,0-.055,1.555C4357.416-706.5,4357.031-706.64,4357.031-706.64Z" transform="translate(-4356.291 709.11)" fill="#717171"/></g></g><g transform="translate(4348.844 -710.781)"><g transform="translate(0)"><path d="M4356.319-698.816a.823.823,0,0,0,.65.962l7.365,1.375a.827.827,0,0,0,.958-.663l.189-1.017a1.806,1.806,0,0,0-.414-1.407l-.263-.269a1.269,1.269,0,0,0-1.32-.262l-.393.173a3.087,3.087,0,0,1-1.556.184l-4.073-.76a.824.824,0,0,0-.954.667Z" transform="translate(-4356.202 700.614)" fill="#717171"/><path d="M4356.93-697.771l7.365,1.375a.929.929,0,0,0,1.078-.745l.19-1.017a1.912,1.912,0,0,0-.447-1.5l-.256-.267a1.414,1.414,0,0,0-1.438-.285l-.388.174a3.075,3.075,0,0,1-1.5.178l-4.073-.76a.925.925,0,0,0-1.074.746l-.19,1.017A.928.928,0,0,0,4356.93-697.771Zm7.2-2.306a1.117,1.117,0,0,1,.586.3l.255.267a1.717,1.717,0,0,1,.392,1.317l-.19,1.017a.721.721,0,0,1-.839.579l-7.366-1.375a.721.721,0,0,1-.571-.842l.189-1.017a.724.724,0,0,1,.837-.583l4.073.76a3.227,3.227,0,0,0,1.616-.188l.392-.174A1.069,1.069,0,0,1,4364.13-700.077Z" transform="translate(-4356.181 700.634)" fill="#717171"/><path d="M4366.51-699.016a3.132,3.132,0,0,1-.243,2.432c-.285.1-.285-.069-.14-.386a3.128,3.128,0,0,0,.132-1.963C4366.127-699.167,4366.51-699.016,4366.51-699.016Z" transform="translate(-4357.812 700.374)" fill="#717171"/><path d="M4357.031-698.058a1.991,1.991,0,0,1,.146-1.918c.275-.069.283.061.153.31a1.955,1.955,0,0,0-.055,1.555C4357.416-697.919,4357.031-698.058,4357.031-698.058Z" transform="translate(-4356.291 700.528)" fill="#717171"/></g></g><g transform="translate(4348.844 -703.619)"><g transform="translate(0)"><path d="M4356.319-690.234a.824.824,0,0,0,.65.963l7.365,1.375a.827.827,0,0,0,.958-.663l.189-1.017a1.808,1.808,0,0,0-.414-1.408l-.263-.268a1.269,1.269,0,0,0-1.32-.262l-.393.173a3.087,3.087,0,0,1-1.556.184l-4.073-.76a.824.824,0,0,0-.954.667Z" transform="translate(-4356.202 692.032)" fill="#717171"/><path d="M4356.93-689.19l7.365,1.375a.929.929,0,0,0,1.078-.745l.19-1.017a1.911,1.911,0,0,0-.447-1.5l-.256-.267a1.414,1.414,0,0,0-1.438-.285l-.388.174a3.074,3.074,0,0,1-1.5.178l-4.073-.76a.925.925,0,0,0-1.074.746l-.19,1.017A.928.928,0,0,0,4356.93-689.19Zm7.2-2.306a1.117,1.117,0,0,1,.586.3l.255.267a1.717,1.717,0,0,1,.392,1.317l-.19,1.017a.721.721,0,0,1-.839.579l-7.366-1.375a.722.722,0,0,1-.571-.842l.189-1.017a.724.724,0,0,1,.837-.583l4.073.76a3.225,3.225,0,0,0,1.616-.188l.392-.174A1.07,1.07,0,0,1,4364.13-691.5Z" transform="translate(-4356.181 692.052)" fill="#717171"/><path d="M4366.51-690.434a3.132,3.132,0,0,1-.243,2.432c-.285.1-.285-.069-.14-.386a3.128,3.128,0,0,0,.132-1.963C4366.127-690.585,4366.51-690.434,4366.51-690.434Z" transform="translate(-4357.812 691.792)" fill="#717171"/><path d="M4357.031-689.476a1.991,1.991,0,0,1,.146-1.918c.275-.07.283.061.153.31a1.955,1.955,0,0,0-.055,1.555C4357.416-689.338,4357.031-689.476,4357.031-689.476Z" transform="translate(-4356.291 691.946)" fill="#717171"/></g></g><g transform="translate(4348.844 -696.995)"><g transform="translate(0)"><path d="M4356.319-682.3a.823.823,0,0,0,.65.962l7.365,1.375a.827.827,0,0,0,.958-.663l.189-1.017a1.809,1.809,0,0,0-.414-1.408l-.263-.268a1.269,1.269,0,0,0-1.32-.262l-.393.173a3.088,3.088,0,0,1-1.556.184l-4.073-.76a.824.824,0,0,0-.954.667Z" transform="translate(-4356.202 684.095)" fill="#717171"/><path d="M4356.93-681.253l7.365,1.375a.929.929,0,0,0,1.078-.745l.19-1.017a1.911,1.911,0,0,0-.447-1.5l-.256-.267a1.414,1.414,0,0,0-1.438-.285l-.388.174a3.074,3.074,0,0,1-1.5.178l-4.073-.76a.925.925,0,0,0-1.074.746l-.19,1.017A.928.928,0,0,0,4356.93-681.253Zm7.2-2.306a1.117,1.117,0,0,1,.586.3l.255.267a1.717,1.717,0,0,1,.392,1.317l-.19,1.017a.721.721,0,0,1-.839.579l-7.366-1.375a.722.722,0,0,1-.571-.842l.189-1.017a.724.724,0,0,1,.837-.583l4.073.76a3.225,3.225,0,0,0,1.616-.188l.392-.174A1.069,1.069,0,0,1,4364.13-683.558Z" transform="translate(-4356.181 684.115)" fill="#717171"/><path d="M4366.51-682.5a3.132,3.132,0,0,1-.243,2.432c-.285.1-.285-.069-.14-.386a3.128,3.128,0,0,0,.132-1.963C4366.127-682.648,4366.51-682.5,4366.51-682.5Z" transform="translate(-4357.812 683.855)" fill="#717171"/><path d="M4357.031-681.539a1.991,1.991,0,0,1,.146-1.918c.275-.07.283.061.153.31a1.955,1.955,0,0,0-.055,1.555C4357.416-681.4,4357.031-681.539,4357.031-681.539Z" transform="translate(-4356.291 684.009)" fill="#717171"/></g></g><g transform="translate(4349.363 -690.85)"><path d="M4356.942-674.933a.823.823,0,0,0,.65.962l7.364,1.375a.826.826,0,0,0,.958-.663l.19-1.017a1.805,1.805,0,0,0-.414-1.407l-.263-.269a1.269,1.269,0,0,0-1.32-.262l-.393.174a3.1,3.1,0,0,1-1.557.183l-4.071-.76a.825.825,0,0,0-.955.667Z" transform="translate(-4356.824 676.731)" fill="#717171"/><path d="M4357.553-673.888l7.365,1.374a.929.929,0,0,0,1.078-.745l.189-1.017a1.907,1.907,0,0,0-.447-1.5l-.255-.267a1.411,1.411,0,0,0-1.438-.284l-.389.174a3.064,3.064,0,0,1-1.5.178l-4.072-.76a.926.926,0,0,0-1.075.746l-.189,1.017A.929.929,0,0,0,4357.553-673.888Zm7.2-2.307a1.12,1.12,0,0,1,.586.3l.255.267a1.719,1.719,0,0,1,.392,1.317l-.189,1.017a.722.722,0,0,1-.84.579l-7.365-1.375a.721.721,0,0,1-.571-.842l.19-1.017a.725.725,0,0,1,.837-.583l4.072.76a3.237,3.237,0,0,0,1.616-.187l.393-.174A1.059,1.059,0,0,1,4364.752-676.194Z" transform="translate(-4356.804 676.751)" fill="#717171"/><path d="M4367.132-675.133a3.133,3.133,0,0,1-.242,2.432c-.284.1-.284-.069-.139-.386a3.119,3.119,0,0,0,.131-1.963C4366.75-675.283,4367.132-675.133,4367.132-675.133Z" transform="translate(-4358.434 676.491)" fill="#717171"/><path d="M4357.653-674.175a2,2,0,0,1,.147-1.918c.275-.069.282.061.153.31a1.957,1.957,0,0,0-.056,1.555C4358.038-674.036,4357.653-674.175,4357.653-674.175Z" transform="translate(-4356.914 676.645)" fill="#717171"/></g><g transform="translate(4350.28 -683.688)"><path d="M4358.041-666.351a.823.823,0,0,0,.65.962l7.365,1.375a.826.826,0,0,0,.957-.663l.189-1.017a1.805,1.805,0,0,0-.414-1.407l-.263-.269a1.269,1.269,0,0,0-1.32-.262l-.393.173a3.09,3.09,0,0,1-1.557.184l-4.071-.76a.825.825,0,0,0-.955.667Z" transform="translate(-4357.923 668.149)" fill="#717171"/><path d="M4358.651-665.307l7.366,1.375a.929.929,0,0,0,1.078-.745l.19-1.017a1.911,1.911,0,0,0-.448-1.5l-.255-.267a1.411,1.411,0,0,0-1.438-.284l-.389.174a3.061,3.061,0,0,1-1.5.178l-4.072-.76a.927.927,0,0,0-1.075.746l-.189,1.017A.927.927,0,0,0,4358.651-665.307Zm7.2-2.306a1.114,1.114,0,0,1,.587.3l.255.267a1.717,1.717,0,0,1,.392,1.317l-.189,1.017a.722.722,0,0,1-.84.579l-7.365-1.375a.721.721,0,0,1-.571-.842l.189-1.017a.724.724,0,0,1,.837-.583l4.073.76a3.232,3.232,0,0,0,1.615-.187l.393-.174A1.059,1.059,0,0,1,4365.851-667.612Z" transform="translate(-4357.903 668.169)" fill="#717171"/><path d="M4368.231-666.551a3.125,3.125,0,0,1-.242,2.432c-.285.1-.285-.069-.139-.386a3.125,3.125,0,0,0,.132-1.963C4367.849-666.7,4368.231-666.551,4368.231-666.551Z" transform="translate(-4359.533 667.909)" fill="#717171"/><path d="M4358.752-665.593a1.994,1.994,0,0,1,.146-1.918c.275-.069.282.061.154.311a1.951,1.951,0,0,0-.056,1.555C4359.138-665.454,4358.752-665.593,4358.752-665.593Z" transform="translate(-4358.012 668.063)" fill="#717171"/></g><g transform="translate(4350.795 -677.534)"><g transform="translate(0)"><path d="M4358.659-658.977a.823.823,0,0,0,.649.963l7.365,1.375a.827.827,0,0,0,.958-.663l.19-1.017a1.808,1.808,0,0,0-.414-1.408l-.263-.268a1.266,1.266,0,0,0-1.321-.262l-.393.173a3.1,3.1,0,0,1-1.556.183l-4.071-.76a.825.825,0,0,0-.955.667Z" transform="translate(-4358.541 660.774)" fill="#717171"/><path d="M4359.27-657.932l7.365,1.375a.931.931,0,0,0,1.079-.745l.189-1.017a1.91,1.91,0,0,0-.448-1.5l-.255-.267a1.414,1.414,0,0,0-1.437-.284l-.389.174a3.063,3.063,0,0,1-1.5.178l-4.071-.76a.928.928,0,0,0-1.075.747l-.19,1.016A.93.93,0,0,0,4359.27-657.932Zm7.2-2.307a1.123,1.123,0,0,1,.587.3l.255.266a1.725,1.725,0,0,1,.391,1.318l-.19,1.017a.721.721,0,0,1-.839.578l-7.366-1.375a.721.721,0,0,1-.571-.842l.19-1.017a.725.725,0,0,1,.837-.583l4.072.76a3.23,3.23,0,0,0,1.617-.187l.392-.174A1.059,1.059,0,0,1,4366.469-660.238Z" transform="translate(-4358.52 660.794)" fill="#717171"/><path d="M4368.849-659.177a3.131,3.131,0,0,1-.242,2.432c-.285.1-.285-.068-.141-.386a3.121,3.121,0,0,0,.132-1.964C4368.467-659.327,4368.849-659.177,4368.849-659.177Z" transform="translate(-4360.15 660.535)" fill="#717171"/><path d="M4359.37-658.219a1.992,1.992,0,0,1,.146-1.917c.275-.07.282.06.154.31a1.953,1.953,0,0,0-.056,1.556C4359.755-658.08,4359.37-658.219,4359.37-658.219Z" transform="translate(-4358.63 660.688)" fill="#717171"/></g></g><rect width="4.061" height="5.993" transform="translate(4353.03 -721.344) rotate(-180)" fill="#999"/><g transform="translate(4359.515 -627.345)"><rect width="5.998" height="4.316" transform="translate(3.336 21.58)" fill="#515652"/><rect width="3.398" height="4.316" transform="translate(0.148 21.58)" fill="#626462"/><rect width="5.998" height="4.316" transform="translate(6.146 21.58) rotate(180)" fill="#515652"/><rect width="3.398" height="4.316" transform="translate(9.335 21.58) rotate(180)" fill="#626462"/><rect width="5.998" height="4.316" transform="translate(3.336 12.948)" fill="#515652"/><rect width="3.398" height="4.316" transform="translate(0.148 12.948)" fill="#626462"/><rect width="5.998" height="4.316" transform="translate(6.146 12.948) rotate(180)" fill="#515652"/><rect width="3.398" height="4.316" transform="translate(9.335 12.948) rotate(180)" fill="#626462"/><rect width="6.372" height="4.316" transform="translate(6.372 38.845) rotate(180)" fill="#515652"/><rect width="3.609" height="4.316" transform="translate(9.758 38.845) rotate(180)" fill="#626462"/><rect width="6.372" height="4.316" transform="translate(3.387 30.212)" fill="#515652"/><rect width="3.609" height="4.316" transform="translate(0 30.212)" fill="#626462"/><rect width="6.372" height="4.316" transform="translate(6.372 30.212) rotate(180)" fill="#515652"/><rect width="3.609" height="4.316" transform="translate(9.758 30.212) rotate(180)" fill="#626462"/><rect width="5.998" height="4.316" transform="translate(3.336 4.316)" fill="#515652"/><rect width="3.398" height="4.316" transform="translate(0.148 4.316)" fill="#626462"/><rect width="5.998" height="4.316" transform="translate(6.146 4.316) rotate(180)" fill="#515652"/><rect width="3.398" height="4.316" transform="translate(9.335 4.316) rotate(180)" fill="#626462"/></g><g transform="translate(4361.195 -559.617)"><rect width="6.356" height="4.573" transform="translate(3.378 22.867)" fill="#515652"/><rect width="3.6" height="4.573" transform="translate(0 22.867)" fill="#626462"/><rect width="6.356" height="4.573" transform="translate(6.356 22.867) rotate(180)" fill="#515652"/><rect width="3.6" height="4.573" transform="translate(9.734 22.867) rotate(180)" fill="#626462"/><rect width="6.356" height="4.573" transform="translate(3.378 13.72)" fill="#515652"/><rect width="3.6" height="4.573" transform="translate(0 13.72)" fill="#626462"/><rect width="6.356" height="4.573" transform="translate(6.356 13.72) rotate(180)" fill="#515652"/><rect width="3.6" height="4.573" transform="translate(9.734 13.72) rotate(180)" fill="#626462"/><rect width="6.356" height="4.573" transform="translate(3.378 4.573)" fill="#515652"/><rect width="3.6" height="4.573" transform="translate(0 4.573)" fill="#626462"/><rect width="6.356" height="4.573" transform="translate(6.356 4.573) rotate(180)" fill="#515652"/><rect width="3.6" height="4.573" transform="translate(9.734 4.573) rotate(180)" fill="#626462"/></g><g transform="translate(4360.58 -582.484)"><rect width="6.758" height="4.573" transform="translate(3.592 18.294)" fill="#515652"/><rect width="3.828" height="4.573" transform="translate(0 18.294)" fill="#626462"/><rect width="6.758" height="4.573" transform="translate(6.758 18.294) rotate(180)" fill="#515652"/><rect width="3.828" height="4.573" transform="translate(10.35 18.294) rotate(180)" fill="#626462"/><rect width="6.758" height="4.573" transform="translate(3.592 9.147)" fill="#515652"/><rect width="3.828" height="4.573" transform="translate(0 9.147)" fill="#626462"/><rect width="6.758" height="4.573" transform="translate(6.758 9.147) rotate(180)" fill="#515652"/><rect width="3.828" height="4.573" transform="translate(10.35 9.147) rotate(180)" fill="#626462"/><rect width="6.758" height="4.573" transform="translate(3.592 0)" fill="#515652"/><rect width="3.828" height="4.573" transform="translate(0 0)" fill="#626462"/></g><line x2="1.065" y2="54.172" transform="translate(4359.515 -581.814)" fill="none" stroke="#717171" stroke-linecap="round" stroke-linejoin="round" stroke-width="3"/><line x2="1.065" y2="50.834" transform="translate(4370.9 -578.476)" fill="none" stroke="#717171" stroke-linecap="round" stroke-linejoin="round" stroke-width="3"/><rect width="16.401" height="8.28" transform="translate(4357.649 -532.177)" fill="url(#a)"/><g transform="translate(4351.621 -675.154)"><path d="M4359.509-644.336c-.1-3.128,8.467-12.8,8.808-13.029.476-.315,1.388-.6,3.41-.575,2.017-.03,2.933.26,3.41.575.341.225,8.9,9.9,8.807,13.029a6.747,6.747,0,0,1-1.388,3.968c-4.073,5.35-2.319,10.241-2.319,11.391a1.51,1.51,0,0,1-1.358,1.66h-14.307a1.509,1.509,0,0,1-1.354-1.66c0-1.15,1.75-6.041-2.32-11.391A6.757,6.757,0,0,1,4359.509-644.336Z" transform="translate(-4359.508 657.943)" fill="#7e7878"/><g transform="translate(2.449 20.98)"><path d="M4381.811-595.248l-2.988-32.58c0-2.75-2.979-4.974-6.652-4.974s-6.654,2.224-6.654,4.974l-2.989,32.58a5.32,5.32,0,0,0-.085.9c0,4.017,4.355,7.272,9.728,7.272s9.726-3.255,9.726-7.272A5.271,5.271,0,0,0,4381.811-595.248Zm-9.641-36.561c2.941,0,5.325,1.783,5.325,3.982s-2.383,3.977-5.325,3.977-5.326-1.782-5.326-3.977S4369.229-631.81,4372.17-631.81Zm0,43.69c-4.508,0-8.166-2.734-8.166-6.107s3.657-6.1,8.166-6.1,8.168,2.734,8.168,6.1S4376.682-588.12,4372.17-588.12Z" transform="translate(-4362.443 632.802)" fill="url(#b)"/><path d="M4364.31-593.07c0-3.37,3.657-6.1,8.165-6.1s8.168,2.734,8.168,6.1a4.829,4.829,0,0,1-.043.621,4.669,4.669,0,0,0,.064-.739,4.331,4.331,0,0,0-.072-.76l-2.925-31.861c-.523,1.782-2.652,3.115-5.193,3.115s-4.666-1.334-5.2-3.115l-2.925,31.858a4.763,4.763,0,0,0-.068.764,4.584,4.584,0,0,0,.166,1.232A4.633,4.633,0,0,1,4364.31-593.07Z" transform="translate(-4362.748 631.645)" fill="url(#c)"/></g><g transform="translate(9.469 2.514)"><path d="M4374.474-654.93a1.881,1.881,0,0,1,1.881,1.877v21.433a1.882,1.882,0,0,1-1.881,1.882h-1.742a1.881,1.881,0,0,1-1.877-1.882v-21.433a1.88,1.88,0,0,1,1.877-1.877Z" transform="translate(-4370.855 654.93)" fill="url(#d)"/><path d="M4371.355-652.971a1.468,1.468,0,0,1,1.459-1.464h1.742a1.466,1.466,0,0,1,1.459,1.464v21.433a1.466,1.466,0,0,1-1.459,1.465h-1.742a1.468,1.468,0,0,1-1.459-1.465Z" transform="translate(-4370.938 654.848)" fill="#afafaf" stroke="#707070" stroke-width="1"/></g></g></g><g transform="translate(-7321.851 -1751.405)"><rect width="27.479" height="2" transform="translate(4434.136 -372.205)" fill="#bf3976"/><path d="M4438.12-374.6l-3.393,3.391,3.393,3.391h-2.879l-3.391-3.391,3.391-3.391Z" fill="#bf3976"/></g><g transform="translate(-7321.851 -1608.405)"><rect width="27.479" height="2" transform="translate(4434.136 -372.205)" fill="#bf3976"/><path d="M4438.12-374.6l-3.393,3.391,3.393,3.391h-2.879l-3.391-3.391,3.391-3.391Z" fill="#bf3976"/></g><g transform="translate(-7321.851 -1725.405)"><rect width="54.629" height="2" transform="translate(4406.985 -372.205)" fill="#bf3976"/><g transform="translate(-28)"><path d="M4438.12-374.6l-3.393,3.391,3.393,3.391h-2.879l-3.391-3.391,3.391-3.391Z" fill="#bf3976"/></g></g><g transform="translate(-7321.851 -1663.405)"><rect width="55.629" height="2" transform="translate(4405.985 -372.205)" fill="#bf3976"/><g transform="translate(-28)"><path d="M4438.12-374.6l-3.393,3.391,3.393,3.391h-2.879l-3.391-3.391,3.391-3.391Z" fill="#bf3976"/></g></g><g transform="translate(-7321.851 -1637.405)"><rect width="55.629" height="2" transform="translate(4405.985 -372.205)" fill="#bf3976"/><g transform="translate(-28)"><path d="M4438.12-374.6l-3.393,3.391,3.393,3.391h-2.879l-3.391-3.391,3.391-3.391Z" fill="#bf3976"/></g></g><g transform="translate(-7321.851 -1555.405)"><rect width="55.629" height="2" transform="translate(4405.985 -372.205)" fill="#bf3976"/><g transform="translate(-28)"><path d="M4438.12-374.6l-3.393,3.391,3.393,3.391h-2.879l-3.391-3.391,3.391-3.391Z" fill="#bf3976"/></g></g><g transform="translate(-7321.851 -1528.405)"><rect width="55.629" height="2" transform="translate(4405.985 -372.205)" fill="#bf3976"/><g transform="translate(-28)"><path d="M4438.12-374.6l-3.393,3.391,3.393,3.391h-2.879l-3.391-3.391,3.391-3.391Z" fill="#bf3976"/></g></g><g transform="translate(-7321.851 -1501.405)"><rect width="46.532" height="2" transform="translate(4415.083 -372.205)" fill="#bf3976"/><g transform="translate(4411.948 -374.595)"><path d="M4438.12-374.6l-3.393,3.391,3.393,3.391h-2.879l-3.391-3.391,3.391-3.391Z" transform="translate(-4431.851 374.595)" fill="#bf3976"/></g></g><path d="M-20.519-4.314h-2.5V0h-1.414V-10.664h3.53a4.178,4.178,0,0,1,2.772.82,2.951,2.951,0,0,1,.97,2.388A2.871,2.871,0,0,1-17.7-5.72a3.214,3.214,0,0,1-1.5,1.106l2.5,4.526V0H-18.2Zm-2.5-1.15h2.161A2.44,2.44,0,0,0-19.2-6.006a1.831,1.831,0,0,0,.619-1.45,1.928,1.928,0,0,0-.59-1.516,2.5,2.5,0,0,0-1.7-.535h-2.153ZM-12.118.146A3.463,3.463,0,0,1-14.74-.912a3.928,3.928,0,0,1-1.011-2.831v-.249A4.756,4.756,0,0,1-15.3-6.1a3.514,3.514,0,0,1,1.26-1.45,3.167,3.167,0,0,1,1.754-.524,2.968,2.968,0,0,1,2.4,1.018,4.408,4.408,0,0,1,.857,2.915v.564H-14.4a2.817,2.817,0,0,0,.685,1.893,2.153,2.153,0,0,0,1.666.721,2.36,2.36,0,0,0,1.216-.293,3.055,3.055,0,0,0,.872-.776l.828.645A3.328,3.328,0,0,1-12.118.146Zm-.168-7.1a1.807,1.807,0,0,0-1.377.6,2.9,2.9,0,0,0-.688,1.674h3.97v-.1a2.581,2.581,0,0,0-.557-1.6A1.7,1.7,0,0,0-12.286-6.958Zm6.1-.967.037.879A2.927,2.927,0,0,1-3.8-8.071,2.266,2.266,0,0,1-1.534-6.8,3,3,0,0,1-.505-7.72a3.039,3.039,0,0,1,1.5-.352q2.607,0,2.651,2.761V0H2.289V-5.229A1.82,1.82,0,0,0,1.9-6.5,1.71,1.71,0,0,0,.6-6.921a1.8,1.8,0,0,0-1.252.45,1.827,1.827,0,0,0-.579,1.212V0H-2.6V-5.193A1.512,1.512,0,0,0-4.288-6.921,1.813,1.813,0,0,0-6.112-5.786V0H-7.467V-7.925ZM10.58,0a2.846,2.846,0,0,1-.19-.835A3.023,3.023,0,0,1,8.134.146,2.8,2.8,0,0,1,6.211-.516,2.145,2.145,0,0,1,5.46-2.2,2.24,2.24,0,0,1,6.4-4.12,4.437,4.437,0,0,1,9.049-4.8h1.318v-.623a1.522,1.522,0,0,0-.425-1.132A1.707,1.707,0,0,0,8.69-6.98a1.976,1.976,0,0,0-1.216.366,1.079,1.079,0,0,0-.491.886H5.621a1.87,1.87,0,0,1,.421-1.146,2.874,2.874,0,0,1,1.143-.875,3.844,3.844,0,0,1,1.586-.322,3.133,3.133,0,0,1,2.146.685A2.47,2.47,0,0,1,11.722-5.5v3.647A4.459,4.459,0,0,0,12-.117V0ZM8.331-1.033a2.381,2.381,0,0,0,1.208-.33,1.994,1.994,0,0,0,.828-.857V-3.845H9.305q-2.49,0-2.49,1.458a1.234,1.234,0,0,0,.425,1A1.633,1.633,0,0,0,8.331-1.033Zm7.354-8.811v1.919h1.479v1.047H15.685v4.915a1.1,1.1,0,0,0,.2.714.833.833,0,0,0,.674.238A3.281,3.281,0,0,0,17.2-1.1V0a3.928,3.928,0,0,1-1.04.146A1.687,1.687,0,0,1,14.791-.4a2.36,2.36,0,0,1-.461-1.56V-6.877H12.887V-7.925H14.33V-9.844Zm6.35,9.99A3.463,3.463,0,0,1,19.413-.912,3.928,3.928,0,0,1,18.4-3.743v-.249a4.756,4.756,0,0,1,.45-2.106,3.514,3.514,0,0,1,1.26-1.45,3.167,3.167,0,0,1,1.754-.524,2.968,2.968,0,0,1,2.4,1.018,4.408,4.408,0,0,1,.857,2.915v.564H19.757a2.817,2.817,0,0,0,.685,1.893,2.153,2.153,0,0,0,1.666.721,2.36,2.36,0,0,0,1.216-.293,3.055,3.055,0,0,0,.872-.776l.828.645A3.328,3.328,0,0,1,22.035.146Zm-.168-7.1a1.807,1.807,0,0,0-1.377.6A2.9,2.9,0,0,0,19.8-4.687h3.97v-.1a2.581,2.581,0,0,0-.557-1.6A1.7,1.7,0,0,0,21.866-6.958Z" transform="translate(-2830.393 -2123)" fill="#12263f"/><path d="M-37.178-9.507h-3.428V0H-42V-9.507h-3.42v-1.157h8.247Zm.286,5.471a4.681,4.681,0,0,1,.458-2.095A3.415,3.415,0,0,1-35.16-7.566,3.469,3.469,0,0,1-33.3-8.071a3.342,3.342,0,0,1,2.618,1.121,4.311,4.311,0,0,1,1,2.981v.1A4.722,4.722,0,0,1-30.121-1.8,3.365,3.365,0,0,1-31.388-.366a3.509,3.509,0,0,1-1.893.513A3.334,3.334,0,0,1-35.892-.974a4.29,4.29,0,0,1-1-2.966Zm1.362.161a3.39,3.39,0,0,0,.612,2.117,1.957,1.957,0,0,0,1.637.8,1.945,1.945,0,0,0,1.641-.809,3.707,3.707,0,0,0,.608-2.267,3.384,3.384,0,0,0-.619-2.113A1.968,1.968,0,0,0-33.3-6.958a1.946,1.946,0,0,0-1.619.8A3.68,3.68,0,0,0-35.53-3.875Zm14.246,0a4.745,4.745,0,0,1-.828,2.915A2.653,2.653,0,0,1-24.353.146a2.906,2.906,0,0,1-2.271-.916V3.047h-1.355V-7.925h1.238l.066.879a2.791,2.791,0,0,1,2.3-1.025,2.7,2.7,0,0,1,2.26,1.077,4.8,4.8,0,0,1,.831,3Zm-1.355-.154a3.5,3.5,0,0,0-.571-2.117,1.84,1.84,0,0,0-1.567-.776A1.992,1.992,0,0,0-26.624-5.83v3.787a2,2,0,0,0,1.86,1.084,1.832,1.832,0,0,0,1.549-.773A3.822,3.822,0,0,0-22.639-4.028ZM-16.274.146A3.463,3.463,0,0,1-18.9-.912a3.928,3.928,0,0,1-1.011-2.831v-.249a4.756,4.756,0,0,1,.45-2.106,3.514,3.514,0,0,1,1.26-1.45,3.167,3.167,0,0,1,1.754-.524,2.968,2.968,0,0,1,2.4,1.018,4.408,4.408,0,0,1,.857,2.915v.564h-5.369a2.817,2.817,0,0,0,.685,1.893A2.153,2.153,0,0,0-16.2-.959a2.36,2.36,0,0,0,1.216-.293,3.055,3.055,0,0,0,.872-.776l.828.645A3.328,3.328,0,0,1-16.274.146Zm-.168-7.1a1.807,1.807,0,0,0-1.377.6,2.9,2.9,0,0,0-.688,1.674h3.97v-.1a2.581,2.581,0,0,0-.557-1.6A1.7,1.7,0,0,0-16.443-6.958ZM-3.289-2.1A1,1,0,0,0-3.7-2.955a3.983,3.983,0,0,0-1.443-.524,6.822,6.822,0,0,1-1.633-.527,2.324,2.324,0,0,1-.894-.732A1.752,1.752,0,0,1-7.961-5.75,2.056,2.056,0,0,1-7.137-7.4a3.218,3.218,0,0,1,2.106-.674,3.311,3.311,0,0,1,2.186.7A2.21,2.21,0,0,1-2.007-5.6H-3.369a1.223,1.223,0,0,0-.472-.959,1.77,1.77,0,0,0-1.19-.4,1.852,1.852,0,0,0-1.157.322,1.014,1.014,0,0,0-.417.842.822.822,0,0,0,.388.74,4.776,4.776,0,0,0,1.4.476,7.308,7.308,0,0,1,1.644.542,2.4,2.4,0,0,1,.934.758,1.864,1.864,0,0,1,.3,1.08,2.028,2.028,0,0,1-.85,1.7,3.564,3.564,0,0,1-2.2.641A3.991,3.991,0,0,1-6.672-.19a2.74,2.74,0,0,1-1.146-.941,2.268,2.268,0,0,1-.414-1.307h1.355a1.4,1.4,0,0,0,.546,1.08,2.117,2.117,0,0,0,1.344.4,2.185,2.185,0,0,0,1.234-.311A.956.956,0,0,0-3.289-2.1ZM4.724-.784A2.878,2.878,0,0,1,2.4.146,2.464,2.464,0,0,1,.472-.59,3.186,3.186,0,0,1-.2-2.769V-7.925H1.157v5.12Q1.157-1,2.622-1A2.028,2.028,0,0,0,4.688-2.161V-7.925H6.042V0H4.753ZM14.795-3.875a4.745,4.745,0,0,1-.828,2.915A2.653,2.653,0,0,1,11.726.146,2.906,2.906,0,0,1,9.456-.769V3.047H8.1V-7.925H9.338l.066.879a2.791,2.791,0,0,1,2.3-1.025,2.7,2.7,0,0,1,2.26,1.077,4.8,4.8,0,0,1,.831,3ZM13.44-4.028a3.5,3.5,0,0,0-.571-2.117A1.84,1.84,0,0,0,11.3-6.921,1.992,1.992,0,0,0,9.456-5.83v3.787a2,2,0,0,0,1.86,1.084,1.832,1.832,0,0,0,1.549-.773A3.822,3.822,0,0,0,13.44-4.028ZM19.8.146A3.463,3.463,0,0,1,17.183-.912a3.928,3.928,0,0,1-1.011-2.831v-.249a4.756,4.756,0,0,1,.45-2.106,3.514,3.514,0,0,1,1.26-1.45,3.167,3.167,0,0,1,1.754-.524,2.968,2.968,0,0,1,2.4,1.018A4.408,4.408,0,0,1,22.9-4.138v.564H17.527a2.817,2.817,0,0,0,.685,1.893,2.153,2.153,0,0,0,1.666.721,2.36,2.36,0,0,0,1.216-.293,3.055,3.055,0,0,0,.872-.776l.828.645A3.328,3.328,0,0,1,19.8.146Zm-.168-7.1a1.807,1.807,0,0,0-1.377.6,2.9,2.9,0,0,0-.688,1.674h3.97v-.1a2.581,2.581,0,0,0-.557-1.6A1.7,1.7,0,0,0,19.636-6.958Zm8.657.249a4.06,4.06,0,0,0-.667-.051,1.786,1.786,0,0,0-1.809,1.135V0H24.463V-7.925h1.318l.022.916a2.11,2.11,0,0,1,1.89-1.062,1.384,1.384,0,0,1,.6.1ZM31.011,0H29.656V-7.925h1.355ZM29.546-10.027a.809.809,0,0,1,.2-.557.756.756,0,0,1,.6-.227.768.768,0,0,1,.6.227.8.8,0,0,1,.205.557.774.774,0,0,1-.205.549.782.782,0,0,1-.6.22.77.77,0,0,1-.6-.22A.782.782,0,0,1,29.546-10.027ZM32.82-4.036a4.681,4.681,0,0,1,.458-2.095,3.415,3.415,0,0,1,1.274-1.436,3.469,3.469,0,0,1,1.864-.505,3.342,3.342,0,0,1,2.618,1.121,4.311,4.311,0,0,1,1,2.981v.1A4.722,4.722,0,0,1,39.591-1.8,3.365,3.365,0,0,1,38.324-.366a3.509,3.509,0,0,1-1.893.513A3.334,3.334,0,0,1,33.82-.974a4.29,4.29,0,0,1-1-2.966Zm1.362.161a3.39,3.39,0,0,0,.612,2.117,1.957,1.957,0,0,0,1.637.8,1.945,1.945,0,0,0,1.641-.809,3.707,3.707,0,0,0,.608-2.267,3.384,3.384,0,0,0-.619-2.113,1.968,1.968,0,0,0-1.644-.809,1.946,1.946,0,0,0-1.619.8A3.68,3.68,0,0,0,34.182-3.875ZM45.564-6.709A4.06,4.06,0,0,0,44.9-6.76a1.786,1.786,0,0,0-1.809,1.135V0H41.733V-7.925h1.318l.022.916a2.11,2.11,0,0,1,1.89-1.062,1.384,1.384,0,0,1,.6.1Z" transform="translate(-2810.393 -2095)" fill="#12263f"/><path d="M9.082-3.384A3.923,3.923,0,0,1,7.833-.773,4.093,4.093,0,0,1,5.039.146,3.758,3.758,0,0,1,2.01-1.208,5.451,5.451,0,0,1,.872-4.834V-5.859A6.076,6.076,0,0,1,1.4-8.474a3.966,3.966,0,0,1,1.505-1.732,4.191,4.191,0,0,1,2.256-.6,3.853,3.853,0,0,1,2.725.948A3.971,3.971,0,0,1,9.082-7.236H7.668a3.05,3.05,0,0,0-.795-1.846,2.409,2.409,0,0,0-1.71-.571,2.517,2.517,0,0,0-2.113,1,4.57,4.57,0,0,0-.765,2.834V-4.79A4.7,4.7,0,0,0,3.01-2.029,2.344,2.344,0,0,0,5.039-1a2.706,2.706,0,0,0,1.8-.531,2.947,2.947,0,0,0,.831-1.849ZM15.681,0a2.846,2.846,0,0,1-.19-.835,3.023,3.023,0,0,1-2.256.981,2.8,2.8,0,0,1-1.923-.663A2.145,2.145,0,0,1,10.562-2.2,2.24,2.24,0,0,1,11.5-4.12,4.437,4.437,0,0,1,14.15-4.8h1.318v-.623a1.522,1.522,0,0,0-.425-1.132,1.707,1.707,0,0,0-1.252-.421,1.976,1.976,0,0,0-1.216.366,1.079,1.079,0,0,0-.491.886H10.723a1.87,1.87,0,0,1,.421-1.146,2.874,2.874,0,0,1,1.143-.875,3.844,3.844,0,0,1,1.586-.322,3.133,3.133,0,0,1,2.146.685A2.47,2.47,0,0,1,16.824-5.5v3.647A4.459,4.459,0,0,0,17.1-.117V0ZM13.433-1.033a2.381,2.381,0,0,0,1.208-.33,1.994,1.994,0,0,0,.828-.857V-3.845H14.407q-2.49,0-2.49,1.458a1.234,1.234,0,0,0,.425,1A1.633,1.633,0,0,0,13.433-1.033Zm9.346-5.676a4.06,4.06,0,0,0-.667-.051A1.786,1.786,0,0,0,20.3-5.625V0H18.948V-7.925h1.318l.022.916a2.11,2.11,0,0,1,1.89-1.062,1.384,1.384,0,0,1,.6.1Zm5.076,0a4.06,4.06,0,0,0-.667-.051,1.786,1.786,0,0,0-1.809,1.135V0H24.023V-7.925h1.318l.022.916a2.11,2.11,0,0,1,1.89-1.062,1.384,1.384,0,0,1,.6.1Zm.74,2.673a4.681,4.681,0,0,1,.458-2.095,3.415,3.415,0,0,1,1.274-1.436,3.469,3.469,0,0,1,1.864-.505,3.342,3.342,0,0,1,2.618,1.121,4.311,4.311,0,0,1,1,2.981v.1A4.722,4.722,0,0,1,35.365-1.8,3.365,3.365,0,0,1,34.1-.366,3.509,3.509,0,0,1,32.2.146,3.334,3.334,0,0,1,29.594-.974a4.29,4.29,0,0,1-1-2.966Zm1.362.161a3.39,3.39,0,0,0,.612,2.117,1.957,1.957,0,0,0,1.637.8,1.945,1.945,0,0,0,1.641-.809,3.707,3.707,0,0,0,.608-2.267,3.384,3.384,0,0,0-.619-2.113,1.968,1.968,0,0,0-1.644-.809,1.946,1.946,0,0,0-1.619.8A3.68,3.68,0,0,0,29.956-3.875Zm10.906-.161A4.681,4.681,0,0,1,41.32-6.13a3.415,3.415,0,0,1,1.274-1.436,3.469,3.469,0,0,1,1.864-.505,3.342,3.342,0,0,1,2.618,1.121,4.311,4.311,0,0,1,1,2.981v.1A4.722,4.722,0,0,1,47.633-1.8,3.365,3.365,0,0,1,46.366-.366a3.509,3.509,0,0,1-1.893.513A3.334,3.334,0,0,1,41.862-.974a4.29,4.29,0,0,1-1-2.966Zm1.362.161a3.39,3.39,0,0,0,.612,2.117,1.957,1.957,0,0,0,1.637.8,1.945,1.945,0,0,0,1.641-.809,3.707,3.707,0,0,0,.608-2.267A3.384,3.384,0,0,0,46.1-6.149a1.968,1.968,0,0,0-1.644-.809,1.946,1.946,0,0,0-1.619.8A3.68,3.68,0,0,0,42.224-3.875Zm10.935-.154a4.642,4.642,0,0,1,.864-2.933,2.733,2.733,0,0,1,2.263-1.11,2.748,2.748,0,0,1,2.2.952V-11.25h1.355V0H58.6l-.066-.85a2.759,2.759,0,0,1-2.263,1A2.707,2.707,0,0,1,54.027-.981a4.7,4.7,0,0,1-.868-2.944Zm1.355.154a3.515,3.515,0,0,0,.557,2.109A1.8,1.8,0,0,0,56.609-1a1.977,1.977,0,0,0,1.882-1.157V-5.8a1.992,1.992,0,0,0-1.868-1.121,1.808,1.808,0,0,0-1.553.769A3.87,3.87,0,0,0,54.514-3.875ZM65.237.146A3.463,3.463,0,0,1,62.615-.912,3.928,3.928,0,0,1,61.6-3.743v-.249a4.756,4.756,0,0,1,.45-2.106,3.514,3.514,0,0,1,1.26-1.45,3.167,3.167,0,0,1,1.754-.524,2.968,2.968,0,0,1,2.4,1.018,4.408,4.408,0,0,1,.857,2.915v.564H62.959a2.817,2.817,0,0,0,.685,1.893,2.153,2.153,0,0,0,1.666.721,2.36,2.36,0,0,0,1.216-.293,3.055,3.055,0,0,0,.872-.776l.828.645A3.328,3.328,0,0,1,65.237.146Zm-.168-7.1a1.807,1.807,0,0,0-1.377.6A2.9,2.9,0,0,0,63-4.687h3.97v-.1a2.581,2.581,0,0,0-.557-1.6A1.7,1.7,0,0,0,65.068-6.958ZM74.509-2.1a1,1,0,0,0-.414-.853,3.983,3.983,0,0,0-1.443-.524,6.822,6.822,0,0,1-1.633-.527,2.324,2.324,0,0,1-.894-.732,1.752,1.752,0,0,1-.289-1.011A2.056,2.056,0,0,1,70.66-7.4a3.218,3.218,0,0,1,2.106-.674,3.311,3.311,0,0,1,2.186.7,2.21,2.21,0,0,1,.839,1.78H74.429a1.223,1.223,0,0,0-.472-.959,1.77,1.77,0,0,0-1.19-.4,1.852,1.852,0,0,0-1.157.322,1.014,1.014,0,0,0-.417.842.822.822,0,0,0,.388.74,4.776,4.776,0,0,0,1.4.476,7.308,7.308,0,0,1,1.644.542,2.4,2.4,0,0,1,.934.758,1.864,1.864,0,0,1,.3,1.08,2.028,2.028,0,0,1-.85,1.7,3.564,3.564,0,0,1-2.2.641A3.991,3.991,0,0,1,71.125-.19a2.74,2.74,0,0,1-1.146-.941,2.268,2.268,0,0,1-.414-1.307H70.92a1.4,1.4,0,0,0,.546,1.08,2.117,2.117,0,0,0,1.344.4,2.185,2.185,0,0,0,1.234-.311A.956.956,0,0,0,74.509-2.1ZM79.1,0H77.747V-11.25H79.1Zm3.64,0H81.387V-7.925h1.355ZM81.277-10.027a.809.809,0,0,1,.2-.557.756.756,0,0,1,.6-.227.768.768,0,0,1,.6.227.8.8,0,0,1,.205.557.774.774,0,0,1-.205.549.782.782,0,0,1-.6.22.77.77,0,0,1-.6-.22A.782.782,0,0,1,81.277-10.027Zm4.907,8.921H90.82V0H84.529V-1L88.9-6.8H84.595V-7.925H90.6v.959ZM97.236,0a2.846,2.846,0,0,1-.19-.835A3.023,3.023,0,0,1,94.79.146a2.8,2.8,0,0,1-1.923-.663A2.145,2.145,0,0,1,92.117-2.2a2.24,2.24,0,0,1,.941-1.923A4.437,4.437,0,0,1,95.706-4.8h1.318v-.623A1.522,1.522,0,0,0,96.6-6.559a1.707,1.707,0,0,0-1.252-.421,1.976,1.976,0,0,0-1.216.366,1.079,1.079,0,0,0-.491.886H92.278A1.87,1.87,0,0,1,92.7-6.874a2.874,2.874,0,0,1,1.143-.875,3.844,3.844,0,0,1,1.586-.322,3.133,3.133,0,0,1,2.146.685A2.47,2.47,0,0,1,98.379-5.5v3.647a4.459,4.459,0,0,0,.278,1.736V0ZM94.988-1.033a2.381,2.381,0,0,0,1.208-.33,1.994,1.994,0,0,0,.828-.857V-3.845H95.962q-2.49,0-2.49,1.458a1.234,1.234,0,0,0,.425,1A1.633,1.633,0,0,0,94.988-1.033Zm5.186-3a4.642,4.642,0,0,1,.864-2.933,2.733,2.733,0,0,1,2.263-1.11,2.748,2.748,0,0,1,2.2.952V-11.25h1.355V0h-1.245l-.066-.85a2.759,2.759,0,0,1-2.263,1,2.707,2.707,0,0,1-2.245-1.128,4.7,4.7,0,0,1-.868-2.944Zm1.355.154a3.515,3.515,0,0,0,.557,2.109A1.8,1.8,0,0,0,103.623-1a1.977,1.977,0,0,0,1.882-1.157V-5.8a1.992,1.992,0,0,0-1.868-1.121,1.808,1.808,0,0,0-1.553.769A3.87,3.87,0,0,0,101.528-3.875Zm7.075-.161a4.681,4.681,0,0,1,.458-2.095,3.415,3.415,0,0,1,1.274-1.436,3.469,3.469,0,0,1,1.864-.505,3.342,3.342,0,0,1,2.618,1.121,4.311,4.311,0,0,1,1,2.981v.1a4.722,4.722,0,0,1-.443,2.076,3.365,3.365,0,0,1-1.267,1.432,3.509,3.509,0,0,1-1.893.513A3.334,3.334,0,0,1,109.6-.974a4.29,4.29,0,0,1-1-2.966Zm1.362.161a3.39,3.39,0,0,0,.612,2.117,1.957,1.957,0,0,0,1.637.8,1.945,1.945,0,0,0,1.641-.809,3.707,3.707,0,0,0,.608-2.267,3.384,3.384,0,0,0-.619-2.113,1.968,1.968,0,0,0-1.644-.809,1.946,1.946,0,0,0-1.619.8A3.68,3.68,0,0,0,109.966-3.875Zm11.382-2.834a4.06,4.06,0,0,0-.667-.051,1.786,1.786,0,0,0-1.809,1.135V0h-1.355V-7.925h1.318l.022.916a2.11,2.11,0,0,1,1.89-1.062,1.384,1.384,0,0,1,.6.1Z" transform="translate(-2856.393 -2033)" fill="#12263f"/><path d="M8.606-9.507H5.178V0h-1.4V-9.507H.359v-1.157H8.606ZM11.448,0H10.093V-7.925h1.355ZM9.983-10.027a.809.809,0,0,1,.2-.557.756.756,0,0,1,.6-.227.768.768,0,0,1,.6.227.8.8,0,0,1,.205.557.774.774,0,0,1-.205.549.782.782,0,0,1-.6.22.77.77,0,0,1-.6-.22A.782.782,0,0,1,9.983-10.027Zm7.463,3.318a4.06,4.06,0,0,0-.667-.051,1.786,1.786,0,0,0-1.809,1.135V0H13.616V-7.925h1.318l.022.916a2.11,2.11,0,0,1,1.89-1.062,1.384,1.384,0,0,1,.6.1ZM23.291,0a2.846,2.846,0,0,1-.19-.835,3.023,3.023,0,0,1-2.256.981,2.8,2.8,0,0,1-1.923-.663A2.145,2.145,0,0,1,18.171-2.2a2.24,2.24,0,0,1,.941-1.923A4.437,4.437,0,0,1,21.76-4.8h1.318v-.623a1.522,1.522,0,0,0-.425-1.132A1.707,1.707,0,0,0,21.4-6.98a1.976,1.976,0,0,0-1.216.366,1.079,1.079,0,0,0-.491.886H18.333a1.87,1.87,0,0,1,.421-1.146A2.874,2.874,0,0,1,19.9-7.749a3.844,3.844,0,0,1,1.586-.322,3.133,3.133,0,0,1,2.146.685A2.47,2.47,0,0,1,24.434-5.5v3.647a4.459,4.459,0,0,0,.278,1.736V0ZM21.042-1.033a2.381,2.381,0,0,0,1.208-.33,1.994,1.994,0,0,0,.828-.857V-3.845H22.017q-2.49,0-2.49,1.458a1.234,1.234,0,0,0,.425,1A1.633,1.633,0,0,0,21.042-1.033Zm5.186-3a4.642,4.642,0,0,1,.864-2.933,2.733,2.733,0,0,1,2.263-1.11,2.748,2.748,0,0,1,2.2.952V-11.25h1.355V0H31.67L31.6-.85a2.759,2.759,0,0,1-2.263,1A2.707,2.707,0,0,1,27.1-.981a4.7,4.7,0,0,1-.868-2.944Zm1.355.154a3.515,3.515,0,0,0,.557,2.109A1.8,1.8,0,0,0,29.678-1,1.977,1.977,0,0,0,31.56-2.161V-5.8a1.992,1.992,0,0,0-1.868-1.121,1.808,1.808,0,0,0-1.553.769A3.87,3.87,0,0,0,27.583-3.875Zm7.075-.161a4.681,4.681,0,0,1,.458-2.095A3.415,3.415,0,0,1,36.39-7.566a3.469,3.469,0,0,1,1.864-.505,3.342,3.342,0,0,1,2.618,1.121,4.311,4.311,0,0,1,1,2.981v.1A4.722,4.722,0,0,1,41.429-1.8,3.365,3.365,0,0,1,40.162-.366a3.509,3.509,0,0,1-1.893.513A3.334,3.334,0,0,1,35.658-.974a4.29,4.29,0,0,1-1-2.966Zm1.362.161a3.39,3.39,0,0,0,.612,2.117,1.957,1.957,0,0,0,1.637.8,1.945,1.945,0,0,0,1.641-.809,3.707,3.707,0,0,0,.608-2.267A3.384,3.384,0,0,0,39.9-6.149a1.968,1.968,0,0,0-1.644-.809,1.946,1.946,0,0,0-1.619.8A3.68,3.68,0,0,0,36.021-3.875ZM47.4-6.709a4.06,4.06,0,0,0-.667-.051,1.786,1.786,0,0,0-1.809,1.135V0H43.572V-7.925H44.89l.022.916A2.11,2.11,0,0,1,46.8-8.071a1.384,1.384,0,0,1,.6.1Z" transform="translate(-2856.393 -2005)" fill="#12263f"/><path d="M9.082-3.384A3.923,3.923,0,0,1,7.833-.773,4.093,4.093,0,0,1,5.039.146,3.758,3.758,0,0,1,2.01-1.208,5.451,5.451,0,0,1,.872-4.834V-5.859A6.076,6.076,0,0,1,1.4-8.474a3.966,3.966,0,0,1,1.505-1.732,4.191,4.191,0,0,1,2.256-.6,3.853,3.853,0,0,1,2.725.948A3.971,3.971,0,0,1,9.082-7.236H7.668a3.05,3.05,0,0,0-.795-1.846,2.409,2.409,0,0,0-1.71-.571,2.517,2.517,0,0,0-2.113,1,4.57,4.57,0,0,0-.765,2.834V-4.79A4.7,4.7,0,0,0,3.01-2.029,2.344,2.344,0,0,0,5.039-1a2.706,2.706,0,0,0,1.8-.531,2.947,2.947,0,0,0,.831-1.849ZM12.261,0H10.906V-7.925h1.355ZM10.8-10.027a.809.809,0,0,1,.2-.557.756.756,0,0,1,.6-.227.768.768,0,0,1,.6.227.8.8,0,0,1,.205.557.774.774,0,0,1-.205.549.782.782,0,0,1-.6.22.77.77,0,0,1-.6-.22A.782.782,0,0,1,10.8-10.027Zm4.915,2.1.044,1a2.888,2.888,0,0,1,2.373-1.143q2.512,0,2.534,2.834V0H19.307V-5.244a1.824,1.824,0,0,0-.392-1.267,1.57,1.57,0,0,0-1.2-.41,1.956,1.956,0,0,0-1.157.352,2.387,2.387,0,0,0-.776.923V0H14.429V-7.925Zm8.833-1.919v1.919h1.479v1.047H24.543v4.915a1.1,1.1,0,0,0,.2.714.833.833,0,0,0,.674.238A3.281,3.281,0,0,0,26.06-1.1V0a3.928,3.928,0,0,1-1.04.146A1.687,1.687,0,0,1,23.65-.4a2.36,2.36,0,0,1-.461-1.56V-6.877H21.746V-7.925h1.443V-9.844ZM32.5,0a2.846,2.846,0,0,1-.19-.835,3.023,3.023,0,0,1-2.256.981,2.8,2.8,0,0,1-1.923-.663A2.145,2.145,0,0,1,27.378-2.2a2.24,2.24,0,0,1,.941-1.923A4.437,4.437,0,0,1,30.967-4.8h1.318v-.623a1.522,1.522,0,0,0-.425-1.132,1.707,1.707,0,0,0-1.252-.421,1.976,1.976,0,0,0-1.216.366,1.079,1.079,0,0,0-.491.886H27.539a1.87,1.87,0,0,1,.421-1.146A2.874,2.874,0,0,1,29.1-7.749a3.844,3.844,0,0,1,1.586-.322,3.133,3.133,0,0,1,2.146.685A2.47,2.47,0,0,1,33.64-5.5v3.647a4.459,4.459,0,0,0,.278,1.736V0ZM30.249-1.033a2.381,2.381,0,0,0,1.208-.33,1.994,1.994,0,0,0,.828-.857V-3.845H31.223q-2.49,0-2.49,1.458a1.234,1.234,0,0,0,.425,1A1.633,1.633,0,0,0,30.249-1.033Zm8.9-3a4.642,4.642,0,0,1,.864-2.933,2.733,2.733,0,0,1,2.263-1.11,2.748,2.748,0,0,1,2.2.952V-11.25h1.355V0H44.59l-.066-.85a2.759,2.759,0,0,1-2.263,1A2.707,2.707,0,0,1,40.016-.981a4.7,4.7,0,0,1-.868-2.944Zm1.355.154a3.515,3.515,0,0,0,.557,2.109A1.8,1.8,0,0,0,42.6-1,1.977,1.977,0,0,0,44.48-2.161V-5.8a1.992,1.992,0,0,0-1.868-1.121,1.808,1.808,0,0,0-1.553.769A3.87,3.87,0,0,0,40.5-3.875ZM51.226.146A3.463,3.463,0,0,1,48.6-.912a3.928,3.928,0,0,1-1.011-2.831v-.249a4.756,4.756,0,0,1,.45-2.106,3.514,3.514,0,0,1,1.26-1.45,3.167,3.167,0,0,1,1.754-.524,2.968,2.968,0,0,1,2.4,1.018,4.408,4.408,0,0,1,.857,2.915v.564H48.948a2.817,2.817,0,0,0,.685,1.893A2.153,2.153,0,0,0,51.3-.959a2.36,2.36,0,0,0,1.216-.293,3.055,3.055,0,0,0,.872-.776l.828.645A3.328,3.328,0,0,1,51.226.146Zm-.168-7.1a1.807,1.807,0,0,0-1.377.6,2.9,2.9,0,0,0-.688,1.674h3.97v-.1a2.581,2.581,0,0,0-.557-1.6A1.7,1.7,0,0,0,51.057-6.958ZM62.886.146A3.463,3.463,0,0,1,60.264-.912a3.928,3.928,0,0,1-1.011-2.831v-.249A4.756,4.756,0,0,1,59.7-6.1a3.514,3.514,0,0,1,1.26-1.45,3.167,3.167,0,0,1,1.754-.524,2.968,2.968,0,0,1,2.4,1.018,4.408,4.408,0,0,1,.857,2.915v.564H60.608a2.817,2.817,0,0,0,.685,1.893,2.153,2.153,0,0,0,1.666.721,2.36,2.36,0,0,0,1.216-.293,3.055,3.055,0,0,0,.872-.776l.828.645A3.328,3.328,0,0,1,62.886.146Zm-.168-7.1a1.807,1.807,0,0,0-1.377.6,2.9,2.9,0,0,0-.688,1.674h3.97v-.1a2.581,2.581,0,0,0-.557-1.6A1.7,1.7,0,0,0,62.717-6.958ZM72.158-2.1a1,1,0,0,0-.414-.853A3.983,3.983,0,0,0,70.3-3.479a6.822,6.822,0,0,1-1.633-.527,2.324,2.324,0,0,1-.894-.732,1.752,1.752,0,0,1-.289-1.011A2.056,2.056,0,0,1,68.309-7.4a3.218,3.218,0,0,1,2.106-.674,3.311,3.311,0,0,1,2.186.7A2.21,2.21,0,0,1,73.44-5.6H72.078a1.223,1.223,0,0,0-.472-.959,1.77,1.77,0,0,0-1.19-.4,1.852,1.852,0,0,0-1.157.322,1.014,1.014,0,0,0-.417.842.822.822,0,0,0,.388.74,4.776,4.776,0,0,0,1.4.476,7.308,7.308,0,0,1,1.644.542,2.4,2.4,0,0,1,.934.758,1.864,1.864,0,0,1,.3,1.08,2.028,2.028,0,0,1-.85,1.7,3.564,3.564,0,0,1-2.2.641A3.991,3.991,0,0,1,68.774-.19a2.74,2.74,0,0,1-1.146-.941,2.268,2.268,0,0,1-.414-1.307h1.355a1.4,1.4,0,0,0,.546,1.08,2.117,2.117,0,0,0,1.344.4,2.185,2.185,0,0,0,1.234-.311A.956.956,0,0,0,72.158-2.1Zm9.814-1.772a4.745,4.745,0,0,1-.828,2.915A2.653,2.653,0,0,1,78.9.146a2.906,2.906,0,0,1-2.271-.916V3.047H75.278V-7.925h1.238l.066.879a2.791,2.791,0,0,1,2.3-1.025,2.7,2.7,0,0,1,2.26,1.077,4.8,4.8,0,0,1,.831,3Zm-1.355-.154a3.5,3.5,0,0,0-.571-2.117,1.84,1.84,0,0,0-1.567-.776A1.992,1.992,0,0,0,76.633-5.83v3.787a2,2,0,0,0,1.86,1.084,1.832,1.832,0,0,0,1.549-.773A3.822,3.822,0,0,0,80.618-4.028ZM85.166,0H83.811V-7.925h1.355ZM83.7-10.027a.809.809,0,0,1,.2-.557.756.756,0,0,1,.6-.227.768.768,0,0,1,.6.227.8.8,0,0,1,.205.557.774.774,0,0,1-.205.549.782.782,0,0,1-.6.22.77.77,0,0,1-.6-.22A.782.782,0,0,1,83.7-10.027Zm3.311,6a4.658,4.658,0,0,1,.857-2.948,2.741,2.741,0,0,1,2.271-1.095A2.726,2.726,0,0,1,92.4-7.046l.066-.879h1.238V-.19a3.224,3.224,0,0,1-.912,2.424,3.365,3.365,0,0,1-2.45.886,4.076,4.076,0,0,1-1.677-.366,2.887,2.887,0,0,1-1.252-1l.7-.813a2.65,2.65,0,0,0,2.131,1.077,2.076,2.076,0,0,0,1.542-.557A2.128,2.128,0,0,0,92.344-.11V-.791a2.785,2.785,0,0,1-2.219.938A2.707,2.707,0,0,1,87.872-.974,4.9,4.9,0,0,1,87.012-4.028Zm1.362.154a3.553,3.553,0,0,0,.549,2.106A1.785,1.785,0,0,0,90.461-1a1.985,1.985,0,0,0,1.882-1.165V-5.786a2.008,2.008,0,0,0-1.868-1.135,1.8,1.8,0,0,0-1.545.769A3.87,3.87,0,0,0,88.374-3.875ZM100.642,0a2.846,2.846,0,0,1-.19-.835A3.023,3.023,0,0,1,98.2.146a2.8,2.8,0,0,1-1.923-.663A2.145,2.145,0,0,1,95.522-2.2a2.24,2.24,0,0,1,.941-1.923A4.437,4.437,0,0,1,99.111-4.8h1.318v-.623A1.522,1.522,0,0,0,100-6.559a1.707,1.707,0,0,0-1.252-.421,1.976,1.976,0,0,0-1.216.366,1.079,1.079,0,0,0-.491.886H95.684A1.87,1.87,0,0,1,96.1-6.874a2.874,2.874,0,0,1,1.143-.875,3.844,3.844,0,0,1,1.586-.322,3.133,3.133,0,0,1,2.146.685,2.47,2.47,0,0,1,.806,1.886v3.647a4.459,4.459,0,0,0,.278,1.736V0ZM98.394-1.033a2.381,2.381,0,0,0,1.208-.33,1.994,1.994,0,0,0,.828-.857V-3.845H99.368q-2.49,0-2.49,1.458a1.234,1.234,0,0,0,.425,1A1.633,1.633,0,0,0,98.394-1.033Z" transform="translate(-2856.393 -1977)" fill="#12263f"/><path d="M7.266-4.929H2.644V-1.15H8.013V0H1.238V-10.664h6.7v1.157h-5.3v3.428H7.266Zm6.9,2.827a1,1,0,0,0-.414-.853,3.983,3.983,0,0,0-1.443-.524,6.822,6.822,0,0,1-1.633-.527,2.324,2.324,0,0,1-.894-.732A1.752,1.752,0,0,1,9.492-5.75,2.056,2.056,0,0,1,10.316-7.4a3.218,3.218,0,0,1,2.106-.674,3.311,3.311,0,0,1,2.186.7,2.21,2.21,0,0,1,.839,1.78H14.084a1.223,1.223,0,0,0-.472-.959,1.77,1.77,0,0,0-1.19-.4,1.852,1.852,0,0,0-1.157.322,1.014,1.014,0,0,0-.417.842.822.822,0,0,0,.388.74,4.776,4.776,0,0,0,1.4.476,7.308,7.308,0,0,1,1.644.542,2.4,2.4,0,0,1,.934.758,1.864,1.864,0,0,1,.3,1.08,2.028,2.028,0,0,1-.85,1.7,3.564,3.564,0,0,1-2.2.641A3.991,3.991,0,0,1,10.781-.19a2.74,2.74,0,0,1-1.146-.941,2.268,2.268,0,0,1-.414-1.307h1.355a1.4,1.4,0,0,0,.546,1.08,2.117,2.117,0,0,0,1.344.4A2.185,2.185,0,0,0,13.7-1.271.956.956,0,0,0,14.165-2.1Zm9.814-1.772a4.745,4.745,0,0,1-.828,2.915A2.653,2.653,0,0,1,20.911.146,2.906,2.906,0,0,1,18.64-.769V3.047H17.285V-7.925h1.238l.066.879a2.791,2.791,0,0,1,2.3-1.025,2.7,2.7,0,0,1,2.26,1.077,4.8,4.8,0,0,1,.831,3Zm-1.355-.154a3.5,3.5,0,0,0-.571-2.117,1.84,1.84,0,0,0-1.567-.776A1.992,1.992,0,0,0,18.64-5.83v3.787A2,2,0,0,0,20.5-.959a1.832,1.832,0,0,0,1.549-.773A3.822,3.822,0,0,0,22.625-4.028ZM27.173,0H25.818V-7.925h1.355ZM25.708-10.027a.809.809,0,0,1,.2-.557.756.756,0,0,1,.6-.227.768.768,0,0,1,.6.227.8.8,0,0,1,.205.557.774.774,0,0,1-.205.549.782.782,0,0,1-.6.22.77.77,0,0,1-.6-.22A.782.782,0,0,1,25.708-10.027Zm7.463,3.318A4.06,4.06,0,0,0,32.5-6.76,1.786,1.786,0,0,0,30.7-5.625V0H29.341V-7.925h1.318l.022.916a2.11,2.11,0,0,1,1.89-1.062,1.384,1.384,0,0,1,.6.1ZM39.016,0a2.846,2.846,0,0,1-.19-.835A3.023,3.023,0,0,1,36.57.146a2.8,2.8,0,0,1-1.923-.663A2.145,2.145,0,0,1,33.9-2.2a2.24,2.24,0,0,1,.941-1.923A4.437,4.437,0,0,1,37.485-4.8H38.8v-.623a1.522,1.522,0,0,0-.425-1.132,1.707,1.707,0,0,0-1.252-.421,1.976,1.976,0,0,0-1.216.366,1.079,1.079,0,0,0-.491.886H34.058a1.87,1.87,0,0,1,.421-1.146,2.874,2.874,0,0,1,1.143-.875,3.844,3.844,0,0,1,1.586-.322,3.133,3.133,0,0,1,2.146.685A2.47,2.47,0,0,1,40.159-5.5v3.647a4.459,4.459,0,0,0,.278,1.736V0ZM36.768-1.033a2.381,2.381,0,0,0,1.208-.33,1.994,1.994,0,0,0,.828-.857V-3.845H37.742q-2.49,0-2.49,1.458a1.234,1.234,0,0,0,.425,1A1.633,1.633,0,0,0,36.768-1.033ZM43.755,0H42.4V-11.25h1.355Z" transform="translate(-2856.393 -1926)" fill="#12263f"/><path d="M8.606-9.507H5.178V0h-1.4V-9.507H.359v-1.157H8.606Zm.286,5.471A4.681,4.681,0,0,1,9.349-6.13a3.415,3.415,0,0,1,1.274-1.436,3.469,3.469,0,0,1,1.864-.505,3.342,3.342,0,0,1,2.618,1.121,4.311,4.311,0,0,1,1,2.981v.1A4.722,4.722,0,0,1,15.663-1.8,3.365,3.365,0,0,1,14.4-.366,3.509,3.509,0,0,1,12.5.146,3.334,3.334,0,0,1,9.891-.974a4.29,4.29,0,0,1-1-2.966Zm1.362.161a3.39,3.39,0,0,0,.612,2.117,1.957,1.957,0,0,0,1.637.8,1.945,1.945,0,0,0,1.641-.809,3.707,3.707,0,0,0,.608-2.267,3.384,3.384,0,0,0-.619-2.113,1.968,1.968,0,0,0-1.644-.809,1.946,1.946,0,0,0-1.619.8A3.68,3.68,0,0,0,10.254-3.875Zm14.246,0a4.745,4.745,0,0,1-.828,2.915A2.653,2.653,0,0,1,21.431.146,2.906,2.906,0,0,1,19.16-.769V3.047H17.805V-7.925h1.238l.066.879a2.791,2.791,0,0,1,2.3-1.025,2.7,2.7,0,0,1,2.26,1.077A4.8,4.8,0,0,1,24.5-4Zm-1.355-.154a3.5,3.5,0,0,0-.571-2.117,1.84,1.84,0,0,0-1.567-.776A1.992,1.992,0,0,0,19.16-5.83v3.787a2,2,0,0,0,1.86,1.084,1.832,1.832,0,0,0,1.549-.773A3.822,3.822,0,0,0,23.145-4.028ZM29.509.146A3.463,3.463,0,0,1,26.887-.912a3.928,3.928,0,0,1-1.011-2.831v-.249a4.756,4.756,0,0,1,.45-2.106,3.514,3.514,0,0,1,1.26-1.45,3.167,3.167,0,0,1,1.754-.524,2.968,2.968,0,0,1,2.4,1.018A4.408,4.408,0,0,1,32.6-4.138v.564H27.231a2.817,2.817,0,0,0,.685,1.893,2.153,2.153,0,0,0,1.666.721A2.36,2.36,0,0,0,30.8-1.252a3.055,3.055,0,0,0,.872-.776l.828.645A3.328,3.328,0,0,1,29.509.146Zm-.168-7.1a1.807,1.807,0,0,0-1.377.6,2.9,2.9,0,0,0-.688,1.674h3.97v-.1a2.581,2.581,0,0,0-.557-1.6A1.7,1.7,0,0,0,29.341-6.958ZM39.353,0H38V-7.925h1.355ZM37.888-10.027a.809.809,0,0,1,.2-.557.756.756,0,0,1,.6-.227.768.768,0,0,1,.6.227.8.8,0,0,1,.205.557.774.774,0,0,1-.205.549.782.782,0,0,1-.6.22.77.77,0,0,1-.6-.22A.782.782,0,0,1,37.888-10.027Zm4.915,2.1.044,1A2.888,2.888,0,0,1,45.22-8.071q2.512,0,2.534,2.834V0H46.4V-5.244a1.824,1.824,0,0,0-.392-1.267,1.57,1.57,0,0,0-1.2-.41,1.956,1.956,0,0,0-1.157.352,2.387,2.387,0,0,0-.776.923V0H41.521V-7.925ZM50.464,0V-6.877H49.211V-7.925h1.252v-.813a2.7,2.7,0,0,1,.681-1.97,2.573,2.573,0,0,1,1.926-.7,3.556,3.556,0,0,1,.93.125l-.073,1.1a3.892,3.892,0,0,0-.732-.066,1.324,1.324,0,0,0-1.018.385,1.556,1.556,0,0,0-.359,1.1v.835h1.692v1.047H51.819V0Zm7.83.146A3.463,3.463,0,0,1,55.671-.912a3.928,3.928,0,0,1-1.011-2.831v-.249a4.756,4.756,0,0,1,.45-2.106,3.514,3.514,0,0,1,1.26-1.45,3.167,3.167,0,0,1,1.754-.524,2.968,2.968,0,0,1,2.4,1.018,4.408,4.408,0,0,1,.857,2.915v.564H56.016A2.817,2.817,0,0,0,56.7-1.681a2.153,2.153,0,0,0,1.666.721,2.36,2.36,0,0,0,1.216-.293,3.055,3.055,0,0,0,.872-.776l.828.645A3.328,3.328,0,0,1,58.293.146Zm-.168-7.1a1.807,1.807,0,0,0-1.377.6,2.9,2.9,0,0,0-.688,1.674h3.97v-.1a2.581,2.581,0,0,0-.557-1.6A1.7,1.7,0,0,0,58.125-6.958Zm8.657.249a4.06,4.06,0,0,0-.667-.051,1.786,1.786,0,0,0-1.809,1.135V0H62.952V-7.925H64.27l.022.916a2.11,2.11,0,0,1,1.89-1.062,1.384,1.384,0,0,1,.6.1ZM69.5,0H68.145V-7.925H69.5ZM68.035-10.027a.809.809,0,0,1,.2-.557.756.756,0,0,1,.6-.227.768.768,0,0,1,.6.227.8.8,0,0,1,.205.557.774.774,0,0,1-.205.549.782.782,0,0,1-.6.22.77.77,0,0,1-.6-.22A.782.782,0,0,1,68.035-10.027Zm3.274,5.991a4.681,4.681,0,0,1,.458-2.095,3.415,3.415,0,0,1,1.274-1.436A3.469,3.469,0,0,1,74.9-8.071a3.342,3.342,0,0,1,2.618,1.121,4.311,4.311,0,0,1,1,2.981v.1A4.722,4.722,0,0,1,78.08-1.8,3.365,3.365,0,0,1,76.813-.366a3.509,3.509,0,0,1-1.893.513A3.334,3.334,0,0,1,72.308-.974a4.29,4.29,0,0,1-1-2.966Zm1.362.161a3.39,3.39,0,0,0,.612,2.117,1.957,1.957,0,0,0,1.637.8,1.945,1.945,0,0,0,1.641-.809,3.707,3.707,0,0,0,.608-2.267,3.384,3.384,0,0,0-.619-2.113A1.968,1.968,0,0,0,74.9-6.958a1.946,1.946,0,0,0-1.619.8A3.68,3.68,0,0,0,72.671-3.875ZM84.053-6.709a4.06,4.06,0,0,0-.667-.051,1.786,1.786,0,0,0-1.809,1.135V0H80.222V-7.925h1.318l.022.916a2.11,2.11,0,0,1,1.89-1.062,1.384,1.384,0,0,1,.6.1Z" transform="translate(-2856.393 -1900)" fill="#12263f"/><path d="M2.651-1.15H7.705V0H1.238V-10.664H2.651ZM10.6,0H9.237V-7.925H10.6Zm.015-11.243h1.641L10.291-9.089H9.2Zm3.531,3.318.044,1a2.888,2.888,0,0,1,2.373-1.143q2.512,0,2.534,2.834V0H17.741V-5.244a1.824,1.824,0,0,0-.392-1.267,1.57,1.57,0,0,0-1.2-.41,1.956,1.956,0,0,0-1.157.352,2.387,2.387,0,0,0-.776.923V0H12.863V-7.925ZM24.458.146A3.463,3.463,0,0,1,21.836-.912a3.928,3.928,0,0,1-1.011-2.831v-.249a4.756,4.756,0,0,1,.45-2.106,3.514,3.514,0,0,1,1.26-1.45,3.167,3.167,0,0,1,1.754-.524,2.968,2.968,0,0,1,2.4,1.018,4.408,4.408,0,0,1,.857,2.915v.564H22.18a2.817,2.817,0,0,0,.685,1.893,2.153,2.153,0,0,0,1.666.721,2.36,2.36,0,0,0,1.216-.293,3.055,3.055,0,0,0,.872-.776l.828.645A3.328,3.328,0,0,1,24.458.146Zm-.168-7.1a1.807,1.807,0,0,0-1.377.6,2.9,2.9,0,0,0-.688,1.674h3.97v-.1a2.581,2.581,0,0,0-.557-1.6A1.7,1.7,0,0,0,24.289-6.958ZM34.038,0a2.846,2.846,0,0,1-.19-.835,3.023,3.023,0,0,1-2.256.981A2.8,2.8,0,0,1,29.67-.516,2.145,2.145,0,0,1,28.919-2.2,2.24,2.24,0,0,1,29.86-4.12,4.437,4.437,0,0,1,32.508-4.8h1.318v-.623A1.522,1.522,0,0,0,33.4-6.559a1.707,1.707,0,0,0-1.252-.421,1.976,1.976,0,0,0-1.216.366,1.079,1.079,0,0,0-.491.886H29.08A1.87,1.87,0,0,1,29.5-6.874a2.874,2.874,0,0,1,1.143-.875,3.844,3.844,0,0,1,1.586-.322,3.133,3.133,0,0,1,2.146.685A2.47,2.47,0,0,1,35.181-5.5v3.647a4.459,4.459,0,0,0,.278,1.736V0ZM31.79-1.033A2.381,2.381,0,0,0,33-1.362a1.994,1.994,0,0,0,.828-.857V-3.845H32.764q-2.49,0-2.49,1.458a1.234,1.234,0,0,0,.425,1A1.633,1.633,0,0,0,31.79-1.033Zm8.966-3a4.658,4.658,0,0,1,.857-2.948,2.741,2.741,0,0,1,2.271-1.095,2.726,2.726,0,0,1,2.263,1.025l.066-.879h1.238V-.19a3.224,3.224,0,0,1-.912,2.424,3.365,3.365,0,0,1-2.45.886,4.076,4.076,0,0,1-1.677-.366,2.887,2.887,0,0,1-1.252-1l.7-.813a2.65,2.65,0,0,0,2.131,1.077,2.076,2.076,0,0,0,1.542-.557A2.128,2.128,0,0,0,46.088-.11V-.791a2.785,2.785,0,0,1-2.219.938A2.707,2.707,0,0,1,41.617-.974,4.9,4.9,0,0,1,40.756-4.028Zm1.362.154a3.553,3.553,0,0,0,.549,2.106A1.785,1.785,0,0,0,44.206-1a1.985,1.985,0,0,0,1.882-1.165V-5.786a2.008,2.008,0,0,0-1.868-1.135,1.8,1.8,0,0,0-1.545.769A3.87,3.87,0,0,0,42.118-3.875Zm12.3,3.091a2.878,2.878,0,0,1-2.322.93,2.464,2.464,0,0,1-1.93-.736,3.186,3.186,0,0,1-.67-2.179V-7.925H50.85v5.12q0,1.8,1.465,1.8A2.028,2.028,0,0,0,54.38-2.161V-7.925h1.355V0H54.446ZM59.3,0H57.933V-7.925H59.3Zm.015-11.243H60.95L58.988-9.089H57.9ZM66.452,0a2.846,2.846,0,0,1-.19-.835,3.023,3.023,0,0,1-2.256.981,2.8,2.8,0,0,1-1.923-.663A2.145,2.145,0,0,1,61.332-2.2a2.24,2.24,0,0,1,.941-1.923A4.437,4.437,0,0,1,64.921-4.8h1.318v-.623a1.522,1.522,0,0,0-.425-1.132,1.707,1.707,0,0,0-1.252-.421,1.976,1.976,0,0,0-1.216.366,1.079,1.079,0,0,0-.491.886H61.493a1.87,1.87,0,0,1,.421-1.146,2.874,2.874,0,0,1,1.143-.875,3.844,3.844,0,0,1,1.586-.322,3.133,3.133,0,0,1,2.146.685A2.47,2.47,0,0,1,67.594-5.5v3.647a4.459,4.459,0,0,0,.278,1.736V0ZM64.2-1.033a2.381,2.381,0,0,0,1.208-.33,1.994,1.994,0,0,0,.828-.857V-3.845H65.177q-2.49,0-2.49,1.458a1.234,1.234,0,0,0,.425,1A1.633,1.633,0,0,0,64.2-1.033Zm8.959-3a4.642,4.642,0,0,1,.864-2.933,2.733,2.733,0,0,1,2.263-1.11,2.748,2.748,0,0,1,2.2.952V-11.25h1.355V0H78.6l-.066-.85a2.759,2.759,0,0,1-2.263,1A2.707,2.707,0,0,1,74.03-.981a4.7,4.7,0,0,1-.868-2.944Zm1.355.154a3.515,3.515,0,0,0,.557,2.109A1.8,1.8,0,0,0,76.612-1a1.977,1.977,0,0,0,1.882-1.157V-5.8a1.992,1.992,0,0,0-1.868-1.121,1.808,1.808,0,0,0-1.553.769A3.87,3.87,0,0,0,74.517-3.875ZM85.27.146A3.463,3.463,0,0,1,82.648-.912a3.928,3.928,0,0,1-1.011-2.831v-.249a4.756,4.756,0,0,1,.45-2.106,3.514,3.514,0,0,1,1.26-1.45A3.167,3.167,0,0,1,85.1-8.071a2.968,2.968,0,0,1,2.4,1.018,4.408,4.408,0,0,1,.857,2.915v.564H82.992a2.817,2.817,0,0,0,.685,1.893,2.153,2.153,0,0,0,1.666.721,2.36,2.36,0,0,0,1.216-.293,3.055,3.055,0,0,0,.872-.776l.828.645A3.328,3.328,0,0,1,85.27.146Zm-.168-7.1a1.807,1.807,0,0,0-1.377.6,2.9,2.9,0,0,0-.688,1.674h3.97v-.1a2.581,2.581,0,0,0-.557-1.6A1.7,1.7,0,0,0,85.1-6.958Zm11.779,6A1.952,1.952,0,0,0,98.147-1.4a1.546,1.546,0,0,0,.6-1.1h1.282a2.457,2.457,0,0,1-.469,1.3,3.087,3.087,0,0,1-1.154.981A3.329,3.329,0,0,1,96.88.146a3.265,3.265,0,0,1-2.574-1.08,4.3,4.3,0,0,1-.956-2.955v-.227a4.771,4.771,0,0,1,.425-2.058,3.236,3.236,0,0,1,1.219-1.4,3.464,3.464,0,0,1,1.879-.5,3.178,3.178,0,0,1,2.216.8,2.853,2.853,0,0,1,.941,2.073H98.748a1.867,1.867,0,0,0-.582-1.263,1.811,1.811,0,0,0-1.293-.494,1.9,1.9,0,0,0-1.6.743,3.491,3.491,0,0,0-.568,2.15v.256A3.422,3.422,0,0,0,95.269-1.7,1.906,1.906,0,0,0,96.88-.959Zm4.344-3.076a4.681,4.681,0,0,1,.458-2.095,3.415,3.415,0,0,1,1.274-1.436,3.469,3.469,0,0,1,1.864-.505,3.342,3.342,0,0,1,2.618,1.121,4.311,4.311,0,0,1,1,2.981v.1A4.722,4.722,0,0,1,108-1.8a3.365,3.365,0,0,1-1.267,1.432,3.509,3.509,0,0,1-1.893.513,3.334,3.334,0,0,1-2.611-1.121,4.29,4.29,0,0,1-1-2.966Zm1.362.161a3.39,3.39,0,0,0,.612,2.117,1.957,1.957,0,0,0,1.637.8,1.945,1.945,0,0,0,1.641-.809,3.707,3.707,0,0,0,.608-2.267,3.384,3.384,0,0,0-.619-2.113,1.968,1.968,0,0,0-1.644-.809,1.946,1.946,0,0,0-1.619.8A3.68,3.68,0,0,0,102.586-3.875Zm12.2,1.772a1,1,0,0,0-.414-.853,3.983,3.983,0,0,0-1.443-.524,6.822,6.822,0,0,1-1.633-.527,2.324,2.324,0,0,1-.894-.732,1.752,1.752,0,0,1-.289-1.011,2.056,2.056,0,0,1,.824-1.648,3.218,3.218,0,0,1,2.106-.674,3.311,3.311,0,0,1,2.186.7,2.21,2.21,0,0,1,.839,1.78H114.7a1.223,1.223,0,0,0-.472-.959,1.77,1.77,0,0,0-1.19-.4,1.852,1.852,0,0,0-1.157.322,1.014,1.014,0,0,0-.417.842.822.822,0,0,0,.388.74,4.776,4.776,0,0,0,1.4.476,7.308,7.308,0,0,1,1.644.542,2.4,2.4,0,0,1,.934.758,1.864,1.864,0,0,1,.3,1.08,2.028,2.028,0,0,1-.85,1.7,3.564,3.564,0,0,1-2.2.641A3.991,3.991,0,0,1,111.4-.19a2.74,2.74,0,0,1-1.146-.941,2.268,2.268,0,0,1-.414-1.307h1.355a1.4,1.4,0,0,0,.546,1.08,2.117,2.117,0,0,0,1.344.4,2.185,2.185,0,0,0,1.234-.311A.956.956,0,0,0,114.782-2.1Zm4.988-7.742v1.919h1.479v1.047H119.77v4.915a1.1,1.1,0,0,0,.2.714.833.833,0,0,0,.674.238,3.281,3.281,0,0,0,.645-.088V0a3.928,3.928,0,0,1-1.04.146,1.687,1.687,0,0,1-1.37-.549,2.36,2.36,0,0,1-.461-1.56V-6.877h-1.443V-7.925h1.443V-9.844Zm7.984,9.06a2.878,2.878,0,0,1-2.322.93A2.464,2.464,0,0,1,123.5-.59a3.186,3.186,0,0,1-.67-2.179V-7.925h1.355v5.12q0,1.8,1.465,1.8a2.028,2.028,0,0,0,2.065-1.157V-7.925h1.355V0h-1.289Zm7.237-5.925a4.06,4.06,0,0,0-.667-.051,1.786,1.786,0,0,0-1.809,1.135V0h-1.355V-7.925h1.318l.022.916a2.11,2.11,0,0,1,1.89-1.062,1.384,1.384,0,0,1,.6.1ZM140.866,0a2.846,2.846,0,0,1-.19-.835,3.023,3.023,0,0,1-2.256.981A2.8,2.8,0,0,1,136.5-.516a2.145,2.145,0,0,1-.751-1.681,2.24,2.24,0,0,1,.941-1.923,4.437,4.437,0,0,1,2.648-.685h1.318v-.623a1.522,1.522,0,0,0-.425-1.132,1.707,1.707,0,0,0-1.252-.421,1.976,1.976,0,0,0-1.216.366,1.079,1.079,0,0,0-.491.886h-1.362a1.87,1.87,0,0,1,.421-1.146,2.874,2.874,0,0,1,1.143-.875,3.844,3.844,0,0,1,1.586-.322,3.133,3.133,0,0,1,2.146.685,2.47,2.47,0,0,1,.806,1.886v3.647a4.459,4.459,0,0,0,.278,1.736V0Zm-2.249-1.033a2.381,2.381,0,0,0,1.208-.33,1.994,1.994,0,0,0,.828-.857V-3.845h-1.062q-2.49,0-2.49,1.458a1.234,1.234,0,0,0,.425,1A1.633,1.633,0,0,0,138.618-1.033Z" transform="translate(-2856.393 -1870)" fill="#12263f"/></g></svg>