<svg xmlns="http://www.w3.org/2000/svg" width="195.399" height="198.753" viewBox="0 0 195.399 198.753"><g transform="translate(0 138.844)"><path d="M2113.751-66.184a45.638,45.638,0,0,0-12.921-7.036c-7.723-2.509-15.962-2.585-24-2.347-11.335.335-22.676,1.954-33.875,3.628-21.487,3.21-43.025,6.038-64.766,6.7-12.029.368-24.3.269-36.166-1.962-9.634-1.813-23.944-6.3-22.907-18.672.891-10.616,11.8-18.6,20-23.849a108.755,108.755,0,0,1,31.245-13.959c1.893-.483,5.839-1.915,7.743-1.012,2.075.985,1.061,3.446-.76,3.872-2.4.562-4.894.71-7.306,1.348a89.591,89.591,0,0,0-8.739,2.845c-10.417,3.939-20.829,9.249-29.311,16.549-4.1,3.525-8.531,8.095-9.478,13.641-.944,5.526,2.592,9.624,7.165,12.094,10.2,5.51,23.244,6.084,34.58,6.472,24.376.835,48.915-1.715,73.02-5.13,10.95-1.551,21.946-3.1,33-3.732,13.5-.77,28.082-.948,39.824,6.684.961.625,1.9,1.273,2.819,1.959.358.267,1.2.673,1.39,1.045C2114.551-66.557,2114.609-65.805,2113.751-66.184Z" transform="translate(-1919.064 124.982)" fill="#d36467"/><g transform="translate(2.225 0.32)"><path d="M2114.363-65.941a2.7,2.7,0,0,0-.91-.736c.033.345-.128.605-.708.35a45.609,45.609,0,0,0-12.92-7.036c-7.724-2.509-15.963-2.585-24-2.347-11.335.335-22.676,1.954-33.876,3.628-21.486,3.21-43.024,6.038-64.766,6.7-12.029.367-24.3.269-36.165-1.963-6.294-1.183-14.583-3.509-19.286-8.429,4.416,5.781,13.549,8.394,20.351,9.674,11.865,2.231,24.138,2.33,36.166,1.962,21.74-.665,43.279-3.493,64.766-6.7,11.2-1.674,22.539-3.293,33.875-3.628,8.036-.238,16.275-.161,24,2.347a45.64,45.64,0,0,1,12.921,7.036C2114.668-64.7,2114.611-65.457,2114.363-65.941Z" transform="translate(-1921.349 123.562)" fill="#b84c51"/><path d="M1976.328-122.054c-2.4.561-4.893.71-7.306,1.348a89.648,89.648,0,0,0-8.738,2.844c-10.417,3.94-20.83,9.25-29.312,16.55-4.095,3.525-8.53,8.095-9.478,13.64a10.065,10.065,0,0,0,2.982,9,9.787,9.787,0,0,1-1.915-7.76c.947-5.545,5.382-10.115,9.478-13.64,8.482-7.3,18.895-12.61,29.311-16.549a89.591,89.591,0,0,1,8.739-2.845c2.412-.638,4.9-.786,7.306-1.348,1.806-.422,2.815-2.844.807-3.845A2.374,2.374,0,0,1,1976.328-122.054Z" transform="translate(-1921.34 124.655)" fill="#b84c51"/></g></g><path d="M1968.206-99.622s-1.121,1.155-2.628,2.65c-1.488,1.472-3.357,3.271-4.9,4.608-1.426,1.233-2.573,2.073-2.891,1.892a.05.05,0,0,1-.033-.019c-.818-.818-4.542-6.311-4.3-11.222.285-5.667,2.458-8.173,2.458-8.173l12.011,10.03Z" transform="translate(-1919.833 263.489)" fill="#e1b66a"/><path d="M2064.562-109.273s1.637,2.33,1.764,9.162c.091,4.917-3.621,8.123-4.439,8.941s-9.477-8.438-9.477-8.438Z" transform="translate(-1922.048 263.475)" fill="#e1b66a"/><path d="M1968.225-234.971s-3.275,3.383-6.166,6.041c-1.925,1.766-3.676,3.209-4.19,3.131a.124.124,0,0,1-.1-.041,14.162,14.162,0,0,1-3.461-9.635,17.479,17.479,0,0,1,2.154-7.058,18.726,18.726,0,0,1,1.377-2.217l10.126,9.539Z" transform="translate(-1919.853 275.101)" fill="#e1b66a"/><path d="M2062.694-244.75s3.283,4.365,3.535,9.277a14.163,14.163,0,0,1-3.463,9.635c-.819.818-10.453-9.131-10.453-9.131Z" transform="translate(-1922.045 275.101)" fill="#e1b66a"/><path d="M2061.17-94.266c0,6.174-19.7,14.816-45.453,16.09q-3.159.155-6.433.159c-25.739,0-47.122-6.237-51.415-12.326a3.8,3.8,0,0,1-.789-2.18c0-2.787,4.079-5.267,10.927-7.2,1.706-.485,3.583-.933,5.611-1.347,9.332-1.9,21.875-3.017,35.667-3.017C2038.114-104.09,2061.17-100.943,2061.17-94.266Z" transform="translate(-1919.915 263.359)" fill="#e1b66a"/><path d="M2062.4-109.691a7.33,7.33,0,0,1-2.65,4.716c-7.014,6.607-27.1,12.159-50.494,12.159-28.834,0-53.289-7.932-53.289-17.474,2.628-5.974,17.9-12.722,35.215-15.868a107.37,107.37,0,0,1,18.954-1.795C2033.059-127.953,2058.88-118.318,2062.4-109.691Z" transform="translate(-1919.89 263.893)" fill="#f6d89d"/><path d="M2015.636-78.306q-3.159.155-6.433.159c-25.739,0-47.122-6.237-51.415-12.326a.05.05,0,0,1-.033-.019c-.818-.818-4.542-6.311-4.3-11.222.285-5.667,2.458-8.173,2.458-8.173l28.812,15.853c-8.476-1.255-14.98-2.636-19.148-2.939-2.909-.211-4.682.1-5.193,1.339a4.028,4.028,0,0,0,.293,3.268c1.447,3.058,6.074,6.83,15.52,9.346C1985.529-80.531,2004.872-79,2015.636-78.306Z" transform="translate(-1919.833 263.489)" fill="#cda157" opacity="0.45"/><path d="M2059.754-104.934c-7.014,6.607-27.1,12.159-50.494,12.159-28.834,0-53.289-7.932-53.289-17.474,2.628-5.974,17.9-12.722,35.215-15.868l42.895,15.242c-16.963,4.575-31.354,4.575-50.1.133-16.026-3.8-25.5,4.619-.444,12.259C2006.076-91.609,2039.307-90.669,2059.754-104.934Z" transform="translate(-1919.89 263.852)" fill="#e7c78b"/><path d="M2044.426-220.042v.81l0,2.3v.807l0,5.056,0,3.741,0,7.188v.966l0,4.738,0,3.831,0,3.786v2.676l0,5.778,0,2.814v.044l0,4.4v3.139l0,4.445,0,3.264,0,4.453v2.065l0,3.68v.947l0,4v1.861l0,4.441v.8l0,4.449,0,3.564-.008,8.635v1.577a3.607,3.607,0,0,1-.417.881c-.671,1.1-2.347,3.061-6.37,4.789a29.363,29.363,0,0,1-3.077,1.125c-4.389,1.347-10.708,2.358-19.783,2.358-12.61,0-21.357-1.314-27.4-3.021-5.467-1.543-8.72-3.412-10.619-4.926a13.9,13.9,0,0,1-1.055-.925,6.552,6.552,0,0,1-1.459-1.881l.012-2.528.011-2.383,0-.684.023-4.53.017-3.813.019-3.731.041-8.584.019-4.2.022-4.441.019-3.646.021-4.449.015-3.024.022-4.446.022-4.582v-.048l.022-4.445V-181l0-1,.012-1.8.01-2.317.019-4.153.011-2.106.011-2.135.007-1.433,0-.906.015-3.531,0-.085,0-1.073.015-3.394.048-9.45.012-2.2.015-3.457,0-.663,6.693.064h.015Z" transform="translate(-1920.297 269.804)" fill="#b83f43"/><g transform="translate(51.632 50.841)"><path d="M2008.169-207.146h0a160.9,160.9,0,0,1-22.222-1.408c-9.8-1.43-12.112-3.343-13-4.658a1.987,1.987,0,0,1,.536-2.758,1.986,1.986,0,0,1,2.757.536h0c.012.018,1.292,1.706,10.914,3.04a161.519,161.519,0,0,0,22.536,1.27c20.012-.159,31.162-3.25,33.053-6.052a1.987,1.987,0,0,1,2.758-.536,1.986,1.986,0,0,1,.536,2.757C2041.277-207.907,2017.973-207.146,2008.169-207.146Z" transform="translate(-1971.894 218.763)" fill="#d36467"/><path d="M2047.017-216.6a2.673,2.673,0,0,0-1.138-1.72,2.676,2.676,0,0,0-2.021-.413,2.679,2.679,0,0,0-1.721,1.139c-1.495,2.215-11.377,5.572-32.472,5.741a160.981,160.981,0,0,1-22.433-1.264c-8.563-1.187-10.283-2.615-10.455-2.779a2.7,2.7,0,0,0-3.711-.68,2.677,2.677,0,0,0-1.139,1.72,2.68,2.68,0,0,0,.412,2.022c1.043,1.548,3.52,3.51,13.485,4.964a161.619,161.619,0,0,0,22.325,1.416h0c12.314,0,33.684-1.056,38.453-8.123A2.679,2.679,0,0,0,2047.017-216.6Zm-1.588,1.228c-4.695,6.957-29.719,7.5-37.277,7.5h0a160.033,160.033,0,0,1-22.12-1.4c-10.623-1.551-12.046-3.66-12.514-4.353a1.278,1.278,0,0,1,.344-1.772,1.265,1.265,0,0,1,.712-.218,1.275,1.275,0,0,1,1.061.562l.008.011c.229.326,1.854,2.012,11.4,3.335a162.583,162.583,0,0,0,22.638,1.277c20.379-.163,31.577-3.314,33.637-6.366a1.266,1.266,0,0,1,.815-.539,1.262,1.262,0,0,1,.957.195,1.265,1.265,0,0,1,.539.815A1.266,1.266,0,0,1,2045.43-215.369Z" transform="translate(-1971.878 218.779)" fill="#c54b4f"/><g transform="translate(0 6.946)"><path d="M2008.169-200.041h0a160.9,160.9,0,0,1-22.222-1.408c-9.8-1.43-12.112-3.343-13-4.658a1.987,1.987,0,0,1,.536-2.758,1.986,1.986,0,0,1,2.757.536h0c.012.018,1.292,1.706,10.914,3.04a161.665,161.665,0,0,0,22.536,1.271c20.012-.16,31.162-3.251,33.053-6.053a1.987,1.987,0,0,1,2.758-.536,1.986,1.986,0,0,1,.536,2.757C2041.277-200.8,2017.973-200.041,2008.169-200.041Z" transform="translate(-1971.894 211.658)" fill="#d36467"/><path d="M2047.017-209.492a2.673,2.673,0,0,0-1.138-1.72,2.676,2.676,0,0,0-2.021-.413,2.679,2.679,0,0,0-1.721,1.139c-1.495,2.215-11.377,5.572-32.472,5.741a160.988,160.988,0,0,1-22.433-1.264c-8.563-1.187-10.283-2.615-10.455-2.779a2.7,2.7,0,0,0-3.711-.68,2.678,2.678,0,0,0-1.139,1.72,2.68,2.68,0,0,0,.412,2.022c1.043,1.548,3.52,3.51,13.485,4.964a161.619,161.619,0,0,0,22.325,1.416h0c12.314,0,33.684-1.056,38.453-8.123A2.679,2.679,0,0,0,2047.017-209.492Zm-1.588,1.228c-4.695,6.957-29.719,7.5-37.277,7.5h0a160.031,160.031,0,0,1-22.12-1.4c-10.623-1.551-12.046-3.66-12.514-4.353a1.278,1.278,0,0,1,.344-1.772,1.265,1.265,0,0,1,.712-.218,1.275,1.275,0,0,1,1.061.562l.008.011c.229.326,1.854,2.012,11.4,3.335a162.585,162.585,0,0,0,22.638,1.277c20.379-.163,31.577-3.314,33.637-6.366a1.265,1.265,0,0,1,.815-.539,1.262,1.262,0,0,1,.957.195,1.265,1.265,0,0,1,.539.815A1.266,1.266,0,0,1,2045.43-208.264Z" transform="translate(-1971.878 211.674)" fill="#c54b4f"/></g><g transform="translate(0 13.892)"><path d="M2008.169-192.936h0a160.9,160.9,0,0,1-22.222-1.408c-9.8-1.43-12.112-3.343-13-4.658a1.987,1.987,0,0,1,.536-2.758,1.986,1.986,0,0,1,2.757.536h0c.012.018,1.292,1.707,10.914,3.04a161.526,161.526,0,0,0,22.536,1.27c20.012-.159,31.162-3.25,33.053-6.052a1.987,1.987,0,0,1,2.758-.536,1.986,1.986,0,0,1,.536,2.757C2041.277-193.7,2017.973-192.936,2008.169-192.936Z" transform="translate(-1971.894 204.553)" fill="#d36467"/><path d="M2047.017-202.387a2.673,2.673,0,0,0-1.138-1.72,2.676,2.676,0,0,0-2.021-.413,2.679,2.679,0,0,0-1.721,1.139c-1.495,2.215-11.377,5.572-32.472,5.741a160.984,160.984,0,0,1-22.433-1.264c-8.563-1.187-10.283-2.615-10.455-2.779a2.7,2.7,0,0,0-3.711-.68,2.678,2.678,0,0,0-1.139,1.72,2.68,2.68,0,0,0,.412,2.022c1.043,1.548,3.52,3.51,13.485,4.964a161.617,161.617,0,0,0,22.325,1.416h0c12.314,0,33.684-1.056,38.453-8.123A2.679,2.679,0,0,0,2047.017-202.387Zm-1.588,1.228c-4.695,6.957-29.719,7.5-37.277,7.5h0a160.038,160.038,0,0,1-22.12-1.4c-10.623-1.551-12.046-3.66-12.514-4.353a1.278,1.278,0,0,1,.344-1.772,1.265,1.265,0,0,1,.712-.218,1.275,1.275,0,0,1,1.061.562l.008.011c.229.326,1.854,2.012,11.4,3.335a162.585,162.585,0,0,0,22.638,1.277c20.379-.163,31.577-3.314,33.637-6.366a1.266,1.266,0,0,1,.815-.539,1.262,1.262,0,0,1,.957.195,1.265,1.265,0,0,1,.539.815A1.266,1.266,0,0,1,2045.43-201.159Z" transform="translate(-1971.878 204.569)" fill="#c54b4f"/></g><g transform="translate(0 20.838)"><path d="M2008.169-185.831h0a160.9,160.9,0,0,1-22.222-1.408c-9.8-1.43-12.112-3.343-13-4.658a1.987,1.987,0,0,1,.536-2.758,1.986,1.986,0,0,1,2.757.536h0c.012.018,1.292,1.706,10.914,3.04a161.663,161.663,0,0,0,22.536,1.271c20.012-.16,31.162-3.251,33.053-6.053a1.987,1.987,0,0,1,2.758-.536,1.986,1.986,0,0,1,.536,2.757C2041.277-186.592,2017.973-185.831,2008.169-185.831Z" transform="translate(-1971.894 197.448)" fill="#d36467"/><path d="M2047.017-195.282a2.673,2.673,0,0,0-1.138-1.72,2.676,2.676,0,0,0-2.021-.413,2.679,2.679,0,0,0-1.721,1.139c-1.495,2.215-11.377,5.572-32.472,5.741a160.984,160.984,0,0,1-22.433-1.264c-8.563-1.187-10.283-2.615-10.455-2.779a2.7,2.7,0,0,0-3.711-.68,2.677,2.677,0,0,0-1.139,1.72,2.68,2.68,0,0,0,.412,2.022c1.043,1.548,3.52,3.51,13.485,4.964a161.467,161.467,0,0,0,22.325,1.416h0c12.314,0,33.684-1.056,38.453-8.123A2.679,2.679,0,0,0,2047.017-195.282Zm-1.588,1.228c-4.695,6.957-29.719,7.5-37.277,7.5h0a160.033,160.033,0,0,1-22.12-1.4c-10.623-1.55-12.046-3.66-12.514-4.353a1.278,1.278,0,0,1,.344-1.772,1.265,1.265,0,0,1,.712-.218,1.275,1.275,0,0,1,1.061.562l.008.011c.229.326,1.854,2.012,11.4,3.335a162.585,162.585,0,0,0,22.638,1.277c20.379-.163,31.577-3.314,33.637-6.366a1.266,1.266,0,0,1,.815-.539,1.262,1.262,0,0,1,.957.195,1.265,1.265,0,0,1,.539.815A1.266,1.266,0,0,1,2045.43-194.054Z" transform="translate(-1971.878 197.464)" fill="#c54b4f"/></g><g transform="translate(0 27.784)"><path d="M2008.169-178.726h0a160.9,160.9,0,0,1-22.222-1.408c-9.8-1.43-12.112-3.343-13-4.658a1.987,1.987,0,0,1,.536-2.758,1.986,1.986,0,0,1,2.757.536h0c.012.018,1.292,1.707,10.914,3.04a161.667,161.667,0,0,0,22.536,1.271c20.012-.16,31.162-3.251,33.053-6.053a1.987,1.987,0,0,1,2.758-.536,1.986,1.986,0,0,1,.536,2.757C2041.277-179.487,2017.973-178.726,2008.169-178.726Z" transform="translate(-1971.894 190.343)" fill="#d36467"/><path d="M2047.017-188.177a2.673,2.673,0,0,0-1.138-1.72,2.676,2.676,0,0,0-2.021-.413,2.679,2.679,0,0,0-1.721,1.139c-1.495,2.215-11.377,5.572-32.472,5.741a160.986,160.986,0,0,1-22.433-1.264c-8.563-1.187-10.283-2.615-10.455-2.779a2.7,2.7,0,0,0-3.711-.68,2.677,2.677,0,0,0-1.139,1.72,2.68,2.68,0,0,0,.412,2.022c1.043,1.548,3.52,3.51,13.485,4.964a161.467,161.467,0,0,0,22.325,1.416h0c12.314,0,33.684-1.056,38.453-8.123A2.679,2.679,0,0,0,2047.017-188.177Zm-1.588,1.228c-4.695,6.958-29.719,7.5-37.277,7.5h0a160.033,160.033,0,0,1-22.12-1.4c-10.623-1.551-12.046-3.66-12.514-4.353a1.278,1.278,0,0,1,.344-1.772,1.265,1.265,0,0,1,.712-.218,1.275,1.275,0,0,1,1.061.562l.008.011c.229.326,1.854,2.012,11.4,3.335a162.583,162.583,0,0,0,22.638,1.277c20.379-.163,31.577-3.314,33.637-6.366a1.265,1.265,0,0,1,.815-.539,1.262,1.262,0,0,1,.957.195,1.265,1.265,0,0,1,.539.815A1.266,1.266,0,0,1,2045.43-186.949Z" transform="translate(-1971.878 190.359)" fill="#c54b4f"/></g><g transform="translate(0 34.73)"><path d="M2008.169-171.621h0a160.9,160.9,0,0,1-22.222-1.408c-9.8-1.43-12.112-3.343-13-4.658a1.987,1.987,0,0,1,.536-2.758,1.986,1.986,0,0,1,2.757.536h0c.012.018,1.292,1.707,10.914,3.04a161.663,161.663,0,0,0,22.536,1.271c20.012-.16,31.162-3.251,33.053-6.053a1.987,1.987,0,0,1,2.758-.536,1.986,1.986,0,0,1,.536,2.757C2041.277-172.382,2017.973-171.621,2008.169-171.621Z" transform="translate(-1971.894 183.238)" fill="#d36467"/><path d="M2047.017-181.072a2.673,2.673,0,0,0-1.138-1.72,2.676,2.676,0,0,0-2.021-.413,2.679,2.679,0,0,0-1.721,1.139c-1.495,2.215-11.377,5.572-32.472,5.741a160.988,160.988,0,0,1-22.433-1.264c-8.563-1.187-10.283-2.615-10.455-2.779a2.7,2.7,0,0,0-3.711-.68,2.677,2.677,0,0,0-1.139,1.72,2.68,2.68,0,0,0,.412,2.022c1.043,1.548,3.52,3.51,13.485,4.964a161.467,161.467,0,0,0,22.325,1.416h0c12.314,0,33.684-1.056,38.453-8.123A2.679,2.679,0,0,0,2047.017-181.072Zm-1.588,1.228c-4.695,6.958-29.719,7.5-37.277,7.5h0a160.033,160.033,0,0,1-22.12-1.4c-10.623-1.551-12.046-3.66-12.514-4.353a1.278,1.278,0,0,1,.344-1.772,1.265,1.265,0,0,1,.712-.218,1.275,1.275,0,0,1,1.061.562l.008.011c.229.326,1.854,2.012,11.4,3.335a162.585,162.585,0,0,0,22.638,1.277c20.379-.163,31.577-3.314,33.637-6.366a1.266,1.266,0,0,1,.815-.539,1.262,1.262,0,0,1,.957.195,1.265,1.265,0,0,1,.539.815A1.266,1.266,0,0,1,2045.43-179.844Z" transform="translate(-1971.878 183.254)" fill="#c54b4f"/></g><g transform="translate(0 41.676)"><path d="M2008.169-164.516h0a160.9,160.9,0,0,1-22.222-1.408c-9.8-1.43-12.112-3.344-13-4.658a1.987,1.987,0,0,1,.536-2.758,1.986,1.986,0,0,1,2.757.536h0c.012.018,1.292,1.707,10.914,3.04a161.663,161.663,0,0,0,22.536,1.271c20.012-.16,31.162-3.251,33.053-6.053a1.987,1.987,0,0,1,2.758-.536,1.986,1.986,0,0,1,.536,2.757C2041.277-165.277,2017.973-164.516,2008.169-164.516Z" transform="translate(-1971.894 176.133)" fill="#d36467"/><path d="M2047.017-173.967a2.673,2.673,0,0,0-1.138-1.72,2.675,2.675,0,0,0-2.021-.413,2.679,2.679,0,0,0-1.721,1.139c-1.495,2.215-11.377,5.572-32.472,5.741a160.984,160.984,0,0,1-22.433-1.264c-8.563-1.187-10.283-2.615-10.455-2.779a2.7,2.7,0,0,0-3.711-.68,2.678,2.678,0,0,0-1.139,1.72,2.68,2.68,0,0,0,.412,2.022c1.043,1.548,3.52,3.51,13.485,4.964a161.467,161.467,0,0,0,22.325,1.416h0c12.314,0,33.684-1.056,38.453-8.123A2.679,2.679,0,0,0,2047.017-173.967Zm-1.588,1.228c-4.695,6.958-29.719,7.5-37.277,7.5h0a160.038,160.038,0,0,1-22.12-1.4c-10.623-1.551-12.046-3.66-12.514-4.353a1.278,1.278,0,0,1,.344-1.772,1.265,1.265,0,0,1,.712-.218,1.275,1.275,0,0,1,1.061.562l.008.011c.229.326,1.854,2.012,11.4,3.335a162.585,162.585,0,0,0,22.638,1.277c20.379-.163,31.577-3.314,33.637-6.365a1.263,1.263,0,0,1,.815-.54,1.262,1.262,0,0,1,.957.195,1.265,1.265,0,0,1,.539.815A1.266,1.266,0,0,1,2045.43-172.739Z" transform="translate(-1971.878 176.149)" fill="#c54b4f"/></g><g transform="translate(0 48.622)"><path d="M2008.169-157.411h0a160.9,160.9,0,0,1-22.222-1.408c-9.8-1.43-12.112-3.344-13-4.658a1.987,1.987,0,0,1,.536-2.758,1.986,1.986,0,0,1,2.757.536h0c.012.018,1.292,1.707,10.914,3.04a161.665,161.665,0,0,0,22.536,1.271c20.012-.16,31.162-3.251,33.053-6.053a1.987,1.987,0,0,1,2.758-.536,1.986,1.986,0,0,1,.536,2.757C2041.277-158.172,2017.973-157.411,2008.169-157.411Z" transform="translate(-1971.894 169.028)" fill="#d36467"/><path d="M2047.017-166.862a2.673,2.673,0,0,0-1.138-1.72,2.676,2.676,0,0,0-2.021-.413,2.679,2.679,0,0,0-1.721,1.139c-1.495,2.215-11.377,5.572-32.472,5.741a160.986,160.986,0,0,1-22.433-1.264c-8.563-1.187-10.283-2.615-10.455-2.779a2.7,2.7,0,0,0-3.711-.68,2.677,2.677,0,0,0-1.139,1.721,2.679,2.679,0,0,0,.412,2.021c1.043,1.548,3.52,3.51,13.485,4.964a161.467,161.467,0,0,0,22.325,1.416h0c12.314,0,33.684-1.056,38.453-8.123A2.679,2.679,0,0,0,2047.017-166.862Zm-1.588,1.228c-4.695,6.958-29.719,7.5-37.277,7.5h0a160.021,160.021,0,0,1-22.12-1.4c-10.623-1.551-12.046-3.66-12.514-4.353a1.278,1.278,0,0,1,.344-1.772,1.265,1.265,0,0,1,.712-.218,1.275,1.275,0,0,1,1.061.562l.008.011c.229.326,1.854,2.012,11.4,3.335a162.583,162.583,0,0,0,22.638,1.277c20.379-.163,31.577-3.314,33.637-6.366a1.265,1.265,0,0,1,.815-.539,1.262,1.262,0,0,1,.957.195,1.265,1.265,0,0,1,.539.815A1.266,1.266,0,0,1,2045.43-165.634Z" transform="translate(-1971.878 169.044)" fill="#c54b4f"/></g><g transform="translate(0 55.568)"><path d="M2008.169-150.306h0a160.749,160.749,0,0,1-22.222-1.408c-9.8-1.43-12.112-3.343-13-4.658a1.987,1.987,0,0,1,.536-2.758,1.986,1.986,0,0,1,2.757.536h0c.012.018,1.292,1.707,10.914,3.04a161.661,161.661,0,0,0,22.536,1.271c20.012-.16,31.162-3.251,33.053-6.053a1.987,1.987,0,0,1,2.758-.536,1.986,1.986,0,0,1,.536,2.757C2041.277-151.066,2017.973-150.306,2008.169-150.306Z" transform="translate(-1971.894 161.923)" fill="#d36467"/><path d="M2047.017-159.757a2.673,2.673,0,0,0-1.138-1.72,2.676,2.676,0,0,0-2.021-.413,2.679,2.679,0,0,0-1.721,1.139c-1.495,2.215-11.377,5.572-32.472,5.741a160.986,160.986,0,0,1-22.433-1.264c-8.563-1.187-10.283-2.615-10.455-2.779a2.7,2.7,0,0,0-3.711-.68,2.68,2.68,0,0,0-1.139,1.721,2.679,2.679,0,0,0,.412,2.021c1.043,1.548,3.52,3.51,13.485,4.964a161.465,161.465,0,0,0,22.325,1.416h0c12.314,0,33.684-1.056,38.453-8.123A2.679,2.679,0,0,0,2047.017-159.757Zm-1.588,1.228c-4.695,6.958-29.719,7.5-37.277,7.5h0a160.022,160.022,0,0,1-22.12-1.4c-10.623-1.551-12.046-3.66-12.514-4.353a1.278,1.278,0,0,1,.344-1.772,1.265,1.265,0,0,1,.712-.218,1.275,1.275,0,0,1,1.061.562l.008.012c.229.325,1.854,2.011,11.4,3.334a162.588,162.588,0,0,0,22.638,1.277c20.379-.163,31.577-3.314,33.637-6.365a1.263,1.263,0,0,1,.815-.54,1.262,1.262,0,0,1,.957.195,1.265,1.265,0,0,1,.539.815A1.266,1.266,0,0,1,2045.43-158.529Z" transform="translate(-1971.878 161.939)" fill="#c54b4f"/></g><g transform="translate(0 62.514)"><path d="M2008.169-143.2h0a160.749,160.749,0,0,1-22.222-1.408c-9.8-1.43-12.112-3.343-13-4.658a1.987,1.987,0,0,1,.536-2.758,1.986,1.986,0,0,1,2.757.536h0c.012.018,1.292,1.707,10.914,3.04a161.663,161.663,0,0,0,22.536,1.271c20.012-.16,31.162-3.251,33.053-6.053a1.987,1.987,0,0,1,2.758-.536,1.986,1.986,0,0,1,.536,2.757C2041.277-143.961,2017.973-143.2,2008.169-143.2Z" transform="translate(-1971.894 154.818)" fill="#d36467"/><path d="M2047.017-152.652a2.673,2.673,0,0,0-1.138-1.72,2.676,2.676,0,0,0-2.021-.413,2.679,2.679,0,0,0-1.721,1.139c-1.495,2.215-11.377,5.572-32.472,5.741a160.984,160.984,0,0,1-22.433-1.264c-8.563-1.187-10.283-2.615-10.455-2.779a2.7,2.7,0,0,0-3.711-.68,2.679,2.679,0,0,0-1.139,1.721,2.679,2.679,0,0,0,.412,2.021c1.043,1.548,3.52,3.51,13.485,4.964a161.467,161.467,0,0,0,22.325,1.416h0c12.314,0,33.684-1.056,38.453-8.123A2.679,2.679,0,0,0,2047.017-152.652Zm-1.588,1.228c-4.695,6.958-29.719,7.5-37.277,7.5h0a160.026,160.026,0,0,1-22.12-1.4c-10.623-1.551-12.046-3.66-12.514-4.353a1.278,1.278,0,0,1,.344-1.772,1.265,1.265,0,0,1,.712-.218,1.275,1.275,0,0,1,1.061.562l.008.012c.229.325,1.854,2.011,11.4,3.334a162.585,162.585,0,0,0,22.638,1.277c20.379-.163,31.577-3.314,33.637-6.365a1.263,1.263,0,0,1,.815-.54,1.262,1.262,0,0,1,.957.195,1.265,1.265,0,0,1,.539.815A1.266,1.266,0,0,1,2045.43-151.424Z" transform="translate(-1971.878 154.834)" fill="#c54b4f"/></g><g transform="translate(0 69.46)"><path d="M2008.169-136.1h0a160.752,160.752,0,0,1-22.222-1.408c-9.8-1.43-12.112-3.344-13-4.658a1.987,1.987,0,0,1,.536-2.758,1.986,1.986,0,0,1,2.757.536h0c.012.018,1.292,1.707,10.914,3.04a161.668,161.668,0,0,0,22.536,1.271c20.012-.16,31.162-3.251,33.053-6.053a1.987,1.987,0,0,1,2.758-.536,1.986,1.986,0,0,1,.536,2.757C2041.277-136.856,2017.973-136.1,2008.169-136.1Z" transform="translate(-1971.894 147.713)" fill="#d36467"/><path d="M2047.017-145.547a2.673,2.673,0,0,0-1.138-1.72,2.675,2.675,0,0,0-2.021-.413,2.679,2.679,0,0,0-1.721,1.139c-1.495,2.215-11.377,5.572-32.472,5.741a160.982,160.982,0,0,1-22.433-1.264c-8.563-1.187-10.283-2.615-10.455-2.779a2.7,2.7,0,0,0-3.711-.68,2.68,2.68,0,0,0-1.139,1.721,2.679,2.679,0,0,0,.412,2.021c1.043,1.548,3.52,3.51,13.485,4.964a161.469,161.469,0,0,0,22.325,1.416h0c12.314,0,33.684-1.056,38.453-8.123A2.679,2.679,0,0,0,2047.017-145.547Zm-1.588,1.228c-4.695,6.958-29.719,7.5-37.277,7.5h0a160.026,160.026,0,0,1-22.12-1.4c-10.623-1.551-12.046-3.66-12.514-4.353a1.278,1.278,0,0,1,.344-1.772,1.265,1.265,0,0,1,.712-.218,1.275,1.275,0,0,1,1.061.562l.008.012c.229.325,1.854,2.011,11.4,3.334a162.585,162.585,0,0,0,22.638,1.277c20.379-.162,31.577-3.314,33.637-6.365a1.263,1.263,0,0,1,.815-.54,1.262,1.262,0,0,1,.957.195,1.267,1.267,0,0,1,.539.815A1.266,1.266,0,0,1,2045.43-144.319Z" transform="translate(-1971.878 147.729)" fill="#c54b4f"/></g><g transform="translate(0 76.406)"><path d="M2008.169-128.991h0a160.749,160.749,0,0,1-22.222-1.408c-9.8-1.43-12.112-3.343-13-4.658a1.987,1.987,0,0,1,.536-2.758,1.986,1.986,0,0,1,2.757.536h0c.012.018,1.292,1.707,10.914,3.04a161.663,161.663,0,0,0,22.536,1.271c20.012-.16,31.162-3.251,33.053-6.053a1.987,1.987,0,0,1,2.758-.536,1.986,1.986,0,0,1,.536,2.757C2041.277-129.751,2017.973-128.991,2008.169-128.991Z" transform="translate(-1971.894 140.608)" fill="#d36467"/><path d="M2047.017-138.442a2.673,2.673,0,0,0-1.138-1.72,2.676,2.676,0,0,0-2.021-.413,2.679,2.679,0,0,0-1.721,1.139c-1.495,2.215-11.377,5.572-32.472,5.741a160.986,160.986,0,0,1-22.433-1.264c-8.563-1.187-10.283-2.615-10.455-2.779a2.7,2.7,0,0,0-3.711-.68,2.68,2.68,0,0,0-1.139,1.721,2.679,2.679,0,0,0,.412,2.021c1.043,1.548,3.52,3.51,13.485,4.964a161.467,161.467,0,0,0,22.325,1.416h0c12.314,0,33.684-1.056,38.453-8.123A2.679,2.679,0,0,0,2047.017-138.442Zm-1.588,1.228c-4.695,6.958-29.719,7.5-37.277,7.5h0a160.022,160.022,0,0,1-22.12-1.4c-10.623-1.551-12.046-3.66-12.514-4.353a1.278,1.278,0,0,1,.344-1.772,1.265,1.265,0,0,1,.712-.218,1.275,1.275,0,0,1,1.061.562l.008.012c.229.325,1.854,2.011,11.4,3.334a162.583,162.583,0,0,0,22.638,1.277c20.379-.163,31.577-3.314,33.637-6.365a1.263,1.263,0,0,1,.815-.54,1.262,1.262,0,0,1,.957.195,1.267,1.267,0,0,1,.539.815A1.266,1.266,0,0,1,2045.43-137.214Z" transform="translate(-1971.878 140.624)" fill="#c54b4f"/></g><g transform="translate(0 83.353)"><path d="M2008.169-121.886h0a160.749,160.749,0,0,1-22.222-1.408c-9.8-1.43-12.112-3.343-13-4.658a1.987,1.987,0,0,1,.536-2.758,1.986,1.986,0,0,1,2.757.536h0c.012.018,1.292,1.707,10.914,3.04a161.663,161.663,0,0,0,22.536,1.271c20.012-.16,31.162-3.251,33.053-6.053a1.987,1.987,0,0,1,2.758-.536,1.986,1.986,0,0,1,.536,2.757C2041.277-122.646,2017.973-121.886,2008.169-121.886Z" transform="translate(-1971.894 133.503)" fill="#d36467"/><path d="M2047.017-131.337a2.673,2.673,0,0,0-1.138-1.72,2.676,2.676,0,0,0-2.021-.413,2.679,2.679,0,0,0-1.721,1.139c-1.495,2.215-11.377,5.572-32.472,5.741a160.984,160.984,0,0,1-22.433-1.264c-8.563-1.187-10.283-2.615-10.455-2.779a2.7,2.7,0,0,0-3.711-.68,2.682,2.682,0,0,0-1.139,1.721,2.679,2.679,0,0,0,.412,2.021c1.043,1.548,3.52,3.51,13.485,4.964a161.467,161.467,0,0,0,22.325,1.416h0c12.314,0,33.684-1.056,38.453-8.123A2.679,2.679,0,0,0,2047.017-131.337Zm-1.588,1.228c-4.695,6.958-29.719,7.5-37.277,7.5h0a160.024,160.024,0,0,1-22.12-1.4c-10.623-1.551-12.046-3.66-12.514-4.353a1.278,1.278,0,0,1,.344-1.772,1.265,1.265,0,0,1,.712-.218,1.275,1.275,0,0,1,1.061.562l.008.012c.229.325,1.854,2.011,11.4,3.334a162.583,162.583,0,0,0,22.638,1.277c20.379-.163,31.577-3.314,33.637-6.365a1.263,1.263,0,0,1,.815-.54,1.262,1.262,0,0,1,.957.195,1.267,1.267,0,0,1,.539.815A1.266,1.266,0,0,1,2045.43-130.109Z" transform="translate(-1971.878 133.519)" fill="#c54b4f"/></g><g transform="translate(0 90.299)"><path d="M2008.169-114.781h0a160.75,160.75,0,0,1-22.222-1.408c-9.8-1.43-12.112-3.343-13-4.658a1.987,1.987,0,0,1,.536-2.758,1.986,1.986,0,0,1,2.757.536h0c.012.018,1.292,1.707,10.914,3.04a161.663,161.663,0,0,0,22.536,1.271c20.012-.16,31.162-3.251,33.053-6.053a1.987,1.987,0,0,1,2.758-.536,1.986,1.986,0,0,1,.536,2.757C2041.277-115.541,2017.973-114.781,2008.169-114.781Z" transform="translate(-1971.894 126.398)" fill="#d36467"/><path d="M2047.017-124.232a2.673,2.673,0,0,0-1.138-1.72,2.676,2.676,0,0,0-2.021-.413,2.679,2.679,0,0,0-1.721,1.139c-1.495,2.215-11.377,5.572-32.472,5.741a160.986,160.986,0,0,1-22.433-1.264c-8.563-1.187-10.283-2.615-10.455-2.779a2.7,2.7,0,0,0-3.711-.68,2.682,2.682,0,0,0-1.139,1.721,2.682,2.682,0,0,0,.412,2.022c1.043,1.547,3.52,3.509,13.485,4.963a161.467,161.467,0,0,0,22.325,1.416h0c12.314,0,33.684-1.056,38.453-8.123A2.679,2.679,0,0,0,2047.017-124.232ZM2045.43-123c-4.695,6.958-29.719,7.5-37.277,7.5h0a160.023,160.023,0,0,1-22.12-1.4c-10.623-1.551-12.046-3.66-12.514-4.353a1.278,1.278,0,0,1,.344-1.772,1.265,1.265,0,0,1,.712-.218,1.275,1.275,0,0,1,1.061.562l.008.012c.229.325,1.854,2.011,11.4,3.334a162.585,162.585,0,0,0,22.638,1.277c20.379-.162,31.577-3.314,33.637-6.365a1.263,1.263,0,0,1,.815-.54,1.262,1.262,0,0,1,.957.195,1.267,1.267,0,0,1,.539.815A1.266,1.266,0,0,1,2045.43-123Z" transform="translate(-1971.878 126.414)" fill="#c54b4f"/></g><g transform="translate(1.395 97.245)"><path d="M2008.249-107.676h0a149.143,149.143,0,0,1-21.4-1.408c-9.436-1.43-11.663-3.343-12.517-4.658a2.035,2.035,0,0,1,.516-2.758,1.87,1.87,0,0,1,2.655.536h0c.011.018,1.244,1.707,10.51,3.04a149.944,149.944,0,0,0,21.7,1.271c19.27-.16,30.008-3.251,31.829-6.053a1.869,1.869,0,0,1,2.655-.536,2.034,2.034,0,0,1,.515,2.757C2040.13-108.436,2017.689-107.676,2008.249-107.676Z" transform="translate(-1973.32 119.293)" fill="#d36467"/><path d="M2045.657-117.127a2.684,2.684,0,0,0-1.1-1.72,2.5,2.5,0,0,0-1.948-.413,2.574,2.574,0,0,0-1.656,1.139c-1.44,2.215-10.954,5.572-31.269,5.741a149.327,149.327,0,0,1-21.6-1.264c-8.246-1.187-9.9-2.615-10.067-2.779a2.539,2.539,0,0,0-3.573-.68,2.685,2.685,0,0,0-1.1,1.721,2.765,2.765,0,0,0,.4,2.021c1.005,1.548,3.389,3.51,12.985,4.964a149.8,149.8,0,0,0,21.5,1.416h0c11.858,0,32.435-1.056,37.027-8.123A2.763,2.763,0,0,0,2045.657-117.127Zm-1.529,1.228c-4.521,6.958-28.616,7.5-35.895,7.5h0a148.471,148.471,0,0,1-21.3-1.4c-10.228-1.551-11.6-3.66-12.049-4.353a1.309,1.309,0,0,1,.332-1.772,1.186,1.186,0,0,1,.685-.218,1.218,1.218,0,0,1,1.022.562l.008.012c.22.325,1.785,2.011,10.974,3.334a150.83,150.83,0,0,0,21.8,1.277c19.622-.162,30.406-3.314,32.389-6.365a1.216,1.216,0,0,1,.785-.54,1.18,1.18,0,0,1,.922.195,1.276,1.276,0,0,1,.519.815A1.307,1.307,0,0,1,2044.128-115.9Z" transform="translate(-1973.304 119.309)" fill="#c54b4f"/></g></g><path d="M2061.485-227.883c0,4.016-8.458,7.765-21.479,10.116a177.178,177.178,0,0,1-30.721,2.5c-25.614,0-46.918-4.686-51.353-10.412a3.6,3.6,0,0,1-.852-2.2c0-1.277.855-2.487,2.439-3.612a28.823,28.823,0,0,1,8.513-3.6c9.55-2.7,24.477-4.356,41.252-4.356C2038.114-239.449,2061.485-234.56,2061.485-227.883Z" transform="translate(-1919.915 273.315)" fill="#e1b66a"/><path d="M2061.485-242.762c0,6.678-23.371,12.615-52.2,12.615s-52.2-5.937-52.2-12.615,23.371-11.565,52.2-11.565S2061.485-249.439,2061.485-242.762Z" transform="translate(-1919.915 275.315)" fill="#f6d89d"/><path d="M2023.947-243.71c0,1.835-6.361,3.466-14.206,3.466s-14.207-1.631-14.207-3.466,6.361-3.177,14.207-3.177S2023.947-245.544,2023.947-243.71Z" transform="translate(-1920.775 275.148)" fill="#e1b66a"/><path d="M1996.541-242.461c2.089-1.187,7.209-1.97,13.2-1.97s11.11.783,13.2,1.97c.647-.392,1.007-.814,1.007-1.248,0-1.834-6.361-3.177-14.206-3.177s-14.207,1.343-14.207,3.177C1995.534-243.276,1995.894-242.853,1996.541-242.461Z" transform="translate(-1920.775 275.148)" fill="#edbf77"/><path d="M2009.283-251.928c27.083,0,49.347,4.313,51.946,10.372a3.074,3.074,0,0,0,.255-1.2c0-6.678-23.371-11.566-52.2-11.566s-52.2,4.888-52.2,11.566a3.079,3.079,0,0,0,.255,1.2C1959.936-247.615,1982.2-251.928,2009.283-251.928Z" transform="translate(-1919.915 275.315)" fill="#ffe6b2"/><path d="M2039.943-217.835a177.177,177.177,0,0,1-30.721,2.5c-25.614,0-46.918-4.686-51.353-10.412a.124.124,0,0,1-.1-.041,14.162,14.162,0,0,1-3.461-9.635,17.479,17.479,0,0,1,2.154-7.058c.34-.015.551-.015.551-.015-1.132,2.965-.692,7,2.439,10.934a20.407,20.407,0,0,0,2.6,2.684c5.119,4.427,14.179,8.365,28.9,10C2015.188-216.188,2029.923-216.321,2039.943-217.835Z" transform="translate(-1919.853 273.498)" fill="#cda157" opacity="0.45"/><g transform="translate(49.582)"><path d="M2104.038-274.776c-1-2.627-4.07.551-5.1,1.441a75.316,75.316,0,0,0-11.685,12.467c-2.452,3.385-3.705,7.719-6.154,11.115-3.394,4.708-6.927,9.026-10.438,13.649-4.99,6.572-10.445,12.933-15.439,19.5q-6.757,8.89-13.543,17.76-14.225,18.63-28.519,37.206-21.536,27.988-43.3,55.8c-.267.339.214.269.322.253.285-.041,1.251-1.588,1.445-1.834q1.265-1.6,2.532-3.207,2.623-3.321,5.253-6.637,21.851-27.559,43.953-54.918,12.438-15.431,24.921-30.828,6.908-8.527,13.837-17.037c5.234-6.433,9.867-12.748,15.1-19.178,1.633-2.005,3.9-5.074,5.525-7.084,2.754-3.4,5.95-5.186,8.984-8.291,4.076-4.17,7.283-9.477,10.093-14.491.5-.9.955-1.825,1.4-2.753C2103.646-272.685,2104.4-273.82,2104.038-274.776Zm-7.794,10.6a33.029,33.029,0,0,1-7.02,7.4.545.545,0,0,1-.805-.651c.812-2.175,3.437-5.335,5.893-8.153,3.092-3.547,5.281-6.084,6.9-6.928.536-.279.615-.059.383.5C2100.926-270.38,2098.793-267.652,2096.244-264.173Z" transform="translate(-1969.781 275.795)" fill="#85cbd8"/><g transform="translate(0 0.002)"><path d="M2092.077-256.6a33.007,33.007,0,0,0,7.019-7.4c2.55-3.479,4.683-6.207,5.355-7.829.161-.389.167-.609-.022-.615a.927.927,0,0,1-.109.519c-.673,1.622-2.806,4.349-5.354,7.829a33.04,33.04,0,0,1-7.021,7.4.526.526,0,0,1-.542.028A.532.532,0,0,0,2092.077-256.6Z" transform="translate(-1972.503 275.718)" fill="#23a495"/><path d="M1969.993-105.741q21.816-27.771,43.3-55.8,14.295-18.575,28.518-37.206,6.776-8.876,13.544-17.76c4.994-6.569,10.449-12.93,15.438-19.5,3.511-4.622,7.043-8.94,10.437-13.649,2.448-3.4,3.7-7.73,6.154-11.115a75.318,75.318,0,0,1,11.685-12.467c.862-.746,3.156-3.1,4.466-2.293-1.282-1.066-3.706,1.425-4.6,2.2a75.315,75.315,0,0,0-11.685,12.467c-2.452,3.385-3.705,7.719-6.154,11.115-3.4,4.708-6.927,9.026-10.438,13.649-4.99,6.572-10.445,12.933-15.439,19.5q-6.757,8.89-13.544,17.76-14.223,18.63-28.518,37.206-21.536,27.989-43.3,55.8c-.147.188-.066.249.054.265A.277.277,0,0,1,1969.993-105.741Z" transform="translate(-1969.781 275.793)" fill="#23a495"/></g></g><g transform="translate(51.065 80.293)"><path d="M2006.027-171.467h0a150.341,150.341,0,0,1-21.928-6.352c-9.477-3.691-11.341-6.3-11.917-7.937a2.377,2.377,0,0,1,1.192-2.919A1.924,1.924,0,0,1,1976-187.49h0c.008.022.89,2.157,10.213,5.7a151.036,151.036,0,0,0,22.274,6.269c20.087,4.148,31.992,3.156,34.552.479a1.926,1.926,0,0,1,2.89.006,2.378,2.378,0,0,1-.118,3.151C2039.377-165.15,2015.848-169.348,2006.027-171.467Z" transform="translate(-1971.315 189.647)" fill="#dd7175"/><path d="M2047.186-173.473a3.044,3.044,0,0,0-.732-2.139,2.548,2.548,0,0,0-1.928-.891,2.742,2.742,0,0,0-1.993.881c-2.023,2.116-12.721,3.676-33.894-.7a150.515,150.515,0,0,1-22.173-6.238c-8.3-3.158-9.681-5.1-9.814-5.319a2.613,2.613,0,0,0-3.556-1.551,3.047,3.047,0,0,0-1.549,1.648,3.254,3.254,0,0,0-.067,2.314c.677,1.929,2.692,4.624,12.331,8.377a150.909,150.909,0,0,0,22.029,6.383h0c12.337,2.661,34,6.118,40.451-.632A3.257,3.257,0,0,0,2047.186-173.473Zm-1.882,1.009c-6.354,6.643-31.554,1.831-39.125.2h0a149.452,149.452,0,0,1-21.828-6.321c-10.274-4-11.2-6.631-11.5-7.5a1.53,1.53,0,0,1,.766-1.876,1.218,1.218,0,0,1,.765-.086,1.281,1.281,0,0,1,.93.848l0,.015c.152.407,1.379,2.614,10.626,6.133a151.915,151.915,0,0,0,22.377,6.3c20.454,4.223,32.422,3.174,35.209.261a1.3,1.3,0,0,1,.944-.417,1.2,1.2,0,0,1,.913.421,1.439,1.439,0,0,1,.347,1.014A1.546,1.546,0,0,1,2045.3-172.464Z" transform="translate(-1971.298 189.666)" fill="#c54b4f"/></g><g transform="translate(51.201 120.034)"><path d="M2006.166-128.837h0a150.206,150.206,0,0,1-21.929-6.352c-9.477-3.692-11.339-6.3-11.916-7.937a2.376,2.376,0,0,1,1.19-2.919,1.925,1.925,0,0,1,2.636,1.186h0c.008.022.889,2.157,10.212,5.7a151.027,151.027,0,0,0,22.275,6.269c20.086,4.148,31.991,3.156,34.551.479a1.925,1.925,0,0,1,2.89.007,2.375,2.375,0,0,1-.118,3.15C2039.516-122.52,2015.988-126.718,2006.166-128.837Z" transform="translate(-1971.454 147.017)" fill="#dd7175"/><path d="M2047.325-130.843a3.042,3.042,0,0,0-.732-2.139,2.545,2.545,0,0,0-1.927-.891,2.744,2.744,0,0,0-1.995.881c-2.023,2.116-12.72,3.676-33.894-.7a150.467,150.467,0,0,1-22.172-6.238c-8.3-3.158-9.68-5.1-9.815-5.319a2.613,2.613,0,0,0-3.556-1.551,3.048,3.048,0,0,0-1.549,1.648,3.261,3.261,0,0,0-.068,2.314c.679,1.929,2.694,4.624,12.331,8.377a150.958,150.958,0,0,0,22.029,6.383h0c12.337,2.661,34,6.118,40.451-.632A3.256,3.256,0,0,0,2047.325-130.843Zm-1.882,1.009c-6.354,6.643-31.553,1.831-39.125.2h0a149.489,149.489,0,0,1-21.828-6.321c-10.274-4-11.2-6.631-11.5-7.5a1.529,1.529,0,0,1,.765-1.877,1.221,1.221,0,0,1,.766-.086,1.282,1.282,0,0,1,.929.848l0,.015c.153.407,1.38,2.614,10.626,6.133a151.9,151.9,0,0,0,22.377,6.3c20.454,4.223,32.422,3.174,35.209.261a1.3,1.3,0,0,1,.945-.417,1.2,1.2,0,0,1,.912.421,1.437,1.437,0,0,1,.347,1.014A1.546,1.546,0,0,1,2045.443-129.834Z" transform="translate(-1971.438 147.036)" fill="#c54b4f"/></g><g transform="translate(51.37 93.146)"><path d="M2012.807-156.163h0a145.914,145.914,0,0,0,21.929-6.6c9.478-3.833,11.342-6.539,11.918-8.241.4-1.177.124-3.295-.933-3.792s-2.5.815-2.894,1.992h0c-.008.022-.888,2.24-10.212,5.923a146.664,146.664,0,0,1-22.276,6.508c-20.088,4.307-31.993,3.278-34.554.5a1.879,1.879,0,0,0-2.89.006,2.539,2.539,0,0,0,.118,3.272C1979.455-149.6,2002.986-153.963,2012.807-156.163Z" transform="translate(-1971.627 175.814)" fill="#dd7175"/><path d="M1972.505-156.028c6.456,7.008,28.117,3.419,40.453.656h0A146.656,146.656,0,0,0,2034.993-162c9.638-3.9,11.653-6.7,12.331-8.7a5.92,5.92,0,0,0-.111-3.195,2.743,2.743,0,0,0-1.339-1.785c-1.414-.666-3.161.924-3.721,2.477-.135.227-1.517,2.245-9.815,5.523a146.233,146.233,0,0,1-22.175,6.478c-21.175,4.54-31.873,2.921-33.9.724a2.7,2.7,0,0,0-1.994-.916,2.512,2.512,0,0,0-1.928.925,3.24,3.24,0,0,0-.732,2.222A3.453,3.453,0,0,0,1972.505-156.028Zm.567-2.222a1.53,1.53,0,0,1,.347-1.052,1.178,1.178,0,0,1,.912-.438,1.28,1.28,0,0,1,.945.433c2.787,3.026,14.756,4.115,35.211-.271a147.51,147.51,0,0,0,22.378-6.539c9.247-3.653,10.364-6.193,10.516-6.616h0a1.987,1.987,0,0,1,1.175-1.158,1.448,1.448,0,0,1,1.06.086c.715.416.709,1.569.454,2.324-.3.9-1.341,3.768-11.615,7.923A145.329,145.329,0,0,1,2012.625-157h0c-7.573,1.7-32.772,6.693-39.128-.205A1.637,1.637,0,0,1,1973.073-158.25Z" transform="translate(-1971.611 175.835)" fill="#c54b4f"/></g></svg>