<svg xmlns="http://www.w3.org/2000/svg" xmlns:xlink="http://www.w3.org/1999/xlink" width="295" height="306" viewBox="0 0 295 306"><defs><linearGradient id="a" x1="-820.264" y1="-26.589" x2="-820.264" y2="-25.312" gradientUnits="objectBoundingBox"><stop offset="0" stop-color="#bfbebe"/><stop offset="0.373" stop-color="#fff"/><stop offset="1" stop-color="#2b2929"/></linearGradient><linearGradient id="b" x1="-3646.256" y1="373.32" x2="-3646.256" y2="372.32" gradientUnits="objectBoundingBox"><stop offset="0" stop-color="#bfbebe"/><stop offset="0.1" stop-color="#514f4f"/><stop offset="0.254" stop-color="#b1b0b0"/><stop offset="0.373" stop-color="#fff"/><stop offset="0.431" stop-color="#fff"/><stop offset="0.432" stop-color="#fff"/><stop offset="1" stop-color="#2b2929"/></linearGradient><linearGradient id="c" x1="-4302.851" y1="385.012" x2="-4302.851" y2="386.015" xlink:href="#b"/><linearGradient id="d" y1="0.5" x2="1" y2="0.5" gradientUnits="objectBoundingBox"><stop offset="0" stop-color="#bfbebe"/><stop offset="1" stop-color="#2b2929"/></linearGradient><radialGradient id="e" cx="0.665" cy="0.338" r="0.436" gradientTransform="translate(-0.584) scale(2.167 1)" gradientUnits="objectBoundingBox"><stop offset="0" stop-color="#bfbebe"/><stop offset="1" stop-color="#5d575a"/></radialGradient><linearGradient id="f" x1="1.293" y1="0.359" x2="-0.256" y2="0.635" xlink:href="#a"/><clipPath id="g"><path d="M4518.4-473.776h10.289s.515-55.53,0-56.9.386-16.12,3.623-22.294,3.68-20.747,1.107-24.349l-1.814,2.292L4518.4-539.08Z" transform="translate(-4518.402 577.32)" fill="none"/></clipPath></defs><g transform="translate(2996 1539)"><rect width="295" height="306" transform="translate(-2996 -1539)" fill="none"/><path d="M9.082-3.384A3.923,3.923,0,0,1,7.833-.773,4.093,4.093,0,0,1,5.039.146,3.758,3.758,0,0,1,2.01-1.208,5.451,5.451,0,0,1,.872-4.834V-5.859A6.076,6.076,0,0,1,1.4-8.474a3.966,3.966,0,0,1,1.505-1.732,4.191,4.191,0,0,1,2.256-.6,3.853,3.853,0,0,1,2.725.948A3.971,3.971,0,0,1,9.082-7.236H7.668a3.05,3.05,0,0,0-.795-1.846,2.409,2.409,0,0,0-1.71-.571,2.517,2.517,0,0,0-2.113,1,4.57,4.57,0,0,0-.765,2.834V-4.79A4.7,4.7,0,0,0,3.01-2.029,2.344,2.344,0,0,0,5.039-1a2.706,2.706,0,0,0,1.8-.531,2.947,2.947,0,0,0,.831-1.849ZM15.711,0a2.846,2.846,0,0,1-.19-.835,3.023,3.023,0,0,1-2.256.981,2.8,2.8,0,0,1-1.923-.663A2.145,2.145,0,0,1,10.592-2.2a2.24,2.24,0,0,1,.941-1.923A4.437,4.437,0,0,1,14.18-4.8H15.5v-.623a1.522,1.522,0,0,0-.425-1.132,1.707,1.707,0,0,0-1.252-.421,1.976,1.976,0,0,0-1.216.366,1.079,1.079,0,0,0-.491.886H10.753a1.87,1.87,0,0,1,.421-1.146,2.874,2.874,0,0,1,1.143-.875A3.844,3.844,0,0,1,13.9-8.071a3.133,3.133,0,0,1,2.146.685A2.47,2.47,0,0,1,16.854-5.5v3.647a4.459,4.459,0,0,0,.278,1.736V0ZM13.463-1.033a2.381,2.381,0,0,0,1.208-.33,1.994,1.994,0,0,0,.828-.857V-3.845H14.437q-2.49,0-2.49,1.458a1.234,1.234,0,0,0,.425,1A1.633,1.633,0,0,0,13.463-1.033Zm9.376-5.676a4.06,4.06,0,0,0-.667-.051,1.786,1.786,0,0,0-1.809,1.135V0H19.008V-7.925h1.318l.022.916a2.11,2.11,0,0,1,1.89-1.062,1.384,1.384,0,0,1,.6.1Zm5.106,0a4.06,4.06,0,0,0-.667-.051,1.786,1.786,0,0,0-1.809,1.135V0H24.113V-7.925h1.318l.022.916a2.11,2.11,0,0,1,1.89-1.062,1.384,1.384,0,0,1,.6.1Zm.77,2.673a4.681,4.681,0,0,1,.458-2.095,3.415,3.415,0,0,1,1.274-1.436,3.469,3.469,0,0,1,1.864-.505,3.342,3.342,0,0,1,2.618,1.121,4.311,4.311,0,0,1,1,2.981v.1A4.722,4.722,0,0,1,35.485-1.8,3.365,3.365,0,0,1,34.218-.366a3.509,3.509,0,0,1-1.893.513A3.334,3.334,0,0,1,29.714-.974a4.29,4.29,0,0,1-1-2.966Zm1.362.161a3.39,3.39,0,0,0,.612,2.117,1.957,1.957,0,0,0,1.637.8,1.945,1.945,0,0,0,1.641-.809,3.707,3.707,0,0,0,.608-2.267,3.384,3.384,0,0,0-.619-2.113,1.968,1.968,0,0,0-1.644-.809,1.946,1.946,0,0,0-1.619.8A3.68,3.68,0,0,0,30.076-3.875Zm10.966-.161A4.681,4.681,0,0,1,41.5-6.13a3.415,3.415,0,0,1,1.274-1.436,3.469,3.469,0,0,1,1.864-.505,3.342,3.342,0,0,1,2.618,1.121,4.311,4.311,0,0,1,1,2.981v.1A4.722,4.722,0,0,1,47.813-1.8,3.365,3.365,0,0,1,46.546-.366a3.509,3.509,0,0,1-1.893.513A3.334,3.334,0,0,1,42.042-.974a4.29,4.29,0,0,1-1-2.966Zm1.362.161a3.39,3.39,0,0,0,.612,2.117,1.957,1.957,0,0,0,1.637.8,1.945,1.945,0,0,0,1.641-.809A3.707,3.707,0,0,0,46.9-4.036a3.384,3.384,0,0,0-.619-2.113,1.968,1.968,0,0,0-1.644-.809,1.946,1.946,0,0,0-1.619.8A3.68,3.68,0,0,0,42.4-3.875Zm11-.154a4.642,4.642,0,0,1,.864-2.933,2.733,2.733,0,0,1,2.263-1.11,2.748,2.748,0,0,1,2.2.952V-11.25h1.355V0H58.841l-.066-.85a2.759,2.759,0,0,1-2.263,1A2.707,2.707,0,0,1,54.267-.981,4.7,4.7,0,0,1,53.4-3.926Zm1.355.154a3.515,3.515,0,0,0,.557,2.109A1.8,1.8,0,0,0,56.849-1a1.977,1.977,0,0,0,1.882-1.157V-5.8a1.992,1.992,0,0,0-1.868-1.121,1.808,1.808,0,0,0-1.553.769A3.87,3.87,0,0,0,54.754-3.875ZM65.507.146A3.463,3.463,0,0,1,62.885-.912a3.928,3.928,0,0,1-1.011-2.831v-.249a4.756,4.756,0,0,1,.45-2.106,3.514,3.514,0,0,1,1.26-1.45,3.167,3.167,0,0,1,1.754-.524,2.968,2.968,0,0,1,2.4,1.018A4.408,4.408,0,0,1,68.6-4.138v.564H63.229a2.817,2.817,0,0,0,.685,1.893,2.153,2.153,0,0,0,1.666.721A2.36,2.36,0,0,0,66.8-1.252a3.055,3.055,0,0,0,.872-.776l.828.645A3.328,3.328,0,0,1,65.507.146Zm-.168-7.1a1.807,1.807,0,0,0-1.377.6,2.9,2.9,0,0,0-.688,1.674h3.97v-.1a2.581,2.581,0,0,0-.557-1.6A1.7,1.7,0,0,0,65.338-6.958ZM74.809-2.1a1,1,0,0,0-.414-.853,3.983,3.983,0,0,0-1.443-.524,6.822,6.822,0,0,1-1.633-.527,2.324,2.324,0,0,1-.894-.732,1.752,1.752,0,0,1-.289-1.011A2.056,2.056,0,0,1,70.96-7.4a3.218,3.218,0,0,1,2.106-.674,3.311,3.311,0,0,1,2.186.7,2.21,2.21,0,0,1,.839,1.78H74.729a1.223,1.223,0,0,0-.472-.959,1.77,1.77,0,0,0-1.19-.4,1.852,1.852,0,0,0-1.157.322,1.014,1.014,0,0,0-.417.842.822.822,0,0,0,.388.74,4.776,4.776,0,0,0,1.4.476,7.308,7.308,0,0,1,1.644.542,2.4,2.4,0,0,1,.934.758,1.864,1.864,0,0,1,.3,1.08,2.028,2.028,0,0,1-.85,1.7,3.564,3.564,0,0,1-2.2.641A3.991,3.991,0,0,1,71.425-.19a2.74,2.74,0,0,1-1.146-.941,2.268,2.268,0,0,1-.414-1.307H71.22a1.4,1.4,0,0,0,.546,1.08,2.117,2.117,0,0,0,1.344.4,2.185,2.185,0,0,0,1.234-.311A.956.956,0,0,0,74.809-2.1ZM79.432,0H78.077V-11.25h1.355ZM83.1,0H81.747V-7.925H83.1ZM81.637-10.027a.809.809,0,0,1,.2-.557.756.756,0,0,1,.6-.227.768.768,0,0,1,.6.227.8.8,0,0,1,.205.557.774.774,0,0,1-.205.549.782.782,0,0,1-.6.22.77.77,0,0,1-.6-.22A.782.782,0,0,1,81.637-10.027Zm4.937,8.921H91.21V0H84.919V-1L89.291-6.8H84.985V-7.925h6.006v.959ZM97.656,0a2.846,2.846,0,0,1-.19-.835A3.023,3.023,0,0,1,95.21.146a2.8,2.8,0,0,1-1.923-.663A2.145,2.145,0,0,1,92.537-2.2a2.24,2.24,0,0,1,.941-1.923A4.437,4.437,0,0,1,96.126-4.8h1.318v-.623a1.522,1.522,0,0,0-.425-1.132,1.707,1.707,0,0,0-1.252-.421,1.976,1.976,0,0,0-1.216.366,1.079,1.079,0,0,0-.491.886H92.7a1.87,1.87,0,0,1,.421-1.146,2.874,2.874,0,0,1,1.143-.875,3.844,3.844,0,0,1,1.586-.322,3.133,3.133,0,0,1,2.146.685A2.47,2.47,0,0,1,98.8-5.5v3.647a4.459,4.459,0,0,0,.278,1.736V0ZM95.408-1.033a2.381,2.381,0,0,0,1.208-.33,1.994,1.994,0,0,0,.828-.857V-3.845H96.382q-2.49,0-2.49,1.458a1.234,1.234,0,0,0,.425,1A1.633,1.633,0,0,0,95.408-1.033Zm5.216-3a4.642,4.642,0,0,1,.864-2.933,2.733,2.733,0,0,1,2.263-1.11,2.748,2.748,0,0,1,2.2.952V-11.25h1.355V0h-1.245L106-.85a2.759,2.759,0,0,1-2.263,1,2.707,2.707,0,0,1-2.245-1.128,4.7,4.7,0,0,1-.868-2.944Zm1.355.154a3.515,3.515,0,0,0,.557,2.109A1.8,1.8,0,0,0,104.073-1a1.977,1.977,0,0,0,1.882-1.157V-5.8a1.992,1.992,0,0,0-1.868-1.121,1.808,1.808,0,0,0-1.553.769A3.87,3.87,0,0,0,101.978-3.875Zm7.105-.161a4.681,4.681,0,0,1,.458-2.095,3.415,3.415,0,0,1,1.274-1.436,3.469,3.469,0,0,1,1.864-.505A3.342,3.342,0,0,1,115.3-6.951a4.311,4.311,0,0,1,1,2.981v.1a4.722,4.722,0,0,1-.443,2.076,3.365,3.365,0,0,1-1.267,1.432,3.509,3.509,0,0,1-1.893.513,3.334,3.334,0,0,1-2.611-1.121,4.29,4.29,0,0,1-1-2.966Zm1.362.161a3.39,3.39,0,0,0,.612,2.117,1.957,1.957,0,0,0,1.637.8,1.945,1.945,0,0,0,1.641-.809,3.707,3.707,0,0,0,.608-2.267,3.384,3.384,0,0,0-.619-2.113,1.968,1.968,0,0,0-1.644-.809,1.946,1.946,0,0,0-1.619.8A3.68,3.68,0,0,0,110.446-3.875Zm11.412-2.834a4.06,4.06,0,0,0-.667-.051,1.786,1.786,0,0,0-1.809,1.135V0h-1.355V-7.925h1.318l.022.916a2.11,2.11,0,0,1,1.89-1.062,1.384,1.384,0,0,1,.6.1Z" transform="translate(-2856.393 -1454)" fill="#12263f"/><path d="M8.606-9.507H5.178V0h-1.4V-9.507H.359v-1.157H8.606ZM11.478,0H10.123V-7.925h1.355ZM10.013-10.027a.809.809,0,0,1,.2-.557.756.756,0,0,1,.6-.227.768.768,0,0,1,.6.227.8.8,0,0,1,.205.557.774.774,0,0,1-.205.549.782.782,0,0,1-.6.22.77.77,0,0,1-.6-.22A.782.782,0,0,1,10.013-10.027Zm7.493,3.318a4.06,4.06,0,0,0-.667-.051,1.786,1.786,0,0,0-1.809,1.135V0H13.676V-7.925h1.318l.022.916a2.11,2.11,0,0,1,1.89-1.062,1.384,1.384,0,0,1,.6.1ZM23.381,0a2.846,2.846,0,0,1-.19-.835,3.023,3.023,0,0,1-2.256.981,2.8,2.8,0,0,1-1.923-.663A2.145,2.145,0,0,1,18.261-2.2,2.24,2.24,0,0,1,19.2-4.12,4.437,4.437,0,0,1,21.85-4.8h1.318v-.623a1.522,1.522,0,0,0-.425-1.132,1.707,1.707,0,0,0-1.252-.421,1.976,1.976,0,0,0-1.216.366,1.079,1.079,0,0,0-.491.886H18.423a1.87,1.87,0,0,1,.421-1.146,2.874,2.874,0,0,1,1.143-.875,3.844,3.844,0,0,1,1.586-.322,3.133,3.133,0,0,1,2.146.685A2.47,2.47,0,0,1,24.524-5.5v3.647A4.459,4.459,0,0,0,24.8-.117V0ZM21.132-1.033a2.381,2.381,0,0,0,1.208-.33,1.994,1.994,0,0,0,.828-.857V-3.845H22.107q-2.49,0-2.49,1.458a1.234,1.234,0,0,0,.425,1A1.633,1.633,0,0,0,21.132-1.033Zm5.216-3a4.642,4.642,0,0,1,.864-2.933,2.733,2.733,0,0,1,2.263-1.11,2.748,2.748,0,0,1,2.2.952V-11.25h1.355V0H31.79l-.066-.85a2.759,2.759,0,0,1-2.263,1A2.707,2.707,0,0,1,27.216-.981a4.7,4.7,0,0,1-.868-2.944Zm1.355.154a3.515,3.515,0,0,0,.557,2.109A1.8,1.8,0,0,0,29.8-1,1.977,1.977,0,0,0,31.68-2.161V-5.8a1.992,1.992,0,0,0-1.868-1.121,1.808,1.808,0,0,0-1.553.769A3.87,3.87,0,0,0,27.7-3.875Zm7.105-.161a4.681,4.681,0,0,1,.458-2.095A3.415,3.415,0,0,1,36.54-7.566,3.469,3.469,0,0,1,38.4-8.071a3.342,3.342,0,0,1,2.618,1.121,4.311,4.311,0,0,1,1,2.981v.1A4.722,4.722,0,0,1,41.579-1.8,3.365,3.365,0,0,1,40.312-.366a3.509,3.509,0,0,1-1.893.513A3.334,3.334,0,0,1,35.808-.974a4.29,4.29,0,0,1-1-2.966Zm1.362.161a3.39,3.39,0,0,0,.612,2.117,1.957,1.957,0,0,0,1.637.8,1.945,1.945,0,0,0,1.641-.809,3.707,3.707,0,0,0,.608-2.267,3.384,3.384,0,0,0-.619-2.113A1.968,1.968,0,0,0,38.4-6.958a1.946,1.946,0,0,0-1.619.8A3.68,3.68,0,0,0,36.171-3.875ZM47.582-6.709a4.06,4.06,0,0,0-.667-.051,1.786,1.786,0,0,0-1.809,1.135V0H43.752V-7.925H45.07l.022.916a2.11,2.11,0,0,1,1.89-1.062,1.384,1.384,0,0,1,.6.1Z" transform="translate(-2856.393 -1428)" fill="#12263f"/><path d="M7.266-4.929H2.644V-1.15H8.013V0H1.238V-10.664h6.7v1.157h-5.3v3.428H7.266ZM14.2-2.1a1,1,0,0,0-.414-.853,3.983,3.983,0,0,0-1.443-.524,6.822,6.822,0,0,1-1.633-.527,2.324,2.324,0,0,1-.894-.732A1.752,1.752,0,0,1,9.522-5.75,2.056,2.056,0,0,1,10.346-7.4a3.218,3.218,0,0,1,2.106-.674,3.311,3.311,0,0,1,2.186.7,2.21,2.21,0,0,1,.839,1.78H14.114a1.223,1.223,0,0,0-.472-.959,1.77,1.77,0,0,0-1.19-.4,1.852,1.852,0,0,0-1.157.322,1.014,1.014,0,0,0-.417.842.822.822,0,0,0,.388.74,4.776,4.776,0,0,0,1.4.476,7.308,7.308,0,0,1,1.644.542,2.4,2.4,0,0,1,.934.758,1.864,1.864,0,0,1,.3,1.08,2.028,2.028,0,0,1-.85,1.7,3.564,3.564,0,0,1-2.2.641A3.991,3.991,0,0,1,10.811-.19a2.74,2.74,0,0,1-1.146-.941,2.268,2.268,0,0,1-.414-1.307h1.355a1.4,1.4,0,0,0,.546,1.08,2.117,2.117,0,0,0,1.344.4,2.185,2.185,0,0,0,1.234-.311A.956.956,0,0,0,14.2-2.1Zm9.844-1.772a4.745,4.745,0,0,1-.828,2.915A2.653,2.653,0,0,1,20.971.146,2.906,2.906,0,0,1,18.7-.769V3.047H17.345V-7.925h1.238l.066.879a2.791,2.791,0,0,1,2.3-1.025,2.7,2.7,0,0,1,2.26,1.077,4.8,4.8,0,0,1,.831,3Zm-1.355-.154a3.5,3.5,0,0,0-.571-2.117,1.84,1.84,0,0,0-1.567-.776A1.992,1.992,0,0,0,18.7-5.83v3.787A2,2,0,0,0,20.56-.959a1.832,1.832,0,0,0,1.549-.773A3.822,3.822,0,0,0,22.685-4.028ZM27.263,0H25.908V-7.925h1.355ZM25.8-10.027a.809.809,0,0,1,.2-.557.756.756,0,0,1,.6-.227.768.768,0,0,1,.6.227.8.8,0,0,1,.205.557.774.774,0,0,1-.205.549.782.782,0,0,1-.6.22.77.77,0,0,1-.6-.22A.782.782,0,0,1,25.8-10.027Zm7.493,3.318a4.06,4.06,0,0,0-.667-.051,1.786,1.786,0,0,0-1.809,1.135V0H29.461V-7.925h1.318l.022.916a2.11,2.11,0,0,1,1.89-1.062,1.384,1.384,0,0,1,.6.1ZM39.166,0a2.846,2.846,0,0,1-.19-.835A3.023,3.023,0,0,1,36.72.146,2.8,2.8,0,0,1,34.8-.516,2.145,2.145,0,0,1,34.046-2.2a2.24,2.24,0,0,1,.941-1.923A4.437,4.437,0,0,1,37.635-4.8h1.318v-.623a1.522,1.522,0,0,0-.425-1.132,1.707,1.707,0,0,0-1.252-.421,1.976,1.976,0,0,0-1.216.366,1.079,1.079,0,0,0-.491.886H34.208a1.87,1.87,0,0,1,.421-1.146,2.874,2.874,0,0,1,1.143-.875,3.844,3.844,0,0,1,1.586-.322,3.133,3.133,0,0,1,2.146.685A2.47,2.47,0,0,1,40.309-5.5v3.647a4.459,4.459,0,0,0,.278,1.736V0ZM36.918-1.033a2.381,2.381,0,0,0,1.208-.33,1.994,1.994,0,0,0,.828-.857V-3.845H37.892q-2.49,0-2.49,1.458a1.234,1.234,0,0,0,.425,1A1.633,1.633,0,0,0,36.918-1.033ZM43.935,0H42.58V-11.25h1.355Z" transform="translate(-2856.393 -1348)" fill="#12263f"/><path d="M8.606-9.507H5.178V0h-1.4V-9.507H.359v-1.157H8.606Zm.316,5.471A4.681,4.681,0,0,1,9.379-6.13a3.415,3.415,0,0,1,1.274-1.436,3.469,3.469,0,0,1,1.864-.505,3.342,3.342,0,0,1,2.618,1.121,4.311,4.311,0,0,1,1,2.981v.1A4.722,4.722,0,0,1,15.693-1.8,3.365,3.365,0,0,1,14.426-.366a3.509,3.509,0,0,1-1.893.513A3.334,3.334,0,0,1,9.921-.974a4.29,4.29,0,0,1-1-2.966Zm1.362.161A3.39,3.39,0,0,0,10.9-1.758a1.957,1.957,0,0,0,1.637.8,1.945,1.945,0,0,0,1.641-.809,3.707,3.707,0,0,0,.608-2.267,3.384,3.384,0,0,0-.619-2.113,1.968,1.968,0,0,0-1.644-.809,1.946,1.946,0,0,0-1.619.8A3.68,3.68,0,0,0,10.284-3.875Zm14.276,0a4.745,4.745,0,0,1-.828,2.915A2.653,2.653,0,0,1,21.491.146,2.906,2.906,0,0,1,19.22-.769V3.047H17.865V-7.925H19.1l.066.879a2.791,2.791,0,0,1,2.3-1.025,2.7,2.7,0,0,1,2.26,1.077,4.8,4.8,0,0,1,.831,3ZM23.2-4.028a3.5,3.5,0,0,0-.571-2.117,1.84,1.84,0,0,0-1.567-.776A1.992,1.992,0,0,0,19.22-5.83v3.787a2,2,0,0,0,1.86,1.084,1.832,1.832,0,0,0,1.549-.773A3.822,3.822,0,0,0,23.2-4.028ZM29.6.146A3.463,3.463,0,0,1,26.977-.912a3.928,3.928,0,0,1-1.011-2.831v-.249a4.756,4.756,0,0,1,.45-2.106,3.514,3.514,0,0,1,1.26-1.45,3.167,3.167,0,0,1,1.754-.524,2.968,2.968,0,0,1,2.4,1.018,4.408,4.408,0,0,1,.857,2.915v.564H27.321a2.817,2.817,0,0,0,.685,1.893,2.153,2.153,0,0,0,1.666.721,2.36,2.36,0,0,0,1.216-.293,3.055,3.055,0,0,0,.872-.776l.828.645A3.328,3.328,0,0,1,29.6.146Zm-.168-7.1a1.807,1.807,0,0,0-1.377.6,2.9,2.9,0,0,0-.688,1.674h3.97v-.1a2.581,2.581,0,0,0-.557-1.6A1.7,1.7,0,0,0,29.431-6.958ZM39.5,0H38.148V-7.925H39.5ZM38.038-10.027a.809.809,0,0,1,.2-.557.756.756,0,0,1,.6-.227.768.768,0,0,1,.6.227.8.8,0,0,1,.205.557.774.774,0,0,1-.205.549.782.782,0,0,1-.6.22.77.77,0,0,1-.6-.22A.782.782,0,0,1,38.038-10.027Zm4.945,2.1.044,1A2.888,2.888,0,0,1,45.4-8.071q2.512,0,2.534,2.834V0H46.579V-5.244a1.824,1.824,0,0,0-.392-1.267,1.57,1.57,0,0,0-1.2-.41,1.956,1.956,0,0,0-1.157.352,2.387,2.387,0,0,0-.776.923V0H41.7V-7.925ZM50.674,0V-6.877H49.421V-7.925h1.252v-.813a2.7,2.7,0,0,1,.681-1.97,2.573,2.573,0,0,1,1.926-.7,3.556,3.556,0,0,1,.93.125l-.073,1.1a3.892,3.892,0,0,0-.732-.066,1.324,1.324,0,0,0-1.018.385,1.556,1.556,0,0,0-.359,1.1v.835h1.692v1.047H52.029V0Zm7.86.146A3.463,3.463,0,0,1,55.911-.912,3.928,3.928,0,0,1,54.9-3.743v-.249a4.756,4.756,0,0,1,.45-2.106,3.514,3.514,0,0,1,1.26-1.45,3.167,3.167,0,0,1,1.754-.524,2.968,2.968,0,0,1,2.4,1.018,4.408,4.408,0,0,1,.857,2.915v.564H56.256a2.817,2.817,0,0,0,.685,1.893,2.153,2.153,0,0,0,1.666.721,2.36,2.36,0,0,0,1.216-.293,3.055,3.055,0,0,0,.872-.776l.828.645A3.328,3.328,0,0,1,58.533.146Zm-.168-7.1a1.807,1.807,0,0,0-1.377.6A2.9,2.9,0,0,0,56.3-4.687h3.97v-.1a2.581,2.581,0,0,0-.557-1.6A1.7,1.7,0,0,0,58.365-6.958Zm8.687.249a4.06,4.06,0,0,0-.667-.051,1.786,1.786,0,0,0-1.809,1.135V0H63.222V-7.925H64.54l.022.916a2.11,2.11,0,0,1,1.89-1.062,1.384,1.384,0,0,1,.6.1ZM69.8,0H68.445V-7.925H69.8ZM68.335-10.027a.809.809,0,0,1,.2-.557.756.756,0,0,1,.6-.227.768.768,0,0,1,.6.227.8.8,0,0,1,.205.557.774.774,0,0,1-.205.549.782.782,0,0,1-.6.22.77.77,0,0,1-.6-.22A.782.782,0,0,1,68.335-10.027Zm3.3,5.991A4.681,4.681,0,0,1,72.1-6.13a3.415,3.415,0,0,1,1.274-1.436,3.469,3.469,0,0,1,1.864-.505,3.342,3.342,0,0,1,2.618,1.121,4.311,4.311,0,0,1,1,2.981v.1A4.722,4.722,0,0,1,78.41-1.8,3.365,3.365,0,0,1,77.143-.366a3.509,3.509,0,0,1-1.893.513A3.334,3.334,0,0,1,72.638-.974a4.29,4.29,0,0,1-1-2.966ZM73-3.875a3.39,3.39,0,0,0,.612,2.117,1.957,1.957,0,0,0,1.637.8,1.945,1.945,0,0,0,1.641-.809A3.707,3.707,0,0,0,77.5-4.036a3.384,3.384,0,0,0-.619-2.113,1.968,1.968,0,0,0-1.644-.809,1.946,1.946,0,0,0-1.619.8A3.68,3.68,0,0,0,73-3.875ZM84.413-6.709a4.06,4.06,0,0,0-.667-.051,1.786,1.786,0,0,0-1.809,1.135V0H80.582V-7.925H81.9l.022.916a2.11,2.11,0,0,1,1.89-1.062,1.384,1.384,0,0,1,.6.1Z" transform="translate(-2856.393 -1268)" fill="#12263f"/><g transform="translate(-7450.752 -778.043)"><g transform="translate(4474.748 -757.877)"><path d="M4474.749-753.687s9.947,107.719,9.947,116.625,1.371,22.05,3.086,28S4502.873-580,4502.873-580s-6.173,4.407-6.173,11.609-3.6,90.289-3.6,90.289l.771,16.72s3.086-2.572,4.629-1.286,4.631-.771,6.432,0,5.23-1.029,7.374,0,7.974-1.544,9.432-.257,5.316-.258,7.888,1.543,3.859-4.115,6.174-1.543,4.116-1.8,7.2.257,5.145-1.8,5.145-1.8l-2.829-82.058s-17.75-18.521-19.55-20.836,3.857-19.678,3.857-19.678l-2.057-4.693,16.72-21.119s-1.029-46,.257-51.059a54.764,54.764,0,0,0,1.543-8.4l10.547-83.245s-2.658-3.612-6.087-1.811-4.03.515-4.974-.085-2.229,1.114-3.859,1.286-1.972-2.23-4.629-.686-3.858.943-4.888.086-2.829,4.63-2.829,4.63l-3.859,25.38-4.116,39.668-2.659,4.32-3.043.382-9.3-41.2s-3.859-32.926-3.859-33.183-.857,2.915-2.915,1.457-4.974-2.143-6.86-.343-2.572-1.029-4.716-1.2-1.458,1.8-3.6,1.457-3-3.6-5.487-1.8A38.46,38.46,0,0,0,4474.749-753.687Z" transform="translate(-4474.749 757.877)" fill="#0ac4bf"/><path d="M4529.732-721.512l-5.413,41.672-1.818,15.949.911,65.852v8.832" transform="translate(-4479.167 754.512)" fill="none" stroke="#717171" stroke-linecap="round" stroke-linejoin="round" stroke-width="2"/><path d="M4509.775-719.384s6.178,30.824,10.426,41.113" transform="translate(-4477.989 754.315)" fill="none" stroke="#717171" stroke-linecap="round" stroke-linejoin="round" stroke-width="2"/><g transform="translate(37.556 69.652)"><path d="M4516.134-675.871c-.038-1.208,3.269-4.943,3.4-5.03a2.372,2.372,0,0,1,1.317-.221,2.368,2.368,0,0,1,1.315.221c.132.087,3.438,3.822,3.4,5.03a2.6,2.6,0,0,1-.535,1.531,5.231,5.231,0,0,0-.9,4.4.582.582,0,0,1-.524.641h-5.523a.582.582,0,0,1-.523-.641,5.238,5.238,0,0,0-.895-4.4A2.6,2.6,0,0,1,4516.134-675.871Z" transform="translate(-4516.133 681.123)" fill="url(#a)"/><g transform="translate(3.655 0.97)"><path d="M.8,0h.522a.8.8,0,0,1,.8.8V8.925a.8.8,0,0,1-.8.8H.8a.8.8,0,0,1-.8-.8V.8A.8.8,0,0,1,.8,0Z" fill="url(#b)"/><path d="M.623,0h.555A.621.621,0,0,1,1.8.621V8.78a.623.623,0,0,1-.623.623H.621A.621.621,0,0,1,0,8.782V.623A.623.623,0,0,1,.623,0Z" transform="translate(0.161 0.16)" fill="url(#c)"/></g></g><path d="M4523-662.214h-4.066l-.908-5.881h5.881Z" transform="translate(-4478.753 749.569)" fill="url(#d)"/><ellipse cx="4.866" cy="10.547" rx="4.866" ry="10.547" transform="translate(37.346 86.141)" fill="url(#e)"/><line y2="24.482" transform="translate(44.394 270.192)" fill="none" stroke="#717171" stroke-miterlimit="10" stroke-width="2"/><path d="M4518.4-473.776h10.289s.515-55.53,0-56.9.386-16.12,3.623-22.294,3.68-20.747,1.107-24.349l-1.814,2.292L4518.4-539.08Z" transform="translate(-4478.788 741.169)" fill="#626462"/><path d="M4537.295-594.322s-19.722,25.648-31.555,29.454" transform="translate(-4477.616 742.743)" fill="none" stroke="#267773" stroke-miterlimit="10" stroke-width="1"/><rect width="18.264" height="5.595" transform="translate(35.263 264.597)" fill="url(#f)"/><g transform="translate(39.614 163.849)"><g clip-path="url(#g)"><rect width="13.934" height="0.699" transform="translate(-1.758 99.169)" fill="#494949"/><rect width="13.934" height="0.699" transform="translate(-1.758 97.496)" fill="#494949"/><rect width="13.934" height="0.699" transform="translate(-1.758 96.173)" fill="#494949"/><rect width="13.934" height="0.699" transform="translate(-1.758 94.499)" fill="#494949"/><rect width="13.934" height="0.699" transform="translate(-1.758 93.201)" fill="#494949"/><rect width="13.934" height="0.699" transform="translate(-1.758 91.528)" fill="#494949"/><rect width="13.934" height="0.699" transform="translate(-1.758 90.204)" fill="#494949"/><rect width="13.934" height="0.699" transform="translate(-1.758 88.531)" fill="#494949"/><rect width="13.934" height="0.699" transform="translate(-1.758 86.758)" fill="#494949"/><rect width="13.934" height="0.699" transform="translate(-1.758 85.084)" fill="#494949"/><rect width="13.934" height="0.699" transform="translate(-1.758 83.761)" fill="#494949"/><rect width="13.934" height="0.699" transform="translate(-1.758 82.088)" fill="#494949"/><rect width="13.934" height="0.699" transform="translate(-1.758 80.789)" fill="#494949"/><rect width="13.934" height="0.699" transform="translate(-1.758 79.116)" fill="#494949"/><rect width="13.934" height="0.699" transform="translate(-1.758 77.792)" fill="#494949"/><rect width="13.934" height="0.699" transform="translate(-1.758 76.119)" fill="#494949"/><rect width="13.934" height="0.699" transform="translate(-1.758 74.371)" fill="#494949"/><rect width="13.934" height="0.699" transform="translate(-1.758 72.698)" fill="#494949"/><rect width="13.934" height="0.699" transform="translate(-1.758 71.374)" fill="#494949"/><rect width="13.934" height="0.699" transform="translate(-1.758 69.701)" fill="#494949"/><rect width="13.934" height="0.699" transform="translate(-1.758 68.402)" fill="#494949"/><rect width="13.934" height="0.699" transform="translate(-1.758 66.729)" fill="#494949"/><rect width="13.934" height="0.699" transform="translate(-1.758 65.406)" fill="#494949"/><rect width="13.934" height="0.699" transform="translate(-1.758 63.732)" fill="#494949"/><rect width="13.934" height="0.699" transform="translate(-1.758 62.384)" fill="#494949"/><rect width="13.934" height="0.699" transform="translate(-1.758 60.711)" fill="#494949"/><rect width="13.934" height="0.699" transform="translate(-1.758 59.387)" fill="#494949"/><rect width="13.934" height="0.699" transform="translate(-1.758 57.714)" fill="#494949"/><rect width="13.934" height="0.699" transform="translate(-1.758 56.415)" fill="#494949"/><rect width="13.934" height="0.699" transform="translate(-1.758 54.742)" fill="#494949"/><rect width="13.934" height="0.699" transform="translate(-1.758 53.418)" fill="#494949"/><rect width="13.934" height="0.699" transform="translate(-1.758 51.745)" fill="#494949"/><rect width="13.934" height="0.699" transform="translate(-1.758 50.422)" fill="#494949"/><rect width="13.934" height="0.699" transform="translate(-1.758 48.748)" fill="#494949"/><rect width="13.934" height="0.699" transform="translate(-1.758 47.425)" fill="#494949"/><rect width="13.934" height="0.699" transform="translate(-1.758 45.752)" fill="#494949"/><rect width="13.934" height="0.699" transform="translate(-1.758 44.453)" fill="#494949"/><rect width="13.934" height="0.699" transform="translate(-1.758 42.78)" fill="#494949"/><rect width="13.934" height="0.699" transform="translate(-1.758 41.456)" fill="#494949"/><rect width="13.934" height="0.699" transform="translate(-1.758 39.783)" fill="#494949"/><rect width="13.934" height="0.699" transform="translate(-1.342 38.44) rotate(5.311)" fill="#494949"/><rect width="13.934" height="0.699" transform="translate(-1.219 37.122) rotate(5.311)" fill="#494949"/><rect width="13.934" height="0.699" transform="translate(-1.064 35.456) rotate(5.311)" fill="#494949"/><rect width="13.934" height="0.699" transform="translate(-0.942 34.138) rotate(5.311)" fill="#494949"/><rect width="13.934" height="0.699" transform="translate(-0.787 32.472) rotate(5.311)" fill="#494949"/><rect width="13.934" height="0.699" transform="translate(-0.667 31.179) rotate(5.311)" fill="#494949"/><rect width="13.934" height="0.699" transform="translate(-0.512 29.513) rotate(5.311)" fill="#494949"/><rect width="13.934" height="0.699" transform="translate(-0.389 28.195) rotate(5.311)" fill="#494949"/><rect width="13.934" height="0.699" transform="translate(-0.234 26.529) rotate(5.311)" fill="#494949"/><rect width="13.934" height="0.699" transform="translate(2.288 26.429) rotate(5.311)" fill="#494949"/><rect width="13.934" height="0.699" transform="translate(2.41 25.111) rotate(5.311)" fill="#494949"/><rect width="13.934" height="0.699" transform="translate(2.566 23.445) rotate(5.311)" fill="#494949"/><rect width="13.934" height="0.699" transform="translate(2.688 22.127) rotate(5.311)" fill="#494949"/><rect width="13.934" height="0.699" transform="translate(2.843 20.461) rotate(5.311)" fill="#494949"/><rect width="13.934" height="0.699" transform="translate(2.963 19.168) rotate(5.311)" fill="#494949"/><rect width="13.934" height="0.699" transform="translate(3.118 17.502) rotate(5.311)" fill="#494949"/><rect width="13.934" height="0.699" transform="translate(3.24 16.184) rotate(5.311)" fill="#494949"/><rect width="13.934" height="0.699" transform="translate(3.395 14.518) rotate(5.311)" fill="#494949"/><rect width="13.934" height="0.699" transform="translate(5.781 12.71) rotate(5.311)" fill="#494949"/><rect width="13.934" height="0.699" transform="translate(5.936 11.044) rotate(5.311)" fill="#494949"/><rect width="13.934" height="0.699" transform="translate(6.058 9.726) rotate(5.311)" fill="#494949"/><rect width="13.934" height="0.699" transform="translate(6.214 8.06) rotate(5.311)" fill="#494949"/><rect width="13.934" height="0.699" transform="translate(6.334 6.767) rotate(5.311)" fill="#494949"/><rect width="13.934" height="0.699" transform="translate(6.488 5.101) rotate(5.311)" fill="#494949"/><rect width="13.934" height="0.699" transform="translate(6.611 3.783) rotate(5.311)" fill="#494949"/><rect width="13.934" height="0.699" transform="translate(6.766 2.117) rotate(5.311)" fill="#494949"/></g></g><path d="M4521.5-476.777s.426-60.143.568-61.811S4530-559.2,4530-559.2l4.08-13.832" transform="translate(-4479.075 740.773)" fill="none" stroke="#494949" stroke-miterlimit="10" stroke-width="1"/><path d="M4526.486-474.555v-60.086l5.048-11.379" transform="translate(-4479.537 738.273)" fill="none" stroke="#494949" stroke-miterlimit="10" stroke-width="1"/></g><path d="M4519.866-460.134l3.452,1.8,3.987-1.8Z" transform="translate(-4.175 -27.552)" fill="#c4c3c3"/></g><g transform="translate(-7326.851 -1086.405)"><rect width="55.629" height="2" transform="translate(4405.985 -372.205)" fill="#bf3976"/><g transform="translate(-28)"><path d="M4438.12-374.6l-3.393,3.391,3.393,3.391h-2.879l-3.391-3.391,3.391-3.391Z" fill="#bf3976"/></g></g><g transform="translate(-7326.851 -1065.405)"><rect width="55.629" height="2" transform="translate(4405.985 -372.205)" fill="#bf3976"/><g transform="translate(-28)"><path d="M4438.12-374.6l-3.393,3.391,3.393,3.391h-2.879l-3.391-3.391,3.391-3.391Z" fill="#bf3976"/></g></g><g transform="translate(-7322.479 -895.405)"><rect width="51.258" height="2" transform="translate(4405.985 -372.205)" fill="#bf3976"/><g transform="translate(4403.851 -374.595)"><path d="M4438.12-374.6l-3.393,3.391,3.393,3.391h-2.879l-3.391-3.391,3.391-3.391Z" transform="translate(-4431.851 374.595)" fill="#bf3976"/></g></g><g transform="translate(-7319.436 -980.405)"><rect width="48.215" height="2" transform="translate(4405.985 -372.205)" fill="#bf3976"/><g transform="translate(4403.851 -374.595)"><path d="M4438.12-374.6l-3.393,3.391,3.393,3.391h-2.879l-3.391-3.391,3.391-3.391Z" transform="translate(-4431.851 374.595)" fill="#bf3976"/></g></g></g></svg>