<svg xmlns="http://www.w3.org/2000/svg" width="64.236" height="58.943" viewBox="0 0 64.236 58.943"><g transform="translate(-2780.989 -56.941)"><path d="M0,0H64.236V58.943H0Z" transform="translate(2780.989 56.941)" fill="none"/><path d="M2828.132,58.038h-29.491a3.187,3.187,0,0,0-3.183,3.182v4.2l0,.027a.287.287,0,0,0,0,.029l3.086,48.378a1.126,1.126,0,0,0,1.124,1.07h10.8a1.125,1.125,0,0,0,1.122-1.054l1.793-26.147,1.792,26.147a1.125,1.125,0,0,0,1.122,1.054h10.8a1.126,1.126,0,0,0,1.123-1.07l1.66-19.564a1.125,1.125,0,0,0-2.247-.111l-1.607,18.5h-8.676l-2.846-31V78.635l3.408-1.736a1.127,1.127,0,0,0,.614-1v-9.35h1.525a8.807,8.807,0,0,0,2.117,5.415,9.213,9.213,0,0,0,6.426,2.805l-.768,15.5a1.125,1.125,0,0,0,2.247.111L2830.891,74a1.088,1.088,0,0,0,.026-.512l.4-8.007a.268.268,0,0,0,0-.028l0-.027v-4.2h0A3.186,3.186,0,0,0,2828.132,58.038Zm-22.622,2.25h5.552V64.3h-5.552Zm-7.8.932a.933.933,0,0,1,.933-.932h4.619V64.3h-5.552V61.22Zm.057,5.326h6.834a6.537,6.537,0,0,1-1.546,3.924,7.134,7.134,0,0,1-4.992,2.059Zm14.5,15.128-2.846,31h-8.676l-2.567-37.9a9.283,9.283,0,0,0,6.565-2.813,8.812,8.812,0,0,0,2.117-5.415h5.407V81.674Zm4.022-6.467-1.772.9V66.546h1.772Zm4.98-10.91h-7.953V60.288h7.953Zm7.448,8.22a7.054,7.054,0,0,1-4.852-2.047,6.545,6.545,0,0,1-1.547-3.924h6.7Zm.353-8.22h-5.552V60.288h4.619a.933.933,0,0,1,.933.932V64.3Z" fill="#0ac4bf"/><path d="M2815.388,63.417a1.122,1.122,0,1,0-.8-.329A1.136,1.136,0,0,0,2815.388,63.417Z" fill="#0ac4bf"/></g></svg>