<svg xmlns="http://www.w3.org/2000/svg" width="64.236" height="58.943" viewBox="0 0 64.236 58.943"><g transform="translate(-2700.253 -56.941)"><rect width="64.236" height="58.943" transform="translate(2700.253 56.941)" fill="none"/><path d="M2726.477,93.288c0,7.988,5.174,14.736,11.3,14.736s11.3-6.748,11.3-14.736-5.175-14.736-11.3-14.736S2726.477,85.3,2726.477,93.288Zm20.631,0c0,6.923-4.275,12.771-9.333,12.771s-9.333-5.848-9.333-12.771,4.274-12.772,9.333-12.772S2747.108,86.365,2747.108,93.288Z" fill="#0ac4bf"/><path d="M2730.407,93.288c0,6.368,3.882,10.807,7.368,10.807s7.368-4.439,7.368-10.807-3.883-10.807-7.368-10.807S2730.407,86.92,2730.407,93.288Zm12.771,0c0,4.979-2.905,8.842-5.4,8.842s-5.4-3.863-5.4-8.842,2.906-8.842,5.4-8.842S2743.178,88.309,2743.178,93.288Z" fill="#0ac4bf"/><path d="M2726.968,115.884h10.807c10.563,0,19.157-10.137,19.157-22.6,0-10.1-5.652-18.678-13.422-21.56-10.97-4.988-12.21-11.485-12.329-13.361a1.452,1.452,0,0,0-.946-1.277,1.48,1.48,0,0,0-1.565.34l-2.439,2.436-3.252-2.6a1.474,1.474,0,0,0-2.372,1.413c.414,2.25,2.007,8.609,6.975,12.015h-.614c-10.563,0-19.157,10.137-19.157,22.6s8.594,22.6,19.157,22.6Zm28-22.6c0,11.376-7.713,20.631-17.192,20.631s-17.193-9.255-17.193-20.631,7.713-20.631,17.193-20.631S2754.967,81.912,2754.967,93.288Zm-32.133-33.623,2.514,2.01a1.475,1.475,0,0,0,1.965-.109l2.037-2.037c.419,2.383,2.055,6.975,8.252,11.163h-5.109C2726.111,69.37,2723.68,63.011,2722.834,59.665Zm4.134,12.992h3.008c-6.686,3.53-11.358,11.446-11.358,20.631s4.672,17.1,11.358,20.631h-3.008c-9.479,0-17.192-9.255-17.192-20.631s7.713-20.631,17.192-20.631Z" fill="#0ac4bf"/><path d="M2715.056,83.562a.982.982,0,0,0-1.306.473,23.179,23.179,0,0,0-.506,17.64.983.983,0,1,0,1.846-.672,21.222,21.222,0,0,1,.438-16.135.982.982,0,0,0-.472-1.306Z" fill="#0ac4bf"/><path d="M2716.932,81.727a.983.983,0,0,0,.764-.364,15.282,15.282,0,0,1,1.287-1.395.982.982,0,1,0-1.361-1.416,17.271,17.271,0,0,0-1.452,1.571.983.983,0,0,0,.762,1.6Z" fill="#0ac4bf"/></g></svg>