<svg xmlns="http://www.w3.org/2000/svg" width="64.236" height="58.943" viewBox="0 0 64.236 58.943"><g transform="translate(-2474.041 -57.199)"><rect width="64.236" height="58.943" transform="translate(2474.041 57.199)" fill="none"/><path d="M2509.471,64.415a1.155,1.155,0,0,0-1.15-1.038h-1.916V58.971a1.155,1.155,0,0,0-1.155-1.155h-12.507a1.155,1.155,0,0,0-1.156,1.155v4.406h-1.971a1.154,1.154,0,0,0-1.149,1.038l-4.568,44.894a1.167,1.167,0,0,0,1.15,1.273h2.536v4.4a1.155,1.155,0,0,0,1.155,1.155h35.96a1.156,1.156,0,0,0,1.156-1.155v-4.4h1.414a1.167,1.167,0,0,0,1.15-1.273l-2.16-21.228a1.156,1.156,0,0,0-2.3.234l2.03,19.956h-12.06l-3.18-31.259.026-.258h12.007l.235,2.311a1.156,1.156,0,0,0,2.3-.234l-.341-3.349a1.155,1.155,0,0,0-1.149-1.038h-.989V71.409a1.156,1.156,0,0,0-1.155-1.155h-9.425a1.156,1.156,0,0,0-1.155,1.155v3.035h-.614Zm3.945,8.15h7.113v1.879h-7.113Zm-2.792,29.985a24.854,24.854,0,0,1-23.3-4.043l.274-2.7a27.145,27.145,0,0,0,22.647-.991l.772,7.594-.39.138ZM2509,82.571a24.428,24.428,0,0,1-8.606,4.911,1.156,1.156,0,0,0,.716,2.2,26.688,26.688,0,0,0,8.173-4.343l.711,6.99a24.827,24.827,0,0,1-22.148,1.073l.285-2.793c1.107.191,4.6,1.216,4.676-.734.069-1.8-3.308-1.366-4.443-1.57l.357-3.51.7-.052-.09.008c.3-.025-.21.018.09-.008h0a27.054,27.054,0,0,0,18.77-10.079Zm-1.718-16.884.56,5.5a24.776,24.776,0,0,1-18.884,11.275l.5-4.9a27.146,27.146,0,0,0,14.953-11.867Zm-13.379-2.31V60.126h10.2v3.251Zm7.767,2.31a24.776,24.776,0,0,1-11.955,9.337l.95-9.337Zm-15.338,42.584.72-7.078.107.075a27,27,0,0,0,24.1,3.509l.356,3.494Zm3.568,2.311h18.2v3.25h-18.2Zm33.65,3.25h-13.138v-3.25h13.138Z" fill="#0ac4bf"/></g></svg>