<svg xmlns="http://www.w3.org/2000/svg" xmlns:xlink="http://www.w3.org/1999/xlink" width="819.362" height="273.041" viewBox="0 0 819.362 273.041"><defs><linearGradient id="a" x1="0.5" y1="0.985" x2="0.5" y2="0.136" gradientUnits="objectBoundingBox"><stop offset="0" stop-color="#f2a099"/><stop offset="1" stop-color="#eb7884"/></linearGradient><linearGradient id="b" x1="28.376" y1="-0.15" x2="28.376" y2="-1.407" xlink:href="#a"/><linearGradient id="c" x1="0.361" y1="0.385" x2="-0.335" y2="-0.23" xlink:href="#a"/><linearGradient id="d" x1="0.28" y1="0.548" x2="2.669" y2="0.206" xlink:href="#a"/></defs><g transform="translate(-390 -849)"><g transform="translate(405.624 849)"><g transform="translate(9.211)"><path d="M2197.965-219.988c-2.155,4.876,1.462,10.368,1.777,15.377.151,2.395.081,6.082-2.823,6.685-.423.088-.725-.5-.307-.729,7.525-4.051-3.357-15.879.867-21.619a.282.282,0,0,1,.487.285Z" transform="translate(-2143.119 255.066)" fill="#5a3c43"/><path d="M2228.754-269.19c-3.059-3.646-5.8-6.542-10.928-6.866-5-.316-11.655,1.115-12.456,7.072-.081.606-1,.421-1.027-.139-.226-5.185,6.037-7.991,10.406-8.028,5.974-.051,11.663,1.982,14.258,7.765.069.153-.126.349-.254.2Z" transform="translate(-2176.994 278.601)" fill="#5a3c43"/><path d="M2242.5-279.228c-2.287.463-4.037,2.87-4.588,5.049-.525,2.075,1.019,3.014,1.544,4.81a.486.486,0,0,1-.8.468,5.23,5.23,0,0,1-1.733-6.012c.873-2.256,2.9-4.787,5.529-4.714.22.006.287.352.054.4Z" transform="translate(-2209.484 279.629)" fill="#5a3c43"/><path d="M2285.022-236.9c-.8,9.343-18.071,24.434-6.549,32.65a.516.516,0,0,1-.52.89c-12.481-7.023,4.644-25.812,6.553-33.609.069-.282.543-.231.517.07Z" transform="translate(-2273.433 262.012)" fill="#5a3c43"/></g><path d="M2217.961-270.859s14.945-9.106,27.083,5.029c10.364,12.068-.681,24.332-2.115,29.441-1.755,6.255,6.4,11.134-.194,21.081-3.546,5.353-6.993,11.771-26.818,11.124-14.568-.476-22.289-8.928-23.4-17.848-.794-6.4,1.651-10.11,4.713-16.408,3.012-6.2,4.464-18.456,7.762-24.33C2208.045-268.2,2214.526-271.362,2217.961-270.859Z" transform="translate(-2181.19 277.189)" fill="#5a3c43"/><path d="M2160.075-173.993c7.039,2.07,14.2,14.7,19.978,27.275s9.45,23.409,2.2,26.636c-10.166,4.521-20.052-17.682-23.364-25.135S2160.075-173.993,2160.075-173.993Z" transform="translate(-2097.722 235.818)" fill="#e5556a"/><path d="M2142.98-128.607c.7-1.11,1.283-2.78,2.1-2.689,1.052.117.819,2.455.293,3.273S2142.98-128.607,2142.98-128.607Z" transform="translate(-2048.672 218.111)" fill="#eb7782"/><path d="M2135.422-99.525c11.944.32,21.94-13.438,23.056-19.02,1.319-6.6-5.755-9.466-11.267-5.832-3.923,2.587-12.077,8.212-15.5,10.788C2128.523-111.192,2128.971-99.7,2135.422-99.525Z" transform="translate(-2053.763 215.9)" fill="#e5556a"/><path d="M2129.78-115.031c.6-2,3.183-10.181,4.78-9.382,1.818.909-.909,18.73,8.728,18.184s13.456-16.184,13.456-16.184l-.193-1.6.552-.366c5.511-3.634,12.587-.767,11.267,5.832-1.116,5.582-11.112,19.34-23.056,19.02a4.972,4.972,0,0,1-1.059-.142C2138.743-100.612,2133.566-108.056,2129.78-115.031Z" transform="translate(-2063.654 215.9)" fill="#e3445a"/><path d="M2131.174-120.577c1,2.747,5.715,4.217,7.449.786.9-1.782,1.3-5.266-.157-7.1s-4.976-1.693-6.53-.669S2130.4-122.717,2131.174-120.577Z" transform="translate(-2035.071 216.87)" fill="#eb7782"/><path d="M2193.986-128.924c.757-9.862-11.06-39.531-4.741-45.024,3.571-3.105,7.147-4.261,11.7-5.926,0,0,17.666,1.151,23.1.24,2.664.859,5.643,2.005,8.881,3.2,3.877,9.156,8.083,22.122,7.588,27-.758,7.46-5.759,13.843-5.564,20.087.169,5.382,5.8,15.558,7.469,27.7a89.519,89.519,0,0,1-27.078,3.6c-17.92-.725-29.125-4.2-29.125-4.2C2186.841-108.3,2193.324-120.3,2193.986-128.924Z" transform="translate(-2170.572 238.257)" fill="#e5556a"/><path d="M2248.45-108.4a31.149,31.149,0,0,0-1.091,9.092l-9.34-1.37a34.2,34.2,0,0,0,1.306-6.6c.242-3.149-.8-8.32-2.122-14.077,1.467-2.727,4.521-6.676,5.064-6.314s2,4.182,6,7.273c3.929,3.037,9.273,3.091,9.637,4.364S2249.723-112.221,2248.45-108.4Z" transform="translate(-2215.912 216.619)" fill="#e3445a"/><path d="M2182.47-75.287c-.286.92.153,12.334.2,16.219.075,6.054,1.941,2.393,3.261,5.483,1.26,2.947.784,7.053,1.449,9.327.447,2.438,1.587,6.207,4.01,7.463,3.24,1.251,8.01.193,11.052,0,3.609-.228,6.6.353,13.077.685s10.218-1.713,10.218-1.713a16.785,16.785,0,0,1-3.661-7.418c-.422-4.42-1.144-6.765-2-8.345-1.679-3.084-3.136-.962-3.33-4.226-.183-3.086-.019-15.569-1.343-17.231s-21.791-1.379-24.877-1.273C2187.186-76.2,2182.782-76.284,2182.47-75.287Z" transform="translate(-2151.643 195.343)" fill="#9e7a68"/><g transform="translate(2.976 67.953)"><path d="M2238.492-159.763c-.781.051-1.08.495-1.708,1.983a4.87,4.87,0,0,1-2.455,3.029c-2.67,1.029-4.8-.267-6.517-1.307-1.313-.8-2.444-1.494-3.723-1.33-1.489.188-2.022.955-2.764,2.012a5.4,5.4,0,0,1-4.358,2.841h-.173c-1.512,0-2.842-1-4.126-1.972-1.159-.875-2.355-1.779-3.5-1.847-1-.091-1.645.483-2.673,1.461-1.364,1.3-3.418,3.273-7.134,1.488a7.166,7.166,0,0,1-3.034-3.153c-.764-1.273-1.219-1.955-2.433-2.188-.864-.1-1.886.574-2.958,1.353-1.329.96-2.835,2.051-4.642,1.75s-2.563-2.114-3.3-3.87c-.208-.492-.45-1.066-.713-1.565.64-.881,1.275-1.7,1.9-2.444a13.528,13.528,0,0,1,1.5,2.878,8.183,8.183,0,0,0,1.094,2.125c.656.188,1.557-.579,2.466-1.233,1.387-1,3.1-2.284,5.208-1.847,2.552.489,3.566,2.182,4.384,3.546a4.538,4.538,0,0,0,1.787,2.023c1.9.9,2.56.278,3.878-.972,1.128-1.068,2.478-2.364,4.861-2.261,2.02.125,3.643,1.353,5.075,2.438a7.042,7.042,0,0,0,2.395,1.381c1-.051,1.375-.528,2.125-1.6a6.4,6.4,0,0,1,4.79-3.233c2.276-.3,4.043.784,5.594,1.733,1.668,1.006,2.677,1.569,3.949,1.074.264-.1.591-.875.826-1.443.6-1.426,1.506-3.574,4.2-3.75a5.925,5.925,0,0,1,1.952.183c1.068,1.39,2.124,2.928,3.162,4.577l-.5.241C2242.6-158.3,2240.213-159.7,2238.492-159.763Z" transform="translate(-2172.238 163.522)" fill="#e3445a"/><path d="M2243.834-130.135c-1.208.222-2.322-.591-3.475-1.477a6.567,6.567,0,0,0-2.546-1.42c-.781.051-1.08.494-1.708,1.983a4.868,4.868,0,0,1-2.454,3.029c-2.677,1.034-4.807-.261-6.518-1.307-1.312-.8-2.443-1.483-3.722-1.33-1.489.188-2.023.955-2.764,2.012a5.4,5.4,0,0,1-4.358,2.841h-.174c-1.511,0-2.841-1-4.125-1.972-1.159-.876-2.356-1.779-3.5-1.847-1-.08-1.645.483-2.674,1.46-1.364,1.3-3.418,3.273-7.134,1.489a7.173,7.173,0,0,1-3.034-3.153c-.764-1.273-1.219-1.955-2.432-2.188-.864-.114-1.886.574-2.958,1.352-1.329.955-2.835,2.046-4.642,1.751-1.963-.324-2.81-2.125-3.489-3.574-.7-1.478-1.185-2.393-2.108-2.643-1-.227-2.768.9-4.191,1.847s-2.875,1.892-4.264,1.972c.416-1.2.866-2.4,1.345-3.58.465-.27.945-.575,1.313-.819,2.01-1.33,4.285-2.847,6.552-2.228,2.293.613,3.23,2.608,3.986,4.21.429.921.875,1.864,1.326,1.938.656.182,1.557-.574,2.466-1.233,1.387-1,3.1-2.267,5.208-1.846,2.552.489,3.566,2.182,4.385,3.546a4.541,4.541,0,0,0,1.787,2.023c1.9.9,2.56.278,3.879-.972,1.127-1.068,2.477-2.381,4.861-2.261,2.02.125,3.642,1.353,5.074,2.438a6.949,6.949,0,0,0,2.395,1.381c1-.052,1.375-.528,2.126-1.6a6.4,6.4,0,0,1,4.79-3.233c2.276-.318,4.043.784,5.594,1.733,1.668,1.006,2.676,1.563,3.949,1.074.264-.1.591-.875.827-1.443.6-1.426,1.506-3.574,4.2-3.75,1.716-.114,3.284,1.068,4.514,2.017a10.8,10.8,0,0,1,1.125.926c.858-.17,1.367-1.119,2.1-2.654a8.839,8.839,0,0,1,2.281-3.328q.69,1.356,1.362,2.738a11.352,11.352,0,0,0-1.017,1.845C2247.183-132.7,2246.178-130.607,2243.834-130.135Z" transform="translate(-2171.56 153.339)" fill="#e3445a"/></g><g transform="translate(27.431 83.04)"><rect width="1.863" height="9.005" transform="translate(7.867 26.399)" fill="#5a3c43"/><path d="M2142.1-127.832s3.587.39,4.513.929,1.055,7.094.429,8.581-4.042,1.608-4.042,1.608Z" transform="translate(-2077.187 133.633)" fill="#5a3c43"/><path d="M2161.8-111.551c-2.289,1.43-8.9,1.242-10.558.207s-4.14-2.9-4.14-11.594.828-12.007,3.312-13.456,55.482-2.277,59.622.414,3.933,18.839,4.141,25.878.828,19.046-1.449,21.116-17.183,2.484-28.983,2.277-32.5-.207-34.365-1.449-.621-13.25.828-14.078,13.042-.621,20.909-.207,17.389,1.035,18.838-.207,1.035-15.113-.414-16.147-21.737-1.243-23.6-.414S2163.453-112.587,2161.8-111.551Z" transform="translate(-2147.098 137.744)" fill="#ffe7ce"/><path d="M2198.131-62.352c-.129-4.94-.354-12.208-.128-12.934.311-1,4.715-.914,8.051-1.028,3.086-.106,23.553-.39,24.876,1.272,1.015,1.275,1.156,8.9,1.249,13.788l-.932-.015C2220.736-61.452,2203.161-61.472,2198.131-62.352Z" transform="translate(-2194.605 112.303)" fill="#e0b79b"/><path d="M2250.206-136.184c-2.484,1.449-3.312,5.12-3.312,13.815s2.484,10.558,4.14,11.594a8.991,8.991,0,0,0,3.557.772c-2.595.175-5.455-.14-6.466-.772-1.655-1.035-4.14-2.9-4.14-11.594s.828-12.007,3.312-13.456a13.96,13.96,0,0,1,3.541-.547A2.339,2.339,0,0,0,2250.206-136.184Z" transform="translate(-2243.984 137.175)" fill="#e0b79b"/><path d="M2191.687-89.161c2.262-.053,3.912-.258,4.449-.718,1.449-1.242,1.035-15.113-.414-16.148-.779-.556-7-.873-12.882-.918,6.541-.054,14.881.269,15.791.918,1.449,1.035,1.863,14.906.414,16.148C2198.3-89.238,2195.4-89.094,2191.687-89.161Z" transform="translate(-2153.555 124.973)" fill="#e0b79b"/></g><g transform="translate(32.368 117.124)"><path d="M2181.536-78.394c-.28.92.149,12.334.195,16.219.073,6.054,1.893,2.393,3.18,5.483,1.228,2.947.765,7.053,1.413,9.327.435,2.438,1.547,6.207,3.909,7.463,3.158,1.251,7.809.193,10.774,0,3.517-.228,6.436.353,12.746.685s9.961-1.713,9.961-1.713a16.932,16.932,0,0,1-3.569-7.418c-.411-4.42-1.115-6.765-1.953-8.345-1.638-3.084-3.057-.962-3.247-4.226-.178-3.086-.019-15.568-1.31-17.231s-21.242-1.379-24.251-1.273C2186.132-79.307,2181.84-79.391,2181.536-78.394Z" transform="translate(-2181.442 79.508)" fill="#7bc1b5"/><path d="M2223.714-64.642c-.043-1.677-.084-3.4-.109-4.914l11.6.179,5.909,3.182c.364,1.091-.909,1.364-3.818-.545,0,0,2.364,2.091,2.545,3.364s-2,1.272-5.819-1.818c0,0,2.743,2.4,2.273,3.182-.818,1.364-4-1.182-5-1.546S2226.588-63.923,2223.714-64.642Z" transform="translate(-2223.58 75.381)" fill="#5db0a1"/><path d="M2227.969-51.051l.192.228c.013.511.028.942.047,1.268.082,1.408.392,1.814.851,2.068-2.851.159-8.569.437-13.637.437-6.287,0-13-.142-18.879.206-.82-.2-1.505-.3-1.55-3.968,0-.37-.012-.809-.022-1.3C2202.6-51.205,2220.693-50.9,2227.969-51.051Z" transform="translate(-2194.704 68.146)" fill="#5db0a1"/><path d="M2181.442-28.33c3.7.392,10.7,1.607,17.6,1.168,6.739-.43,13.7-1.539,16.348-1.988.066.527.127,1.089.183,1.69a16.932,16.932,0,0,0,3.569,7.418s-3.65,2.046-9.961,1.713-9.23-.914-12.747-.685c-2.965.193-7.616,1.251-10.774,0-2.362-1.256-3.474-5.026-3.909-7.463A10.689,10.689,0,0,1,2181.442-28.33Z" transform="translate(-2176.867 58.623)" fill="#5db0a1"/></g><path d="M2222.468-209.087s12.371,4.253,14.764,8.7c-3.056,3.706-.892,7.391,3.477,8.64,0,0-1.678,6.825-10.838,6.669-10.53-.178-12.262-6.909-12.262-6.909s5.4-2.119,6.39-6.551A12.985,12.985,0,0,0,2222.468-209.087Z" transform="translate(-2187.236 250.373)" fill="url(#a)"/><path d="M2230.907-198.541a12.983,12.983,0,0,0-1.53-10.547s.474.164,1.252.458l12.944,9.022a4.516,4.516,0,0,0-.4,4.61c-.759,1.5-2.7,4.124-7.322,5.414-5.045,1.408-11.33-2.407-11.33-2.407S2229.918-194.109,2230.907-198.541Z" transform="translate(-2194.145 250.373)" fill="#e56475"/><path d="M2206.86-236c1.811-.166,2.914,2.228,2.914,2.228,2.724-2.279,1.29-5.884,1.29-5.884s12.589-3.917,17.43-15.144c6.58.836,8.284,10.266,8.284,10.266,3.153,20.271-6.837,28.881-10.271,29.335-2.279.387-11.379-2.555-15.816-11.364a5.806,5.806,0,0,1-6.576-3.67C2203.11-232.7,2203.7-235.846,2206.86-236Z" transform="translate(-2175.751 269.333)" fill="url(#b)"/><path d="M2235.476-235.639c.16,1.219-1.95-.534-5.488.58-2.137.673-3.653,2.914-3.989,2.638s.424-2.411,3.532-3.8C2232.041-237.351,2235.359-236.534,2235.476-235.639Z" transform="translate(-2186.88 261.855)" fill="#5a3c43"/><path d="M2202.859-234.838c-.243,1.108,2.159.52,4.275,1.495,1.519.7,1.873,1.936,2.219,1.782s.547-1.691-1.549-3.007C2206.077-235.652,2203.011-235.529,2202.859-234.838Z" transform="translate(-2147.456 261.273)" fill="#5a3c43"/><path d="M2215.83-226.183c-.632-2.014-.018-3.717,1.674-5.348-2.085,1.26-3.3,3.578-2.762,5.586.549,2.187,2.311,5.467,2.342,6.093a3.317,3.317,0,0,1-2.228,2.693c2.463-.249,3.714-1.828,3.572-3.007C2218.337-220.935,2216.515-223.831,2215.83-226.183Z" transform="translate(-2163.214 259.681)" fill="#e56475"/><path d="M2252.5-215.6c.573,1.26,1.7,1.982,2.509,1.613s1.007-1.69.434-2.95-1.7-1.983-2.509-1.614S2251.924-216.863,2252.5-215.6Z" transform="translate(-2222.521 254.339)" fill="#e56475"/><path d="M2228.229-79.889a37.519,37.519,0,0,0,5.912,2.576c3.033.807,7.539,1.568,9.672,2.208,2.664.8,6.36,3.341,6.026,4.257-.473,1.3-3.466-1.59-6.45-1.937,2.237,1.2,5.569,3.689,5.152,4.775-.586,1.527-5.155-2.828-7.364-2.925,1.249.63,4.484,3.619,4.042,4.277-.674,1-3.966-2.19-4.819-2.473s-6.508-1.4-8.62-2.526a59.967,59.967,0,0,1-8.118-2.03Z" transform="translate(-2199.931 196.79)" fill="url(#c)"/><path d="M2248.39-69.132c-.854-.282-6.508-1.4-8.619-2.526a59.948,59.948,0,0,1-8.118-2.03l4.566-6.2a39.92,39.92,0,0,0,5.585,2.48,3.065,3.065,0,0,0-.981,1.746c-.637,3.182,7.091,5.728,8.273,6.091,1.145.352,3.653,3.262,4.078,2.954C2252.432-65.757,2249.231-68.854,2248.39-69.132Z" transform="translate(-2207.921 196.79)" fill="#eb7782"/><path d="M2285.727-116.112l-4.658,8.229s-27.177-3.279-28.108-19.634c-.83-14.573,11.334-37.109,18.632-42.233l6.417,25.05s-8.022,11.334-7.867,14.906S2285.727-116.112,2285.727-116.112Z" transform="translate(-2252.92 234.058)" fill="#e5556a"/><g transform="translate(45.237 43.715)"><g transform="translate(0)"><path d="M2215.059-204.936a32.284,32.284,0,0,0,4.968,1.473,18.837,18.837,0,0,0,4.76.308s-2.269,3.489-5.622,2.826C2215.911-200.973,2215.059-204.936,2215.059-204.936Z" transform="translate(-2215.059 204.936)" fill="#bd455b"/></g><path d="M2219.8-202.2a7.552,7.552,0,0,0,4.964-.932l.019-.02a17.318,17.318,0,0,1-4.76-.308,35.961,35.961,0,0,1-4.968-1.473A7.749,7.749,0,0,0,2219.8-202.2Z" transform="translate(-2215.059 204.936)" fill="#973345"/></g><g transform="translate(39.617 31.3)"><path d="M2235.576-224.225s-2,2.058-4.381,1.1c-2.279-.919-2.528-2.488-3.674-2.738,0,0,.537-.892,2.974.493A7.582,7.582,0,0,0,2235.576-224.225Z" transform="translate(-2227.521 226.149)" fill="#5a3c43"/><path d="M2204.427-221.36a4.589,4.589,0,0,0,3.659,1.3c1.981-.266,2-2.094,2.64-1.8,0,0-.277-.636-1.117-.307a8.78,8.78,0,0,1-1.743.555A20.434,20.434,0,0,1,2204.427-221.36Z" transform="translate(-2189.154 224.537)" fill="#5a3c43"/></g><path d="M2137.244-129.5a6.577,6.577,0,0,0-2.717.643c-1.154.5-4.379,2.147-3.858,3.04.428.735,2.164.011,4.15-.585,1.169-.351,3.507-.643,3.682-.117.131.391-1.9.2-3.741.76-1.988.606-4.108,1.583-3.858,2.221.526,1.344,2.6.38,4.618.059,1.837-.293,3.49-.294,3.566.117.053.3-1.473.248-2.923.526-1.7.325-3.349,1-3.233,1.761.112.733,1.768.273,3.525.226,1.334-.035,2.622.3,3.545-.418C2142.43-123.162,2141.073-129.38,2137.244-129.5Z" transform="translate(-2036.828 217.365)" fill="url(#d)"/><path d="M2276.394-169.749c-7.684,7.371-18.222,35.118-15.955,42.634,3.455,11.456,23.14,14.7,27.28,15.967l-1.848,3.265s-27.177-3.28-28.109-19.634C2256.932-142.089,2269.1-164.625,2276.394-169.749Z" transform="translate(-2257.721 234.058)" fill="#e3445a"/><g transform="translate(2.976 67.953)"><path d="M2276.338-155.643c-1.8-.3-2.563-2.114-3.3-3.87-.207-.492-.45-1.066-.713-1.565,1.621-2.235,1.007-1.255,1.9-2.444a13.559,13.559,0,0,1,1.5,2.878,8.206,8.206,0,0,0,1.094,2.125c.747.214,2.32-1.134,2.979-1.6a2.5,2.5,0,0,1,.775,3.025C2279.337-156.223,2277.958-155.373,2276.338-155.643Z" transform="translate(-2262.286 163.522)" fill="#e3445a"/><path d="M2284.5-130.033c-1.329.955-2.835,2.046-4.642,1.751-1.963-.324-2.81-2.125-3.489-3.574-.7-1.478-1.185-2.393-2.108-2.642-1-.227-2.768.9-4.191,1.847s-2.875,1.892-4.264,1.972c.416-1.2.866-2.4,1.345-3.579h0c.466-.27.945-.575,1.313-.819,2.009-1.33,4.285-2.847,6.552-2.228,2.293.613,3.231,2.608,3.987,4.21.429.921.875,1.864,1.327,1.938.656.182,1.556-.574,2.466-1.233,1.194-.861,2.632-1.917,4.352-1.927a2.574,2.574,0,0,1,.772,3.014l-.023.033a3.251,3.251,0,0,0-.438-.115C2286.594-131.5,2285.571-130.812,2284.5-130.033Z" transform="translate(-2265.805 152.709)" fill="#e3445a"/></g><g transform="translate(14.56 9.512)"><path d="M2235.243-239.445c7.45-.21,13.106-2.4,18.475-7.562a.355.355,0,0,1,.555.428c-3.442,5.909-12.65,8.84-19.1,7.658-.3-.056-.22-.516.071-.525Z" transform="translate(-2225.576 256.628)" fill="#4c3339"/><path d="M2242.7-263.013c-.707,4.26-6.338,9.676-10.808,9.435a.318.318,0,0,1-.083-.621c4.858-1.361,7.922-4.8,10.369-9.035.172-.3.573-.085.522.221Z" transform="translate(-2211.975 263.377)" fill="#4c3339"/><path d="M2278.13-191.762c-.467,2.96.274,6.613,2.879,8.324.518.34.2,1.3-.446,1.059-3.389-1.251-3.745-6.6-2.9-9.513a.245.245,0,0,1,.471.13Z" transform="translate(-2277.274 233.802)" fill="#4c3339"/><path d="M2274.125-220.837c.209,7.686-8.924,11.651-6.456,19.731a.4.4,0,0,1-.721.3c-3.585-6.955,5.87-13.6,6.808-20.086.031-.216.364-.153.369.05Z" transform="translate(-2263.619 245.811)" fill="#4c3339"/></g></g><g transform="translate(-2037.378 543.814)"><rect width="99.661" height="34.829" transform="translate(2537.079 469.917)" fill="#ad2564"/><rect width="201.112" height="67" transform="translate(2430.36 432.703)" fill="#ecccdd"/><path d="M2.93,0H1.43V-11.375h1.5ZM6.813-8.453l.047,1.063A3.08,3.08,0,0,1,9.391-8.609q2.68,0,2.7,3.023V0H10.648V-5.594a1.946,1.946,0,0,0-.418-1.352,1.675,1.675,0,0,0-1.277-.437,2.086,2.086,0,0,0-1.234.375,2.546,2.546,0,0,0-.828.984V0H5.445V-8.453ZM19.2-2.242a1.064,1.064,0,0,0-.441-.91,4.249,4.249,0,0,0-1.539-.559,7.277,7.277,0,0,1-1.742-.562,2.479,2.479,0,0,1-.953-.781,1.869,1.869,0,0,1-.309-1.078,2.193,2.193,0,0,1,.879-1.758,3.432,3.432,0,0,1,2.246-.719,3.532,3.532,0,0,1,2.332.742,2.357,2.357,0,0,1,.895,1.9H19.109a1.3,1.3,0,0,0-.5-1.023,1.888,1.888,0,0,0-1.27-.43,1.976,1.976,0,0,0-1.234.344,1.082,1.082,0,0,0-.445.9.877.877,0,0,0,.414.789,5.1,5.1,0,0,0,1.5.508A7.8,7.8,0,0,1,19.32-4.3a2.558,2.558,0,0,1,1,.809,1.988,1.988,0,0,1,.324,1.152,2.163,2.163,0,0,1-.906,1.816,3.8,3.8,0,0,1-2.352.684,4.257,4.257,0,0,1-1.8-.359,2.922,2.922,0,0,1-1.223-1A2.42,2.42,0,0,1,13.922-2.6h1.445a1.5,1.5,0,0,0,.582,1.152,2.258,2.258,0,0,0,1.434.426A2.331,2.331,0,0,0,18.7-1.355,1.02,1.02,0,0,0,19.2-2.242ZM27.742-.836a3.07,3.07,0,0,1-2.477.992,2.628,2.628,0,0,1-2.059-.785,3.4,3.4,0,0,1-.715-2.324v-5.5h1.445v5.461q0,1.922,1.563,1.922A2.163,2.163,0,0,0,27.7-2.3V-8.453h1.445V0H27.773ZM32.7-8.453l.039.938A3.122,3.122,0,0,1,35.25-8.609,2.417,2.417,0,0,1,37.664-7.25a3.2,3.2,0,0,1,1.1-.984,3.242,3.242,0,0,1,1.6-.375q2.781,0,2.828,2.945V0H41.742V-5.578a1.941,1.941,0,0,0-.414-1.355,1.823,1.823,0,0,0-1.391-.449A1.916,1.916,0,0,0,38.6-6.9a1.949,1.949,0,0,0-.617,1.293V0H36.531V-5.539a1.613,1.613,0,0,0-1.8-1.844,1.934,1.934,0,0,0-1.945,1.211V0H31.336V-8.453ZM44.984-4.3a4.993,4.993,0,0,1,.488-2.234A3.643,3.643,0,0,1,46.832-8.07a3.7,3.7,0,0,1,1.988-.539,3.565,3.565,0,0,1,2.793,1.2,4.6,4.6,0,0,1,1.066,3.18v.1a5.036,5.036,0,0,1-.473,2.215A3.589,3.589,0,0,1,50.855-.391a3.743,3.743,0,0,1-2.02.547,3.556,3.556,0,0,1-2.785-1.2A4.575,4.575,0,0,1,44.984-4.2Zm1.453.172a3.616,3.616,0,0,0,.652,2.258,2.088,2.088,0,0,0,1.746.852,2.075,2.075,0,0,0,1.75-.863A3.955,3.955,0,0,0,51.234-4.3a3.61,3.61,0,0,0-.66-2.254,2.1,2.1,0,0,0-1.754-.863,2.075,2.075,0,0,0-1.727.852A3.925,3.925,0,0,0,46.438-4.133ZM59.414-2.242a1.064,1.064,0,0,0-.441-.91,4.249,4.249,0,0,0-1.539-.559,7.277,7.277,0,0,1-1.742-.562,2.479,2.479,0,0,1-.953-.781,1.869,1.869,0,0,1-.309-1.078,2.193,2.193,0,0,1,.879-1.758,3.432,3.432,0,0,1,2.246-.719,3.532,3.532,0,0,1,2.332.742,2.357,2.357,0,0,1,.895,1.9H59.328a1.3,1.3,0,0,0-.5-1.023,1.888,1.888,0,0,0-1.27-.43,1.976,1.976,0,0,0-1.234.344,1.082,1.082,0,0,0-.445.9.877.877,0,0,0,.414.789,5.1,5.1,0,0,0,1.5.508,7.8,7.8,0,0,1,1.754.578,2.558,2.558,0,0,1,1,.809,1.988,1.988,0,0,1,.324,1.152,2.163,2.163,0,0,1-.906,1.816A3.8,3.8,0,0,1,57.6.156,4.257,4.257,0,0,1,55.8-.2a2.922,2.922,0,0,1-1.223-1A2.42,2.42,0,0,1,54.141-2.6h1.445a1.5,1.5,0,0,0,.582,1.152,2.258,2.258,0,0,0,1.434.426,2.331,2.331,0,0,0,1.316-.332A1.02,1.02,0,0,0,59.414-2.242Z" transform="translate(2504.927 471.917)" fill="#161615"/><path d="M2486.039,440.861h137.386V495.1" fill="none" stroke="#fff" stroke-miterlimit="10" stroke-width="2" stroke-dasharray="7"/><path d="M2427.378,485.738V429.68h56.059" fill="#ad2564"/><rect width="99.661" height="34.829" transform="translate(2832.079 404.858)" fill="#2287cb"/><rect width="201.112" height="67" transform="translate(2725.36 367.644)" fill="#cce7fa"/><path d="M9.688-3.609A4.185,4.185,0,0,1,8.355-.824a4.365,4.365,0,0,1-2.98.98,4.008,4.008,0,0,1-3.23-1.445A5.815,5.815,0,0,1,.93-5.156V-6.25A6.481,6.481,0,0,1,1.5-9.039,4.231,4.231,0,0,1,3.1-10.887a4.47,4.47,0,0,1,2.406-.645A4.11,4.11,0,0,1,8.414-10.52a4.235,4.235,0,0,1,1.273,2.8H8.18a3.254,3.254,0,0,0-.848-1.969A2.569,2.569,0,0,0,5.508-10.3,2.685,2.685,0,0,0,3.254-9.234a4.875,4.875,0,0,0-.816,3.023v1.1a5.011,5.011,0,0,0,.773,2.945A2.5,2.5,0,0,0,5.375-1.07a2.887,2.887,0,0,0,1.918-.566A3.143,3.143,0,0,0,8.18-3.609Zm1.438-.7a4.993,4.993,0,0,1,.488-2.234A3.643,3.643,0,0,1,12.973-8.07a3.7,3.7,0,0,1,1.988-.539,3.565,3.565,0,0,1,2.793,1.2,4.6,4.6,0,0,1,1.066,3.18v.1a5.036,5.036,0,0,1-.473,2.215A3.589,3.589,0,0,1,17-.391a3.743,3.743,0,0,1-2.02.547,3.556,3.556,0,0,1-2.785-1.2A4.575,4.575,0,0,1,11.125-4.2Zm1.453.172a3.616,3.616,0,0,0,.652,2.258,2.088,2.088,0,0,0,1.746.852,2.075,2.075,0,0,0,1.75-.863A3.955,3.955,0,0,0,17.375-4.3a3.61,3.61,0,0,0-.66-2.254,2.1,2.1,0,0,0-1.754-.863,2.075,2.075,0,0,0-1.727.852A3.925,3.925,0,0,0,12.578-4.133ZM22-8.453l.047,1.063a3.08,3.08,0,0,1,2.531-1.219q2.68,0,2.7,3.023V0H25.836V-5.594a1.946,1.946,0,0,0-.418-1.352,1.675,1.675,0,0,0-1.277-.437,2.086,2.086,0,0,0-1.234.375,2.546,2.546,0,0,0-.828.984V0H20.633V-8.453ZM30.172,0V-7.336H28.836V-8.453h1.336V-9.32a2.878,2.878,0,0,1,.727-2.1,2.745,2.745,0,0,1,2.055-.742,3.793,3.793,0,0,1,.992.133l-.078,1.172a4.151,4.151,0,0,0-.781-.07A1.413,1.413,0,0,0,32-10.52a1.66,1.66,0,0,0-.383,1.176v.891h1.8v1.117h-1.8V0Zm8.352.156a3.693,3.693,0,0,1-2.8-1.129,4.19,4.19,0,0,1-1.078-3.02v-.266a5.073,5.073,0,0,1,.48-2.246,3.748,3.748,0,0,1,1.344-1.547,3.378,3.378,0,0,1,1.871-.559,3.166,3.166,0,0,1,2.563,1.086,4.7,4.7,0,0,1,.914,3.109v.6H36.094a3,3,0,0,0,.73,2.02,2.3,2.3,0,0,0,1.777.77,2.517,2.517,0,0,0,1.3-.312,3.259,3.259,0,0,0,.93-.828l.883.688A3.55,3.55,0,0,1,38.523.156Zm-.18-7.578a1.928,1.928,0,0,0-1.469.637A3.1,3.1,0,0,0,36.141-5h4.234v-.109a2.753,2.753,0,0,0-.594-1.707A1.815,1.815,0,0,0,38.344-7.422Zm8.539,6.4a2.082,2.082,0,0,0,1.352-.469,1.649,1.649,0,0,0,.641-1.172h1.367a2.621,2.621,0,0,1-.5,1.383,3.293,3.293,0,0,1-1.23,1.047,3.55,3.55,0,0,1-1.629.391A3.482,3.482,0,0,1,44.137-1a4.59,4.59,0,0,1-1.02-3.152v-.242a5.089,5.089,0,0,1,.453-2.2,3.451,3.451,0,0,1,1.3-1.492,3.7,3.7,0,0,1,2-.531,3.39,3.39,0,0,1,2.363.852,3.043,3.043,0,0,1,1,2.211H48.875a1.992,1.992,0,0,0-.621-1.348,1.932,1.932,0,0,0-1.379-.527,2.023,2.023,0,0,0-1.707.793,3.724,3.724,0,0,0-.605,2.293v.273a3.65,3.65,0,0,0,.6,2.25A2.033,2.033,0,0,0,46.883-1.023Zm8.375,0a2.082,2.082,0,0,0,1.352-.469,1.649,1.649,0,0,0,.641-1.172h1.367a2.621,2.621,0,0,1-.5,1.383,3.293,3.293,0,0,1-1.23,1.047,3.55,3.55,0,0,1-1.629.391A3.482,3.482,0,0,1,52.512-1a4.59,4.59,0,0,1-1.02-3.152v-.242a5.089,5.089,0,0,1,.453-2.2,3.451,3.451,0,0,1,1.3-1.492,3.7,3.7,0,0,1,2-.531,3.39,3.39,0,0,1,2.363.852,3.043,3.043,0,0,1,1,2.211H57.25a1.992,1.992,0,0,0-.621-1.348,1.932,1.932,0,0,0-1.379-.527,2.023,2.023,0,0,0-1.707.793,3.724,3.724,0,0,0-.605,2.293v.273a3.65,3.65,0,0,0,.6,2.25A2.033,2.033,0,0,0,55.258-1.023ZM61.813,0H60.367V-8.453h1.445ZM60.25-10.7a.863.863,0,0,1,.215-.594.807.807,0,0,1,.637-.242.819.819,0,0,1,.641.242.854.854,0,0,1,.219.594.826.826,0,0,1-.219.586.834.834,0,0,1-.641.234.821.821,0,0,1-.637-.234A.834.834,0,0,1,60.25-10.7ZM63.742-4.3a4.993,4.993,0,0,1,.488-2.234A3.643,3.643,0,0,1,65.59-8.07a3.7,3.7,0,0,1,1.988-.539,3.565,3.565,0,0,1,2.793,1.2,4.6,4.6,0,0,1,1.066,3.18v.1a5.036,5.036,0,0,1-.473,2.215A3.589,3.589,0,0,1,69.613-.391a3.743,3.743,0,0,1-2.02.547,3.556,3.556,0,0,1-2.785-1.2A4.575,4.575,0,0,1,63.742-4.2Zm1.453.172a3.616,3.616,0,0,0,.652,2.258,2.088,2.088,0,0,0,1.746.852,2.075,2.075,0,0,0,1.75-.863A3.955,3.955,0,0,0,69.992-4.3a3.61,3.61,0,0,0-.66-2.254,2.1,2.1,0,0,0-1.754-.863,2.075,2.075,0,0,0-1.727.852A3.925,3.925,0,0,0,65.2-4.133ZM68.234-12h1.75L67.891-9.7H66.727Zm6.383,3.547.047,1.063A3.08,3.08,0,0,1,77.2-8.609q2.68,0,2.7,3.023V0H78.453V-5.594a1.946,1.946,0,0,0-.418-1.352,1.675,1.675,0,0,0-1.277-.437,2.086,2.086,0,0,0-1.234.375,2.546,2.546,0,0,0-.828.984V0H73.25V-8.453Z" transform="translate(2785.517 406.858)" fill="#161615"/><path d="M2762.705,384.8h137.386v54.236" transform="translate(18.334 -9)" fill="none" stroke="#fff" stroke-miterlimit="10" stroke-width="2" stroke-dasharray="7"/><path d="M2704.044,429.68V373.621H2760.1" transform="translate(18.334 -9)" fill="#2287cb"/><rect width="99.661" height="34.829" transform="translate(3147.079 345.423)" fill="#32abaa"/><rect width="201.112" height="67" transform="translate(3040.36 308.209)" fill="#c3e4e6"/><path d="M5.492-4.6H2.82V0H1.313V-11.375H5.078a4.457,4.457,0,0,1,2.957.875A3.148,3.148,0,0,1,9.07-7.953,3.062,3.062,0,0,1,8.5-6.1a3.428,3.428,0,0,1-1.6,1.18L9.57-.094V0H7.961ZM2.82-5.828h2.3A2.6,2.6,0,0,0,6.9-6.406a1.953,1.953,0,0,0,.66-1.547A2.057,2.057,0,0,0,6.934-9.57a2.666,2.666,0,0,0-1.816-.57H2.82ZM10.563-4.3a4.993,4.993,0,0,1,.488-2.234A3.643,3.643,0,0,1,12.41-8.07,3.7,3.7,0,0,1,14.4-8.609a3.565,3.565,0,0,1,2.793,1.2,4.6,4.6,0,0,1,1.066,3.18v.1a5.036,5.036,0,0,1-.473,2.215A3.589,3.589,0,0,1,16.434-.391a3.743,3.743,0,0,1-2.02.547,3.556,3.556,0,0,1-2.785-1.2A4.575,4.575,0,0,1,10.563-4.2Zm1.453.172a3.616,3.616,0,0,0,.652,2.258,2.088,2.088,0,0,0,1.746.852,2.075,2.075,0,0,0,1.75-.863A3.955,3.955,0,0,0,16.813-4.3a3.61,3.61,0,0,0-.66-2.254A2.1,2.1,0,0,0,14.4-7.422a2.075,2.075,0,0,0-1.727.852A3.925,3.925,0,0,0,12.016-4.133Zm15.2,0a5.062,5.062,0,0,1-.883,3.109A2.829,2.829,0,0,1,23.938.156,3.1,3.1,0,0,1,21.516-.82V3.25H20.07v-11.7h1.32l.07.938a2.977,2.977,0,0,1,2.453-1.094,2.882,2.882,0,0,1,2.41,1.148,5.117,5.117,0,0,1,.887,3.2ZM25.766-4.3a3.735,3.735,0,0,0-.609-2.258,1.963,1.963,0,0,0-1.672-.828,2.125,2.125,0,0,0-1.969,1.164V-2.18A2.129,2.129,0,0,0,23.5-1.023a1.954,1.954,0,0,0,1.652-.824A4.077,4.077,0,0,0,25.766-4.3Zm8.5,4.3a3.036,3.036,0,0,1-.2-.891A3.225,3.225,0,0,1,31.656.156a2.984,2.984,0,0,1-2.051-.707,2.287,2.287,0,0,1-.8-1.793,2.39,2.39,0,0,1,1-2.051,4.733,4.733,0,0,1,2.824-.73h1.406v-.664A1.623,1.623,0,0,0,33.586-7a1.821,1.821,0,0,0-1.336-.449,2.108,2.108,0,0,0-1.3.391,1.151,1.151,0,0,0-.523.945H28.977a2,2,0,0,1,.449-1.223,3.066,3.066,0,0,1,1.219-.934,4.1,4.1,0,0,1,1.691-.344,3.342,3.342,0,0,1,2.289.73,2.635,2.635,0,0,1,.859,2.012v3.891a4.757,4.757,0,0,0,.3,1.852V0Zm-2.4-1.1a2.54,2.54,0,0,0,1.289-.352,2.127,2.127,0,0,0,.883-.914V-4.1H32.906q-2.656,0-2.656,1.555A1.316,1.316,0,0,0,30.7-1.484,1.742,1.742,0,0,0,31.867-1.1ZM45.219.156a3.693,3.693,0,0,1-2.8-1.129,4.19,4.19,0,0,1-1.078-3.02v-.266a5.073,5.073,0,0,1,.48-2.246,3.748,3.748,0,0,1,1.344-1.547,3.378,3.378,0,0,1,1.871-.559A3.166,3.166,0,0,1,47.6-7.523a4.7,4.7,0,0,1,.914,3.109v.6H42.789a3,3,0,0,0,.73,2.02,2.3,2.3,0,0,0,1.777.77,2.517,2.517,0,0,0,1.3-.312,3.259,3.259,0,0,0,.93-.828l.883.688A3.55,3.55,0,0,1,45.219.156Zm-.18-7.578a1.928,1.928,0,0,0-1.469.637A3.1,3.1,0,0,0,42.836-5H47.07v-.109a2.753,2.753,0,0,0-.594-1.707A1.815,1.815,0,0,0,45.039-7.422Zm7.984,2.055L54.9-8.453h1.688L53.82-4.273,56.672,0H55L53.047-3.164,51.094,0h-1.68l2.852-4.273L49.5-8.453h1.672ZM60.078-10.5v2.047h1.578v1.117H60.078v5.242a1.171,1.171,0,0,0,.211.762.888.888,0,0,0,.719.254,3.5,3.5,0,0,0,.688-.094V0a4.19,4.19,0,0,1-1.109.156A1.8,1.8,0,0,1,59.125-.43a2.517,2.517,0,0,1-.492-1.664V-7.336H57.094V-8.453h1.539V-10.5ZM66.852.156a3.693,3.693,0,0,1-2.8-1.129,4.19,4.19,0,0,1-1.078-3.02v-.266a5.073,5.073,0,0,1,.48-2.246A3.748,3.748,0,0,1,64.8-8.051a3.378,3.378,0,0,1,1.871-.559,3.166,3.166,0,0,1,2.563,1.086,4.7,4.7,0,0,1,.914,3.109v.6H64.422a3,3,0,0,0,.73,2.02,2.3,2.3,0,0,0,1.777.77,2.517,2.517,0,0,0,1.3-.312,3.259,3.259,0,0,0,.93-.828l.883.688A3.55,3.55,0,0,1,66.852.156Zm-.18-7.578a1.928,1.928,0,0,0-1.469.637A3.1,3.1,0,0,0,64.469-5H68.7v-.109a2.753,2.753,0,0,0-.594-1.707A1.815,1.815,0,0,0,66.672-7.422Zm9.234.266a4.331,4.331,0,0,0-.711-.055A1.9,1.9,0,0,0,73.266-6V0H71.82V-8.453h1.406l.023.977a2.251,2.251,0,0,1,2.016-1.133,1.477,1.477,0,0,1,.641.109ZM78.8,0H77.359V-8.453H78.8ZM77.242-10.7a.863.863,0,0,1,.215-.594.807.807,0,0,1,.637-.242.819.819,0,0,1,.641.242.854.854,0,0,1,.219.594.826.826,0,0,1-.219.586.834.834,0,0,1-.641.234.821.821,0,0,1-.637-.234A.834.834,0,0,1,77.242-10.7ZM80.734-4.3a4.993,4.993,0,0,1,.488-2.234A3.643,3.643,0,0,1,82.582-8.07a3.7,3.7,0,0,1,1.988-.539,3.565,3.565,0,0,1,2.793,1.2,4.6,4.6,0,0,1,1.066,3.18v.1a5.036,5.036,0,0,1-.473,2.215A3.589,3.589,0,0,1,86.605-.391a3.743,3.743,0,0,1-2.02.547,3.556,3.556,0,0,1-2.785-1.2A4.575,4.575,0,0,1,80.734-4.2Zm1.453.172a3.616,3.616,0,0,0,.652,2.258,2.088,2.088,0,0,0,1.746.852,2.075,2.075,0,0,0,1.75-.863A3.955,3.955,0,0,0,86.984-4.3a3.61,3.61,0,0,0-.66-2.254,2.1,2.1,0,0,0-1.754-.863,2.075,2.075,0,0,0-1.727.852A3.925,3.925,0,0,0,82.188-4.133ZM94.328-7.156a4.331,4.331,0,0,0-.711-.055A1.9,1.9,0,0,0,91.688-6V0H90.242V-8.453h1.406l.023.977a2.251,2.251,0,0,1,2.016-1.133,1.477,1.477,0,0,1,.641.109Z" transform="translate(3100.517 347.423)" fill="#161615"/><path d="M3039.371,324.367h137.386V378.6" transform="translate(56.668 -8)" fill="none" stroke="#fff" stroke-miterlimit="10" stroke-width="2" stroke-dasharray="7"/><path d="M2980.71,369.244V313.186h56.059" transform="translate(56.668 -8)" fill="#32abaa"/><rect width="99.661" height="34.829" transform="translate(3147.079 475.173)" fill="#32abaa"/><rect width="201.112" height="67" transform="translate(3040.36 437.959)" fill="#c3e4e6"/><path d="M-45.707-4.6h-2.672V0h-1.508V-11.375h3.766a4.457,4.457,0,0,1,2.957.875,3.148,3.148,0,0,1,1.035,2.547A3.062,3.062,0,0,1-42.7-6.1a3.428,3.428,0,0,1-1.6,1.18l2.672,4.828V0h-1.609Zm-2.672-1.227h2.3A2.6,2.6,0,0,0-44.3-6.406a1.953,1.953,0,0,0,.66-1.547,2.057,2.057,0,0,0-.629-1.617,2.666,2.666,0,0,0-1.816-.57h-2.3ZM-40.637-4.3a4.993,4.993,0,0,1,.488-2.234A3.643,3.643,0,0,1-38.789-8.07,3.7,3.7,0,0,1-36.8-8.609a3.565,3.565,0,0,1,2.793,1.2,4.6,4.6,0,0,1,1.066,3.18v.1a5.036,5.036,0,0,1-.473,2.215A3.589,3.589,0,0,1-34.766-.391a3.743,3.743,0,0,1-2.02.547,3.556,3.556,0,0,1-2.785-1.2A4.575,4.575,0,0,1-40.637-4.2Zm1.453.172a3.616,3.616,0,0,0,.652,2.258,2.088,2.088,0,0,0,1.746.852,2.075,2.075,0,0,0,1.75-.863A3.955,3.955,0,0,0-34.387-4.3a3.61,3.61,0,0,0-.66-2.254A2.1,2.1,0,0,0-36.8-7.422a2.075,2.075,0,0,0-1.727.852A3.925,3.925,0,0,0-39.184-4.133Zm15.2,0a5.062,5.062,0,0,1-.883,3.109A2.829,2.829,0,0,1-27.262.156,3.1,3.1,0,0,1-29.684-.82V3.25h-1.445v-11.7h1.32l.07.938a2.977,2.977,0,0,1,2.453-1.094,2.882,2.882,0,0,1,2.41,1.148,5.117,5.117,0,0,1,.887,3.2ZM-25.434-4.3a3.735,3.735,0,0,0-.609-2.258,1.963,1.963,0,0,0-1.672-.828,2.125,2.125,0,0,0-1.969,1.164V-2.18A2.129,2.129,0,0,0-27.7-1.023a1.954,1.954,0,0,0,1.652-.824A4.077,4.077,0,0,0-25.434-4.3Zm8.5,4.3a3.036,3.036,0,0,1-.2-.891A3.225,3.225,0,0,1-19.543.156a2.984,2.984,0,0,1-2.051-.707,2.287,2.287,0,0,1-.8-1.793,2.39,2.39,0,0,1,1-2.051,4.733,4.733,0,0,1,2.824-.73h1.406v-.664A1.623,1.623,0,0,0-17.613-7a1.821,1.821,0,0,0-1.336-.449,2.108,2.108,0,0,0-1.3.391,1.151,1.151,0,0,0-.523.945h-1.453a2,2,0,0,1,.449-1.223,3.066,3.066,0,0,1,1.219-.934,4.1,4.1,0,0,1,1.691-.344,3.342,3.342,0,0,1,2.289.73,2.635,2.635,0,0,1,.859,2.012v3.891a4.757,4.757,0,0,0,.3,1.852V0Zm-2.4-1.1a2.54,2.54,0,0,0,1.289-.352,2.127,2.127,0,0,0,.883-.914V-4.1h-1.133q-2.656,0-2.656,1.555A1.316,1.316,0,0,0-20.5-1.484,1.742,1.742,0,0,0-19.332-1.1ZM-7.918,0H-9.363V-8.453h1.445ZM-9.48-10.7a.863.863,0,0,1,.215-.594.807.807,0,0,1,.637-.242.819.819,0,0,1,.641.242.854.854,0,0,1,.219.594.826.826,0,0,1-.219.586.834.834,0,0,1-.641.234.821.821,0,0,1-.637-.234A.834.834,0,0,1-9.48-10.7Zm5.242,2.242.047,1.063A3.08,3.08,0,0,1-1.66-8.609q2.68,0,2.7,3.023V0H-.4V-5.594A1.946,1.946,0,0,0-.82-6.945,1.675,1.675,0,0,0-2.1-7.383a2.086,2.086,0,0,0-1.234.375,2.546,2.546,0,0,0-.828.984V0H-5.605V-8.453ZM5.184-10.5v2.047H6.762v1.117H5.184v5.242a1.171,1.171,0,0,0,.211.762.888.888,0,0,0,.719.254A3.5,3.5,0,0,0,6.8-1.172V0A4.19,4.19,0,0,1,5.691.156,1.8,1.8,0,0,1,4.23-.43a2.517,2.517,0,0,1-.492-1.664V-7.336H2.2V-8.453H3.738V-10.5ZM11.957.156A3.693,3.693,0,0,1,9.16-.973a4.19,4.19,0,0,1-1.078-3.02v-.266A5.073,5.073,0,0,1,8.563-6.5,3.748,3.748,0,0,1,9.906-8.051a3.378,3.378,0,0,1,1.871-.559A3.166,3.166,0,0,1,14.34-7.523a4.7,4.7,0,0,1,.914,3.109v.6H9.527a3,3,0,0,0,.73,2.02,2.3,2.3,0,0,0,1.777.77,2.517,2.517,0,0,0,1.3-.312,3.259,3.259,0,0,0,.93-.828l.883.688A3.55,3.55,0,0,1,11.957.156Zm-.18-7.578a1.928,1.928,0,0,0-1.469.637A3.1,3.1,0,0,0,9.574-5h4.234v-.109a2.753,2.753,0,0,0-.594-1.707A1.815,1.815,0,0,0,11.777-7.422Zm9.234.266a4.331,4.331,0,0,0-.711-.055A1.9,1.9,0,0,0,18.371-6V0H16.926V-8.453h1.406l.023.977a2.251,2.251,0,0,1,2.016-1.133,1.477,1.477,0,0,1,.641.109ZM23.91,0H22.465V-8.453H23.91ZM22.348-10.7a.863.863,0,0,1,.215-.594.807.807,0,0,1,.637-.242.819.819,0,0,1,.641.242.854.854,0,0,1,.219.594.826.826,0,0,1-.219.586.834.834,0,0,1-.641.234.821.821,0,0,1-.637-.234A.834.834,0,0,1,22.348-10.7ZM25.84-4.3a4.993,4.993,0,0,1,.488-2.234A3.643,3.643,0,0,1,27.688-8.07a3.7,3.7,0,0,1,1.988-.539,3.565,3.565,0,0,1,2.793,1.2,4.6,4.6,0,0,1,1.066,3.18v.1a5.036,5.036,0,0,1-.473,2.215A3.589,3.589,0,0,1,31.711-.391a3.743,3.743,0,0,1-2.02.547,3.556,3.556,0,0,1-2.785-1.2A4.575,4.575,0,0,1,25.84-4.2Zm1.453.172a3.616,3.616,0,0,0,.652,2.258,2.088,2.088,0,0,0,1.746.852,2.075,2.075,0,0,0,1.75-.863A3.955,3.955,0,0,0,32.09-4.3a3.61,3.61,0,0,0-.66-2.254,2.1,2.1,0,0,0-1.754-.863,2.075,2.075,0,0,0-1.727.852A3.925,3.925,0,0,0,27.293-4.133ZM39.434-7.156a4.331,4.331,0,0,0-.711-.055A1.9,1.9,0,0,0,36.793-6V0H35.348V-8.453h1.406l.023.977a2.251,2.251,0,0,1,2.016-1.133,1.477,1.477,0,0,1,.641.109Zm8.055,5.039,1.969-6.336H51L47.605,1.3Q46.816,3.414,45.1,3.414l-.273-.023-.539-.1V2.117l.391.031a1.923,1.923,0,0,0,1.145-.3A2.148,2.148,0,0,0,46.5.766l.32-.859L43.8-8.453h1.578ZM-32.684,13.7a4.952,4.952,0,0,1,.922-3.129,2.915,2.915,0,0,1,2.414-1.184A2.932,2.932,0,0,1-27,10.406V6h1.445V18h-1.328l-.07-.906a2.943,2.943,0,0,1-2.414,1.063,2.887,2.887,0,0,1-2.395-1.2,5.008,5.008,0,0,1-.926-3.141Zm1.445.164a3.749,3.749,0,0,0,.594,2.25A1.92,1.92,0,0,0-29,16.93,2.108,2.108,0,0,0-27,15.7V11.813a2.125,2.125,0,0,0-1.992-1.2,1.929,1.929,0,0,0-1.656.82A4.128,4.128,0,0,0-31.238,13.867ZM-19.8,18.156a3.693,3.693,0,0,1-2.8-1.129,4.19,4.19,0,0,1-1.078-3.02v-.266A5.073,5.073,0,0,1-23.2,11.5a3.748,3.748,0,0,1,1.344-1.547,3.378,3.378,0,0,1,1.871-.559,3.166,3.166,0,0,1,2.563,1.086,4.7,4.7,0,0,1,.914,3.109v.6H-22.23a3,3,0,0,0,.73,2.02,2.3,2.3,0,0,0,1.777.77,2.517,2.517,0,0,0,1.3-.312,3.259,3.259,0,0,0,.93-.828l.883.688A3.55,3.55,0,0,1-19.8,18.156Zm-.18-7.578a1.928,1.928,0,0,0-1.469.637A3.1,3.1,0,0,0-22.184,13h4.234v-.109a2.753,2.753,0,0,0-.594-1.707A1.815,1.815,0,0,0-19.98,10.578Zm12.289,3.289a5.062,5.062,0,0,1-.883,3.109,2.829,2.829,0,0,1-2.391,1.18,3.1,3.1,0,0,1-2.422-.977v4.07h-1.445V9.547h1.32l.07.938a2.977,2.977,0,0,1,2.453-1.094,2.882,2.882,0,0,1,2.41,1.148,5.117,5.117,0,0,1,.887,3.2ZM-9.137,13.7a3.735,3.735,0,0,0-.609-2.258,1.963,1.963,0,0,0-1.672-.828,2.125,2.125,0,0,0-1.969,1.164V15.82A2.129,2.129,0,0,0-11.4,16.977a1.954,1.954,0,0,0,1.652-.824A4.077,4.077,0,0,0-9.137,13.7Zm2.9-.008a4.993,4.993,0,0,1,.488-2.234A3.643,3.643,0,0,1-4.391,9.93,3.7,3.7,0,0,1-2.4,9.391a3.565,3.565,0,0,1,2.793,1.2,4.6,4.6,0,0,1,1.066,3.18v.1a5.036,5.036,0,0,1-.473,2.215A3.589,3.589,0,0,1-.367,17.609a3.743,3.743,0,0,1-2.02.547,3.556,3.556,0,0,1-2.785-1.2A4.575,4.575,0,0,1-6.238,13.8Zm1.453.172a3.616,3.616,0,0,0,.652,2.258,2.088,2.088,0,0,0,1.746.852,2.075,2.075,0,0,0,1.75-.863A3.955,3.955,0,0,0,.012,13.7a3.61,3.61,0,0,0-.66-2.254A2.1,2.1,0,0,0-2.4,10.578a2.075,2.075,0,0,0-1.727.852A3.925,3.925,0,0,0-4.785,13.867ZM7.355,10.844a4.331,4.331,0,0,0-.711-.055A1.9,1.9,0,0,0,4.715,12v6H3.27V9.547H4.676l.023.977A2.251,2.251,0,0,1,6.715,9.391a1.477,1.477,0,0,1,.641.109ZM11.035,7.5V9.547h1.578v1.117H11.035v5.242a1.171,1.171,0,0,0,.211.762.888.888,0,0,0,.719.254,3.5,3.5,0,0,0,.688-.094V18a4.19,4.19,0,0,1-1.109.156,1.8,1.8,0,0,1-1.461-.586,2.517,2.517,0,0,1-.492-1.664V10.664H8.051V9.547H9.59V7.5ZM15.871,18H14.426V9.547h1.445ZM14.309,7.3a.863.863,0,0,1,.215-.594.807.807,0,0,1,.637-.242.819.819,0,0,1,.641.242.854.854,0,0,1,.219.594.826.826,0,0,1-.219.586.834.834,0,0,1-.641.234.821.821,0,0,1-.637-.234A.834.834,0,0,1,14.309,7.3Zm6.664,8.734,2.094-6.492h1.477L21.512,18h-1.1L17.348,9.547h1.477ZM31.035,18a3.036,3.036,0,0,1-.2-.891,3.225,3.225,0,0,1-2.406,1.047,2.984,2.984,0,0,1-2.051-.707,2.287,2.287,0,0,1-.8-1.793,2.39,2.39,0,0,1,1-2.051,4.733,4.733,0,0,1,2.824-.73h1.406v-.664A1.623,1.623,0,0,0,30.355,11a1.821,1.821,0,0,0-1.336-.449,2.107,2.107,0,0,0-1.3.391,1.151,1.151,0,0,0-.523.945H25.746a2,2,0,0,1,.449-1.223,3.066,3.066,0,0,1,1.219-.934,4.1,4.1,0,0,1,1.691-.344,3.342,3.342,0,0,1,2.289.73,2.635,2.635,0,0,1,.859,2.012v3.891a4.757,4.757,0,0,0,.3,1.852V18Zm-2.4-1.1a2.54,2.54,0,0,0,1.289-.352,2.127,2.127,0,0,0,.883-.914V13.9H29.676q-2.656,0-2.656,1.555a1.316,1.316,0,0,0,.453,1.063A1.742,1.742,0,0,0,28.637,16.9Z" transform="translate(3142.917 472.235)" fill="#161615"/><path d="M3039.371,435.117h137.386v54.236" transform="translate(56.668 11)" fill="none" stroke="#fff" stroke-miterlimit="10" stroke-width="2" stroke-dasharray="7"/><path d="M2980.71,479.994V423.936h56.059" transform="translate(56.668 11)" fill="#32abaa"/><rect width="99.661" height="34.829" transform="translate(2832.079 543.398)" fill="#2287cb"/><rect width="201.112" height="67" transform="translate(2725.36 506.184)" fill="#cce7fa"/><path d="M7.75-5.258H2.82v4.031H8.547V0H1.32V-11.375H8.469v1.234H2.82v3.656H7.75Zm3.8-3.2.039.938a3.122,3.122,0,0,1,2.508-1.094A2.417,2.417,0,0,1,16.508-7.25a3.2,3.2,0,0,1,1.1-.984,3.242,3.242,0,0,1,1.6-.375q2.781,0,2.828,2.945V0H20.586V-5.578a1.941,1.941,0,0,0-.414-1.355,1.823,1.823,0,0,0-1.391-.449,1.916,1.916,0,0,0-1.336.48,1.949,1.949,0,0,0-.617,1.293V0H15.375V-5.539a1.613,1.613,0,0,0-1.8-1.844,1.934,1.934,0,0,0-1.945,1.211V0H10.18V-8.453Zm19.8,4.32a5.062,5.062,0,0,1-.883,3.109A2.829,2.829,0,0,1,28.078.156,3.1,3.1,0,0,1,25.656-.82V3.25H24.211v-11.7h1.32l.07.938a2.977,2.977,0,0,1,2.453-1.094,2.882,2.882,0,0,1,2.41,1.148,5.117,5.117,0,0,1,.887,3.2ZM29.906-4.3A3.735,3.735,0,0,0,29.3-6.555a1.963,1.963,0,0,0-1.672-.828,2.125,2.125,0,0,0-1.969,1.164V-2.18a2.129,2.129,0,0,0,1.984,1.156,1.954,1.954,0,0,0,1.652-.824A4.077,4.077,0,0,0,29.906-4.3Zm8.5,4.3a3.036,3.036,0,0,1-.2-.891A3.225,3.225,0,0,1,35.8.156a2.984,2.984,0,0,1-2.051-.707,2.287,2.287,0,0,1-.8-1.793,2.39,2.39,0,0,1,1-2.051,4.733,4.733,0,0,1,2.824-.73H38.18v-.664A1.623,1.623,0,0,0,37.727-7a1.821,1.821,0,0,0-1.336-.449,2.107,2.107,0,0,0-1.3.391,1.151,1.151,0,0,0-.523.945H33.117a2,2,0,0,1,.449-1.223,3.066,3.066,0,0,1,1.219-.934,4.1,4.1,0,0,1,1.691-.344,3.342,3.342,0,0,1,2.289.73,2.635,2.635,0,0,1,.859,2.012v3.891a4.757,4.757,0,0,0,.3,1.852V0Zm-2.4-1.1A2.54,2.54,0,0,0,37.3-1.453a2.127,2.127,0,0,0,.883-.914V-4.1H37.047q-2.656,0-2.656,1.555a1.316,1.316,0,0,0,.453,1.063A1.742,1.742,0,0,0,36.008-1.1Zm5.531-3.2a4.961,4.961,0,0,1,.914-3.152,2.962,2.962,0,0,1,2.453-1.16A2.96,2.96,0,0,1,47.273-7.6l.063-.852h1.328V3.25H47.219V-.781a3.033,3.033,0,0,1-2.328.938,2.915,2.915,0,0,1-2.441-1.191,5.072,5.072,0,0,1-.91-3.16Zm1.445.164A3.761,3.761,0,0,0,43.6-1.852a1.951,1.951,0,0,0,1.652.828,2.164,2.164,0,0,0,1.969-1.141V-6.3a2.171,2.171,0,0,0-1.953-1.117A1.965,1.965,0,0,0,43.6-6.59,4.094,4.094,0,0,0,42.984-4.133ZM56.2-.836a3.07,3.07,0,0,1-2.477.992,2.628,2.628,0,0,1-2.059-.785,3.4,3.4,0,0,1-.715-2.324v-5.5H52.4v5.461q0,1.922,1.563,1.922a2.163,2.163,0,0,0,2.2-1.234V-8.453h1.445V0H56.234Zm7.109.992a3.693,3.693,0,0,1-2.8-1.129,4.19,4.19,0,0,1-1.078-3.02v-.266a5.073,5.073,0,0,1,.48-2.246,3.748,3.748,0,0,1,1.344-1.547,3.378,3.378,0,0,1,1.871-.559A3.166,3.166,0,0,1,65.7-7.523a4.7,4.7,0,0,1,.914,3.109v.6H60.883a3,3,0,0,0,.73,2.02,2.3,2.3,0,0,0,1.777.77,2.517,2.517,0,0,0,1.3-.312,3.259,3.259,0,0,0,.93-.828l.883.688A3.55,3.55,0,0,1,63.313.156Zm-.18-7.578a1.928,1.928,0,0,0-1.469.637A3.1,3.1,0,0,0,60.93-5h4.234v-.109a2.753,2.753,0,0,0-.594-1.707A1.815,1.815,0,0,0,63.133-7.422Z" transform="translate(2792.322 545.398)" fill="#161615"/><path d="M2762.705,495.341h137.386v54.236" transform="translate(18.334 19)" fill="none" stroke="#fff" stroke-miterlimit="10" stroke-width="2" stroke-dasharray="7"/><path d="M2704.044,540.219V484.16H2760.1" transform="translate(18.334 19)" fill="#2287cb"/></g><path d="M-5224-10685.974h34.78v-63H-5139" transform="translate(5824 11700)" fill="none" stroke="#707070" stroke-width="1"/><path d="M-5224-10685.974h34.78v-63H-5139" transform="translate(6123 11635.003)" fill="none" stroke="#707070" stroke-width="1"/><path d="M-5224-10748.972h34.78v63H-5139" transform="translate(5824 11762.998)" fill="none" stroke="#707070" stroke-width="1"/><path d="M-5224-10748.972h34.78v63H-5139" transform="translate(6123 11698.001)" fill="none" stroke="#707070" stroke-width="1"/><g transform="translate(-1080.23 920.884)"><g transform="translate(1589.642 30.521)"><path d="M1657.371,60.794c2.06-.823,2.632-4.012,2.288-5.349s-1.945-1.749-4.806-1.543-9.841.926-29.3,1.337-30.439-.412-32.842,0-2.861,6.79,0,7.612,20.941,2.366,37.763,2.058S1657.371,60.794,1657.371,60.794Z" transform="translate(-1589.913 -38.956)" fill="#e5556a"/><path d="M1593.61,70.666c3.594,1.082,11.906.646,25.939,1.1,19.111.617,36.1,1.276,38.592-.6,1.2-.9,2.032-7.326.2-7.84s-14.762,2.263-30.325,2.777c-12.071.4-29.867-1.954-34.444-.719C1591.148,66.041,1590.287,69.666,1593.61,70.666Z" transform="translate(-1590.083 -41.286)" fill="#339ce9"/><path d="M1589.869,45.713a40.687,40.687,0,0,1,2.976-5.761c1.6-2.778,1.03-4.115,3.776-5.144s15.448.206,27.006.1,25.862-1.029,28.265-.823,2.632,2.778,4.692,5.555,3.661,5.143,3.661,6.687-23.573,2.16-32.727,2.366S1589.869,45.713,1589.869,45.713Z" transform="translate(-1589.698 -34.059)" fill="#5db0a1"/><path d="M1592.445,53.714c-1.831-.309-3.09-2.778-2.747-4.218s3.319-2.16,9.727-1.646c5.062.406,12.817,1.544,25.4,2.058s29.981-3.292,33.987-1.851c1.729.622,2.517,4.012-1.488,4.424s-20.712,2.365-34.444,2.365S1592.445,53.714,1592.445,53.714Z" transform="translate(-1589.642 -37.43)" fill="#7bc1b5"/></g><g transform="translate(1602.549 19.763)"><path d="M1627.93,30.3l.476-1.366s.1-2.467-2.967-5.7c-2.394-2.526-7.856-4.655-10.777-2.734s-.546,5.077,1.987,6.008C1619.346,27.5,1619.349,27.5,1627.93,30.3Zm-2.707-2.552c-.7.335-5.945-1.534-7.392-2.283s-3.058-2.37-1.251-3.557,5.387.254,6.99,1.784C1625.6,25.636,1625.919,27.417,1625.223,27.751Z" transform="translate(-1608.407 -19.763)" fill="#5a3c43"/><path d="M1631.884,32.911l1.1-1.373s10.174,1.759,14.977,4.393c6.8,3.732,8.788,6.581,8.788,6.581s-10.065-2.208-14.563-4.206S1631.884,32.911,1631.884,32.911Z" transform="translate(-1613.001 -22.677)" fill="#cbad98"/><path d="M1631.479,33.363l24.864,9.6a31.861,31.861,0,0,1-13.048-1.517A71.029,71.029,0,0,1,1630.246,35Z" transform="translate(-1612.596 -23.128)" fill="#ffe7ce"/><path d="M1613.957,27.984c-2.666-.833-7.356.19-7.158,3.515s6.063,5.026,10.162,4.514c5.247-.655,7.482-2.416,7.482-2.416l1.233-1.634S1616.622,28.817,1613.957,27.984Zm2.135,6.51c-2.589.216-6.478-.862-6.6-2.919s2.563-2.338,4.29-2.035,7.2,2.079,7.362,2.774S1619.376,34.221,1616.092,34.495Z" transform="translate(-1606.793 -21.729)" fill="#5a3c43"/></g></g></g></svg>