<svg xmlns="http://www.w3.org/2000/svg" width="400" height="97.727" viewBox="0 0 400 97.727"><g transform="translate(3405 8438.849)"><path d="M18.132-23.105,7.827,0H4.512L14.783-22.285H1.316v-2.6H18.132Zm5.042,10.63,1.265-12.407H37.188v2.922H27.122l-.752,6.785a8.03,8.03,0,0,1,4.153-1.077,6.865,6.865,0,0,1,5.4,2.247,8.808,8.808,0,0,1,2,6.075,8.5,8.5,0,0,1-2.076,6.058,7.568,7.568,0,0,1-5.8,2.213,7.865,7.865,0,0,1-5.383-1.829,7.3,7.3,0,0,1-2.375-5.059h2.991A5.021,5.021,0,0,0,26.8-3.324a4.729,4.729,0,0,0,3.247,1.085,4.266,4.266,0,0,0,3.461-1.5A6.287,6.287,0,0,0,34.761-7.9,5.771,5.771,0,0,0,33.4-11.9a4.621,4.621,0,0,0-3.615-1.512,5.212,5.212,0,0,0-3.247.906l-.837.684ZM42.332,2.136H39.614L50-24.883h2.7ZM72.1,0H55.8V-2.273l8.613-9.57a20.463,20.463,0,0,0,2.64-3.529,5.89,5.89,0,0,0,.726-2.811,4.465,4.465,0,0,0-1.179-3.2,4.123,4.123,0,0,0-3.145-1.248,4.883,4.883,0,0,0-3.666,1.342,5.124,5.124,0,0,0-1.307,3.734H55.32a7.339,7.339,0,0,1,2.213-5.554,8.2,8.2,0,0,1,5.922-2.119A7.884,7.884,0,0,1,68.94-23.4a6.208,6.208,0,0,1,2.017,4.845q0,3.674-4.683,8.75L59.609-2.581H72.1Z" transform="translate(-3327 -8390)" fill="#8f2b58"/><path d="M9.719-1.492A3.465,3.465,0,0,1,8.105-.254,6.517,6.517,0,0,1,5.7.156,4.674,4.674,0,0,1,3.227-.5,4.346,4.346,0,0,1,1.559-2.352,6.408,6.408,0,0,1,.953-5.141v-.992a5.982,5.982,0,0,1,1.2-3.984,4.179,4.179,0,0,1,3.371-1.414,4.316,4.316,0,0,1,2.867.91A3.965,3.965,0,0,1,9.719-8.039h-1.5A2.478,2.478,0,0,0,5.531-10.3,2.656,2.656,0,0,0,3.246-9.238a5.165,5.165,0,0,0-.785,3.066v.93A4.841,4.841,0,0,0,3.336-2.2,2.837,2.837,0,0,0,5.7-1.07,5.217,5.217,0,0,0,7.18-1.258a2.282,2.282,0,0,0,1.047-.633V-4.445H5.594V-5.664H9.719Zm6.359-5.664a4.331,4.331,0,0,0-.711-.055A1.9,1.9,0,0,0,13.438-6V0H11.992V-8.453H13.4l.023.977a2.251,2.251,0,0,1,2.016-1.133,1.477,1.477,0,0,1,.641.109ZM16.867-4.3a4.993,4.993,0,0,1,.488-2.234A3.643,3.643,0,0,1,18.715-8.07,3.7,3.7,0,0,1,20.7-8.609a3.565,3.565,0,0,1,2.793,1.2,4.6,4.6,0,0,1,1.066,3.18v.1a5.036,5.036,0,0,1-.473,2.215A3.589,3.589,0,0,1,22.738-.391a3.743,3.743,0,0,1-2.02.547,3.556,3.556,0,0,1-2.785-1.2A4.575,4.575,0,0,1,16.867-4.2Zm1.453.172a3.616,3.616,0,0,0,.652,2.258,2.088,2.088,0,0,0,1.746.852,2.075,2.075,0,0,0,1.75-.863A3.955,3.955,0,0,0,23.117-4.3a3.61,3.61,0,0,0-.66-2.254A2.1,2.1,0,0,0,20.7-7.422a2.075,2.075,0,0,0-1.727.852A3.925,3.925,0,0,0,18.32-4.133ZM31.3-2.242a1.064,1.064,0,0,0-.441-.91,4.249,4.249,0,0,0-1.539-.559,7.277,7.277,0,0,1-1.742-.562,2.479,2.479,0,0,1-.953-.781,1.869,1.869,0,0,1-.309-1.078,2.193,2.193,0,0,1,.879-1.758,3.432,3.432,0,0,1,2.246-.719,3.532,3.532,0,0,1,2.332.742,2.357,2.357,0,0,1,.895,1.9H31.211a1.3,1.3,0,0,0-.5-1.023,1.888,1.888,0,0,0-1.27-.43,1.976,1.976,0,0,0-1.234.344,1.082,1.082,0,0,0-.445.9.877.877,0,0,0,.414.789,5.1,5.1,0,0,0,1.5.508,7.8,7.8,0,0,1,1.754.578,2.558,2.558,0,0,1,1,.809,1.988,1.988,0,0,1,.324,1.152,2.163,2.163,0,0,1-.906,1.816,3.8,3.8,0,0,1-2.352.684,4.257,4.257,0,0,1-1.8-.359,2.922,2.922,0,0,1-1.223-1A2.42,2.42,0,0,1,26.023-2.6h1.445a1.5,1.5,0,0,0,.582,1.152,2.258,2.258,0,0,0,1.434.426A2.331,2.331,0,0,0,30.8-1.355,1.02,1.02,0,0,0,31.3-2.242ZM34.242-4.3a4.993,4.993,0,0,1,.488-2.234A3.643,3.643,0,0,1,36.09-8.07a3.7,3.7,0,0,1,1.988-.539,3.565,3.565,0,0,1,2.793,1.2,4.6,4.6,0,0,1,1.066,3.18v.1a5.036,5.036,0,0,1-.473,2.215A3.589,3.589,0,0,1,40.113-.391a3.743,3.743,0,0,1-2.02.547,3.556,3.556,0,0,1-2.785-1.2A4.575,4.575,0,0,1,34.242-4.2Zm1.453.172a3.616,3.616,0,0,0,.652,2.258,2.088,2.088,0,0,0,1.746.852,2.075,2.075,0,0,0,1.75-.863A3.955,3.955,0,0,0,40.492-4.3a3.61,3.61,0,0,0-.66-2.254,2.1,2.1,0,0,0-1.754-.863,2.075,2.075,0,0,0-1.727.852A3.925,3.925,0,0,0,35.7-4.133ZM47.836-7.156a4.331,4.331,0,0,0-.711-.055A1.9,1.9,0,0,0,45.2-6V0H43.75V-8.453h1.406l.023.977A2.251,2.251,0,0,1,47.2-8.609a1.477,1.477,0,0,1,.641.109Z" transform="translate(-3314.5 -8345.122)" fill="#161615"/><path d="M10.063,0H8.555L2.828-8.766V0H1.32V-11.375H2.828L8.57-2.57v-8.8h1.492Zm2.359-9.5A1.994,1.994,0,0,1,13-10.922a1.878,1.878,0,0,1,1.41-.609,1.842,1.842,0,0,1,1.387.605A2,2,0,0,1,16.375-9.5,1.947,1.947,0,0,1,15.8-8.086a1.871,1.871,0,0,1-1.387.586,1.918,1.918,0,0,1-1.406-.586A1.927,1.927,0,0,1,12.422-9.5Zm1.992,1a.988.988,0,0,0,.711-.277.956.956,0,0,0,.289-.723,1.018,1.018,0,0,0-.289-.746.96.96,0,0,0-.711-.293.957.957,0,0,0-.723.309,1.025,1.025,0,0,0-.293.73.96.96,0,0,0,.293.711A.989.989,0,0,0,14.414-8.5Zm7.672,4.2a4.952,4.952,0,0,1,.922-3.129,2.915,2.915,0,0,1,2.414-1.184,2.932,2.932,0,0,1,2.352,1.016V-12h1.445V0H27.891l-.07-.906A2.943,2.943,0,0,1,25.406.156a2.887,2.887,0,0,1-2.395-1.2,5.008,5.008,0,0,1-.926-3.141Zm1.445.164a3.749,3.749,0,0,0,.594,2.25,1.92,1.92,0,0,0,1.641.813A2.108,2.108,0,0,0,27.773-2.3V-6.187a2.125,2.125,0,0,0-1.992-1.2,1.929,1.929,0,0,0-1.656.82A4.128,4.128,0,0,0,23.531-4.133ZM34.969.156a3.693,3.693,0,0,1-2.8-1.129,4.19,4.19,0,0,1-1.078-3.02v-.266a5.073,5.073,0,0,1,.48-2.246,3.748,3.748,0,0,1,1.344-1.547,3.378,3.378,0,0,1,1.871-.559,3.166,3.166,0,0,1,2.563,1.086,4.7,4.7,0,0,1,.914,3.109v.6H32.539a3,3,0,0,0,.73,2.02,2.3,2.3,0,0,0,1.777.77,2.517,2.517,0,0,0,1.3-.312,3.259,3.259,0,0,0,.93-.828l.883.688A3.55,3.55,0,0,1,34.969.156Zm-.18-7.578a1.928,1.928,0,0,0-1.469.637A3.1,3.1,0,0,0,32.586-5H36.82v-.109a2.753,2.753,0,0,0-.594-1.707A1.815,1.815,0,0,0,34.789-7.422Zm12.5,6.4a2.082,2.082,0,0,0,1.352-.469,1.649,1.649,0,0,0,.641-1.172h1.367a2.621,2.621,0,0,1-.5,1.383,3.293,3.293,0,0,1-1.23,1.047,3.55,3.55,0,0,1-1.629.391A3.482,3.482,0,0,1,44.543-1a4.59,4.59,0,0,1-1.02-3.152v-.242a5.089,5.089,0,0,1,.453-2.2,3.451,3.451,0,0,1,1.3-1.492,3.7,3.7,0,0,1,2-.531,3.39,3.39,0,0,1,2.363.852,3.043,3.043,0,0,1,1,2.211H49.281a1.992,1.992,0,0,0-.621-1.348,1.932,1.932,0,0,0-1.379-.527,2.023,2.023,0,0,0-1.707.793,3.724,3.724,0,0,0-.605,2.293v.273a3.65,3.65,0,0,0,.6,2.25A2.033,2.033,0,0,0,47.289-1.023ZM57.492,0a3.036,3.036,0,0,1-.2-.891A3.225,3.225,0,0,1,54.883.156a2.984,2.984,0,0,1-2.051-.707,2.287,2.287,0,0,1-.8-1.793,2.39,2.39,0,0,1,1-2.051,4.733,4.733,0,0,1,2.824-.73h1.406v-.664A1.623,1.623,0,0,0,56.813-7a1.821,1.821,0,0,0-1.336-.449,2.107,2.107,0,0,0-1.3.391,1.151,1.151,0,0,0-.523.945H52.2a2,2,0,0,1,.449-1.223,3.066,3.066,0,0,1,1.219-.934,4.1,4.1,0,0,1,1.691-.344,3.342,3.342,0,0,1,2.289.73,2.635,2.635,0,0,1,.859,2.012v3.891a4.757,4.757,0,0,0,.3,1.852V0Zm-2.4-1.1a2.54,2.54,0,0,0,1.289-.352,2.127,2.127,0,0,0,.883-.914V-4.1H56.133q-2.656,0-2.656,1.555a1.316,1.316,0,0,0,.453,1.063A1.742,1.742,0,0,0,55.094-1.1ZM68.133-4.133a5.026,5.026,0,0,1-.891,3.113A2.846,2.846,0,0,1,64.852.156,2.947,2.947,0,0,1,62.375-.977L62.3,0H60.977V-12h1.445v4.477a2.93,2.93,0,0,1,2.414-1.086,2.863,2.863,0,0,1,2.418,1.164,5.177,5.177,0,0,1,.879,3.188ZM66.688-4.3a3.906,3.906,0,0,0-.57-2.281,1.888,1.888,0,0,0-1.641-.8,2.122,2.122,0,0,0-2.055,1.328V-2.4a2.181,2.181,0,0,0,2.07,1.328,1.878,1.878,0,0,0,1.617-.8A4.153,4.153,0,0,0,66.688-4.3ZM69.57-4.3a4.993,4.993,0,0,1,.488-2.234A3.643,3.643,0,0,1,71.418-8.07a3.7,3.7,0,0,1,1.988-.539,3.565,3.565,0,0,1,2.793,1.2,4.6,4.6,0,0,1,1.066,3.18v.1a5.036,5.036,0,0,1-.473,2.215A3.589,3.589,0,0,1,75.441-.391a3.743,3.743,0,0,1-2.02.547,3.556,3.556,0,0,1-2.785-1.2A4.575,4.575,0,0,1,69.57-4.2Zm1.453.172a3.616,3.616,0,0,0,.652,2.258,2.088,2.088,0,0,0,1.746.852,2.075,2.075,0,0,0,1.75-.863A3.955,3.955,0,0,0,75.82-4.3a3.61,3.61,0,0,0-.66-2.254,2.1,2.1,0,0,0-1.754-.863,2.075,2.075,0,0,0-1.727.852A3.925,3.925,0,0,0,71.023-4.133ZM84-2.242a1.064,1.064,0,0,0-.441-.91,4.249,4.249,0,0,0-1.539-.559,7.277,7.277,0,0,1-1.742-.562,2.479,2.479,0,0,1-.953-.781,1.869,1.869,0,0,1-.309-1.078,2.193,2.193,0,0,1,.879-1.758,3.432,3.432,0,0,1,2.246-.719,3.532,3.532,0,0,1,2.332.742,2.357,2.357,0,0,1,.895,1.9H83.914a1.3,1.3,0,0,0-.5-1.023,1.888,1.888,0,0,0-1.27-.43,1.976,1.976,0,0,0-1.234.344,1.082,1.082,0,0,0-.445.9.877.877,0,0,0,.414.789,5.1,5.1,0,0,0,1.5.508,7.8,7.8,0,0,1,1.754.578,2.558,2.558,0,0,1,1,.809,1.988,1.988,0,0,1,.324,1.152,2.163,2.163,0,0,1-.906,1.816,3.8,3.8,0,0,1-2.352.684,4.257,4.257,0,0,1-1.8-.359,2.922,2.922,0,0,1-1.223-1A2.42,2.42,0,0,1,78.727-2.6h1.445a1.5,1.5,0,0,0,.582,1.152,2.258,2.258,0,0,0,1.434.426A2.331,2.331,0,0,0,83.5-1.355,1.02,1.02,0,0,0,84-2.242Z" transform="translate(-3160 -8392)" fill="#161615"/><path d="M3573.417-960.82v-88.634c0-4.451,5.4-8.092,12-8.092h374c6.6,0,12,3.641,12,8.092v88.634" transform="translate(-6977.417 -7380.302)" fill="none" stroke="#0ac4bf" stroke-miterlimit="10" stroke-width="2"/><g transform="translate(-2595.906 -5287.79) rotate(-90)"><rect width="2.627" height="54.834" transform="translate(3106.872 -638.094)" fill="#339ce9"/><g transform="translate(3103.73 -588.494)"><path d="M3103.729-677.969l4.455,4.457,4.454-4.457v3.782l-4.454,4.454-4.455-4.454Z" transform="translate(-3103.729 677.969)" fill="#339ce9"/></g></g><g transform="translate(-6396.639 -7779.864)"><rect width="2.627" height="16.834" transform="translate(3106.872 -600.094)" fill="#339ce9"/><g transform="translate(3103.73 -588.494)"><path d="M3103.729-677.969l4.455,4.457,4.454-4.457v3.782l-4.454,4.454-4.455-4.454Z" transform="translate(-3103.729 677.969)" fill="#339ce9"/></g></g></g></svg>