<svg xmlns="http://www.w3.org/2000/svg" width="296" height="243.656" viewBox="0 0 296 243.656"><g transform="translate(-1019.5 -2420.165)"><g transform="translate(1020 2421.275)"><rect width="295" height="241.414" fill="#fff" stroke="rgba(0,0,0,0)" stroke-width="1"/><rect width="294" height="240.414" transform="translate(0.5 0.5)" fill="none"/></g><path d="M3723.282,453.211a1.155,1.155,0,0,1-.8-.321l-70.619-68.256a1.045,1.045,0,0,1,.011-1.527,1.171,1.171,0,0,1,1.6.01l69.878,67.54c8.312-7.336-.584-19.106-.978-19.618a1.043,1.043,0,0,1-.2-.836,1.079,1.079,0,0,1,.5-.712c6.008-3.667,3.463-18.506,1.975-23.915a1.044,1.044,0,0,1,.207-.942c5.8-7.036-.067-18.634-.127-18.751a1.035,1.035,0,0,1-.023-.907c5.655-12.422-2.265-23.323-2.346-23.432a1.04,1.04,0,0,1-.171-.894,1.087,1.087,0,0,1,.6-.7c6.355-2.919,2.664-17.463.705-22.82a1.04,1.04,0,0,1,.108-.927c5.414-8.285-1.3-24.607-1.374-24.771a1.04,1.04,0,0,1,.161-1.065c5.329-6.494-.123-21.784-.179-21.938a1.054,1.054,0,0,1,.465-1.264c8.706-5.258,1.56-21.765,1.487-21.932a1.038,1.038,0,0,1-.024-.776c4.009-10.881.01-26.466-.031-26.621a1.052,1.052,0,0,1,.386-1.1c4.989-3.852,1.448-15.654-.337-19.877a1.064,1.064,0,0,1,.626-1.406,1.153,1.153,0,0,1,1.474.6c.28.663,6.627,15.9.206,21.9.736,3.106,3.551,16.54-.048,26.832,1.1,2.666,6.766,17.581-1.8,23.723,1.084,3.305,4.761,15.965-.06,22.689,1.185,3.048,6.257,17.263,1.245,25.7,1.065,3.094,6.256,19.412-.941,24.378,1.922,3.066,7,12.834,2.118,24.112,1.1,2.337,5.518,12.838-.009,20.152.809,3.175,4.56,19.487-2.158,25.109,2.185,3.294,8.867,14.993-.829,22.33A1.167,1.167,0,0,1,3723.282,453.211Z" transform="translate(-2581.39 2208.185)" fill="#bf3976" stroke="rgba(0,0,0,0)" stroke-width="1"/><path d="M3653.948,453.211a1.157,1.157,0,0,1-.841-.357c-7.926-8.373-3.21-18.545-1.776-21.162-6.36-8.979-1.524-18.132-.007-20.571-8.612-13.179-2.04-24.383-.06-27.225-5.288-7.15-1.087-16.366.12-18.684-6.374-11.625-1.363-21.143.023-23.388-6.382-16.357-1.867-23.922-.111-26.051-4.343-8.3-.567-21.34.176-23.7-4.286-11.847-.794-23.65-.016-25.993-3.692-8.708-.622-21.927.01-24.414-7.612-15.207-.046-25.421.282-25.852a1.148,1.148,0,0,1,.851-.442,1.123,1.123,0,0,1,.9.346l68.264,70.7a1.044,1.044,0,0,1-.067,1.526,1.171,1.171,0,0,1-1.6-.062l-67.244-69.649c-1.659,2.952-5.085,11.32.83,22.837a1.035,1.035,0,0,1,.079.747c-.04.15-4.025,15.056-.057,23.785a1.036,1.036,0,0,1,.03.785c-.046.128-4.62,12.969,0,25.3a1.028,1.028,0,0,1,.012.692c-.049.149-4.921,14.955-.095,23.009a1.045,1.045,0,0,1-.217,1.332c-.065.058-6.988,6.613.293,24.836a1.038,1.038,0,0,1-.121.99c-.284.4-6.889,10.047.055,22.138a1.036,1.036,0,0,1,0,1.042c-.06.1-5.967,10.485-.106,17.473a1.043,1.043,0,0,1,0,1.347c-.4.477-9.618,11.842.062,25.977a1.04,1.04,0,0,1-.022,1.211c-.294.4-7.13,9.916-.01,19.251a1.041,1.041,0,0,1,.047,1.2c-.282.436-6.818,10.787,1.162,19.216a1.045,1.045,0,0,1-.082,1.525A1.159,1.159,0,0,1,3653.948,453.211Z" transform="translate(-2581.39 2208.185)" fill="#bf3976" stroke="rgba(0,0,0,0)" stroke-width="1"/><path d="M3723.282,316.821a1.128,1.128,0,0,1-.813-.344l-70.618-72.865a1.133,1.133,0,1,1,1.627-1.576L3724.1,314.9a1.133,1.133,0,0,1-.814,1.921Z" transform="translate(-2581.39 2208.185)" fill="#bf3976" stroke="rgba(0,0,0,0)" stroke-width="1"/><path d="M3724.565,343.817a1.132,1.132,0,0,1-.813-.344l-71.9-74.181a1.133,1.133,0,1,1,1.627-1.577l71.9,74.182a1.132,1.132,0,0,1-.814,1.92Z" transform="translate(-2581.39 2204.607)" fill="#bf3976" stroke="rgba(0,0,0,0)" stroke-width="1"/><path d="M3723.282,369.142a1.126,1.126,0,0,1-.809-.341l-70.619-72.222a1.133,1.133,0,0,1,1.62-1.583l70.618,72.222a1.133,1.133,0,0,1-.81,1.924Z" transform="translate(-2581.39 2202.888)" fill="#bf3976" stroke="rgba(0,0,0,0)" stroke-width="1"/><path d="M3724.565,394.661a1.127,1.127,0,0,1-.8-.336l-71.9-72.7a1.132,1.132,0,0,1,1.61-1.593l71.9,72.7a1.133,1.133,0,0,1-.805,1.929Z" transform="translate(-2581.39 2201.256)" fill="#bf3976" stroke="rgba(0,0,0,0)" stroke-width="1"/><path d="M3725.743,415.686a1.131,1.131,0,0,1-.762-.3L3651.9,348.946a1.132,1.132,0,1,1,1.524-1.675l73.079,66.444a1.133,1.133,0,0,1-.762,1.971Z" transform="translate(-2581.39 2199.785)" fill="#bf3976" stroke="rgba(0,0,0,0)" stroke-width="1"/><path d="M3723.282,442.007a1.131,1.131,0,0,1-.788-.319l-70.618-68.371a1.133,1.133,0,0,1,1.576-1.627l70.618,68.371a1.133,1.133,0,0,1-.788,1.946Z" transform="translate(-2581.39 2196.599)" fill="#bf3976" stroke="rgba(0,0,0,0)" stroke-width="1"/><path d="M3697.121,464.8a1.127,1.127,0,0,1-.8-.329l-44.457-44.136a1.132,1.132,0,0,1,1.6-1.607l44.457,44.136a1.132,1.132,0,0,1-.8,1.936Z" transform="translate(-2581.39 2196.599)" fill="#bf3976" stroke="rgba(0,0,0,0)" stroke-width="1"/><path d="M3675.615,466.723a1.127,1.127,0,0,1-.808-.34l-22.952-23.432a1.132,1.132,0,0,1,1.618-1.585l22.951,23.432a1.133,1.133,0,0,1-.809,1.925Z" transform="translate(-2581.39 2196.599)" fill="#bf3976" stroke="rgba(0,0,0,0)" stroke-width="1"/><path d="M3725.208,268.352a1.128,1.128,0,0,1-.781-.313l-44.083-42.05a1.132,1.132,0,1,1,1.562-1.638l44.083,42.049a1.132,1.132,0,0,1-.781,1.952Z" transform="translate(-2581.39 2208.185)" fill="#bf3976" stroke="rgba(0,0,0,0)" stroke-width="1"/><path d="M3725.207,239.784a1.121,1.121,0,0,1-.731-.269l-29.532-25.037a1.132,1.132,0,1,1,1.465-1.727l29.531,25.037a1.132,1.132,0,0,1-.733,2Z" transform="translate(-2581.39 2208.185)" fill="#bf3976" stroke="rgba(0,0,0,0)" stroke-width="1"/><path d="M3775.754,453.211a1.167,1.167,0,0,1-.7-.234c-9.7-7.338-3.014-19.037-.829-22.33-6.718-5.622-2.967-21.934-2.158-25.109-5.527-7.315-1.109-17.815-.009-20.152-4.884-11.279.2-21.047,2.118-24.112-7.2-4.966-2.006-21.284-.941-24.378-5.012-8.441.06-22.656,1.246-25.7-4.822-6.723-1.145-19.384-.061-22.689-8.562-6.142-2.9-21.057-1.8-23.723-3.6-10.292-.784-23.726-.048-26.832-6.421-6.005-.074-21.238.206-21.9a1.151,1.151,0,0,1,1.474-.6,1.063,1.063,0,0,1,.626,1.406c-1.785,4.222-5.326,16.024-.337,19.877a1.052,1.052,0,0,1,.386,1.1c-.041.155-4.04,15.74-.031,26.621a1.038,1.038,0,0,1-.024.776c-.073.167-7.219,16.674,1.487,21.932a1.054,1.054,0,0,1,.465,1.264c-.055.154-5.508,15.445-.178,21.938a1.038,1.038,0,0,1,.16,1.064c-.069.164-6.781,16.5-1.374,24.772a1.04,1.04,0,0,1,.108.927c-1.959,5.357-5.65,19.9.705,22.82a1.089,1.089,0,0,1,.6.7,1.04,1.04,0,0,1-.172.894c-.081.109-8,11.01-2.346,23.432a1.039,1.039,0,0,1-.022.906c-.06.116-5.919,11.731-.127,18.752a1.043,1.043,0,0,1,.206.942c-1.488,5.409-4.033,20.248,1.975,23.915a1.076,1.076,0,0,1,.5.712,1.038,1.038,0,0,1-.2.836c-.394.512-9.29,12.283-.978,19.618l69.878-67.54a1.171,1.171,0,0,1,1.6-.01,1.045,1.045,0,0,1,.011,1.527l-70.618,68.256A1.16,1.16,0,0,1,3775.754,453.211Z" transform="translate(-2581.39 2208.185)" fill="#bf3976" stroke="rgba(0,0,0,0)" stroke-width="1"/><path d="M3845.088,453.211a1.158,1.158,0,0,1-.759-.278,1.045,1.045,0,0,1-.082-1.525c8-8.455,1.232-19.108,1.163-19.215a1.04,1.04,0,0,1,.046-1.2c7.12-9.335.284-18.851-.01-19.251a1.039,1.039,0,0,1-.022-1.211c9.68-14.135.46-25.5.062-25.977a1.043,1.043,0,0,1,0-1.347c5.862-6.988-.046-17.369-.106-17.473a1.036,1.036,0,0,1,0-1.042c6.971-12.137.125-22.04.056-22.139a1.041,1.041,0,0,1-.122-.99c7.281-18.223.358-24.778.287-24.843a1.054,1.054,0,0,1-.211-1.325c4.826-8.054-.046-22.86-.095-23.009a1.029,1.029,0,0,1,.012-.692c4.617-12.328.044-25.17,0-25.3a1.036,1.036,0,0,1,.03-.785c3.968-8.73-.017-23.636-.057-23.785a1.037,1.037,0,0,1,.079-.747c5.915-11.515,2.49-19.881.831-22.837l-67.245,69.649a1.171,1.171,0,0,1-1.6.062,1.045,1.045,0,0,1-.067-1.526l68.264-70.7a1.133,1.133,0,0,1,.9-.346,1.149,1.149,0,0,1,.85.442c.328.431,7.9,10.644.282,25.852.632,2.487,3.7,15.706.01,24.414.778,2.343,4.271,14.146-.016,25.993.743,2.36,4.519,15.4.176,23.7,1.756,2.129,6.271,9.694-.111,26.051,1.386,2.245,6.4,11.763.023,23.388,1.207,2.318,5.409,11.534.12,18.684,1.98,2.842,8.552,14.046-.06,27.225,1.517,2.439,6.353,11.592-.007,20.571,1.434,2.617,6.15,12.789-1.776,21.162A1.157,1.157,0,0,1,3845.088,453.211Z" transform="translate(-2581.39 2208.185)" fill="#bf3976" stroke="rgba(0,0,0,0)" stroke-width="1"/><path d="M3775.754,316.821a1.133,1.133,0,0,1-.814-1.921l70.619-72.864a1.133,1.133,0,0,1,1.627,1.576l-70.619,72.865A1.128,1.128,0,0,1,3775.754,316.821Z" transform="translate(-2581.39 2208.185)" fill="#bf3976" stroke="rgba(0,0,0,0)" stroke-width="1"/><path d="M3774.471,343.817a1.133,1.133,0,0,1-.814-1.92l71.9-74.182a1.133,1.133,0,0,1,1.627,1.577l-71.9,74.181A1.128,1.128,0,0,1,3774.471,343.817Z" transform="translate(-2581.39 2204.607)" fill="#bf3976" stroke="rgba(0,0,0,0)" stroke-width="1"/><path d="M3775.754,369.142a1.132,1.132,0,0,1-.81-1.924L3845.563,295a1.132,1.132,0,1,1,1.619,1.583L3776.563,368.8A1.126,1.126,0,0,1,3775.754,369.142Z" transform="translate(-2581.39 2202.888)" fill="#bf3976" stroke="rgba(0,0,0,0)" stroke-width="1"/><path d="M3774.471,394.661a1.133,1.133,0,0,1-.8-1.929l71.9-72.7a1.132,1.132,0,0,1,1.61,1.593l-71.9,72.7A1.127,1.127,0,0,1,3774.471,394.661Z" transform="translate(-2581.39 2201.256)" fill="#bf3976" stroke="rgba(0,0,0,0)" stroke-width="1"/><path d="M3773.293,415.686a1.133,1.133,0,0,1-.762-1.971l73.079-66.444a1.132,1.132,0,0,1,1.524,1.675l-73.079,66.445A1.131,1.131,0,0,1,3773.293,415.686Z" transform="translate(-2581.39 2199.785)" fill="#bf3976" stroke="rgba(0,0,0,0)" stroke-width="1"/><path d="M3775.754,442.007a1.132,1.132,0,0,1-.788-1.946l70.618-68.371a1.133,1.133,0,1,1,1.576,1.627l-70.618,68.371A1.131,1.131,0,0,1,3775.754,442.007Z" transform="translate(-2581.39 2196.599)" fill="#bf3976" stroke="rgba(0,0,0,0)" stroke-width="1"/><path d="M3801.915,464.8a1.133,1.133,0,0,1-.8-1.936l44.457-44.136a1.132,1.132,0,1,1,1.6,1.607l-44.457,44.136A1.127,1.127,0,0,1,3801.915,464.8Z" transform="translate(-2581.39 2196.599)" fill="#bf3976" stroke="rgba(0,0,0,0)" stroke-width="1"/><path d="M3823.421,466.723a1.133,1.133,0,0,1-.809-1.925l22.951-23.432a1.132,1.132,0,1,1,1.618,1.585l-22.952,23.432A1.126,1.126,0,0,1,3823.421,466.723Z" transform="translate(-2581.39 2196.599)" fill="#bf3976" stroke="rgba(0,0,0,0)" stroke-width="1"/><path d="M3773.828,268.352a1.132,1.132,0,0,1-.781-1.952l54.676-52.154a1.132,1.132,0,1,1,1.562,1.638l-54.676,52.155A1.125,1.125,0,0,1,3773.828,268.352Z" transform="translate(-2581.39 2208.185)" fill="#bf3976" stroke="rgba(0,0,0,0)" stroke-width="1"/><path d="M3773.829,239.784a1.133,1.133,0,0,1-.733-2l29.531-25.037a1.132,1.132,0,0,1,1.465,1.727l-29.531,25.037A1.132,1.132,0,0,1,3773.829,239.784Z" transform="translate(-2581.39 2208.185)" fill="#bf3976" stroke="rgba(0,0,0,0)" stroke-width="1"/></g></svg>